#N canvas 360 225 825 618 10;
#N canvas 146 481 450 300 fm_core 0;
#N canvas 0 22 936 650 fm_core 0;
#X obj 38 208 +~;
#X obj 53 145 osc~;
#X obj 94 286 outlet~;
#X obj 37 32 inlet;
#X obj 161 35 inlet;
#X obj 38 240 osc~;
#X text 87 143 modulator;
#X text 76 239 carrier;
#X obj 53 177 *~;
#X obj 108 84 *;
#X obj 193 135 *~;
#X obj 289 34 inlet~;
#X obj 366 303 +~;
#X obj 366 377 outlet~;
#X obj 365 127 inlet;
#X obj 489 91 inlet;
#X obj 366 335 osc~;
#X text 404 334 carrier;
#X obj 381 272 *~;
#X text 484 71 harmonicity ratio;
#X text 612 111 modulation index;
#X obj 521 230 *~;
#X obj 617 129 inlet~;
#X obj 825 257 +~;
#X obj 825 331 outlet~;
#X obj 824 81 inlet;
#X obj 825 289 osc~;
#X text 863 288 carrier;
#X obj 840 226 *~;
#X obj 20 286 outlet~;
#X text 344 110 carrier2 freq;
#X text 16 15 carrier1 freq;
#X text 156 15 harmonicity1 ratio;
#X text 284 16 modulation1 index;
#X obj 452 178 *~;
#X obj 182 184 s mod1;
#X obj 470 135 sig~;
#X obj 915 328 s~ fb;
#X obj 509 280 s~ mod2;
#X obj 861 180 r~ fb;
#X text 803 64 carrierf freq;
#X connect 0 0 5 0;
#X connect 1 0 8 0;
#X connect 1 0 29 0;
#X connect 1 0 34 0;
#X connect 3 0 0 0;
#X connect 3 0 9 0;
#X connect 4 0 9 1;
#X connect 5 0 2 0;
#X connect 8 0 0 1;
#X connect 9 0 1 0;
#X connect 9 0 10 0;
#X connect 9 0 35 0;
#X connect 10 0 8 1;
#X connect 11 0 10 1;
#X connect 12 0 16 0;
#X connect 14 0 12 0;
#X connect 15 0 36 0;
#X connect 16 0 13 0;
#X connect 18 0 12 1;
#X connect 21 0 18 1;
#X connect 22 0 21 1;
#X connect 23 0 26 0;
#X connect 25 0 23 0;
#X connect 26 0 24 0;
#X connect 26 0 37 0;
#X connect 28 0 23 1;
#X connect 34 0 21 0;
#X connect 34 0 38 0;
#X connect 34 0 18 0;
#X connect 36 0 34 1;
#X connect 39 0 28 0;
#X restore 263 384 pd fm_core;
#X obj 38 208 +~;
#X obj 53 145 osc~;
#X obj 38 282 outlet~;
#X obj 37 32 inlet;
#X obj 161 35 inlet;
#X obj 38 240 osc~;
#X text 16 15 carrier freq;
#X text 87 143 modulator;
#X text 76 239 carrier;
#X obj 53 177 *~;
#X text 156 15 harmonicity ratio;
#X text 284 16 modulation index;
#X obj 108 84 *;
#X obj 193 135 *~;
#X obj 289 34 inlet~;
#X connect 1 0 6 0;
#X connect 2 0 10 0;
#X connect 4 0 1 0;
#X connect 4 0 13 0;
#X connect 5 0 13 1;
#X connect 6 0 3 0;
#X connect 10 0 1 1;
#X connect 13 0 2 0;
#X connect 13 0 14 0;
#X connect 14 0 10 1;
#X connect 15 0 14 1;
#X restore -137 402 pd fm_core;
#X obj -189 475 outlet~;
#X obj -189 443 *~;
#X obj -208 18 inlet;
#X obj -133 17 inlet;
#X obj -137 376 mtof;
#X obj -189 46 t b b;
#X obj 177 73 gadsr~;
#X floatatom -102 366 5 0 0 0 - - -;
#X obj -102 320 loadbang;
#X msg -102 342 1;
#X obj 3 323 *~ 2;
#X obj 96 302 hsl 128 15 0.1 10 0 0 empty empty empty -2 -8 0 10 -262144
-1 -1 0 1;
#X floatatom 114 357 5 0 0 0 - - -;
#X obj -99 276 hsl 128 15 0.1 10 0 0 empty empty empty -2 -8 0 10 -262144
-1 -1 0 1;
#X obj -189 74 gadsr~;
#X obj 168 27 inlet;
#X obj 168 49 * 10;
#X connect 0 0 2 1;
#X connect 2 0 1 0;
#X connect 3 0 6 0;
#X connect 4 0 5 0;
#X connect 5 0 0 0;
#X connect 6 0 15 0;
#X connect 6 1 7 0;
#X connect 7 0 11 0;
#X connect 8 0 0 1;
#X connect 9 0 10 0;
#X connect 10 0 8 0;
#X connect 11 0 0 2;
#X connect 12 0 11 1;
#X connect 12 0 13 0;
#X connect 14 0 8 0;
#X connect 15 0 2 0;
#X connect 16 0 17 0;
#X connect 17 0 15 5;
#X connect 17 0 7 5;
