#N canvas 573 37 825 618 10;
#N canvas 146 481 450 300 fm_core 0;
#X obj 38 208 +~;
#X obj 53 145 osc~;
#X obj 38 282 outlet~;
#X obj 37 32 inlet;
#X obj 161 35 inlet;
#X obj 38 240 osc~;
#X text 16 15 carrier freq;
#X text 87 143 modulator;
#X text 76 239 carrier;
#X obj 53 177 *~;
#X text 156 15 harmonicity ratio;
#X text 284 16 modulation index;
#X obj 108 84 *;
#X obj 193 135 *~;
#X obj 289 34 inlet~;
#X connect 0 0 5 0;
#X connect 1 0 9 0;
#X connect 3 0 0 0;
#X connect 3 0 12 0;
#X connect 4 0 12 1;
#X connect 5 0 2 0;
#X connect 9 0 0 1;
#X connect 12 0 1 0;
#X connect 12 0 13 0;
#X connect 13 0 9 1;
#X connect 14 0 13 1;
#X restore 47 642 pd fm_core;
#X obj -5 715 outlet~;
#X obj -5 683 *~;
#X obj -189 14 inlet;
#X obj 47 258 inlet;
#X obj 47 616 mtof;
#X floatatom 82 606 5 0 0 0 - - -;
#X obj 82 560 loadbang;
#X msg 82 582 1;
#X obj 250 560 *~ 2;
#X obj 301 528 hsl 128 15 0.1 10 0 0 empty empty empty -2 -8 0 10 -262144
-1 -1 372 1;
#X floatatom 298 597 5 0 0 0 - - -;
#X obj -5 361 adsr 1 100 200 50 300;
#X obj 249 363 adsr 1 100 200 50 300;
#X msg -189 40 bang;
#X text -145 41 <-- attack and delayed release;
#X obj -128 64 del 500;
#X obj 82 258 inlet;
#X obj 199 252 inlet;
#X obj 236 252 inlet;
#X obj 273 252 inlet;
#X obj 310 252 inlet;
#X obj 558 250 inlet;
#X text 559 234 mod amount;
#X text 44 239 note;
#X text 80 239 harm. ratio;
#X obj 364 252 inlet;
#X obj 401 252 inlet;
#X obj 438 252 inlet;
#X obj 475 252 inlet;
#X text 202 230 adsr for amp;
#X text 373 236 adsr for index of modulation;
#X obj -25 286 r \$0-trigger;
#X obj -82 112 s \$0-trigger;
#X msg -84 89 1;
#X msg -178 89 0;
#X connect 0 0 2 1;
#X connect 2 0 1 0;
#X connect 3 0 14 0;
#X connect 4 0 5 0;
#X connect 5 0 0 0;
#X connect 6 0 0 1;
#X connect 7 0 8 0;
#X connect 8 0 6 0;
#X connect 9 0 0 2;
#X connect 10 0 9 1;
#X connect 10 0 11 0;
#X connect 12 0 2 0;
#X connect 13 0 9 0;
#X connect 14 0 16 0;
#X connect 14 0 34 0;
#X connect 16 0 35 0;
#X connect 17 0 6 0;
#X connect 18 0 12 2;
#X connect 19 0 12 3;
#X connect 20 0 12 4;
#X connect 21 0 12 5;
#X connect 22 0 10 0;
#X connect 26 0 13 2;
#X connect 27 0 13 3;
#X connect 28 0 13 4;
#X connect 29 0 13 5;
#X connect 32 0 12 0;
#X connect 32 0 13 0;
#X connect 34 0 33 0;
#X connect 35 0 33 0;
