#N canvas 492 262 513 397 10;
#X obj 87 116 vsl 15 128 15 750 1 0 empty empty A 0 -9 0 10 -257985
-1 -1 0 1;
#X obj 105 116 vsl 15 128 7 700 1 0 empty empty D 0 -9 0 10 -257985
-1 -1 9245 1;
#X obj 123 116 vsl 15 128 0 100 0 0 empty empty S 0 -9 0 10 -257985
-1 -1 6350 1;
#X obj 141 115 vsl 15 128 0 1500 0 0 empty empty R 0 -9 0 10 -257985
-1 -1 2540 1;
#X obj 24 116 nbx 5 14 -1e+37 1e+37 0 0 empty empty Duration 0 -8 0
10 -257985 -1 -1 500 256;
#X obj -25 116 inlet;
#X obj 14 349 outlet~;
#N canvas 257 143 1012 504 (subpatch) 0;
#X array \$0_envelope 44099 float 0;
#X coords 0 1.02 44099 0 200 130 1;
#X restore 165 115 graph;
#N canvas 793 56 959 627 adsr1 0;
#X obj -304 223 adsr 1 100 200 50 300;
#X obj -273 96 del 500;
#X obj -306 25 inlet;
#X text -305 4 trigger;
#X obj -220 25 inlet;
#X text -215 4 length;
#X obj -94 50 inlet;
#X obj -45 50 inlet;
#X obj -2 49 inlet;
#X obj -146 52 inlet;
#X obj -303 414 outlet~;
#X msg -273 121 0;
#X msg -304 121 1;
#X obj -118 586 tabwrite~ \$0_envelope;
#X obj -39 496 adsr 1 100 200 50 300;
#X obj 83 299 t b f;
#X obj 46 273 t b f;
#X obj 22 248 t b f;
#X obj -11 222 t b f;
#X obj -64 414 del 500;
#X msg -64 439 0;
#X msg -93 439 1;
#X obj -52 197 t b f;
#X obj -157 350 t b b b b;
#X msg -88 379 -1;
#X obj -239 303 spigot 1;
#X obj -241 246 t b b;
#X msg -194 280 0;
#X connect 0 0 10 0;
#X connect 1 0 11 0;
#X connect 2 0 1 0;
#X connect 2 0 12 0;
#X connect 4 0 1 1;
#X connect 4 0 22 0;
#X connect 6 0 0 3;
#X connect 6 0 17 0;
#X connect 7 0 0 4;
#X connect 7 0 16 0;
#X connect 8 0 0 5;
#X connect 8 0 15 0;
#X connect 9 0 0 2;
#X connect 9 0 18 0;
#X connect 11 0 0 0;
#X connect 12 0 0 0;
#X connect 12 0 26 0;
#X connect 14 0 13 0;
#X connect 15 0 23 0;
#X connect 15 1 14 5;
#X connect 16 0 23 0;
#X connect 16 1 14 4;
#X connect 17 0 23 0;
#X connect 17 1 14 3;
#X connect 18 0 23 0;
#X connect 18 1 14 2;
#X connect 19 0 20 0;
#X connect 20 0 14 0;
#X connect 21 0 14 0;
#X connect 22 0 23 0;
#X connect 22 1 19 1;
#X connect 23 0 19 0;
#X connect 23 1 21 0;
#X connect 23 2 13 0;
#X connect 23 3 24 0;
#X connect 24 0 14 0;
#X connect 25 0 23 0;
#X connect 26 0 27 0;
#X connect 26 1 25 0;
#X connect 27 0 25 1;
#X restore 15 320 pd adsr1;
#X obj 68 -3 loadbang;
#X obj 102 57 unpack f f f f f;
#X obj 419 20 inlet;
#X obj 173 322 outlet;
#X obj 235 24 inlet;
#X obj 282 18 inlet;
#X obj 329 19 inlet;
#X obj 379 17 inlet;
#X msg 101 22 500 10 200 50 300;
#X connect 0 0 8 2;
#X connect 1 0 8 3;
#X connect 2 0 8 4;
#X connect 3 0 8 5;
#X connect 4 0 8 1;
#X connect 4 0 12 0;
#X connect 5 0 8 0;
#X connect 8 0 6 0;
#X connect 9 0 17 0;
#X connect 10 0 4 0;
#X connect 10 1 0 0;
#X connect 10 2 1 0;
#X connect 10 3 2 0;
#X connect 10 4 3 0;
#X connect 11 0 4 0;
#X connect 13 0 0 0;
#X connect 14 0 1 0;
#X connect 15 0 2 0;
#X connect 16 0 3 0;
#X connect 17 0 10 0;
#X coords 0 -1 1 1 350 150 2 20 100;
