#N canvas 599 171 652 509 10;
#X floatatom 32 33 5 0 0 0 - - -;
#X obj 107 156 f;
#X obj 140 156 + 1;
#X obj 107 75 tgl 15 0 empty empty empty 17 7 0 10 -262144 -1 -1 1
1;
#X obj 32 179 * 0.01;
#X obj 178 214 until;
#X msg 178 189 50;
#X obj 205 336 f;
#X obj 190 363 +;
#X obj 178 263 f;
#X obj 209 264 + 1;
#X msg 197 239 0;
#X obj 178 313 t f b;
#X obj 190 386 / 50;
#X obj 178 157 t b b b;
#X msg 217 313 0;
#X floatatom 190 412 5 0 0 0 - - -;
#X obj 107 181 % 51;
#X obj 32 207 tabwrite mean;
#X obj 278 34 table mean 50;
#X obj 178 287 tabread mean;
#X obj 107 104 metro 100;
#X text 127 74 1 Turn on the [metro];
#X text 236 412 4 Look at the mean value;
#X text 370 34 2 Look inside the table;
#X text 68 33 3 Play around with the values;
#X connect 0 0 4 0;
#X connect 1 0 2 0;
#X connect 1 0 17 0;
#X connect 2 0 1 1;
#X connect 3 0 21 0;
#X connect 4 0 18 0;
#X connect 5 0 9 0;
#X connect 6 0 5 0;
#X connect 7 0 8 1;
#X connect 8 0 7 1;
#X connect 8 0 13 0;
#X connect 9 0 10 0;
#X connect 9 0 20 0;
#X connect 10 0 9 1;
#X connect 11 0 9 1;
#X connect 12 0 8 0;
#X connect 12 1 7 0;
#X connect 13 0 16 0;
#X connect 14 0 6 0;
#X connect 14 1 11 0;
#X connect 14 2 15 0;
#X connect 15 0 7 1;
#X connect 17 0 18 1;
#X connect 20 0 12 0;
#X connect 21 0 1 0;
#X connect 21 0 14 0;
