#N canvas 932 179 922 562 10;
#X obj 355 173 multiosc~;
#X floatatom 271 67 5 0 0 0 - - -;
#X obj 435 47 hsl 128 15 -1 1 0 0 empty empty pulse_width -2 -8 0 10
-257985 -1 -1 4350 1;
#X obj 274 46 hsl 128 15 20 10000 1 0 empty empty frequency -2 -8 0
10 -257985 -1 -1 4700 1;
#N canvas 2106 472 1055 420 choose_osc 0;
#X obj 332 97 route 0 1 2 3;
#X obj 174 233 *~ 0;
#X obj 204 233 *~ 0;
#X obj 234 233 *~ 0;
#X msg 303 97 0;
#X obj 80 96 inlet~;
#X obj 122 96 inlet~;
#X obj 165 96 inlet~;
#X obj 208 96 inlet~;
#X obj 271 289 outlet~;
#X obj 150 286 outlet~;
#X obj 101 286 outlet~;
#X obj 52 286 outlet~;
#X obj 3 286 outlet~;
#X obj -11 -35 inlet;
#X obj 264 233 *~ 0;
#X obj 292 62 t a b;
#X msg 292 37 \$1 1;
#X msg 292 5 0;
#X obj 292 -19 loadbang;
#X msg 365 230 color \$1 0;
#X obj 365 253 s \$0-sin_cnv;
#X msg 444 230 color \$1 0;
#X msg 522 230 color \$1 0;
#X msg 601 230 color \$1 0;
#X obj 444 253 s \$0-pls_cnv;
#X obj 522 253 s \$0-tri_cnv;
#X obj 601 253 s \$0-saw_cnv;
#X obj 365 208 * 17;
#X obj 444 208 * 17;
#X obj 522 208 * 17;
#X obj 601 208 * 17;
#X connect 0 0 1 1;
#X connect 0 0 28 0;
#X connect 0 1 2 1;
#X connect 0 1 29 0;
#X connect 0 2 3 1;
#X connect 0 2 30 0;
#X connect 0 3 15 1;
#X connect 0 3 31 0;
#X connect 1 0 9 0;
#X connect 2 0 9 0;
#X connect 3 0 9 0;
#X connect 4 0 1 1;
#X connect 4 0 2 1;
#X connect 4 0 3 1;
#X connect 4 0 15 1;
#X connect 4 0 20 0;
#X connect 4 0 23 0;
#X connect 4 0 22 0;
#X connect 4 0 24 0;
#X connect 5 0 1 0;
#X connect 5 0 13 0;
#X connect 6 0 2 0;
#X connect 6 0 12 0;
#X connect 7 0 3 0;
#X connect 7 0 11 0;
#X connect 8 0 10 0;
#X connect 8 0 15 0;
#X connect 14 0 17 0;
#X connect 15 0 9 0;
#X connect 16 0 0 0;
#X connect 16 1 4 0;
#X connect 17 0 16 0;
#X connect 18 0 17 0;
#X connect 19 0 18 0;
#X connect 20 0 21 0;
#X connect 22 0 25 0;
#X connect 23 0 26 0;
#X connect 24 0 27 0;
#X connect 28 0 20 0;
#X connect 29 0 22 0;
#X connect 30 0 23 0;
#X connect 31 0 24 0;
#X restore 336 197 pd choose_osc;
#X obj 196 156 hradio 15 1 0 4 empty empty select_audible_output 0
-8 0 10 -257985 -1 -1 0;
#X msg 405 9 0;
#X obj 405 -12 loadbang;
#X obj 247 -11 loadbang;
#X msg 247 9 40;
#X obj 4 389 cnv 15 202 142 empty \$0-sin_cnv empty 20 12 0 14 -44926
-262144 0;
#X obj 210 389 cnv 15 202 142 empty \$0-pls_cnv empty 20 12 0 14 -262144
-262144 0;
#X obj 416 389 cnv 15 202 142 empty \$0-tri_cnv empty 20 12 0 14 -262144
-262144 0;
#X obj 622 389 cnv 15 202 142 empty \$0-saw_cnv empty 20 12 0 14 -262144
-262144 0;
#X obj 4 388 scope;
#X obj 209 388 scope;
#X obj 415 388 scope;
#X obj 622 388 scope;
#X text 85 358 sin;
#X text 283 358 pulse;
#X text 477 359 triangle;
#X text 702 358 saw;
#X obj 165 98 loadbang;
#X msg 165 120 0;
#X text 674 -8 multi output oscillator;
#X obj 432 75 sig~;
#X text 676 47 inputs:;
#X text 676 63 1) frequency [control or audio rate];
#X text 678 157 3) triangle;
#X text 678 172 4) saw;
#X text 678 142 2) pulse;
#X text 677 127 1) sine;
#X text 675 112 outputs [-1..1]:;
#X text 676 90 3) pulse width [-1..1 audio rate];
#X text 676 77 2) phase [0..1 control rate];
#X text 467 73 pulse width [only for pulse];
#X text 673 10 outputs 4 classical waveforms \, in phase.;
#X text 674 23 not band limited;
#X obj 526 244 output~;
#X connect 0 0 4 1;
#X connect 0 1 4 2;
#X connect 0 2 4 3;
#X connect 0 3 4 4;
#X connect 1 0 0 0;
#X connect 2 0 25 0;
#X connect 3 0 1 0;
#X connect 4 0 14 0;
#X connect 4 1 15 0;
#X connect 4 2 16 0;
#X connect 4 3 17 0;
#X connect 4 4 38 0;
#X connect 4 4 38 1;
#X connect 5 0 4 0;
#X connect 6 0 2 0;
#X connect 7 0 6 0;
#X connect 8 0 9 0;
#X connect 9 0 3 0;
#X connect 22 0 23 0;
#X connect 23 0 5 0;
#X connect 25 0 0 2;
