#N canvas 805 127 872 855 10;
#X obj 33 252 cos~;
#X obj 340 133 *~ -1;
#X obj 341 163 +~ 1;
#X obj 320 197 min~;
#X obj 320 220 -~ 0.25;
#X obj 321 248 *~ 4;
#X obj 382 198 +~ -0.5;
#X obj 230 47 inlet;
#X obj 383 228 *~ 2;
#X obj 168 47 inlet~;
#X obj 167 85 phasor~ 440;
#X obj 30 408 outlet~;
#X text 35 387 sin;
#X text 139 444 pulse;
#X text 459 286 saw;
#X obj 444 305 outlet~;
#X obj 321 304 outlet~;
#X obj 125 463 outlet~;
#X text 285 22 pwm;
#X obj 284 46 inlet~;
#X text 152 25 freq;
#X text 230 27 phase;
#X obj 127 339 clip~ 0 1e-06;
#X obj 127 360 *~ 1e+06;
#X obj 127 317 -~;
#X text 328 284 triangle;
#X obj 126 384 *~ 2;
#X obj 126 406 -~ 1;
#X obj 161 215 clip~ -1 1;
#X obj 161 238 *~ 0.5;
#X obj 160 259 +~ 0.5;
#X connect 0 0 11 0;
#X connect 1 0 2 0;
#X connect 2 0 3 1;
#X connect 3 0 4 0;
#X connect 4 0 5 0;
#X connect 5 0 16 0;
#X connect 6 0 8 0;
#X connect 7 0 10 1;
#X connect 8 0 15 0;
#X connect 9 0 10 0;
#X connect 10 0 1 0;
#X connect 10 0 3 0;
#X connect 10 0 6 0;
#X connect 10 0 0 0;
#X connect 10 0 24 0;
#X connect 19 0 28 0;
#X connect 22 0 23 0;
#X connect 23 0 26 0;
#X connect 24 0 22 0;
#X connect 26 0 27 0;
#X connect 27 0 17 0;
#X connect 28 0 29 0;
#X connect 29 0 30 0;
#X connect 30 0 24 1;
