#N canvas 369 222 793 678 10;
#X obj 109 120 vu 15 120 empty empty -1 -8 0 10 -66577 -262144 1 0
;
#X obj 139 120 vu 15 120 empty empty -1 -8 0 10 -66577 -1 1 0;
#X obj 99 55 env~;
#X obj 147 55 env~;
#X obj 99 77 - 100;
#X obj 147 77 - 100;
#X obj 197 469 t b;
#X obj 197 416 f;
#X obj 197 494 f;
#X msg 311 493 0;
#X obj 197 446 moses 1;
#X obj 311 465 t b f;
#X obj 277 426 moses 1;
#X obj 64 -121 dbtorms;
#X obj 114 -48 inlet~;
#X msg 103 341 \; pd dsp 1;
#X obj 64 -48 line~;
#X obj 99 24 *~;
#X obj 137 397 dac~;
#X obj 64 -91 pack 0 50;
#X text 156 -72 audio in;
#X text -18 443 test if less than 1 -->;
#X text -52 470 if true convert to bang -->;
#X text 135 -122 <-- convert from dB to linear units;
#X obj 148 276 bng 15 250 50 0 empty empty mute -38 7 0 12 -258113
-1 -1;
#X text 153 -92 <-- make a ramp to avoid clicks or zipper noise;
#X obj 177 -48 inlet~;
#X obj 162 23 *~;
#X text 217 357 MUTE logic:;
#X obj -14 199 r \$0-master-lvl;
#X obj 197 520 s \$0-master-lvl;
#X obj 127 310 s \$0-master-out;
#X obj 64 -143 r \$0-master-out;
#X obj 277 397 r \$0-master-out;
#X text -90 496 previous nonzero master-lvl -->;
#X text -18 400 recall previous;
#X text -18 418 value of master-lvl -->;
#X text -69 350 automatically start DSP -->;
#X obj 114 -19 hip~ 3;
#X obj 177 -19 hip~ 3;
#X obj 124 253 nbx 3 14 0 100 0 0 empty empty DB -15 8 0 12 -257985
-1 -1 100 256;
#X obj 233 54 limiter~;
#X obj 188 54 z~ 64;
#X obj -11 55 limiter~;
#X obj 51 55 z~ 64;
#X obj 218 109 *~;
#X obj 36 112 *~;
#X obj 388 131 inlet;
#X connect 2 0 4 0;
#X connect 3 0 5 0;
#X connect 4 0 0 0;
#X connect 5 0 1 0;
#X connect 6 0 8 0;
#X connect 7 0 10 0;
#X connect 8 0 30 0;
#X connect 9 0 30 0;
#X connect 10 0 6 0;
#X connect 10 1 11 0;
#X connect 11 0 9 0;
#X connect 12 1 8 1;
#X connect 13 0 19 0;
#X connect 14 0 38 0;
#X connect 16 0 27 0;
#X connect 16 0 17 0;
#X connect 17 0 2 0;
#X connect 17 0 43 0;
#X connect 17 0 44 0;
#X connect 19 0 16 0;
#X connect 24 0 7 0;
#X connect 26 0 39 0;
#X connect 27 0 3 0;
#X connect 27 0 41 0;
#X connect 27 0 42 0;
#X connect 29 0 40 0;
#X connect 32 0 13 0;
#X connect 33 0 7 1;
#X connect 33 0 12 0;
#X connect 38 0 17 1;
#X connect 39 0 27 1;
#X connect 40 0 31 0;
#X connect 40 0 15 0;
#X connect 41 0 45 1;
#X connect 42 0 45 0;
#X connect 43 0 46 0;
#X connect 44 0 46 1;
#X connect 45 0 18 1;
#X connect 46 0 18 0;
#X connect 47 0 40 0;
#X coords 0 -1 1 1 85 195 1 100 100;
