#N canvas 214 22 1421 832 10;
#X obj -66 396 OSCroute /acc0;
#X obj -66 422 unpack f f f;
#X obj -66 372 dumpOSC 7110;
#X obj 433 769 freeverb~;
#X msg 435 612 wet \$1;
#X msg 436 683 dry \$1;
#X msg 435 746 roomsize \$1;
#X obj 438 716 hsl 36 24 0 1 0 0 empty empty empty -2 -8 0 10 -260097
-1 -1 1050 1;
#X obj 438 575 hsl 36 24 0 1 0 0 empty empty empty -2 -8 0 10 -260097
-1 -1 1050 1;
#X obj 439 647 hsl 36 24 0 1 0 0 empty empty empty -2 -8 0 10 -260097
-1 -1 2800 1;
#X obj 355 746 catch~ dryL;
#X obj 519 745 catch~ dryR;
#X obj 433 805 throw~ wetL;
#X obj 484 805 throw~ wetR;
#X obj 68 521 catch~ wetL;
#X obj 126 521 catch~ wetR;
#X obj 260 586 vu 15 120 empty empty -1 -8 0 10 -66577 -1 1 0;
#X obj 259 538 env~;
#X obj 334 586 vu 15 120 empty empty -1 -8 0 10 -66577 -1 1 0;
#X obj 333 538 env~;
#X obj 483 512 loadbang;
#X obj 483 557 unpack f f f;
#X msg 483 534 0.3 0.8 0.3;
#X obj 68 613 output~;
#X obj -66 450 s x;
#X obj 72 119 float;
#X obj 132 118 + 1;
#X obj 48 93 t b b;
#X obj 72 144 mod 4;
#X obj 441 121 float;
#X obj 501 120 + 1;
#X obj 440 170 select 0 1 2 3 4;
#X obj 417 95 t b b;
#N canvas 202 167 1141 733 pad_1 0;
#X obj 535 24 hsl 128 15 0 127 0 1 empty empty empty -2 -6 0 8 -262144
-1 -1 6900 1;
#N canvas 0 22 450 300 (subpatch) 0;
#X array pad_1 1000 float 0;
#X coords 0 2 999 -1 200 100 1;
#X restore 657 521 graph;
#X obj 522 516 tgl 15 1 empty empty empty 0 -6 0 10 -262144 -1 -1 1
1;
#X text 635 608 -1;
#X text 641 563 0;
#X text 543 514 Graph output;
#X obj 522 539 metro 100;
#X obj 952 25 mtof;
#X obj 955 0 hsl 128 15 0 127 0 1 empty empty empty -2 -6 0 8 -262144
-1 -1 6700 1;
#X obj 726 -7 hsl 128 15 0 127 0 1 empty empty empty -2 -6 0 8 -262144
-1 -1 6200 1;
#X obj 717 159 expr~ $v1 > 0.5;
#X obj 994 138 expr~ $v1 > 0.5;
#X obj 722 123 spigot~;
#X obj 797 117 tgl 15 0 empty empty empty 17 7 0 10 -262144 -1 -1 0
127;
#X obj 1068 91 tgl 15 0 empty empty empty 17 7 0 10 -262144 -1 -1 0
1;
#X obj 955 104 spigot~;
#X text 641 517 2;
#X obj 555 231 noise~;
#X obj 533 84 mtof;
#X obj 723 19 mtof;
#X obj 427 603 outlet~;
#X text 472 604 comment;
#X floatatom 1009 39 5 0 0 0 - - -;
#X obj 951 175 *~ 0.9;
#X obj 956 80 phasor~ 391;
#X obj 971 287 mtof;
#X obj 364 257 *~;
#X obj 702 190 *~ 1;
#X obj 533 149 *~ 1;
#X obj 722 93 phasor~ 103.8;
#X obj 533 108 osc~ 679.7;
#X obj 970 318 sig~;
#X obj 556 289 *~ 0.05;
#X floatatom 603 82 5 0 0 0 - - -;
#X floatatom 798 64 5 0 0 0 - - -;
#X obj 511 -3 inlet;
#X obj 699 -41 inlet;
#X obj 911 -25 inlet;
#X obj 973 259 + 80;
#X obj 111 49 gadsr~;
#X obj 80 -11 bng 15 250 50 0 empty empty empty 17 7 0 10 -262144 -1
-1;
#X obj 448 230 s \$0_dur;
#X obj 152 1 inlet;
#X obj 451 16 inlet;
#X obj 758 232 hsl 128 15 0 127 0 0 empty empty empty -2 -8 0 10 -262144
-1 -1 6600 1;
#X obj 755 288 sig~;
#X obj 746 358 vcf~ 1;
#X obj 755 263 mtof;
#X obj 1007 198 r x;
#X obj 953 353 lop~ 15;
#X obj 770 187 loadbang;
#X msg 770 208 66;
#X obj 469 569 tabwrite~ pad_1;
#X obj 843 109 sel 0;
#X obj 843 86 ctlin 59;
#X obj 833 197 ctlin 18;
#X obj 158 -37 ctlin 9;
#X obj 210 -37 ctlin 17;
#X obj 270 -37 ctlin 25;
#X obj 329 -37 ctlin 33;
#X obj 734 42 t b f;
#X obj 732 66 + 1.07;
#X obj 904 43 t b f;
#X obj 902 67 + 0.6;
#X connect 0 0 18 0;
#X connect 0 0 33 0;
#X connect 2 0 6 0;
#X connect 6 0 52 0;
#X connect 7 0 62 0;
#X connect 8 0 7 0;
#X connect 8 0 22 0;
#X connect 9 0 19 0;
#X connect 9 0 34 0;
#X connect 10 0 27 0;
#X connect 11 0 23 0;
#X connect 12 0 27 0;
#X connect 12 1 10 0;
#X connect 13 0 12 1;
#X connect 14 0 15 1;
#X connect 15 0 23 0;
#X connect 15 1 11 0;
#X connect 17 0 32 0;
#X connect 18 0 30 0;
#X connect 19 0 60 0;
#X connect 23 0 46 0;
#X connect 24 0 15 0;
#X connect 25 0 31 0;
#X connect 26 0 20 0;
#X connect 26 0 52 0;
#X connect 27 0 46 0;
#X connect 28 0 46 0;
#X connect 29 0 12 0;
#X connect 30 0 28 0;
#X connect 31 0 49 0;
#X connect 32 0 46 0;
#X connect 35 0 18 0;
#X connect 36 0 19 0;
#X connect 37 0 7 0;
#X connect 38 0 25 0;
#X connect 39 0 26 0;
#X connect 39 1 41 0;
#X connect 40 0 39 0;
#X connect 42 0 39 0;
#X connect 43 0 39 5;
#X connect 44 0 47 0;
#X connect 45 0 46 1;
#X connect 46 0 26 1;
#X connect 47 0 45 0;
#X connect 48 0 38 0;
#X connect 49 0 46 1;
#X connect 50 0 51 0;
#X connect 51 0 44 0;
#X connect 53 0 13 0;
#X connect 53 0 14 0;
#X connect 54 0 53 0;
#X connect 55 0 44 0;
#X connect 56 0 39 1;
#X connect 57 0 39 2;
#X connect 58 0 39 3;
#X connect 59 0 39 4;
#X connect 60 0 61 0;
#X connect 60 1 61 0;
#X connect 61 0 29 0;
#X connect 62 0 63 0;
#X connect 62 1 63 0;
#X connect 63 0 24 0;
#X restore 408 290 pd pad_1;
#X obj 441 146 mod 6;
#X obj 753 532 grannie-basher;
#X obj 680 735 throw~ dryL;
#X obj 753 735 throw~ dryR;
#X obj 62 349 throw~ pad0;
#X obj 429 352 throw~ pad1;
#X obj 709 461 catch~ pad0;
#X obj 724 484 catch~ pad1;
#X obj 1476 318 r word;
#X obj 1193 181 *~;
#X obj 1284 180 *~;
#X obj 1369 179 *~;
#X obj 1452 178 *~;
#X obj 1524 177 *~;
#X obj 1110 181 *~;
#X obj 1028 182 *~;
#X obj 765 185 *~;
#X obj 780 156 == 0;
#X obj 856 184 *~;
#X obj 947 181 *~;
#X obj 871 155 == 1;
#X obj 962 152 == 2;
#X obj 1043 153 == 3;
#X obj 1125 152 == 4;
#X obj 1208 152 == 5;
#X obj 1299 151 == 6;
#X obj 1412 152 == 7;
#X obj 1467 149 == 8;
#X obj 1539 148 == 9;
#N canvas 632 96 737 696 clang0 0;
#N canvas 146 481 450 300 fm_core 0;
#N canvas 0 22 936 650 fm_core 0;
#X obj 38 208 +~;
#X obj 53 145 osc~;
#X obj 94 286 outlet~;
#X obj 37 32 inlet;
#X obj 161 35 inlet;
#X obj 38 240 osc~;
#X text 87 143 modulator;
#X text 76 239 carrier;
#X obj 53 177 *~;
#X obj 108 84 *;
#X obj 193 135 *~;
#X obj 289 34 inlet~;
#X obj 366 303 +~;
#X obj 366 377 outlet~;
#X obj 365 127 inlet;
#X obj 489 91 inlet;
#X obj 366 335 osc~;
#X text 404 334 carrier;
#X obj 381 272 *~;
#X text 484 71 harmonicity ratio;
#X text 612 111 modulation index;
#X obj 521 230 *~;
#X obj 617 129 inlet~;
#X obj 825 257 +~;
#X obj 825 331 outlet~;
#X obj 824 81 inlet;
#X obj 825 289 osc~;
#X text 863 288 carrier;
#X obj 840 226 *~;
#X obj 20 286 outlet~;
#X text 344 110 carrier2 freq;
#X text 16 15 carrier1 freq;
#X text 156 15 harmonicity1 ratio;
#X text 284 16 modulation1 index;
#X obj 452 178 *~;
#X obj 182 184 s mod1;
#X obj 470 135 sig~;
#X obj 915 328 s~ fb;
#X obj 509 280 s~ mod2;
#X obj 861 180 r~ fb;
#X text 803 64 carrierf freq;
#X connect 0 0 5 0;
#X connect 1 0 8 0;
#X connect 1 0 29 0;
#X connect 1 0 34 0;
#X connect 3 0 0 0;
#X connect 3 0 9 0;
#X connect 4 0 9 1;
#X connect 5 0 2 0;
#X connect 8 0 0 1;
#X connect 9 0 1 0;
#X connect 9 0 10 0;
#X connect 9 0 35 0;
#X connect 10 0 8 1;
#X connect 11 0 10 1;
#X connect 12 0 16 0;
#X connect 14 0 12 0;
#X connect 15 0 36 0;
#X connect 16 0 13 0;
#X connect 18 0 12 1;
#X connect 21 0 18 1;
#X connect 22 0 21 1;
#X connect 23 0 26 0;
#X connect 25 0 23 0;
#X connect 26 0 24 0;
#X connect 26 0 37 0;
#X connect 28 0 23 1;
#X connect 34 0 21 0;
#X connect 34 0 38 0;
#X connect 34 0 18 0;
#X connect 36 0 34 1;
#X connect 39 0 28 0;
#X restore 263 384 pd fm_core;
#X obj 38 208 +~;
#X obj 53 145 osc~;
#X obj 38 282 outlet~;
#X obj 37 32 inlet;
#X obj 161 35 inlet;
#X obj 38 240 osc~;
#X text 16 15 carrier freq;
#X text 87 143 modulator;
#X text 76 239 carrier;
#X obj 53 177 *~;
#X text 156 15 harmonicity ratio;
#X text 284 16 modulation index;
#X obj 108 84 *;
#X obj 193 135 *~;
#X obj 289 34 inlet~;
#X connect 1 0 6 0;
#X connect 2 0 10 0;
#X connect 4 0 1 0;
#X connect 4 0 13 0;
#X connect 5 0 13 1;
#X connect 6 0 3 0;
#X connect 10 0 1 1;
#X connect 13 0 2 0;
#X connect 13 0 14 0;
#X connect 14 0 10 1;
#X connect 15 0 14 1;
#X restore -147 392 pd fm_core;
#X obj -103 517 outlet~;
#X obj -162 462 *~;
#N canvas 0 22 450 300 (subpatch) 0;
#X array amplitude_envelope0 100 float 1;
#A 0 0.00999486 0.969994 0.969994 0.979994 0.979994 0.979994 0.959994
0.919994 0.909994 0.889994 0.879994 0.859994 0.869994 0.874994 0.879994
0.889994 0.899994 0.899994 0.659995 0.649995 0.639995 0.619995 0.599995
0.579995 0.569995 0.559995 0.594995 0.594995 0.614995 0.634995 0.639995
0.644995 0.654995 0.664995 0.669995 0.674995 0.684995 0.684995 0.694995
0.704995 0.704995 0.724995 0.744995 0.754995 0.774995 0.784995 0.794995
0.804995 0.819995 0.834995 0.844995 0.854995 0.874995 0.874995 0.894995
0.904995 0.844995 0.814995 0.784995 0.714995 0.664995 0.644995 0.624995
0.574995 0.524995 0.494995 0.474995 0.354995 0.354995 0.354995 0.344995
0.339995 0.334995 0.344995 0.344995 0.334995 0.304995 0.289995 0.274995
0.244995 0.231662 0.218329 0.204995 0.184995 0.164995 0.144995 0.134995
0.124995 0.104995 0.0949955 0.0849955 0.0549955 0.0549955 0.0549955
0.0549955 0.0549955 0.0349956 0.00499558 0.00499558 0.0149956;
#X coords 0 1 99 0 300 100 1;
#X restore -165 146 graph;
#X obj -230 127 line~;
#X msg -230 95 0 \, 99 2000;
#X obj -218 40 t b b;
#N canvas 0 22 450 300 (subpatch) 0;
#X array modulation_index0 100 float 1;
#A 0 0.00999565 -4.57466e-06 0.069997 0.1 0.850017 0.840017 0.820017
0.810016 0.800016 0.790016 0.780016 0.773349 0.766682 0.760015 0.755015
0.750015 0.745015 0.740015 0.740015 0.740015 0.740015 0.740015 0.740015
0.740015 0.750015 0.750015 0.740015 0.720014 0.705014 0.690014 0.675013
0.660013 0.645012 0.630012 0.610012 0.590011 0.570011 0.510009 0.430008
0.390007 0.340006 0.300005 0.150001 0.150001 0.150001 0.145001 0.140001
0.136667 0.282504 0.292504 0.312505 0.352506 0.369173 0.38584 0.402507
0.292504 0.302505 0.302505 0.302505 0.302505 0.302505 0.307505 0.312505
0.315838 0.319172 0.322505 0.329172 0.335839 0.342506 0.352506 0.362506
0.372506 0.382506 0.392507 0.402507 0.412507 0.422507 0.432508 0.449175
0.465842 0.482509 0.499176 0.515843 0.53251 0.545844 0.559177 0.572511
0.602512 0.632512 0.0599991 0.0599991 0.0599991 0.0599991 0.0599991
0.0599991 0.0199982 0.0199982 0.0199982 0.0299984 0.0299984;
#X coords 0 1 99 0 300 100 1;
#X restore 175 142 graph;
#X obj -2 297 *~ 20;
#X obj 162 106 line~;
#X msg 161 79 0 \, 99 2000;
#X obj -3 330 snapshot~;
#X obj -3 359 t b;
#X obj 162 261 tabread4~ modulation_index0;
#X obj -231 265 tabread4~ amplitude_envelope0;
#X obj -218 8 inlet;
#X floatatom -173 331 5 0 0 0 - - -;
#X floatatom -115 334 5 0 0 0 - - -;
#X msg -164 309 399;
#X obj -147 287 loadbang;
#X msg -116 308 10;
#X connect 0 0 2 1;
#X connect 2 0 1 0;
#X connect 4 0 14 0;
#X connect 5 0 4 0;
#X connect 6 0 5 0;
#X connect 6 0 10 0;
#X connect 6 0 16 0;
#X connect 8 0 11 0;
#X connect 8 0 0 2;
#X connect 9 0 13 0;
#X connect 10 0 9 0;
#X connect 11 0 12 0;
#X connect 12 0 16 0;
#X connect 13 0 8 0;
#X connect 14 0 2 0;
#X connect 15 0 6 0;
#X connect 16 0 0 0;
#X connect 17 0 0 1;
#X connect 17 0 12 0;
#X connect 18 0 16 0;
#X connect 19 0 18 0;
#X connect 19 0 20 0;
#X connect 20 0 17 0;
#X restore 765 129 pd clang0;
#X obj 886 368 dist~;
#X obj 945 351 r dist;
#X obj 966 310 r filter;
#X obj 886 327 lop~ 15000;
#N canvas 632 96 737 696 clang1 0;
#N canvas 146 481 450 300 fm_core 0;
#X obj 38 208 +~;
#X obj 53 145 osc~;
#X obj 38 282 outlet~;
#X obj 37 32 inlet;
#X obj 161 35 inlet;
#X obj 38 240 osc~;
#X text 16 15 carrier freq;
#X text 87 143 modulator;
#X text 76 239 carrier;
#X obj 53 177 *~;
#X text 156 15 harmonicity ratio;
#X text 284 16 modulation index;
#X obj 108 84 *;
#X obj 193 135 *~;
#X obj 289 34 inlet~;
#X connect 0 0 5 0;
#X connect 1 0 9 0;
#X connect 3 0 0 0;
#X connect 3 0 12 0;
#X connect 4 0 12 1;
#X connect 5 0 2 0;
#X connect 9 0 0 1;
#X connect 12 0 1 0;
#X connect 12 0 13 0;
#X connect 13 0 9 1;
#X connect 14 0 13 1;
#X restore -147 392 pd fm_core;
#X obj -103 517 outlet~;
#X obj -162 462 *~;
#N canvas 0 22 450 300 (subpatch) 0;
#X array amplitude_envelope1 100 float 1;
#A 0 0.0299956 0.0599955 0.0699955 0.0699955 0.0799955 0.0999955 0.119995
0.139995 0.169995 0.219995 0.244995 0.269995 0.309995 0.349995 0.384995
0.419995 0.449995 0.479995 0.504995 0.529995 0.554995 0.579995 0.599995
0.619995 0.669995 0.689995 0.709995 0.739995 0.759995 0.789995 0.789995
0.799995 0.809995 0.814995 0.819995 0.829995 0.839995 0.849995 0.849995
0.849995 0.856661 0.863328 0.869995 0.869995 0.869995 0.874995 0.879995
0.879995 0.879995 0.879995 0.879995 0.879995 0.874995 0.869995 0.863328
0.856661 0.849995 0.839995 0.829995 0.809995 0.789995 0.779995 0.759995
0.739995 0.739995 0.709995 0.699995 0.699995 0.679995 0.669995 0.669995
0.659995 0.639995 0.629995 0.619995 0.609995 0.599995 0.569995 0.554995
0.539995 0.509995 0.479995 0.449995 0.429995 0.409995 0.379995 0.359995
0.329995 0.289995 0.269995 0.254995 0.239995 0.219995 0.209995 0.189995
0.169995 0.139995 0.0499955 0.00499558 0.0149956;
#X coords 0 1 99 0 300 100 1;
#X restore -163 150 graph;
#X obj -230 127 line~;
#X msg -230 95 0 \, 99 2000;
#X obj -218 40 t b b;
#N canvas 0 22 450 300 (subpatch) 0;
#X array modulation_index1 100 float 1;
#A 0 0.192503 -0.0808367 -0.0808367 -0.0708365 -0.0608363 -0.0608363
-0.0608363 -0.050836 -0.0408358 -0.0408358 -0.0408358 -0.0408358 -0.0408358
-0.0408358 -0.0308356 -0.0208354 -0.0208354 -0.0208354 -0.0208354 -0.0208354
-0.0208354 -0.0208354 -0.0208354 -0.0208354 -0.0208354 -0.0208354 -0.0208354
-0.0208354 -0.0208354 -0.0208354 -0.0208354 -0.0158352 -0.0108351 -0.00583501
-0.000834897 0.00416522 0.00916533 0.0141654 0.0191656 0.0291658 0.039166
0.0591665 0.0641666 0.0691667 0.0791669 0.0891672 0.0891672 0.0891672
0.0791669 0.0791669 0.0791669 0.0791669 0.0791669 0.0791669 0.0791669
0.0791669 0.0791669 0.0791669 0.0791669 0.0791669 0.0791669 0.0791669
0.0791669 0.0891672 0.0941673 0.0991674 0.0991674 0.0991674 0.0991674
0.132501 0.112501 0.112501 0.112501 0.102501 0.0925003 0.0925003 0.0925003
0.0925003 0.0925003 0.102501 0.112501 0.112501 0.122501 0.122501 0.122501
0.122501 0.132501 0.132501 0.132501 0.132501 0.132501 0.132501 0.142501
0.152502 0.162502 0.172502 0.0199982 0.0199982 0.0299984 0.0299984
;
#X coords 0 1 99 0 300 100 1;
#X restore 175 142 graph;
#X obj -2 297 *~ 20;
#X obj 162 106 line~;
#X msg 161 79 0 \, 99 2000;
#X obj -3 330 snapshot~;
#X obj -3 359 t b;
#X obj -218 8 inlet;
#X floatatom -173 331 5 0 0 0 - - -;
#X floatatom -115 334 5 0 0 0 - - -;
#X obj -147 287 loadbang;
#X obj 162 261 tabread4~ modulation_index1;
#X obj -231 265 tabread4~ amplitude_envelope1;
#X msg -116 308 7;
#X msg -164 309 47;
#X connect 0 0 2 1;
#X connect 2 0 1 0;
#X connect 4 0 18 0;
#X connect 5 0 4 0;
#X connect 6 0 5 0;
#X connect 6 0 10 0;
#X connect 6 0 14 0;
#X connect 8 0 11 0;
#X connect 8 0 0 2;
#X connect 9 0 17 0;
#X connect 10 0 9 0;
#X connect 11 0 12 0;
#X connect 12 0 14 0;
#X connect 13 0 6 0;
#X connect 14 0 0 0;
#X connect 15 0 0 1;
#X connect 15 0 12 0;
#X connect 16 0 20 0;
#X connect 16 0 19 0;
#X connect 17 0 8 0;
#X connect 18 0 2 0;
#X connect 19 0 15 0;
#X connect 20 0 14 0;
#X restore 855 129 pd clang1;
#N canvas 607 181 737 696 clang2 0;
#N canvas 146 481 450 300 fm_core 0;
#X obj 38 208 +~;
#X obj 53 145 osc~;
#X obj 38 282 outlet~;
#X obj 37 32 inlet;
#X obj 161 35 inlet;
#X obj 38 240 osc~;
#X text 16 15 carrier freq;
#X text 87 143 modulator;
#X text 76 239 carrier;
#X obj 53 177 *~;
#X text 156 15 harmonicity ratio;
#X text 284 16 modulation index;
#X obj 108 84 *;
#X obj 193 135 *~;
#X obj 289 34 inlet~;
#X connect 0 0 5 0;
#X connect 1 0 9 0;
#X connect 3 0 0 0;
#X connect 3 0 12 0;
#X connect 4 0 12 1;
#X connect 5 0 2 0;
#X connect 9 0 0 1;
#X connect 12 0 1 0;
#X connect 12 0 13 0;
#X connect 13 0 9 1;
#X connect 14 0 13 1;
#X restore -147 392 pd fm_core;
#X obj -103 517 outlet~;
#X obj -162 462 *~;
#N canvas 0 22 450 300 (subpatch) 0;
#X array amplitude_envelope2 100 float 1;
#A 0 0.914995 0.914995 0.914995 0.924995 0.924995 0.924995 0.924995
0.924995 0.924995 0.924995 0.914995 0.904995 0.218329 0.218329 0.218329
0.208329 0.203329 0.198329 0.193329 0.188329 0.181662 0.174995 0.168329
0.165829 0.163329 0.160829 0.158329 0.151662 0.144995 0.138329 0.128329
0.118329 0.114995 0.111662 0.108329 0.108329 0.108329 0.108329 0.0983288
0.0883288 0.0883288 0.0883288 0.0833288 0.0783288 0.0683288 0.228329
0.228329 0.228329 0.228329 0.228329 0.208329 0.198329 0.198329 0.168329
0.168329 0.158329 0.153329 0.148329 0.148329 0.148329 0.148329 0.148329
0.148329 0.148329 0.148329 0.148329 0.148329 0.148329 0.148329 0.148329
0.148329 0.148329 0.148329 0.148329 0.148329 0.148329 0.148329 0.148329
0.148329 0.148329 0.148329 0.143329 0.138329 0.138329 0.133329 0.128329
0.128329 0.118329 0.108329 0.103329 0.0983288 0.0883288 0.0883288 0.0883288
0.0883288 0.108329 0.139995 0.0499955 0.00499558 0.0149956;
#X coords 0 1 99 0 300 100 1;
#X restore -163 150 graph;
#X obj -230 127 line~;
#X msg -230 95 0 \, 99 2000;
#X obj -218 40 t b b;
#N canvas 0 22 450 300 (subpatch) 0;
#X array modulation_index2 100 float 1;
#A 0 0.712515 0.712515 0.702514 0.702514 0.622513 0.582512 0.442508
0.00249839 0.0424993 0.0324991 0.0224988 0.0324991 0.0224988 0.0224988
0.0624998 0.0624998 0.0624998 0.0624998 0.0624998 0.0725 0.0725 0.0725
0.0725 0.0725 0.0725 0.0725 0.0725 0.0725 0.0725 0.0725 0.0725 0.0725
0.0725 0.0725 0.0725 0.0725 0.0624998 0.0524995 0.0424993 0.0424993
0.0424993 0.0424993 0.0424993 0.0424993 0.0424993 0.0424993 0.0424993
0.0424993 0.0424993 0.0424993 0.0424993 0.0424993 0.0424993 0.0424993
0.0424992 0.0424992 0.0424992 0.0424992 0.032499 0.032499 0.032499
0.032499 0.032499 0.032499 0.032499 0.032499 0.032499 0.032499 0.032499
0.032499 0.032499 0.032499 0.032499 0.032499 0.032499 0.032499 0.032499
0.032499 0.032499 0.032499 0.032499 0.032499 0.032499 0.032499 0.032499
0.032499 0.032499 0.032499 0.032499 0.032499 0.032499 0.032499 0.032499
0.032499 0.0424992 0.0424992 0.0424992 0.0424992 0.0424992 0.0624997
;
#X coords 0 1 99 0 300 100 1;
#X restore 175 142 graph;
#X obj -2 297 *~ 20;
#X obj 162 106 line~;
#X msg 161 79 0 \, 99 2000;
#X obj -3 330 snapshot~;
#X obj -3 359 t b;
#X obj -218 8 inlet;
#X floatatom -173 331 5 0 0 0 - - -;
#X floatatom -116 334 5 0 0 0 - - -;
#X obj -147 287 loadbang;
#X obj 162 261 tabread4~ modulation_index2;
#X obj -231 265 tabread4~ amplitude_envelope2;
#X obj -26 264 hsl 128 15 0 10 0 0 empty empty empty -2 -8 0 10 -262144
-1 -1 0 1;
#X msg -164 309 75;
#X msg -117 308 5.511;
#X connect 0 0 2 1;
#X connect 2 0 1 0;
#X connect 4 0 18 0;
#X connect 5 0 4 0;
#X connect 6 0 5 0;
#X connect 6 0 10 0;
#X connect 6 0 14 0;
#X connect 8 0 11 0;
#X connect 8 0 0 2;
#X connect 9 0 17 0;
#X connect 10 0 9 0;
#X connect 11 0 12 0;
#X connect 12 0 14 0;
#X connect 13 0 6 0;
#X connect 14 0 0 0;
#X connect 15 0 0 1;
#X connect 15 0 12 0;
#X connect 16 0 20 0;
#X connect 16 0 21 0;
#X connect 17 0 8 0;
#X connect 18 0 2 0;
#X connect 19 0 15 0;
#X connect 20 0 14 0;
#X connect 21 0 15 0;
#X restore 947 130 pd clang2;
#N canvas 607 181 737 696 clang3 0;
#N canvas 146 481 450 300 fm_core 0;
#X obj 38 208 +~;
#X obj 53 145 osc~;
#X obj 38 282 outlet~;
#X obj 37 32 inlet;
#X obj 161 35 inlet;
#X obj 38 240 osc~;
#X text 16 15 carrier freq;
#X text 87 143 modulator;
#X text 76 239 carrier;
#X obj 53 177 *~;
#X text 156 15 harmonicity ratio;
#X text 284 16 modulation index;
#X obj 108 84 *;
#X obj 193 135 *~;
#X obj 289 34 inlet~;
#X connect 0 0 5 0;
#X connect 1 0 9 0;
#X connect 3 0 0 0;
#X connect 3 0 12 0;
#X connect 4 0 12 1;
#X connect 5 0 2 0;
#X connect 9 0 0 1;
#X connect 12 0 1 0;
#X connect 12 0 13 0;
#X connect 13 0 9 1;
#X connect 14 0 13 1;
#X restore -147 392 pd fm_core;
#X obj -103 517 outlet~;
#X obj -162 462 *~;
#N canvas 0 22 450 300 (subpatch) 0;
#X array amplitude_envelope3 100 float 1;
#A 0 0.779995 0.779995 0.779995 0.779995 0.779995 0.779995 0.769995
0.769995 0.759995 0.749995 0.744995 0.739995 0.736661 0.733328 0.729995
0.729995 0.729995 0.729995 0.729995 0.726662 0.723328 0.719995 0.719995
0.719995 0.716662 0.713328 0.709995 0.704995 0.699995 0.697495 0.694995
0.692495 0.689995 0.687495 0.684995 0.682495 0.679995 0.679995 0.679995
0.679995 0.679995 0.679995 0.679995 0.679995 0.679995 0.679995 0.679995
0.684995 0.689995 0.694995 0.699995 0.709995 0.719995 0.719995 0.719995
0.719995 0.723328 0.726662 0.729995 0.729995 0.729995 0.729995 0.729995
0.729995 0.729995 0.729995 0.729995 0.729995 0.729995 0.729995 0.729995
0.729995 0.729995 0.729995 0.729995 0.729995 0.729995 0.727495 0.724995
0.722495 0.719995 0.716662 0.713328 0.709995 0.709995 0.709995 0.709995
0.709995 0.709995 0.704995 0.699995 0.699995 0.699995 0.699995 0.699995
0.699995 0.699995 0.699995 0.699995 0.699995;
#X coords 0 1 99 0 300 100 1;
#X restore -163 150 graph;
#X obj -230 127 line~;
#X msg -230 95 0 \, 99 2000;
#X obj -218 40 t b b;
#N canvas 0 22 450 300 (subpatch) 0;
#X array modulation_index3 100 float 1;
#A 0 0.0225 0.0225 0.0225 0.0225 0.0225 0.0225 0.0225 0.0225 0.0225
0.0225 0.0325 0.0325 0.0425 0.0425 0.0425 0.0425 0.0425 0.0425 0.0225
0.0225 0.0225 0.0225 0.0225 0.0225 0.0225 0.0225 0.0225 0.0225 0.0225
0.0225 0.0225 0.0225 0.0225 0.0225 0.0325 0.0325 0.0425 0.0425 0.0425
0.0425 0.0525 0.0525 0.0525 0.0525 0.0625 0.0625 0.0625 0.0625 0.0625
0.0625 0.0625 0.0625 0.0625 0.0625 0.0625 0.0725 0.0725 0.0725 0.0725
0.0725 0.0725 0.0725 0.0725 0.0725 0.0725 0.0725 0.0725 0.0725 0.0725
0.0725 0.0725 0.0725 0.0725 0.0725 0.0825 0.0825 0.0825 0.0825 0.0825
0.0825 0.0825 0.0825 0.0825 0.0825 0.0825 0.0825 0.0825 0.0825 0.0825
0.0725 0.0725 0.0725 0.0725 0.0625 0.0425 0.0425 0.0425 0.0425 0.0625
0.0625;
#X coords 0 1 99 0 300 100 1;
#X restore 174 150 graph;
#X obj -2 297 *~ 20;
#X obj 162 106 line~;
#X msg 161 79 0 \, 99 2000;
#X obj -3 330 snapshot~;
#X obj -3 359 t b;
#X obj -218 8 inlet;
#X floatatom -173 331 5 0 0 0 - - -;
#X floatatom -116 334 5 0 0 0 - - -;
#X obj -147 287 loadbang;
#X msg -164 309 67;
#X obj -231 265 tabread4~ amplitude_envelope3;
#X obj 161 260 tabread4~ modulation_index3;
#X msg -116 308 7;
#X connect 0 0 2 1;
#X connect 2 0 1 0;
#X connect 4 0 18 0;
#X connect 5 0 4 0;
#X connect 6 0 5 0;
#X connect 6 0 10 0;
#X connect 6 0 14 0;
#X connect 8 0 11 0;
#X connect 8 0 0 2;
#X connect 9 0 19 0;
#X connect 10 0 9 0;
#X connect 11 0 12 0;
#X connect 12 0 14 0;
#X connect 13 0 6 0;
#X connect 14 0 0 0;
#X connect 15 0 0 1;
#X connect 15 0 12 0;
#X connect 16 0 17 0;
#X connect 16 0 20 0;
#X connect 17 0 14 0;
#X connect 18 0 2 0;
#X connect 19 0 8 0;
#X connect 20 0 15 0;
#X restore 1028 130 pd clang3;
#N canvas 607 181 737 696 clang4 0;
#N canvas 146 481 450 300 fm_core 0;
#X obj 38 208 +~;
#X obj 53 145 osc~;
#X obj 38 282 outlet~;
#X obj 37 32 inlet;
#X obj 161 35 inlet;
#X obj 38 240 osc~;
#X text 16 15 carrier freq;
#X text 87 143 modulator;
#X text 76 239 carrier;
#X obj 53 177 *~;
#X text 156 15 harmonicity ratio;
#X text 284 16 modulation index;
#X obj 108 84 *;
#X obj 193 135 *~;
#X obj 289 34 inlet~;
#X connect 0 0 5 0;
#X connect 1 0 9 0;
#X connect 3 0 0 0;
#X connect 3 0 12 0;
#X connect 4 0 12 1;
#X connect 5 0 2 0;
#X connect 9 0 0 1;
#X connect 12 0 1 0;
#X connect 12 0 13 0;
#X connect 13 0 9 1;
#X connect 14 0 13 1;
#X restore -147 392 pd fm_core;
#X obj -103 517 outlet~;
#X obj -162 462 *~;
#N canvas 0 22 450 300 (subpatch) 0;
#X array amplitude_envelope4 100 float 1;
#A 0 0.779995 1.02999 0.979995 0.959995 0.929995 0.879995 0.839995
0.789995 0.769995 0.749995 -0.0150045 -0.0150045 -0.0150045 -0.0150045
-0.0150045 -0.0150045 -0.0150045 -0.0150045 -0.00500447 0.0449955 0.244995
0.584995 0.944995 0.844995 0.804995 0.684995 0.614995 0.514995 0.424995
0.214995 0.0349955 0.0649955 0.104995 0.154995 0.194995 0.264995 0.299995
0.334995 0.404995 0.454995 0.554995 0.684995 0.874995 1.01499 0.514995
0.424995 0.384995 0.334995 0.254995 0.204995 0.154995 0.104995 0.0849955
0.0649955 0.0349956 -0.00500441 -0.0350044 0.134995 0.364995 0.534995
0.684995 0.724995 0.784995 0.514995 0.434995 0.334995 0.254995 0.124995
0.104995 0.224995 0.374995 0.514995 0.894995 0.664995 0.144995 0.0949955
0.0749955 0.0749955 0.104995 0.454995 0.964995 0.944995 0.904995 0.889995
0.834995 0.804995 0.764995 0.234995 0.0949955 0.0749955 0.0749955 0.344995
0.964995 0.664995 0.594995 0.444995 0.424995 0.0349956 0.124995 0.134995
;
#X coords 0 1 99 0 300 100 1;
#X restore -164 154 graph;
#X obj -230 127 line~;
#X msg -230 95 0 \, 99 2000;
#X obj -218 40 t b b;
#N canvas 0 22 450 300 (subpatch) 0;
#X array modulation_index4 100 float 1;
#A 0 0.952499 0.952499 0.5525 0.5325 0.862499 0.0425 0.0225 0.0225
0.0225 0.972499 0.0325 0.0325 0.0425 0.5725 0.972499 0.0425 0.0425
0.0425 0.0225 0.0225 0.702499 0.962499 0.0225 0.0225 0.0225 0.0225
0.0225 0.0225 0.0225 0.692499 0.692499 0.732499 0.752499 0.0225 0.0325
0.0325 0.3025 0.1525 0.2325 0.2825 0.0525 0.0525 0.0525 0.872499 0.4625
0.2825 0.1325 0.0625 0.0625 0.972499 0.862499 0.2525 0.0625 0.0625
0.0625 0.0725 0.0725 0.872499 1.0325 0.0725 0.0725 0.0725 0.0725 0.952499
0.912499 0.862499 0.0725 0.0725 0.0725 0.0725 1.0525 0.0725 0.0725
0.0725 0.0825 0.0825 0.0825 0.792499 0.992499 0.0825 0.0825 0.0825
0.0825 0.0825 0.0825 0.5525 0.992499 0.0825 0.0825 0.0725 0.0725 0.0725
0.0725 0.0625 0.0425 0.0425 0.0425 0.0425 0.0625 0.0625;
#X coords 0 1 99 0 300 100 1;
#X restore 174 150 graph;
#X obj -2 297 *~ 20;
#X obj 162 106 line~;
#X msg 161 79 0 \, 99 2000;
#X obj -3 330 snapshot~;
#X obj -3 359 t b;
#X obj -218 8 inlet;
#X floatatom -173 331 5 0 0 0 - - -;
#X floatatom -116 334 5 0 0 0 - - -;
#X obj -147 287 loadbang;
#X obj -230 265 tabread4~ amplitude_envelope4;
#X obj 161 260 tabread4~ modulation_index4;
#X msg -164 310 933;
#X msg -116 307 6;
#X connect 0 0 2 1;
#X connect 2 0 1 0;
#X connect 4 0 17 0;
#X connect 5 0 4 0;
#X connect 6 0 5 0;
#X connect 6 0 10 0;
#X connect 6 0 14 0;
#X connect 8 0 11 0;
#X connect 8 0 0 2;
#X connect 9 0 18 0;
#X connect 10 0 9 0;
#X connect 11 0 12 0;
#X connect 12 0 14 0;
#X connect 13 0 6 0;
#X connect 14 0 0 0;
#X connect 15 0 0 1;
#X connect 15 0 12 0;
#X connect 16 0 19 0;
#X connect 16 0 20 0;
#X connect 17 0 2 0;
#X connect 18 0 8 0;
#X connect 19 0 14 0;
#X connect 20 0 15 0;
#X restore 1110 130 pd clang4;
#N canvas 585 204 737 696 clang5 0;
#N canvas 146 481 450 300 fm_core 0;
#X obj 38 208 +~;
#X obj 53 145 osc~;
#X obj 38 282 outlet~;
#X obj 37 32 inlet;
#X obj 161 35 inlet;
#X obj 38 240 osc~;
#X text 16 15 carrier freq;
#X text 87 143 modulator;
#X text 76 239 carrier;
#X obj 53 177 *~;
#X text 156 15 harmonicity ratio;
#X text 284 16 modulation index;
#X obj 108 84 *;
#X obj 193 135 *~;
#X obj 289 34 inlet~;
#X connect 0 0 5 0;
#X connect 1 0 9 0;
#X connect 3 0 0 0;
#X connect 3 0 12 0;
#X connect 4 0 12 1;
#X connect 5 0 2 0;
#X connect 9 0 0 1;
#X connect 12 0 1 0;
#X connect 12 0 13 0;
#X connect 13 0 9 1;
#X connect 14 0 13 1;
#X restore -147 392 pd fm_core;
#X obj -103 517 outlet~;
#X obj -162 462 *~;
#N canvas 0 22 450 300 (subpatch) 0;
#X array amplitude_envelope5 100 float 1;
#A 0 0.934995 0.924995 0.924995 0.924995 0.924995 0.924995 0.914995
0.904995 0.884995 0.854995 0.794995 0.774995 0.754995 0.734995 0.724995
0.714995 0.694995 0.694995 0.694995 0.704995 0.684995 0.664995 0.644995
0.624995 0.614995 0.604995 0.594995 0.584995 0.554995 0.544995 0.534995
0.514995 0.494995 0.494995 0.144995 0.134995 0.128329 0.121662 0.114995
0.104995 0.0949954 0.0916621 0.0883288 0.0849954 0.0849954 0.0799955
0.0749955 0.0649955 0.0649955 0.0249955 0.0249955 0.0249955 0.0249955
0.0249955 0.0249955 0.0249955 0.0249955 0.0249955 0.0249955 0.0249955
0.0249955 0.0249955 0.0249955 0.0249955 0.0249955 0.0249955 0.0249955
0.0249955 0.0249955 0.0249955 0.0249955 0.0249955 0.0249955 0.0249955
0.0249955 0.0249955 0.0249955 0.0249955 0.0249955 0.0249955 0.0249955
0.0249955 0.0249955 0.0249955 0.0249955 0.0249955 0.0249955 0.0249955
0.0249955 0.0249955 0.0249955 0.0249955 0.0249955 0.0249955 0.0249955
0.0249955 0.0249955 0.0249955 0.0249955 0.0249955;
#X coords 0 1 99 0 300 100 1;
#X restore -164 154 graph;
#X obj -230 127 line~;
#X msg -230 95 0 \, 99 2000;
#X obj -218 40 t b b;
#N canvas 0 22 450 300 (subpatch) 0;
#X array modulation_index5 100 float 1;
#A 0 0.0725 0.0725 0.0725 0.0725 0.0725 0.0825 0.0825 0.0925 0.0925
0.0925 0.0925 0.1025 0.1025 0.1025 0.1025 0.1025 0.1025 0.0925 0.0925
0.0925 0.1025 0.1025 0.1025 0.1025 0.1025 0.1025 0.1025 0.1025 0.0825
0.0825 0.0825 0.0725 0.0725 0.0725 0.0725 0.0725 0.0725 0.0725 0.0725
0.0825 0.0825 0.0825 0.0825 0.0825 0.0825 0.0825 0.0825 0.0825 0.0825
0.0725 0.0725 0.0725 0.0725 0.0625 0.0625 0.0625 0.0625 0.0725 0.0725
0.0725 0.0725 0.0725 0.0725 0.0725 0.0725 0.0725 0.0725 0.0725 0.0725
0.0725 0.0725 0.0625 0.0525 0.0525 0.0525 0.0525 0.0575 0.0625 0.0625
0.0625 0.0625 0.0625 0.0625 0.0625 0.0625 0.0525 0.0525 0.0525 0.0525
0.0525 0.0525 0.0425 0.0425 0.0425 0.0425 0.0225 0.0225 0.0325 0.0325
0.0325;
#X coords 0 1 99 0 300 100 1;
#X restore 174 150 graph;
#X obj -2 297 *~ 20;
#X obj 162 106 line~;
#X msg 161 79 0 \, 99 2000;
#X obj -3 330 snapshot~;
#X obj -3 359 t b;
#X obj -218 8 inlet;
#X floatatom -173 331 5 0 0 0 - - -;
#X floatatom -116 334 5 0 0 0 - - -;
#X obj -147 287 loadbang;
#X obj -230 265 tabread4~ amplitude_envelope5;
#X obj 160 260 tabread4~ modulation_index5;
#X msg -164 310 381;
#X msg -116 307 1;
#X connect 0 0 2 1;
#X connect 2 0 1 0;
#X connect 4 0 17 0;
#X connect 5 0 4 0;
#X connect 6 0 5 0;
#X connect 6 0 10 0;
#X connect 6 0 14 0;
#X connect 8 0 11 0;
#X connect 8 0 0 2;
#X connect 9 0 18 0;
#X connect 10 0 9 0;
#X connect 11 0 12 0;
#X connect 12 0 14 0;
#X connect 13 0 6 0;
#X connect 14 0 0 0;
#X connect 15 0 0 1;
#X connect 15 0 12 0;
#X connect 16 0 19 0;
#X connect 16 0 20 0;
#X connect 17 0 2 0;
#X connect 18 0 8 0;
#X connect 19 0 14 0;
#X connect 20 0 15 0;
#X restore 1193 131 pd clang5;
#N canvas 496 184 737 696 clang6 0;
#N canvas 146 481 450 300 fm_core 0;
#X obj 38 208 +~;
#X obj 53 145 osc~;
#X obj 38 282 outlet~;
#X obj 37 32 inlet;
#X obj 161 35 inlet;
#X obj 38 240 osc~;
#X text 16 15 carrier freq;
#X text 87 143 modulator;
#X text 76 239 carrier;
#X obj 53 177 *~;
#X text 156 15 harmonicity ratio;
#X text 284 16 modulation index;
#X obj 108 84 *;
#X obj 193 135 *~;
#X obj 289 34 inlet~;
#X connect 0 0 5 0;
#X connect 1 0 9 0;
#X connect 3 0 0 0;
#X connect 3 0 12 0;
#X connect 4 0 12 1;
#X connect 5 0 2 0;
#X connect 9 0 0 1;
#X connect 12 0 1 0;
#X connect 12 0 13 0;
#X connect 13 0 9 1;
#X connect 14 0 13 1;
#X restore -147 392 pd fm_core;
#X obj -103 517 outlet~;
#X obj -162 462 *~;
#N canvas 0 22 450 300 (subpatch) 0;
#X array amplitude_envelope6 100 float 1;
#A 0 0.00499552 1.02499 1.02499 0.764995 0.00499552 0.00499552 0.00499552
0.00499552 0.00499552 0.884995 0.804995 0.0249955 0.0449955 0.0649955
0.0949954 0.134995 0.0949954 0.0549955 0.0249955 0.00499552 0.00499552
0.00499552 0.00499552 0.00499552 0.00499552 0.00499552 0.00499552 0.00499552
0.00499552 0.00499552 0.00499552 0.00499552 0.00499552 0.00499552 0.00499552
0.00499552 0.00499552 0.00499552 0.00499552 0.00499552 0.00499552 0.00499552
0.0249955 0.0249955 0.0249955 0.0249955 0.0249955 0.0249955 0.0249955
0.0249955 0.0249955 0.0249955 0.0249955 0.0349955 0.0349955 0.0449955
0.0449955 0.0449955 0.0449955 0.0549955 0.0549955 0.0549955 0.0549955
0.0549955 0.0549955 0.0549955 0.0449955 0.0449955 0.0449955 0.0349955
0.0349955 0.0349955 0.0349955 0.0349955 0.0349955 0.0349955 0.0349955
0.0349955 0.0349955 0.0349955 0.0349955 0.0349955 0.0349955 0.0349955
0.0349955 0.0349955 0.0349955 0.0349955 0.0349955 0.0349955 0.0349955
0.0349955 0.0449955 0.0549955 0.0549955 0.0549955 0.0549955 0.0549955
0.0449955 0.0449955;
#X coords 0 1 99 0 300 100 1;
#X restore -164 154 graph;
#X obj -230 127 line~;
#X msg -230 95 0 \, 99 2000;
#X obj -218 40 t b b;
#N canvas 0 22 450 300 (subpatch) 0;
#X array modulation_index6 100 float 1;
#A 0 0.2325 0.1125 0.0125 0.0125 0.0125 0.0125 0.0125 0.00250006 0.00250006
0.00250006 0.00250006 0.00250006 0.00250006 0.00250006 0.00250006 -0.0174999
-0.0174999 -0.0174999 -0.0174999 -0.0174999 -0.00749993 -0.00749993
0.0125 0.0325 0.0325 0.0325 0.0325 0.0325 0.0325 0.0325 0.0125 0.0125
-0.00749993 -0.00749993 -0.0174999 -0.0174999 -0.0174999 -0.0174999
-0.0174999 -0.0174999 -0.0174999 -0.0174999 -0.0174999 -0.0174999 -0.0174999
-0.0174999 -0.0174999 -0.0174999 -0.0174999 -0.00749993 -0.00749993
0.00250006 0.00250006 0.00250006 0.00250006 0.00250006 0.00250006 0.00250006
0.00250006 0.00250006 0.00250006 0.00250006 0.00250006 0.00250006 0.00250006
0.00250006 0.00250006 0.00250006 0.00250006 0.00250006 0.00250006 0.00250006
0.00250006 0.00250006 0.00250006 0.00250006 -0.00749993 -0.00749993
-0.00749993 -0.00749993 -0.00749993 -0.00749993 -0.00749993 -0.00749993
0.00250006 0.00250006 0.00250006 0.00250006 0.00250006 0.00250006 0.00250006
0.00250006 0.00250006 0.00250006 0.00250006 0.0225 0.0225 0.0225 0.0225
0.0325;
#X coords 0 1 99 0 300 100 1;
#X restore 174 150 graph;
#X obj -2 297 *~ 20;
#X obj 162 106 line~;
#X msg 161 79 0 \, 99 2000;
#X obj -3 330 snapshot~;
#X obj -3 359 t b;
#X obj -218 8 inlet;
#X floatatom -173 331 5 0 0 0 - - -;
#X floatatom -116 334 5 0 0 0 - - -;
#X obj -147 287 loadbang;
#X obj -230 265 tabread4~ amplitude_envelope6;
#X obj 160 260 tabread4~ modulation_index6;
#X msg -116 307 8;
#X msg -164 310 267;
#X connect 0 0 2 1;
#X connect 2 0 1 0;
#X connect 4 0 17 0;
#X connect 5 0 4 0;
#X connect 6 0 5 0;
#X connect 6 0 10 0;
#X connect 6 0 14 0;
#X connect 8 0 11 0;
#X connect 8 0 0 2;
#X connect 9 0 18 0;
#X connect 10 0 9 0;
#X connect 11 0 12 0;
#X connect 12 0 14 0;
#X connect 13 0 6 0;
#X connect 14 0 0 0;
#X connect 15 0 0 1;
#X connect 15 0 12 0;
#X connect 16 0 20 0;
#X connect 16 0 19 0;
#X connect 17 0 2 0;
#X connect 18 0 8 0;
#X connect 19 0 15 0;
#X connect 20 0 14 0;
#X restore 1283 130 pd clang6;
#N canvas 4 22 1436 856 clang7 0;
#N canvas 146 481 450 300 fm_core 0;
#X obj 38 208 +~;
#X obj 53 145 osc~;
#X obj 38 282 outlet~;
#X obj 37 32 inlet;
#X obj 161 35 inlet;
#X obj 38 240 osc~;
#X text 16 15 carrier freq;
#X text 87 143 modulator;
#X text 76 239 carrier;
#X obj 53 177 *~;
#X text 156 15 harmonicity ratio;
#X text 284 16 modulation index;
#X obj 108 84 *;
#X obj 193 135 *~;
#X obj 289 34 inlet~;
#X connect 0 0 5 0;
#X connect 1 0 9 0;
#X connect 3 0 0 0;
#X connect 3 0 12 0;
#X connect 4 0 12 1;
#X connect 5 0 2 0;
#X connect 9 0 0 1;
#X connect 12 0 1 0;
#X connect 12 0 13 0;
#X connect 13 0 9 1;
#X connect 14 0 13 1;
#X restore -147 392 pd fm_core;
#X obj -103 517 outlet~;
#X obj -162 462 *~;
#N canvas 0 22 450 300 (subpatch) 0;
#X array amplitude_envelope7 100 float 1;
#A 0 0.00499552 1.02499 1.02499 0.764995 0.00499552 0.00499552 0.00499552
0.00499552 0.00499552 0.884995 0.934995 0.784995 0.0149956 0.0149956
-0.00500441 -0.00500441 -0.0150044 -0.0450044 -0.00500441 0.0749955
0.104995 0.134995 0.164995 0.204995 1.01499 1.04499 0.00499552 0.00499552
0.00499552 0.00499552 0.00499552 0.00499552 0.00499552 0.00499552 0.00499552
0.00499552 0.00499552 0.00499552 0.00499552 0.00499552 0.00499552 0.00499552
0.0249955 0.0249955 0.0249955 0.0249955 0.0249955 0.0249955 0.0249955
0.0249955 0.0249955 0.0249955 0.0249955 0.0349955 0.0349955 0.0449955
0.0449955 0.0449955 0.0449955 0.0549955 0.0549955 0.0549955 0.0549955
0.0549955 0.0549955 0.0549955 0.0449955 0.0449955 0.0349955 -0.00500445
0.00499554 0.00499554 0.00499554 0.00499554 0.0149955 0.0149955 0.0149955
0.0149955 0.0149955 0.0149955 0.00499554 0.00499554 0.00499554 0.00499554
0.0149955 0.0249955 0.0249955 0.0249955 0.0249955 0.0249955 0.0149955
0.0149955 0.0149955 0.0149955 0.0149955 0.0149955 0.0149955 0.0149955
-0.00500445 0.00499554;
#X coords 0 1 99 0 300 100 1;
#X restore -164 154 graph;
#X obj -230 127 line~;
#X msg -230 95 0 \, 99 2000;
#X obj -218 40 t b b;
#N canvas 0 22 450 300 (subpatch) 0;
#X array modulation_index7 100 float 1;
#A 0 0.0425 -0.0274999 0.0125 0.00250006 0.0225 0.0425 0.0425 0.0425
0.0425 0.0325 0.0225 0.0225 0.0225 0.0225 0.0125 0.0125 0.0125 0.0125
0.00250006 0.00250006 0.00250006 -0.00749993 -0.00749993 -0.00749993
-0.00749993 -0.0108333 -0.0141666 -0.0174999 -0.0174999 -0.0174999
-0.0174999 -0.0174999 -0.0174999 -0.0174999 -0.0174999 -0.0174999 -0.0174999
-0.0124999 -0.00749993 -0.00249994 0.00250006 0.00250006 0.00250006
0.0125 0.0325 0.0375 0.0425 0.0525 0.0625 0.0725 0.0925 0.1025 0.1125
0.1125 0.1225 0.1225 0.1225 0.00250006 0.00250006 0.00250006 0.00250006
0.00250006 0.00250006 0.00250006 0.00250006 0.00250006 0.00250006 0.00250006
0.00250006 0.00250006 0.00250006 0.00250006 0.00250006 0.00250006 0.00250006
0.00250006 -0.00749993 -0.00749993 -0.00749993 -0.00749993 -0.00749993
-0.00749993 -0.00749993 -0.00749993 0.00250006 0.00250006 0.00250006
0.00250006 0.00250006 0.00250006 0.00250006 0.00250006 0.00250006 0.00250006
0.00250006 0.00250002 0.00250002 0.00250002 0.00250002 0.00250002;
#X coords 0 1 99 0 300 100 1;
#X restore 174 150 graph;
#X obj -2 297 *~ 20;
#X obj 162 106 line~;
#X msg 161 79 0 \, 99 2000;
#X obj -3 330 snapshot~;
#X obj -3 359 t b;
#X obj -218 8 inlet;
#X floatatom -173 331 5 0 0 0 - - -;
#X floatatom -116 334 5 0 0 0 - - -;
#X obj -147 287 loadbang;
#X msg -116 307 8;
#X obj -230 265 tabread4~ amplitude_envelope7;
#X obj 160 260 tabread4~ modulation_index7;
#X msg -164 310 1129;
#X connect 0 0 2 1;
#X connect 2 0 1 0;
#X connect 4 0 18 0;
#X connect 5 0 4 0;
#X connect 6 0 5 0;
#X connect 6 0 10 0;
#X connect 6 0 14 0;
#X connect 8 0 11 0;
#X connect 8 0 0 2;
#X connect 9 0 19 0;
#X connect 10 0 9 0;
#X connect 11 0 12 0;
#X connect 12 0 14 0;
#X connect 13 0 6 0;
#X connect 14 0 0 0;
#X connect 15 0 0 1;
#X connect 15 0 12 0;
#X connect 16 0 20 0;
#X connect 16 0 17 0;
#X connect 17 0 15 0;
#X connect 18 0 2 0;
#X connect 19 0 8 0;
#X connect 20 0 14 0;
#X restore 1369 130 pd clang7;
#N canvas 496 184 737 696 clang8 0;
#N canvas 146 481 450 300 fm_core 0;
#X obj 38 208 +~;
#X obj 53 145 osc~;
#X obj 38 282 outlet~;
#X obj 37 32 inlet;
#X obj 161 35 inlet;
#X obj 38 240 osc~;
#X text 16 15 carrier freq;
#X text 87 143 modulator;
#X text 76 239 carrier;
#X obj 53 177 *~;
#X text 156 15 harmonicity ratio;
#X text 284 16 modulation index;
#X obj 108 84 *;
#X obj 193 135 *~;
#X obj 289 34 inlet~;
#X connect 0 0 5 0;
#X connect 1 0 9 0;
#X connect 3 0 0 0;
#X connect 3 0 12 0;
#X connect 4 0 12 1;
#X connect 5 0 2 0;
#X connect 9 0 0 1;
#X connect 12 0 1 0;
#X connect 12 0 13 0;
#X connect 13 0 9 1;
#X connect 14 0 13 1;
#X restore -147 392 pd fm_core;
#X obj -103 517 outlet~;
#X obj -162 462 *~;
#N canvas 0 22 450 300 (subpatch) 0;
#X array amplitude_envelope8 100 float 1;
#A 0 0.00499552 0.624995 0.944995 0.944995 0.944995 0.944995 0.939995
0.934995 0.928328 0.921661 0.914995 0.908328 0.901661 0.894995 0.891661
0.888328 0.884995 0.874995 0.864995 0.861661 0.858328 0.854995 0.849995
0.844995 0.839995 0.834995 0.824995 0.804995 0.774995 0.724995 0.694995
0.644995 0.604995 0.554995 0.514995 0.474995 0.454995 0.474995 0.534995
0.554995 0.584995 0.604995 0.634995 0.684995 0.764995 0.764995 0.784995
0.784995 0.774995 0.774995 0.774995 0.784995 0.784995 0.784995 0.784995
0.784995 0.774995 0.764995 0.754995 0.724995 0.709995 0.694995 0.674995
0.654995 0.634995 0.614995 0.594995 0.574995 0.549995 0.524995 0.504995
0.484995 0.459995 0.434995 0.404995 0.374995 0.354995 0.334995 0.314995
0.294995 0.279995 0.264995 0.244995 0.224995 0.211662 0.198329 0.184995
0.171662 0.158329 0.144995 0.129995 0.114995 0.0999955 0.0849955 0.0799955
0.0749955 0.0749955 0.0749955 0.0749955 0.254995;
#X coords 0 1 99 0 300 100 1;
#X restore -164 154 graph;
#X obj -230 127 line~;
#X msg -230 95 0 \, 99 2000;
#X obj -218 40 t b b;
#N canvas 0 22 450 300 (subpatch) 0;
#X array modulation_index8 100 float 1;
#A 0 0.0725 0.0825 0.1025 0.1225 0.1625 0.1625 0.1625 0.1625 0.1625
0.1625 0.1625 0.1625 0.1625 0.1725 0.1725 0.1825 0.1825 0.1925 0.2025
0.2025 0.2075 0.2125 0.2125 0.2225 0.2225 0.2225 0.2225 0.2225 0.2225
0.2225 0.2225 0.2225 0.2225 0.2225 0.2225 0.2225 0.2225 0.2225 0.2225
0.2225 0.2175 0.2125 0.2125 0.2125 0.2125 0.2125 0.2125 0.2125 0.2125
0.2125 0.2125 0.2125 0.2125 0.2125 0.2125 0.2125 0.2125 0.210833 0.209167
0.2075 0.205833 0.204167 0.2025 0.2005 0.1985 0.1965 0.1945 0.1925
0.189167 0.185833 0.1825 0.1825 0.1825 0.1775 0.1725 0.1725 0.1725
0.1725 0.1725 0.1725 0.1725 0.1725 0.1725 0.1725 0.1725 0.1725 0.1775
0.1825 0.1825 0.00250006 0.00250006 0.00250006 0.00250006 0.00250006
0.00250006 0.0225 0.0225 0.0225 0.0225 0.0325;
#X coords 0 1 99 0 300 100 1;
#X restore 174 150 graph;
#X obj -2 297 *~ 20;
#X obj 162 106 line~;
#X msg 161 79 0 \, 99 2000;
#X obj -3 330 snapshot~;
#X obj -3 359 t b;
#X obj -218 8 inlet;
#X floatatom -173 331 5 0 0 0 - - -;
#X floatatom -116 334 5 0 0 0 - - -;
#X obj -147 287 loadbang;
#X obj 160 260 tabread4~ modulation_index8;
#X obj -230 265 tabread4~ amplitude_envelope8;
#X msg -164 310 83;
#X msg -116 307 1;
#X connect 0 0 2 1;
#X connect 2 0 1 0;
#X connect 4 0 18 0;
#X connect 5 0 4 0;
#X connect 6 0 5 0;
#X connect 6 0 10 0;
#X connect 6 0 14 0;
#X connect 8 0 11 0;
#X connect 8 0 0 2;
#X connect 9 0 17 0;
#X connect 10 0 9 0;
#X connect 11 0 12 0;
#X connect 12 0 14 0;
#X connect 13 0 6 0;
#X connect 14 0 0 0;
#X connect 15 0 0 1;
#X connect 15 0 12 0;
#X connect 16 0 19 0;
#X connect 16 0 20 0;
#X connect 17 0 8 0;
#X connect 18 0 2 0;
#X connect 19 0 14 0;
#X connect 20 0 15 0;
#X restore 1452 130 pd clang8;
#N canvas 24 88 737 696 clang9 0;
#N canvas 146 481 450 300 fm_core 0;
#X obj 38 208 +~;
#X obj 53 145 osc~;
#X obj 38 282 outlet~;
#X obj 37 32 inlet;
#X obj 161 35 inlet;
#X obj 38 240 osc~;
#X text 16 15 carrier freq;
#X text 87 143 modulator;
#X text 76 239 carrier;
#X obj 53 177 *~;
#X text 156 15 harmonicity ratio;
#X text 284 16 modulation index;
#X obj 108 84 *;
#X obj 193 135 *~;
#X obj 289 34 inlet~;
#X connect 0 0 5 0;
#X connect 1 0 9 0;
#X connect 3 0 0 0;
#X connect 3 0 12 0;
#X connect 4 0 12 1;
#X connect 5 0 2 0;
#X connect 9 0 0 1;
#X connect 12 0 1 0;
#X connect 12 0 13 0;
#X connect 13 0 9 1;
#X connect 14 0 13 1;
#X restore -147 392 pd fm_core;
#X obj -103 517 outlet~;
#X obj -162 462 *~;
#N canvas 0 22 450 300 (subpatch) 0;
#X array amplitude_envelope9 100 float 1;
#A 0 0.254044 0.334326 0.917677 0.917677 0.917677 0.897677 0.877677
0.857677 0.847677 0.837677 0.817677 0.807677 0.777677 0.747677 0.697677
0.647677 0.577677 0.517677 0.467677 0.447677 0.427677 0.377677 0.357677
0.297677 0.267677 0.217678 0.177678 0.137678 0.0876777 0.0776777 0.0576777
0.0576777 0.0476777 0.0276777 0.00767773 0.00767773 0.00767773 0.00767773
0.00767773 0.00767773 0.0176777 0.0176777 0.0176777 0.0176777 0.0176777
0.0176777 0.0176777 0.0176777 0.0176777 0.0176777 0.0176777 0.0176777
0.0176777 0.0176777 0.0176777 0.0176777 0.0176777 0.0176777 0.0176777
0.0176777 0.0176777 0.0176777 0.0176777 0.0176777 0.0176777 0.0176777
0.0176777 0.0176777 0.0176777 0.0176777 0.0176777 0.0176777 0.0176777
0.0176777 0.0176777 0.0176777 0.0176777 0.0226777 0.0276777 0.0326777
0.0376777 0.0376777 0.0376777 0.0376777 0.0376777 0.0376777 0.0376777
0.0376777 0.0426777 0.0476777 0.0476777 0.0476777 0.0476777 0.0376777
0.0276777 0.0276777 0.00767773 0.00767773 -0.00232226 -0.00232226;
#X coords 0 1 99 0 300 100 1;
#X restore -164 154 graph;
#X obj -230 127 line~;
#X msg -230 95 0 \, 99 2000;
#X obj -218 40 t b b;
#N canvas 0 22 450 300 (subpatch) 0;
#X array modulation_index9 100 float 1;
#A 0 0.24013 -0.0320432 -0.156516 0.0742633 0.066148 0.146394 0.0623427
-0.147956 -0.28527 -0.24451 -0.0903129 -0.0841114 -0.233545 -0.386677
-0.138075 -0.211883 0.0825187 0.313675 0.182073 0.408617 0.471823 0.597066
0.400555 0.304106 -0.049076 -0.0127874 -0.00618926 0.165089 0.163708
-0.0148513 0.168693 0.377351 0.201321 0.39639 0.314572 0.0122015 -0.268554
0.0324486 0.290352 0.131441 -0.0587949 -0.0192096 -0.153651 0.0569577
-0.123135 -0.263573 -0.361749 -0.51955 -0.33345 -0.46252 -0.304094
0.0355013 -0.203376 0.0213996 -0.176901 -0.155664 -0.218635 -0.119869
0.133705 0.272537 0.290335 0.119488 -0.101233 -0.349504 -0.19683 -0.0113758
-0.0168373 -0.0376676 -0.175641 -0.257309 -0.232397 0.045677 0.310164
-0.0314066 0.0191459 0.0262425 0.136965 0.0988595 -0.0904263 0.000603713
0.153162 0.0551625 0.118463 0.362787 0.425158 0.162418 -0.00206405
-0.263142 -0.381631 -0.117513 0.0198302 0.24859 0.0534575 0.178512
0.407536 0.523108 0.424145 0.0486764 0.0154411 -0.169784;
#X coords 0 1 99 0 300 100 1;
#X restore 174 150 graph;
#X obj -2 297 *~ 20;
#X obj 162 106 line~;
#X msg 161 79 0 \, 99 2000;
#X obj -3 330 snapshot~;
#X obj -3 359 t b;
#X obj -218 8 inlet;
#X floatatom -173 363 5 0 0 0 - - -;
#X floatatom -116 366 5 0 0 0 - - -;
#X obj -230 265 tabread4~ amplitude_envelope9;
#X obj 162 260 tabread4~ modulation_index9;
#X obj -192 287 r rand;
#X obj 280 386 noise~;
#X obj 221 387 r rand;
#X obj 278 470 tabwrite~ modulation_index9;
#X obj -115 338 + 1;
#X obj -114 309 random 9;
#X obj -196 312 random 700;
#X obj 299 442 lop~ 2000;
#X connect 0 0 2 1;
#X connect 2 0 1 0;
#X connect 4 0 16 0;
#X connect 5 0 4 0;
#X connect 6 0 5 0;
#X connect 6 0 10 0;
#X connect 6 0 14 0;
#X connect 8 0 11 0;
#X connect 8 0 0 2;
#X connect 9 0 17 0;
#X connect 10 0 9 0;
#X connect 11 0 12 0;
#X connect 12 0 14 0;
#X connect 13 0 6 0;
#X connect 14 0 0 0;
#X connect 15 0 0 1;
#X connect 15 0 12 0;
#X connect 16 0 2 0;
#X connect 17 0 8 0;
#X connect 18 0 23 0;
#X connect 18 0 24 0;
#X connect 19 0 25 0;
#X connect 20 0 21 0;
#X connect 22 0 15 0;
#X connect 23 0 22 0;
#X connect 24 0 14 0;
#X connect 25 0 21 0;
#X restore 1524 129 pd clang9;
#X obj 1369 153 sel 1;
#X obj 1368 176 s rand;
#X obj 1142 53 r clang_trig;
#X obj 681 29 s clang_trig;
#X obj 681 4 bng 15 250 50 0 empty empty empty 17 7 0 10 -262144 -1
-1;
#X obj 887 432 throw~ clangs;
#X obj 1162 430 catch~ clangs;
#X obj -251 762 hsl 128 15 0 0.8 0 0 empty empty empty -2 -8 0 10 -260097
-1 -1 0 1;
#X text -254 740 softer.........louder;
#X obj -250 415 hsl 128 15 0.5 20 0 0 empty empty empty -2 -8 0 10
-260097 -1 -1 0 1;
#X obj -253 435 s dist;
#X text -248 396 peace.........violence;
#X obj -250 492 hsl 128 15 0 1 0 0 empty empty empty -2 -8 0 10 -260097
-1 -1 0 1;
#X obj -253 515 s wet;
#X obj -253 545 bng 50 250 50 0 empty empty empty 17 7 0 10 -260097
-1 -1;
#X obj -253 603 s killer;
#X obj -246 243 r killer;
#X obj -182 536 bng 50 250 50 0 empty empty empty 17 7 0 10 -260097
-1 -1;
#X obj -182 593 s reset;
#X obj -257 197 r reset;
#X obj -253 669 hsl 128 15 1000 10000 0 0 empty empty empty -2 -8 0
10 -260097 -1 -1 0 1;
#X obj -256 691 s filter;
#X text -248 652 natural......metallic;
#X obj -255 312 s f1;
#X obj -225 312 s f2;
#X obj -195 312 s f3;
#X obj -165 312 s f4;
#X obj -253 376 r f2;
#X obj -253 455 r f3;
#X obj -256 633 r f4;
#X msg -257 219 900 0 0.7 1000 0.5;
#X obj -247 289 unpack f f f f f;
#X obj -135 312 s f5;
#X obj -254 724 r f5;
#X msg -246 265 223 9 0.85 10000 0.8;
#X obj -254 791 s c_lvl;
#X obj 821 -50 hradio 90 1 0 10 empty empty empty 0 -8 0 10 -260097
-45076 -257985 7;
#X text 843 -78 maple tree;
#X text 930 -77 coffee;
#X text 1010 -77 cigarettes;
#X text 1091 -78 fluffy kittens;
#X text 1266 -78 product placement;
#X text 1197 -78 mad libs;
#X text 1483 -77 sex;
#X text 1650 -77 shit show;
#X text 1382 -78 mahagony;
#X text 1571 -77 power;
#X obj 821 49 s word;
#X obj 728 -119 loadbang;
#X msg 786 -97 10;
#X obj 878 -122 r word;
#X obj 878 -101 == 9;
#X obj 786 -74 spigot;
#X obj 786 -120 r clang_trig;
#X obj 435 554 r wet;
#X text -248 473 dry..........wet;
#X obj 333 562 - 120;
#X obj 259 562 - 120;
#X obj 195 387 adc~;
#X obj 296 445 *~;
#X obj 356 402 hsl 128 15 0 2 0 0 empty empty empty -2 -8 0 10 -262144
-1 -1 0 1;
#N canvas 5 388 1421 841 rksubnoiseloop1 0;
#X obj 55 1036 clip~ -1 1;
#X obj 23 338 vsl 15 64 0 1 0 1 empty empty empty 0 -9 0 10 -262144
-1 -1 223 1;
#X obj 43 338 vsl 15 64 0 1 0 1 empty empty empty 0 -9 0 10 -262144
-1 -1 752 1;
#X obj 60 338 vsl 15 64 0 1 0 1 empty empty empty 0 -9 0 10 -262144
-1 -1 397 1;
#X obj 77 338 vsl 15 64 0 1 0 1 empty empty empty 0 -9 0 10 -262144
-1 -1 604 1;
#X obj 94 338 vsl 15 64 0 1 0 1 empty empty empty 0 -9 0 10 -262144
-1 -1 728 1;
#X obj 111 338 vsl 15 64 0 1 0 1 empty empty empty 0 -9 0 10 -262144
-1 -1 427 1;
#X obj 128 338 vsl 15 64 0 1 0 1 empty empty empty 0 -9 0 10 -262144
-1 -1 635 1;
#X obj 6 338 vsl 15 64 0 1 0 1 empty empty empty 0 -9 0 10 -262144
-1 -1 3338 1;
#X obj 145 338 vsl 15 64 0 1 0 1 empty empty empty 0 -9 0 10 -262144
-1 -1 59 1;
#X obj 162 338 vsl 15 64 0 1 0 1 empty empty empty 0 -9 0 10 -262144
-1 -1 148 1;
#X obj 408 854 table \$0sctable1 515;
#N canvas 547 196 1081 773 cycle2table 0;
#X obj 42 15 inlet~;
#X obj 56 108 tabwrite~ \$0temptable;
#X obj 55 131 table \$0temptable 1024;
#X obj 353 46 until;
#X obj 353 74 f;
#X obj 384 76 + 1;
#X obj 392 173 tabread \$0temptable;
#X obj 356 99 mod 1023;
#X msg 352 22 1023;
#X obj 460 197 tabread \$0temptable;
#X obj 426 151 + 1;
#X obj 423 219 *;
#X obj 423 240 < 0;
#X obj 340 389 int;
#X obj 361 362 spigot;
#X obj 368 128 t f f f;
#X obj 425 418 int;
#X obj 197 500 until;
#X obj 197 528 f;
#X obj 228 530 + 1;
#X obj 250 277 t b b b;
#X obj 348 452 -;
#X obj 258 631 +;
#X obj 227 608 *;
#X obj 215 577 t f f;
#X obj 258 660 tabread4 \$0temptable;
#X obj 300 548 / 512;
#X obj 401 341 &&;
#X obj 428 323 == 0;
#X obj 451 386 spigot;
#X obj 493 359 &&;
#X obj 481 293 f;
#X obj 512 295 + 1;
#X msg 613 71 0;
#X obj 210 -40 t b b b b;
#X obj 480 232 moses 0.1;
#X obj 431 263 t f f;
#X obj 538 256 t b;
#X obj 230 551 mod 515;
#X msg 197 477 515;
#X obj 210 -63 inlet;
#X text 112 454 fill the singlecycletable;
#X text 269 -61 bang for getting a cycle;
#X obj 255 712 tabwrite \$0sctable1;
#X floatatom 434 473 5 0 0 0 - - -;
#X floatatom 369 505 5 0 0 0 - - -;
#X obj 512 334 == 2;
#X text 418 74 get 1st and 3rd 0-xing;
#X text 391 15 1024 samples should be enough for nice cycles;
#X connect 0 0 1 0;
#X connect 3 0 4 0;
#X connect 4 0 5 0;
#X connect 5 0 7 0;
#X connect 6 0 11 0;
#X connect 7 0 4 1;
#X connect 7 0 15 0;
#X connect 8 0 3 0;
#X connect 9 0 11 1;
#X connect 10 0 9 0;
#X connect 11 0 12 0;
#X connect 12 0 36 0;
#X connect 13 0 21 0;
#X connect 13 0 45 0;
#X connect 14 0 13 1;
#X connect 15 0 14 0;
#X connect 15 0 29 0;
#X connect 15 1 6 0;
#X connect 15 2 10 0;
#X connect 16 0 21 1;
#X connect 16 0 22 1;
#X connect 16 0 44 0;
#X connect 17 0 18 0;
#X connect 18 0 19 0;
#X connect 19 0 38 0;
#X connect 20 0 39 0;
#X connect 20 1 13 0;
#X connect 20 2 16 0;
#X connect 21 0 26 0;
#X connect 22 0 25 0;
#X connect 23 0 22 0;
#X connect 24 0 23 0;
#X connect 24 1 43 1;
#X connect 25 0 43 0;
#X connect 26 0 23 1;
#X connect 27 0 14 1;
#X connect 28 0 27 1;
#X connect 29 0 16 1;
#X connect 30 0 29 1;
#X connect 31 0 32 0;
#X connect 31 0 28 0;
#X connect 31 0 46 0;
#X connect 32 0 31 1;
#X connect 33 0 31 0;
#X connect 34 0 1 0;
#X connect 34 1 20 0;
#X connect 34 2 8 0;
#X connect 34 3 33 0;
#X connect 35 1 37 0;
#X connect 36 0 35 0;
#X connect 36 1 27 0;
#X connect 36 1 30 0;
#X connect 37 0 31 0;
#X connect 38 0 18 1;
#X connect 38 0 24 0;
#X connect 39 0 17 0;
#X connect 40 0 34 0;
#X connect 46 0 30 1;
#X restore 322 884 pd cycle2table;
#X obj -173 436 +;
#X obj -153 473 +;
#X obj -92 463 +;
#X obj -37 462 +;
#X obj 23 474 +;
#X obj 90 502 +;
#X obj 125 473 +;
#X obj -125 403 +;
#X obj 189 489 +;
#X obj 225 454 +;
#X obj 400 701 tabread \$0sctable1;
#X obj 427 404 until;
#X obj 427 432 f;
#X obj 465 433 + 1;
#X obj 410 655 +;
#X msg 361 294 bang;
#X obj 390 754 pack f f;
#X obj 393 580 t f f;
#X obj 446 731 * 1;
#X obj 408 679 mod 512;
#X obj 507 430 f;
#X obj 545 431 + 1;
#X obj 537 453 mod 512;
#X obj 179 338 vsl 15 64 0 1 0 1 empty empty empty 0 -9 0 10 -262144
-1 -1 633 1;
#X obj 294 492 +;
#X obj -299 701 line;
#X obj -299 679 pack f f;
#X obj 111 682 line;
#X obj 111 660 pack f f;
#X obj -156 685 line;
#X obj -156 663 pack f f;
#X obj -105 737 line;
#X obj -105 715 pack f f;
#X obj -215 639 line;
#X obj -212 619 pack f f;
#X obj 180 692 line;
#X obj 180 670 pack f f;
#X obj -69 676 line;
#X obj -69 654 pack f f;
#X obj -28 707 line;
#X obj -28 685 pack f f;
#X obj 9 732 line;
#X obj 9 710 pack f f;
#X obj 147 129 vsl 15 64 0 1 0 1 empty empty wamt 0 -9 0 10 -262144
-1 -1 4100 1;
#X obj 48 772 line;
#X obj 49 752 pack f f;
#X obj 146 782 line;
#X obj 146 760 pack f f;
#X obj -82 974 tabosc4~ \$0sctable1;
#X obj -113 909 mtof;
#X obj -92 948 +~;
#X obj -13 909 *~;
#X obj -119 871 + 12;
#X obj -36 1015 *~ 0.5;
#X obj 196 337 vsl 15 64 0 1 0 1 empty empty empty 0 -9 0 10 -262144
-1 -1 539 1;
#X obj 267 416 +;
#X obj 172 844 line;
#X obj 174 822 pack f f;
#X obj 160 873 * 3000;
#X obj 355 339 t b b b;
#X msg 503 796 \; \$1sctable1 normalize;
#X obj 501 775 \$0;
#N canvas 324 239 1146 810 subtractive_2osc_fm_synth 0;
#X obj -123 16 inlet;
#N canvas 4 82 821 537 sawpulseosc1 0;
#X obj 98 18 phasor~;
#X obj 160 127 wrap~;
#X obj 160 103 +~;
#X obj 120 207 -~;
#X obj 168 161 *~;
#X obj 136 241 +~;
#X obj 133 369 outlet~;
#X obj 94 -10 inlet~;
#X obj 205 7 inlet~;
#X obj 205 190 *~;
#X obj 369 5 inlet~;
#X obj 367 30 clip~ 0 1;
#X text 107 -36 freq;
#X text 212 -15 pw;
#X obj 136 273 -~ 0.5;
#X obj 152 310 *~ 2;
#X obj 203 33 clip~ 0.01 0.99;
#X text 372 -17 saw/pulse;
#X connect 0 0 3 0;
#X connect 0 0 2 0;
#X connect 1 0 4 0;
#X connect 2 0 1 0;
#X connect 3 0 5 0;
#X connect 4 0 3 1;
#X connect 5 0 14 0;
#X connect 7 0 0 0;
#X connect 8 0 16 0;
#X connect 9 0 5 1;
#X connect 10 0 11 0;
#X connect 11 0 9 1;
#X connect 11 0 4 1;
#X connect 14 0 15 0;
#X connect 15 0 6 0;
#X connect 16 0 2 1;
#X connect 16 0 9 0;
#X restore 139 381 pd sawpulseosc1;
#X obj -66 444 mtof;
#X obj 223 241 - 50;
#X obj 220 263 clip 0 100;
#X obj 222 296 / 100;
#N canvas 0 22 821 537 sawpulseosc1 0;
#X obj 98 18 phasor~;
#X obj 160 127 wrap~;
#X obj 160 103 +~;
#X obj 120 207 -~;
#X obj 168 161 *~;
#X obj 136 241 +~;
#X obj 133 369 outlet~;
#X obj 94 -10 inlet~;
#X obj 205 7 inlet~;
#X obj 205 190 *~;
#X obj 369 5 inlet~;
#X obj 367 30 clip~ 0 1;
#X text 107 -36 freq;
#X text 212 -15 pw;
#X obj 136 273 -~ 0.5;
#X obj 152 310 *~ 2;
#X obj 203 33 clip~ 0.01 0.99;
#X text 372 -17 saw/pulse;
#X connect 0 0 3 0;
#X connect 0 0 2 0;
#X connect 1 0 4 0;
#X connect 2 0 1 0;
#X connect 3 0 5 0;
#X connect 4 0 3 1;
#X connect 5 0 14 0;
#X connect 7 0 0 0;
#X connect 8 0 16 0;
#X connect 9 0 5 1;
#X connect 10 0 11 0;
#X connect 11 0 9 1;
#X connect 11 0 4 1;
#X connect 14 0 15 0;
#X connect 15 0 6 0;
#X connect 16 0 2 1;
#X connect 16 0 9 0;
#X restore 459 412 pd sawpulseosc1;
#X obj 380 344 mtof;
#X obj 615 260 - 50;
#X obj 612 282 clip 0 100;
#X obj 614 315 / 100;
#X obj 441 369 +~;
#X obj 288 410 *~;
#X obj 428 607 +~;
#X obj 454 555 *~;
#X obj 382 553 *~;
#X obj 371 498 * -1;
#X obj 377 530 + 1;
#X obj 429 658 vcf~ 5;
#X obj 507 562 mtof;
#X obj 577 594 / 10;
#X obj 571 616 + 1;
#X obj -122 142 sqrt;
#X obj -122 118 / 1000;
#X obj -122 95 + 1;
#X obj -121 166 * 128;
#X obj -21 49 sqrt;
#X obj -21 25 / 1000;
#X obj -21 2 + 1;
#X obj -20 73 * 128;
#X obj 366 436 / 200;
#X obj 386 462 + 0.25;
#X obj 523 246 / 200;
#X obj 160 299 / 200;
#X obj 512 535 + 40;
#X obj 427 716 outlet~;
#X obj -121 71 * 999;
#X obj 223 220 * 200;
#X obj 90 41 inlet;
#X obj 152 260 * 100;
#X obj 148 41 inlet;
#X obj 203 27 inlet;
#X obj 307 372 * 3000;
#X obj 365 411 * 100;
#X obj 256 41 inlet;
#X obj 311 42 inlet;
#X obj 368 42 inlet;
#X obj -17 -55 inlet;
#X obj 514 509 * 80;
#X obj 575 567 * 90;
#X obj -21 -23 * 999;
#X obj 479 42 inlet;
#X obj 530 42 inlet;
#X obj 523 210 * 100;
#X obj 615 239 * 200;
#X obj 122 505 *;
#X obj 124 467 t b f;
#X obj 122 526 mod 12;
#X obj 127 634 osc~;
#X text 183 549 subosc;
#X obj 170 635 osc~;
#X obj 118 607 mtof;
#X obj 179 600 mtof;
#X obj 134 579 -;
#X obj 178 579 +;
#X obj 764 56 inlet;
#X obj 763 84 * 100;
#X obj 766 121 / 400;
#X obj 125 549 + 24;
#X obj 135 663 *~ 0.25;
#X obj 62 742 outlet;
#X obj -119 193 float;
#X obj -19 100 float;
#X obj -354 130 inlet;
#X obj -305 130 inlet;
#X obj -339 218 -;
#X obj -322 186 t b f;
#X text -347 105 pmax/min;
#X obj -166 389 +;
#X obj -156 342 +;
#X obj -117 267 int;
#X obj -137 311 -;
#X obj -177 237 t f f f;
#X obj -186 279 mod;
#X obj -12 282 +;
#X obj -13 251 +;
#X obj 26 176 int;
#X obj 6 220 -;
#X obj -34 146 t f f f;
#X obj -43 188 mod;
#X obj -8 452 div 12;
#X obj 37 521 max 24;
#X obj -6 478 * 12;
#X obj 9 500 - 12;
#X connect 0 0 36 0;
#X connect 1 0 12 0;
#X connect 1 0 15 1;
#X connect 2 0 1 0;
#X connect 3 0 4 0;
#X connect 4 0 5 0;
#X connect 5 0 1 2;
#X connect 6 0 14 1;
#X connect 7 0 11 1;
#X connect 8 0 9 0;
#X connect 9 0 10 0;
#X connect 10 0 6 2;
#X connect 11 0 6 0;
#X connect 12 0 11 0;
#X connect 13 0 18 0;
#X connect 14 0 13 1;
#X connect 15 0 13 0;
#X connect 16 0 17 0;
#X connect 17 0 15 0;
#X connect 18 0 35 0;
#X connect 19 0 18 1;
#X connect 20 0 21 0;
#X connect 21 0 18 2;
#X connect 22 0 25 0;
#X connect 23 0 22 0;
#X connect 24 0 23 0;
#X connect 25 0 71 0;
#X connect 26 0 29 0;
#X connect 27 0 26 0;
#X connect 28 0 27 0;
#X connect 29 0 72 0;
#X connect 30 0 31 0;
#X connect 31 0 16 0;
#X connect 31 0 14 0;
#X connect 32 0 6 1;
#X connect 33 0 1 1;
#X connect 34 0 19 0;
#X connect 36 0 24 0;
#X connect 37 0 3 0;
#X connect 38 0 39 0;
#X connect 39 0 33 0;
#X connect 40 0 37 0;
#X connect 41 0 42 0;
#X connect 42 0 12 1;
#X connect 43 0 30 0;
#X connect 44 0 43 0;
#X connect 45 0 48 0;
#X connect 46 0 49 0;
#X connect 47 0 50 0;
#X connect 48 0 34 0;
#X connect 49 0 20 0;
#X connect 50 0 28 0;
#X connect 51 0 53 0;
#X connect 52 0 54 0;
#X connect 53 0 32 0;
#X connect 54 0 8 0;
#X connect 55 0 57 0;
#X connect 56 0 55 0;
#X connect 56 1 55 1;
#X connect 57 0 68 0;
#X connect 58 0 69 0;
#X connect 60 0 69 0;
#X connect 61 0 58 0;
#X connect 62 0 60 0;
#X connect 63 0 61 0;
#X connect 64 0 62 0;
#X connect 65 0 66 0;
#X connect 66 0 67 0;
#X connect 67 0 63 1;
#X connect 67 0 64 1;
#X connect 68 0 63 0;
#X connect 68 0 64 0;
#X connect 68 0 70 0;
#X connect 69 0 35 0;
#X connect 71 0 82 0;
#X connect 71 0 55 0;
#X connect 72 0 88 0;
#X connect 73 0 75 0;
#X connect 74 0 76 0;
#X connect 74 0 78 1;
#X connect 74 0 84 1;
#X connect 74 0 90 0;
#X connect 75 0 83 1;
#X connect 75 0 89 1;
#X connect 76 0 75 0;
#X connect 76 1 75 1;
#X connect 78 0 2 0;
#X connect 79 0 78 0;
#X connect 80 0 81 1;
#X connect 81 0 79 1;
#X connect 82 0 83 0;
#X connect 82 1 81 0;
#X connect 82 2 80 0;
#X connect 83 0 79 0;
#X connect 84 0 7 0;
#X connect 84 0 56 0;
#X connect 85 0 84 0;
#X connect 86 0 87 1;
#X connect 87 0 85 1;
#X connect 88 0 89 0;
#X connect 88 1 87 0;
#X connect 88 2 86 0;
#X connect 89 0 85 0;
#X connect 90 0 92 0;
#X connect 91 0 68 1;
#X connect 92 0 93 0;
#X connect 93 0 91 0;
#X restore -105 828 pd subtractive_2osc_fm_synth;
#X obj 424 607 + 1;
#X obj 248 594 float;
#X obj 250 548 clip 0 1;
#X obj 252 572 * 5000;
#X obj -231 350 spigot 1;
#X obj -161 356 spigot 1;
#X obj 409 313 f;
#X obj 439 315 + 1;
#X obj 429 343 mod;
#X obj -34 163 == 0;
#N canvas 5 86 450 300 awrp 0;
#X obj 142 72 inlet;
#X obj 142 223 outlet;
#X obj 163 142 int;
#X obj 137 108 t f f;
#X obj 140 172 -;
#X obj 150 194 abs;
#X connect 0 0 3 0;
#X connect 2 0 4 1;
#X connect 3 0 4 0;
#X connect 3 1 2 0;
#X connect 4 0 5 0;
#X connect 5 0 1 0;
#X restore -32 491 pd awrp;
#N canvas 5 86 450 300 awrp 0;
#X obj 142 72 inlet;
#X obj 142 223 outlet;
#X obj 163 142 int;
#X obj 137 108 t f f;
#X obj 140 172 -;
#X obj 140 196 abs;
#X connect 0 0 3 0;
#X connect 2 0 4 1;
#X connect 3 0 4 0;
#X connect 3 1 2 0;
#X connect 4 0 5 0;
#X connect 5 0 1 0;
#X restore -92 485 pd awrp;
#N canvas 5 86 450 300 awrp 0;
#X obj 142 72 inlet;
#X obj 142 223 outlet;
#X obj 163 142 int;
#X obj 137 108 t f f;
#X obj 140 172 -;
#X obj 150 194 abs;
#X connect 0 0 3 0;
#X connect 2 0 4 1;
#X connect 3 0 4 0;
#X connect 3 1 2 0;
#X connect 4 0 5 0;
#X connect 5 0 1 0;
#X restore 29 501 pd awrp;
#N canvas 5 86 450 300 awrp 0;
#X obj 142 72 inlet;
#X obj 142 223 outlet;
#X obj 163 142 int;
#X obj 137 108 t f f;
#X obj 140 172 -;
#X obj 150 194 abs;
#X connect 0 0 3 0;
#X connect 2 0 4 1;
#X connect 3 0 4 0;
#X connect 3 1 2 0;
#X connect 4 0 5 0;
#X connect 5 0 1 0;
#X restore 90 527 pd awrp;
#N canvas 5 86 450 300 awrp 0;
#X obj 142 72 inlet;
#X obj 142 223 outlet;
#X obj 163 142 int;
#X obj 137 108 t f f;
#X obj 140 172 -;
#X obj 150 194 abs;
#X connect 0 0 3 0;
#X connect 2 0 4 1;
#X connect 3 0 4 0;
#X connect 3 1 2 0;
#X connect 4 0 5 0;
#X connect 5 0 1 0;
#X restore 121 496 pd awrp;
#X obj 197 181 nbx 3 14 1 128 0 1 empty empty p-frq 0 -8 0 10 -262144
-1 -1 7 256;
#N canvas 5 86 450 300 awrp 0;
#X obj 142 72 inlet;
#X obj 142 223 outlet;
#X obj 163 142 int;
#X obj 137 108 t f f;
#X obj 140 172 -;
#X obj 140 196 abs;
#X connect 0 0 3 0;
#X connect 2 0 4 1;
#X connect 3 0 4 0;
#X connect 3 1 2 0;
#X connect 4 0 5 0;
#X connect 5 0 1 0;
#X restore -161 511 pd awrp;
#N canvas 5 86 450 300 awrp 0;
#X obj 142 72 inlet;
#X obj 142 223 outlet;
#X obj 163 142 int;
#X obj 137 108 t f f;
#X obj 140 172 -;
#X obj 150 194 abs;
#X connect 0 0 3 0;
#X connect 2 0 4 1;
#X connect 3 0 4 0;
#X connect 3 1 2 0;
#X connect 4 0 5 0;
#X connect 5 0 1 0;
#X restore 191 514 pd awrp;
#N canvas 5 86 450 300 awrp 0;
#X obj 142 72 inlet;
#X obj 142 223 outlet;
#X obj 163 142 int;
#X obj 137 108 t f f;
#X obj 140 172 -;
#X obj 150 194 abs;
#X connect 0 0 3 0;
#X connect 2 0 4 1;
#X connect 3 0 4 0;
#X connect 3 1 2 0;
#X connect 4 0 5 0;
#X connect 5 0 1 0;
#X restore 226 477 pd awrp;
#N canvas 5 86 450 300 awrp 0;
#X obj 142 72 inlet;
#X obj 142 223 outlet;
#X obj 163 142 int;
#X obj 137 108 t f f;
#X obj 140 172 -;
#X obj 150 194 abs;
#X connect 0 0 3 0;
#X connect 2 0 4 1;
#X connect 3 0 4 0;
#X connect 3 1 2 0;
#X connect 4 0 5 0;
#X connect 5 0 1 0;
#X restore 293 517 pd awrp;
#N canvas 5 86 450 300 awrp 0;
#X obj 142 72 inlet;
#X obj 142 223 outlet;
#X obj 163 142 int;
#X obj 137 108 t f f;
#X obj 140 172 -;
#X obj 150 194 abs;
#X connect 0 0 3 0;
#X connect 2 0 4 1;
#X connect 3 0 4 0;
#X connect 3 1 2 0;
#X connect 4 0 5 0;
#X connect 5 0 1 0;
#X restore 269 440 pd awrp;
#N canvas 5 86 450 300 awrp 0;
#X obj 142 72 inlet;
#X obj 142 223 outlet;
#X obj 163 142 int;
#X obj 137 108 t f f;
#X obj 140 172 -;
#X obj 140 196 abs;
#X connect 0 0 3 0;
#X connect 2 0 4 1;
#X connect 3 0 4 0;
#X connect 3 1 2 0;
#X connect 4 0 5 0;
#X connect 5 0 1 0;
#X restore -258 389 pd awrp;
#N canvas 5 86 450 300 awrp 0;
#X obj 142 72 inlet;
#X obj 142 223 outlet;
#X obj 163 142 int;
#X obj 137 108 t f f;
#X obj 140 172 -;
#X obj 140 196 abs;
#X connect 0 0 3 0;
#X connect 2 0 4 1;
#X connect 3 0 4 0;
#X connect 3 1 2 0;
#X connect 4 0 5 0;
#X connect 5 0 1 0;
#X restore -183 387 pd awrp;
#X obj -39 1072 outlet~;
#X obj 280 13 inlet;
#X obj 849 7 loadbang;
#X obj 363 150 moses 0.01;
#N canvas 13 261 1275 706 seq16 0;
#X obj -70 56 inlet;
#X obj -75 199 select 0 1 2 3 4 5 6 7 8 9 10 11 12 13 14 15;
#X obj -53 117 mod 16;
#X obj -96 271 int;
#X obj -67 270 int;
#X obj -6 269 int;
#X obj -36 268 int;
#X obj 26 271 int;
#X obj 55 270 int;
#X obj 116 269 int;
#X obj 86 268 int;
#X obj 151 268 int;
#X obj 180 267 int;
#X obj 241 266 int;
#X obj 211 265 int;
#X obj 273 268 int;
#X obj 302 267 int;
#X obj 363 266 int;
#X obj 333 265 int;
#X obj 312 103 route 0 1 2 3 4 5 6 7 8 9 10 11 12 13 14 15;
#X obj 33 62 inlet;
#X floatatom 278 167 3 0 128 0 - - -;
#X floatatom 303 167 3 0 128 0 - - -;
#X floatatom 328 167 3 0 128 0 - - -;
#X floatatom 353 167 3 0 128 0 - - -;
#X floatatom 381 167 3 0 128 0 - - -;
#X floatatom 406 167 3 0 128 0 - - -;
#X floatatom 431 167 3 0 128 0 - - -;
#X floatatom 456 167 3 0 128 0 - - -;
#X floatatom 484 167 3 0 128 0 - - -;
#X floatatom 509 167 3 0 128 0 - - -;
#X floatatom 534 167 3 0 128 0 - - -;
#X floatatom 559 167 3 0 128 0 - - -;
#X floatatom 587 167 3 0 128 0 - - -;
#X floatatom 612 167 3 0 128 0 - - -;
#X floatatom 637 167 3 0 128 0 - - -;
#X floatatom 662 167 3 0 128 0 - - -;
#X obj 338 19 inlet;
#X text -75 25 pos;
#X text 33 38 len;
#X text 338 0 stepset;
#X obj 470 437 outlet;
#X obj 419 377 select;
#X obj 73 133 - 1;
#X obj 207 383 outlet;
#X obj 208 358 / 128;
#X floatatom 403 422 5 0 0 0 - - -;
#X connect 0 0 2 0;
#X connect 1 0 3 0;
#X connect 1 1 4 0;
#X connect 1 2 6 0;
#X connect 1 3 5 0;
#X connect 1 4 7 0;
#X connect 1 5 8 0;
#X connect 1 6 10 0;
#X connect 1 7 9 0;
#X connect 1 8 11 0;
#X connect 1 9 12 0;
#X connect 1 10 14 0;
#X connect 1 11 13 0;
#X connect 1 12 15 0;
#X connect 1 13 16 0;
#X connect 1 14 18 0;
#X connect 1 15 17 0;
#X connect 2 0 1 0;
#X connect 2 0 42 0;
#X connect 3 0 45 0;
#X connect 4 0 45 0;
#X connect 5 0 45 0;
#X connect 6 0 45 0;
#X connect 7 0 45 0;
#X connect 8 0 45 0;
#X connect 9 0 45 0;
#X connect 10 0 45 0;
#X connect 11 0 45 0;
#X connect 12 0 45 0;
#X connect 13 0 45 0;
#X connect 14 0 45 0;
#X connect 15 0 45 0;
#X connect 16 0 45 0;
#X connect 17 0 45 0;
#X connect 18 0 45 0;
#X connect 19 0 21 0;
#X connect 19 1 22 0;
#X connect 19 2 23 0;
#X connect 19 3 24 0;
#X connect 19 4 25 0;
#X connect 19 5 26 0;
#X connect 19 6 27 0;
#X connect 19 7 28 0;
#X connect 19 8 29 0;
#X connect 19 9 30 0;
#X connect 19 10 31 0;
#X connect 19 11 32 0;
#X connect 19 12 33 0;
#X connect 19 13 34 0;
#X connect 19 14 35 0;
#X connect 19 15 36 0;
#X connect 20 0 2 1;
#X connect 20 0 43 0;
#X connect 21 0 3 1;
#X connect 22 0 4 1;
#X connect 23 0 6 1;
#X connect 24 0 5 1;
#X connect 25 0 7 1;
#X connect 26 0 8 1;
#X connect 27 0 10 1;
#X connect 28 0 9 1;
#X connect 29 0 11 1;
#X connect 30 0 12 1;
#X connect 31 0 14 1;
#X connect 32 0 13 1;
#X connect 33 0 15 1;
#X connect 34 0 16 1;
#X connect 35 0 18 1;
#X connect 36 0 17 1;
#X connect 37 0 19 0;
#X connect 42 0 41 0;
#X connect 43 0 42 1;
#X connect 43 0 46 0;
#X connect 45 0 44 0;
#X coords 0 0 1 1 410 40 0;
#X restore 362 113 pd seq16;
#X obj 105 158 nbx 3 14 2 16 0 1 empty empty sqlen 0 -8 0 10 -262144
-1 -1 16 256;
#X obj 173 129 vsl 15 64 0 1 0 1 empty empty ttr 0 -9 0 10 -262144
-1 -1 4000 1;
#X obj 197 149 nbx 3 14 1 128 0 1 empty empty scfrq 0 -8 0 10 -262144
-1 -1 3 256;
#X obj 477 244 f;
#X obj 515 245 + 1;
#X obj 507 267 mod 1;
#X obj 520 292 select 0;
#X text 362 558 waveform -> synth params;
#X text 31 309 synth params;
#X text 410 823 waveform;
#X text 27 944 waveform fm mod;
#X obj 590 352 until;
#X obj 590 380 f;
#X obj 628 381 + 1;
#X msg 588 326 16;
#X obj 622 403 mod 16;
#X obj 628 441 t f f;
#X obj 642 593 pack f f;
#X obj 664 489 tabread \$0sctable1;
#X obj 658 463 * 32;
#N canvas 5 86 450 300 awrp 0;
#X obj 142 72 inlet;
#X obj 142 223 outlet;
#X obj 163 142 int;
#X obj 137 108 t f f;
#X obj 140 172 -;
#X obj 140 196 abs;
#X connect 0 0 3 0;
#X connect 2 0 4 1;
#X connect 3 0 4 0;
#X connect 3 1 2 0;
#X connect 4 0 5 0;
#X connect 5 0 1 0;
#X restore 666 515 pd awrp;
#X obj 691 541 * 128;
#X obj 698 572 int;
#X obj 236 148 bng 15 250 50 0 empty empty empty 17 7 0 10 -262144
-1 -1;
#X obj 236 180 bng 15 250 50 0 empty empty empty 17 7 0 10 -262144
-1 -1;
#X obj -25 185 moses 0.1;
#X obj 104 128 nbx 3 14 1 128 0 1 empty empty llen 0 -8 0 10 -262144
-1 -1 9 256;
#X obj 464 33 f;
#X obj 502 34 + 1;
#X obj 494 56 mod 1;
#X obj 115 229 hsl 128 8 0 1 0 0 empty empty empty -2 -8 0 10 -262144
-1 -1 0 1;
#X obj 463 99 /;
#X msg 634 270 0.529841 0.0353968 0.119365 0.0630159 0.095873 0.115556
0.0677778 0.100794 0.00936508 0.0234921 0.100476 0.0855556 0;
#X obj 634 209 list;
#X obj 495 80 select 0;
#X obj 222 116 bng 15 250 50 0 empty empty str 17 7 0 10 -258113 -1
-1;
#X text 694 112 store params and osc waveform for reset;
#X obj 866 377 until;
#X obj 866 405 f;
#X obj 904 406 + 1;
#X obj 922 493 tabread \$0sctable1;
#X msg 864 351 515;
#X obj 898 428 mod 515;
#X obj 886 452 t f f;
#X obj 925 516 tabwrite \$0presettable1;
#X obj 710 688 until;
#X obj 710 716 f;
#X obj 748 717 + 1;
#X msg 708 662 515;
#X obj 742 739 mod 515;
#X obj 730 763 t f f;
#X text 803 729 restore waveform;
#X obj 729 822 tabwrite \$0sctable1;
#X obj 727 799 tabread \$0presettable1;
#X obj 297 51 spigot;
#X obj 353 13 tgl 15 1 empty empty seq_on/off 17 7 0 10 -262144 -1
-1 1 1;
#X text 222 72 turn off for sound adjustment;
#N canvas 0 22 450 300 (subpatch) 0;
#X array \$0presettable1 515 float 1;
#A 0 1 1 1 1 1 1 1 1 1 1 1 1 1 1 1 1 1 1 1 1 1 1 1 1 1 1 1 1 1 1 1
1 1 1 1 1 1 1 1 1 1 1 1 1 1 1 1 1 1 1 1 1 1 1 1 1 1 1 1 1 1 1 1 1 1
1 1 1 1 1 1 1 1 1 1 1 1 1 1 1 1 1 1 1 1 1 1 1 1 1 1 1 1 1 1 1 1 1 1
1 1 1 1 1 1 1 1 1 1 1 1 1 1 1 1 1 1 1 1 1 1 1 1 1 1 1 1 1 1 1 1 1 1
1 1 1 1 1 1 1 1 1 1 1 1 1 1 1 1 1 1 1 1 1 1 1 1 1 1 1 1 1 1 1 1 1 1
1 1 1 1 1 1 1 1 1 1 1 1 1 1 1 1 1 1 1 1 1 1 1 1 1 1 1 1 1 1 1 1 1 1
1 1 1 1 1 1 1 1 1 1 1 1 1 1 1 1 1 1 1 1 1 1 1 1 1 1 1 1 1 1 1 1 1 1
1 1 1 1 1 1 1 1 1 1 1 1 1 1 1 1 1 1 1 1 1 1 1 1 1 1 1 1 1 1 1 1 1 1
1 1 1 1 1 1 1 1 1 1 1 1 1 1 1 1 1 1 1 1 1 1 1 1 1 1 1 1 1 1 1 1 1 1
1 1 1 1 1 1 1 1 1 1 1 1 1 1 1 1 1 1 1 1 1 1 1 1 1 1 1 1 1 1 1 1 1 1
1 1 1 1 1 1 1 1 1 1 1 1 1 1 1 1 1 1 1 1 1 1 1 1 1 1 1 1 1 1 1 1 1 1
1 1 1 1 1 1 1 1 1 1 1 1 1 1 1 1 1 1 1 1 1 1 1 1 1 1 1 1 1 1 1 1 1 1
1 1 1 1 1 1 1 1 1 1 1 1 1 1 1 1 1 1 1 1 1 1 1 1 1 1 1 1 1 1 1 1 1 1
1 1 1 1 1 1 1 1 1 1 1 1 1 1 1 1 1 1 1 1 1 1 1 1 1 1 1 1 1 1 1 1 1 1
1 1 1 1 1 1 1 1 1 1 1 1 1 1 1 1 1 1 1 1 1 1 1 1 1 1 1 1 1 1 1 1 1 1
1 1 1 1 1 1 1 1;
#X coords 0 1 514 -1 128 51 1;
#X restore 927 563 graph;
#X text 633 360 wave -> seq;
#X msg 600 220 0;
#X obj -114 288 route 0 1 2 3 4 5 6 7 8 9 10 11 12 13;
#X obj -80 71 unpack f f f f f f f f f f f f f;
#X obj 347 442 clip 0 1;
#X obj 610 41 pack f f f f f f f f f f f f f;
#X msg 633 246 set \$1 \$2 \$3 \$4 \$5 \$6 \$7 \$8 \$9 \$10 \$11 \$12
\$13;
#X msg 425 378 14;
#X obj 459 454 mod 14;
#X obj 344 465 * 3000;
#X obj 410 629 * 34;
#X obj 859 30 t b b;
#X text 263 615 param glide;
#X text 348 482 pitch glide;
#X text -229 -13 rekursive subtractive synth. the output wave influences
the synth-parameters and it is used for fm. the loop is not an exact
repetition \, only the start parameters are reset at the beginning
of the 'loop'.;
#X text -229 42 6/2011 martin brinkmann;
#X text -486 135 wamt: amount of influence on the synth-parameters
;
#X text -485 83 llen: lenght of the loop (multiples of sqlen);
#X text -485 99 sqlen: length of the trigger-sequencer for parameter
changes (1/16);
#X text -486 152 ttr: threshhold for triggering parameter changes;
#X text -485 168 scfrq: updatefrequency for getting single-cycles (nr
of triggers);
#X text -485 198 p-frq: updatefrequency for pitch changes;
#X text -485 218 str: store synth state for reset;
#X obj 103 211 nbx 3 14 0 127 0 1 empty empty pmin 0 -8 0 10 -262144
-1 -1 85 256;
#X obj 142 211 nbx 3 14 0 127 0 1 empty empty pmax 0 -8 0 10 -262144
-1 -1 90 256;
#X obj 184 210 hsl 64 15 0.01 1 1 1 empty empty fma -2 -8 0 10 -262144
-1 -1 4400 1;
#X obj -54 779 *;
#X text -486 236 fma: fm amount;
#X text -485 252 pmin/max: pitch range constraint;
#X obj 112 904 *~;
#X obj 160 35 ctlin 13;
#X obj 170 45 ctlin 21;
#X obj 180 54 ctlin 29;
#X obj 182 73 / 128;
#X connect 0 0 12 0;
#X connect 1 0 13 1;
#X connect 1 0 39 0;
#X connect 1 0 167 1;
#X connect 2 0 14 1;
#X connect 2 0 43 0;
#X connect 2 0 167 2;
#X connect 3 0 15 1;
#X connect 3 0 45 0;
#X connect 3 0 167 3;
#X connect 4 0 16 1;
#X connect 4 0 51 0;
#X connect 4 0 167 4;
#X connect 5 0 17 1;
#X connect 5 0 53 0;
#X connect 5 0 167 5;
#X connect 6 0 18 1;
#X connect 6 0 55 0;
#X connect 6 0 167 6;
#X connect 7 0 19 1;
#X connect 7 0 58 0;
#X connect 7 0 167 7;
#X connect 8 0 20 1;
#X connect 8 0 47 0;
#X connect 8 0 167 0;
#X connect 9 0 21 1;
#X connect 9 0 41 0;
#X connect 9 0 167 8;
#X connect 10 0 22 1;
#X connect 10 0 49 0;
#X connect 10 0 167 9;
#X connect 13 0 97 0;
#X connect 14 0 92 0;
#X connect 15 0 87 0;
#X connect 16 0 86 0;
#X connect 17 0 88 0;
#X connect 18 0 89 0;
#X connect 19 0 90 0;
#X connect 20 0 98 0;
#X connect 21 0 93 0;
#X connect 22 0 94 0;
#X connect 23 0 31 0;
#X connect 24 0 25 0;
#X connect 25 0 26 0;
#X connect 26 0 170 0;
#X connect 27 0 32 0;
#X connect 28 0 72 0;
#X connect 29 0 164 0;
#X connect 30 0 29 0;
#X connect 30 1 76 0;
#X connect 31 0 29 1;
#X connect 32 0 23 0;
#X connect 33 0 34 0;
#X connect 34 0 35 0;
#X connect 35 0 33 1;
#X connect 35 0 27 1;
#X connect 36 0 37 1;
#X connect 36 0 60 0;
#X connect 36 0 167 10;
#X connect 37 0 95 0;
#X connect 38 0 75 2;
#X connect 39 0 38 0;
#X connect 40 0 75 10;
#X connect 41 0 40 0;
#X connect 42 0 75 4;
#X connect 43 0 42 0;
#X connect 44 0 75 5;
#X connect 45 0 44 0;
#X connect 46 0 75 3;
#X connect 47 0 46 0;
#X connect 48 0 75 11;
#X connect 49 0 48 0;
#X connect 50 0 188 0;
#X connect 51 0 50 0;
#X connect 52 0 75 7;
#X connect 53 0 52 0;
#X connect 54 0 75 8;
#X connect 55 0 54 0;
#X connect 56 0 31 1;
#X connect 57 0 75 9;
#X connect 58 0 57 0;
#X connect 59 0 75 12;
#X connect 60 0 59 0;
#X connect 61 0 66 0;
#X connect 62 0 63 0;
#X connect 63 0 61 0;
#X connect 64 0 63 1;
#X connect 65 0 62 0;
#X connect 66 0 0 0;
#X connect 66 0 99 0;
#X connect 67 0 68 1;
#X connect 67 0 70 0;
#X connect 67 0 167 11;
#X connect 68 0 96 0;
#X connect 69 0 71 0;
#X connect 70 0 69 0;
#X connect 71 0 191 0;
#X connect 72 0 74 0;
#X connect 72 1 169 0;
#X connect 72 1 33 0;
#X connect 72 2 12 1;
#X connect 72 2 82 0;
#X connect 74 0 73 0;
#X connect 75 0 65 0;
#X connect 75 1 64 0;
#X connect 75 1 66 0;
#X connect 76 0 172 0;
#X connect 77 0 70 1;
#X connect 77 0 49 1;
#X connect 77 0 60 1;
#X connect 77 0 41 1;
#X connect 77 0 58 1;
#X connect 77 0 55 1;
#X connect 77 0 51 1;
#X connect 77 0 45 1;
#X connect 78 0 79 0;
#X connect 79 0 77 0;
#X connect 80 0 1 0;
#X connect 81 0 8 0;
#X connect 82 0 83 0;
#X connect 83 0 84 0;
#X connect 84 0 82 1;
#X connect 84 0 85 0;
#X connect 85 0 81 1;
#X connect 85 0 80 1;
#X connect 85 0 129 0;
#X connect 86 0 4 0;
#X connect 87 0 3 0;
#X connect 88 0 5 0;
#X connect 89 0 6 0;
#X connect 90 0 7 0;
#X connect 91 0 84 1;
#X connect 92 0 2 0;
#X connect 93 0 9 0;
#X connect 94 0 10 0;
#X connect 95 0 36 0;
#X connect 96 0 67 0;
#X connect 97 0 80 0;
#X connect 98 0 81 0;
#X connect 100 0 158 0;
#X connect 101 0 173 0;
#X connect 102 1 28 0;
#X connect 103 0 102 0;
#X connect 103 1 107 0;
#X connect 103 1 131 0;
#X connect 104 0 103 1;
#X connect 105 0 102 1;
#X connect 106 0 109 1;
#X connect 107 0 108 0;
#X connect 108 0 109 0;
#X connect 109 0 107 1;
#X connect 109 0 110 0;
#X connect 110 0 118 0;
#X connect 110 0 127 0;
#X connect 115 0 116 0;
#X connect 116 0 117 0;
#X connect 117 0 119 0;
#X connect 118 0 115 0;
#X connect 119 0 116 1;
#X connect 119 0 120 0;
#X connect 120 0 121 0;
#X connect 120 1 123 0;
#X connect 121 0 103 2;
#X connect 122 0 124 0;
#X connect 123 0 122 0;
#X connect 124 0 125 0;
#X connect 125 0 126 0;
#X connect 126 0 121 1;
#X connect 129 1 128 0;
#X connect 130 0 133 1;
#X connect 130 0 135 1;
#X connect 131 0 132 0;
#X connect 132 0 133 0;
#X connect 133 0 131 1;
#X connect 133 0 135 0;
#X connect 133 0 138 0;
#X connect 135 0 134 0;
#X connect 136 0 165 0;
#X connect 137 0 168 0;
#X connect 138 0 136 0;
#X connect 138 0 152 0;
#X connect 138 0 163 0;
#X connect 139 0 137 0;
#X connect 139 0 145 0;
#X connect 141 0 142 0;
#X connect 142 0 143 0;
#X connect 143 0 146 0;
#X connect 144 0 148 0;
#X connect 145 0 141 0;
#X connect 146 0 142 1;
#X connect 146 0 147 0;
#X connect 147 0 144 0;
#X connect 147 1 148 1;
#X connect 149 0 150 0;
#X connect 150 0 151 0;
#X connect 151 0 153 0;
#X connect 152 0 149 0;
#X connect 153 0 150 1;
#X connect 153 0 154 0;
#X connect 154 0 157 0;
#X connect 154 1 156 1;
#X connect 157 0 156 0;
#X connect 158 0 103 0;
#X connect 159 0 158 1;
#X connect 163 0 107 1;
#X connect 163 0 82 1;
#X connect 163 0 33 1;
#X connect 163 0 25 1;
#X connect 164 0 13 0;
#X connect 164 1 14 0;
#X connect 164 2 15 0;
#X connect 164 3 16 0;
#X connect 164 4 17 0;
#X connect 164 5 18 0;
#X connect 164 6 19 0;
#X connect 164 7 20 0;
#X connect 164 8 21 0;
#X connect 164 9 22 0;
#X connect 164 10 37 0;
#X connect 164 11 68 0;
#X connect 164 12 78 0;
#X connect 164 13 166 0;
#X connect 165 0 8 0;
#X connect 165 1 1 0;
#X connect 165 2 2 0;
#X connect 165 3 3 0;
#X connect 165 4 4 0;
#X connect 165 5 5 0;
#X connect 165 6 6 0;
#X connect 165 7 7 0;
#X connect 165 8 9 0;
#X connect 165 9 10 0;
#X connect 165 10 36 0;
#X connect 165 11 67 0;
#X connect 166 0 171 0;
#X connect 167 0 137 1;
#X connect 168 0 136 0;
#X connect 169 0 24 0;
#X connect 170 0 25 1;
#X connect 170 0 30 0;
#X connect 171 0 39 1;
#X connect 171 0 47 1;
#X connect 172 0 27 0;
#X connect 173 0 118 0;
#X connect 173 1 152 0;
#X connect 185 0 75 1;
#X connect 186 0 75 0;
#X connect 187 0 188 1;
#X connect 187 0 191 1;
#X connect 188 0 75 6;
#X connect 191 0 64 1;
#X connect 192 0 185 0;
#X connect 193 0 186 0;
#X connect 194 0 195 0;
#X connect 195 0 134 0;
#X coords 0 -1 1 1 160 140 1 100 100;
#X restore 1322 475 pd rksubnoiseloop1;
#X text 1509 467 rekursive subtractive synth. the output wave influences
the synth-parameters and it is used for fm. the loop is not an exact
repetition \, only the start parameters are reset at the beginning
of the 'loop'.;
#N canvas 43 128 610 640 mym2schorus 0;
#X obj 23 59 inlet~;
#X obj 466 487 outlet~;
#X obj 295 500 outlet~;
#X obj 197 264 cos~;
#X obj 197 291 +~ 1;
#X obj 290 225 +~ 0.25;
#X obj 304 254 cos~;
#X obj 309 284 +~ 1;
#X obj 369 69 phasor~;
#X obj 354 -14 loadbang;
#X msg 355 20 0.8;
#X obj 145 407 vd~ \$0mychr1;
#X obj 298 371 vd~ \$0mychr1;
#X obj 311 318 *~ 0.3;
#X obj 418 232 cos~;
#X obj 423 262 +~ 1;
#X obj 412 349 vd~ \$0mychr1;
#X obj 425 296 *~ 0.3;
#X obj 24 101 delwrite~ \$0mychr1 100;
#X obj 404 203 +~ 0.5;
#X obj 522 250 cos~;
#X obj 527 280 +~ 1;
#X obj 516 367 vd~ \$0mychr1;
#X obj 508 221 +~ 0.75;
#X obj 530 315 *~ 0.31;
#X obj 194 318 *~ 0.31;
#X connect 0 0 18 0;
#X connect 3 0 4 0;
#X connect 4 0 25 0;
#X connect 5 0 6 0;
#X connect 6 0 7 0;
#X connect 7 0 13 0;
#X connect 8 0 3 0;
#X connect 8 0 5 0;
#X connect 8 0 19 0;
#X connect 8 0 23 0;
#X connect 9 0 10 0;
#X connect 10 0 8 0;
#X connect 11 0 2 0;
#X connect 12 0 1 0;
#X connect 13 0 12 0;
#X connect 14 0 15 0;
#X connect 15 0 17 0;
#X connect 16 0 2 0;
#X connect 17 0 16 0;
#X connect 19 0 14 0;
#X connect 20 0 21 0;
#X connect 21 0 24 0;
#X connect 22 0 1 0;
#X connect 23 0 20 0;
#X connect 24 0 22 0;
#X connect 25 0 11 0;
#X restore 1296 736 pd mym2schorus;
#X text 1510 583 wamt: amount of influence on the synth-parameters
;
#X text 1508 532 llen: lenght of the loop (multiples of sqlen);
#X text 1509 548 sqlen: length of the trigger-sequencer for parameter
changes (1/16);
#X text 1510 600 ttr: threshhold for triggering parameter changes;
#X text 1511 616 scfrq: updatefrequency for getting single-cycles (nr
of triggers);
#X text 1511 646 p-frq: updatefrequency for pitch changes;
#X text 1511 665 str: store synth state for reset;
#X text 1511 683 fma: fm amount;
#X text 1512 699 pmin/max: pitch range constraint;
#X text 1722 510 6/2011 martin brinkmann;
#X obj 1268 776 throw~ dryL;
#X obj 1359 777 throw~ dryR;
#X obj 1296 697 *~;
#X obj 1350 660 hsl 128 15 0 2 0 0 empty empty empty -2 -8 0 10 -262144
-1 -1 0 1;
#N canvas 224 46 961 852 16counter 0;
#X obj 318 440 + 1;
#X obj 267 436 float;
#X obj 272 622 mod 2;
#X obj 210 672 delay 0;
#X obj 260 651 *;
#X msg 206 296 1;
#X obj 218 321 /;
#X obj 209 273 t f f;
#X obj 228 344 * 15000;
#X obj 339 355 t b f;
#X obj 263 405 metro 125;
#X obj 182 578 *;
#X obj 268 596 t b f f;
#X obj 136 130 hsl 80 8 0 0.4 0 1 empty empty swing -33 4 0 10 -262144
-1 -1 4300 1;
#X msg 340 329 -2;
#X obj 251 700 int;
#X obj 172 17 loadbang;
#X floatatom 126 113 5 30 300 0 bpm - -;
#X msg -2 85 set \$1;
#X msg 5 139 47.035;
#X obj 174 112 bng 15 250 50 0 empty empty empty 6 7 0 10 -261234 -1
-1;
#X obj 253 737 outlet;
#X obj 570 496 outlet;
#X text 618 497 bpm->;
#X obj 200 112 bng 15 50 20 0 empty empty empty 6 7 0 10 -204786 -1
-1;
#X obj 208 225 float;
#X obj 435 539 outlet;
#X text 144 343 1/16 in ms;
#X text 485 540 pos96->;
#X text 178 628 swing;
#X obj 259 373 / 6;
#X text 219 371 1/96;
#X obj 343 481 / 6;
#X obj 343 505 int;
#X obj 342 530 change;
#X text 304 738 pos16swing->;
#X obj 600 64 + 1;
#X obj 602 29 float;
#X obj 600 96 moses 2;
#X obj 600 155 timer;
#X obj 600 123 t b;
#X obj 648 122 t b b;
#X obj 653 243 /;
#X msg 623 221 60000;
#X obj 618 183 t b f;
#X obj 656 268 moses 10;
#X text 500 72 beatcounter;
#X obj 772 358 float;
#X obj 769 401 + 1;
#X obj 688 426 +;
#X obj 729 396 *;
#X obj 705 328 t f b;
#X obj 698 464 /;
#X msg 884 211 0;
#X text 499 302 mean (as seen on idafx blog);
#X obj 906 259 bng 15 250 50 0 empty empty empty 17 7 0 10 -262144
-1 -1;
#X obj 864 324 t f f;
#X obj 921 503 moses 0.1;
#X text 880 303 reset;
#X obj 870 366 /;
#X obj 849 431 < 0.75;
#X obj 903 435 > 1.25;
#X obj 869 391 t f f;
#X obj 877 471 ||;
#X obj 174 54 t b b b;
#X obj 43 -7 inlet;
#X obj 107 -11 inlet;
#X connect 0 0 1 1;
#X connect 0 0 32 0;
#X connect 0 0 26 0;
#X connect 1 0 0 0;
#X connect 2 0 4 0;
#X connect 3 0 15 0;
#X connect 4 0 3 1;
#X connect 5 0 6 0;
#X connect 6 0 8 0;
#X connect 7 0 5 0;
#X connect 7 1 6 1;
#X connect 8 0 11 1;
#X connect 8 0 30 0;
#X connect 9 0 10 0;
#X connect 9 1 1 0;
#X connect 10 0 1 0;
#X connect 11 0 4 1;
#X connect 12 0 3 0;
#X connect 12 1 2 0;
#X connect 12 2 15 1;
#X connect 13 0 11 0;
#X connect 14 0 9 0;
#X connect 15 0 21 0;
#X connect 16 0 64 0;
#X connect 17 0 18 0;
#X connect 17 0 25 1;
#X connect 18 0 19 0;
#X connect 19 0 17 0;
#X connect 20 0 14 0;
#X connect 20 0 25 0;
#X connect 24 0 37 0;
#X connect 25 0 7 0;
#X connect 25 0 22 0;
#X connect 30 0 10 1;
#X connect 32 0 33 0;
#X connect 33 0 34 0;
#X connect 34 0 12 0;
#X connect 36 0 37 1;
#X connect 36 0 38 0;
#X connect 37 0 36 0;
#X connect 38 0 40 0;
#X connect 38 1 41 0;
#X connect 39 0 44 0;
#X connect 39 0 56 0;
#X connect 40 0 39 0;
#X connect 41 0 39 0;
#X connect 41 1 39 1;
#X connect 42 0 45 0;
#X connect 43 0 42 0;
#X connect 44 0 43 0;
#X connect 44 1 42 1;
#X connect 45 1 51 0;
#X connect 47 0 48 0;
#X connect 47 0 50 0;
#X connect 48 0 47 1;
#X connect 48 0 52 1;
#X connect 49 0 52 0;
#X connect 50 0 49 1;
#X connect 51 0 49 0;
#X connect 51 1 47 0;
#X connect 52 0 50 1;
#X connect 52 0 17 0;
#X connect 53 0 47 1;
#X connect 53 0 37 1;
#X connect 53 0 55 0;
#X connect 56 0 59 1;
#X connect 56 1 59 0;
#X connect 57 1 53 0;
#X connect 59 0 62 0;
#X connect 60 0 63 0;
#X connect 61 0 63 1;
#X connect 62 0 60 0;
#X connect 62 1 61 0;
#X connect 63 0 57 0;
#X connect 64 0 20 0;
#X connect 64 1 20 0;
#X connect 64 2 19 0;
#X connect 65 0 20 0;
#X connect 66 0 24 0;
#X coords 0 -1 1 1 120 40 1 100 100;
#X restore 214 -64 pd 16counter;
#N canvas 157 336 984 474 k-strong 0;
#X msg 94 47 1 \, 0 20;
#X obj 94 76 line~;
#X obj 79 107 *~;
#X obj 42 76 noise~;
#X obj 575 64 vsl 15 128 0 10000 0 0 empty empty empty 0 -9 0 10 -262144
-1 -1 4699 1;
#X floatatom 575 203 5 0 0 0 - - -;
#X obj 646 64 vsl 15 128 0.5 50 1 0 empty empty empty 0 -9 0 10 -262144
-1 -1 10173 1;
#X floatatom 646 202 5 0 0 0 - - -;
#X obj 551 222 pack f 50;
#X obj 626 222 pack f 50;
#X obj 626 242 line~;
#X obj 760 167 mtof;
#X msg 760 190 1000 \$1;
#X obj 760 212 /;
#X obj 708 62 vsl 15 128 0 127 0 0 empty empty empty 0 -9 0 10 -262144
-1 -1 0 1;
#X floatatom 708 200 5 0 0 0 - - -;
#X obj 178 195 delwrite~ fourth 100;
#X obj 337 111 vd~ fourth 10;
#X obj 257 155 lop~ 1000;
#X obj 551 243 line;
#X text 63 297 this variation uses a lopass filter in the feeback loop
instaed of a [*~]. Lower cutoff frequencies lower the pitch. Does the
lop~ introduce more latency as the cutoff freq is lowered?;
#X obj 336 269 outlet~;
#X obj 685 337 block~ 4;
#X obj 94 21 inlet;
#X obj 797 100 inlet;
#X obj 652 16 loadbang;
#X msg 648 40 20;
#X obj 552 11 loadbang;
#X msg 552 33 3700;
#X connect 0 0 1 0;
#X connect 1 0 2 1;
#X connect 2 0 16 0;
#X connect 3 0 2 0;
#X connect 4 0 5 0;
#X connect 4 0 8 0;
#X connect 6 0 7 0;
#X connect 6 0 9 0;
#X connect 8 0 19 0;
#X connect 9 0 10 0;
#X connect 10 0 17 0;
#X connect 11 0 12 0;
#X connect 12 0 13 0;
#X connect 13 0 9 0;
#X connect 14 0 11 0;
#X connect 14 0 15 0;
#X connect 17 0 18 0;
#X connect 17 0 21 0;
#X connect 18 0 16 0;
#X connect 19 0 18 1;
#X connect 23 0 0 0;
#X connect 24 0 11 0;
#X connect 25 0 26 0;
#X connect 26 0 6 0;
#X connect 27 0 28 0;
#X connect 28 0 4 0;
#X restore 661 185 pd k-strong;
#X obj 664 380 throw~ kstrong;
#X obj 1110 465 catch~ kstrong;
#X obj 296 478 throw~ mic0;
#X obj 1049 494 catch~ mic0;
#X obj 542 344 s pitches1;
#X obj 105 293 s pitches0;
#X obj 680 204 hsl 128 15 0 1 0 0 empty empty empty -2 -8 0 10 -262144
-1 -1 0 1;
#X obj 146 317 hsl 128 15 0 1 0 0 empty empty empty -2 -8 0 10 -262144
-1 -1 9029 1;
#X obj 711 270 hsl 128 15 0 127 0 0 empty empty empty -2 -8 0 10 -262144
-1 -1 6600 1;
#X obj 707 318 sig~;
#X obj 664 349 vcf~ 1;
#X obj 707 293 mtof;
#X obj 708 227 loadbang;
#X msg 708 248 66;
#X obj 515 294 hsl 128 15 0 1 0 0 empty empty empty -2 -8 0 10 -262144
-1 -1 0 1;
#X obj 414 -60 osc~;
#X obj 556 -63 osc~;
#X obj 417 -87 hsl 128 15 0 127 0 0 empty empty empty -2 -8 0 10 -262144
-1 -1 0 1;
#X obj 559 -88 hsl 128 15 35 75 0 0 empty empty empty -2 -8 0 10 -262144
-1 -1 0 1;
#X obj 507 -14 *~;
#X obj 562 -30 hsl 128 15 0 1 0 0 empty empty empty -2 -8 0 10 -262144
-1 -1 0 1;
#X obj 507 16 throw~ sine;
#X obj 696 438 catch~ sine;
#X floatatom 597 -63 5 0 0 0 - - -;
#X floatatom 455 -60 5 0 0 0 - - -;
#X obj 944 378 hsl 128 15 0 1 0 0 empty empty empty -2 -8 0 10 -262144
-1 -1 0 1;
#X obj 62 318 *~;
#X obj 431 320 *~;
#X obj 886 397 *~;
#X obj 664 321 *~;
#X obj 222 84 metro;
#X obj 225 37 hsl 128 15 0 1500 0 0 empty empty empty -2 -8 0 10 -262144
-1 -1 0 1;
#X obj 416 41 r clock1;
#X obj 26 46 r clock1;
#X obj 1322 445 r clock1;
#X obj 222 107 s clock1;
#X obj 724 160 / 1;
#X obj 661 100 r clock1;
#X obj 724 100 r pitches1;
#X obj 438 -113 hsl 128 15 0 127 0 0 empty empty empty -2 -8 0 10 -262144
-1 -1 0 1;
#X obj 561 111 vline~;
#X msg 583 86 0 1000;
#X msg 560 65 1 3000 \, 0 3000 3000;
#X obj 561 135 s~ swell;
#X obj 506 269 r~ swell;
#X obj 214 -9 s clock2;
#X obj -63 -9 led_driver 6;
#X obj -251 -59 comport;
#X obj -251 -107 delay 10;
#X obj -252 -129 bang;
#X msg -251 -80 baud 115200;
#X msg -252 -152 devicename /dev/tty.usbserial-A400GYUY;
#X msg -187 -129 close;
#X msg -63 -75 set \$1 \$2 \$3;
#X obj -63 -95 pack f f f;
#X obj 30 -136 hsl 128 15 0 1 0 0 empty empty empty -2 -8 0 10 -262144
-1 -1 0 1;
#X obj 30 -115 hsl 128 15 0 1 0 0 empty empty empty -2 -8 0 10 -262144
-1 -1 0 1;
#X obj 30 -94 hsl 128 15 0 1 0 0 empty empty empty -2 -8 0 10 -262144
-1 -1 0 1;
#X text 166 -137 h;
#X text 167 -119 s;
#X text 167 -96 v;
#X obj -64 -118 t b f;
#X obj -27 -118 t b f;
#X obj -223 71 / 2;
#X obj -244 96 pipe;
#X obj -63 -32 spigot;
#X obj -1 -32 spigot;
#X obj -28 -55 r strobe;
#X obj -189 153 s strobe;
#X obj 32 -55 == 0;
#X obj -116 -116 tgl 15 0 empty empty empty 17 7 0 10 -262144 -1 -1
0 1;
#X obj -107 21 unpack f f f;
#X obj -130 46 pack 0 f f f;
#X obj -130 71 route 0;
#X msg -130 99 set \$1 \$2 \$3;
#X obj -218 -31 metro 20;
#X obj -115 -43 == 0;
#X obj 41 -2 hsl 128 15 10 500 0 0 empty empty empty -2 -8 0 10 -262144
-1 -1 596 1;
#X obj 38 18 s strobe_rate;
#X obj -185 -60 r strobe_rate;
#X obj -223 50 r strobe_rate;
#X msg -244 122 set 0 0 0;
#X obj -218 -6 t b b;
#X obj -116 -93 bang;
#X obj 320 93 ctlin;
#X floatatom 322 121 5 0 0 0 - - -;
#X floatatom 336 141 5 0 0 0 - - -;
#X floatatom 352 159 5 0 0 0 - - -;
#X obj 178 277 ctlin 40;
#X obj 178 298 / 128;
#X obj 588 275 / 128;
#X obj 588 255 ctlin 41;
#X obj 616 181 / 128;
#X obj 681 -61 ctlin 43;
#X obj 727 -25 / 128;
#X obj 434 -148 ctlin 11;
#X obj 510 -148 ctlin 19;
#X obj 580 -149 ctlin 27;
#X obj 1017 348 / 128;
#X obj 1017 328 ctlin 44;
#X obj 613 -3 ctlin 60;
#X obj 615 160 ctlin 42;
#X obj 835 217 ctlin 26;
#X obj -185 373 ctlin 12;
#X obj -189 439 ctlin 20;
#X obj -190 459 / 128;
#X obj -92 607 ctlin 28;
#X obj -92 628 / 128;
#X obj -92 650 * 10000;
#X obj 1455 709 ctlin 45;
#X obj 1455 729 / 128;
#X obj 1455 749 * 2;
#X obj 203 -151 ctlin 15;
#X obj 203 -131 / 128;
#X obj 268 -127 / 128;
#X obj 268 -147 ctlin 23;
#X obj 333 -124 / 128;
#X obj 332 -144 ctlin 47;
#X obj -13 -144 sel 0;
#X obj 90 -58 ctlin 31;
#X obj 90 -36 * 4;
#X obj 326 8 * 15;
#X obj 326 -13 ctlin 39;
#X obj -13 -166 ctlin 65;
#X obj 151 -56 loadbang;
#X msg 151 -35 33;
#X obj 613 16 sel 127;
#X msg 739 -94 7;
#X obj 111 64 sel 127;
#X obj 111 45 ctlin 61;
#X obj 47 70 bng 15 250 50 0 empty empty empty 17 7 0 10 -262144 -1
-1;
#X msg 363 223 64;
#X msg 396 226 66;
#X msg 435 225 64;
#X msg 495 229 66;
#X msg 541 223 68;
#X msg 577 220 64;
#X msg -59 164 34;
#X msg -31 164 36;
#X msg -2 164 34;
#X msg 6 209 42;
#X msg 34 209 40;
#X msg 63 209 42;
#X msg 228 179 36;
#X msg 200 179 34;
#X msg 258 179 34;
#X msg 217 223 42;
#X msg 245 223 40;
#X msg 274 223 42;
#X obj 70 172 select 0 1 2 3;
#N canvas 122 82 1141 733 pad 0;
#X obj 535 24 hsl 128 15 0 127 0 1 empty empty empty -2 -6 0 8 -262144
-1 -1 6200 1;
#N canvas 0 22 450 300 (subpatch) 0;
#X array pad 1000 float 0;
#X coords 0 2 999 -1 200 100 1;
#X restore 657 521 graph;
#X obj 522 516 tgl 15 1 empty empty empty 0 -6 0 10 -262144 -1 -1 1
1;
#X text 635 608 -1;
#X text 641 563 0;
#X text 543 514 Graph output;
#X obj 522 539 metro 100;
#X obj 952 2 mtof;
#X obj 955 -23 hsl 128 15 0 127 0 1 empty empty empty -2 -6 0 8 -262144
-1 -1 6200 1;
#X obj 726 -7 hsl 128 15 0 127 0 1 empty empty empty -2 -6 0 8 -262144
-1 -1 4900 1;
#X obj 717 159 expr~ $v1 > 0.5;
#X obj 994 138 expr~ $v1 > 0.5;
#X obj 722 123 spigot~;
#X obj 797 117 tgl 15 0 empty empty empty 17 7 0 10 -262144 -1 -1 0
1;
#X obj 1068 91 tgl 15 0 empty empty empty 17 7 0 10 -262144 -1 -1 0
1;
#X obj 955 104 spigot~;
#X text 641 517 2;
#X obj 555 231 noise~;
#X obj 533 84 mtof;
#X obj 723 19 mtof;
#X obj 427 603 outlet~;
#X text 472 604 comment;
#X floatatom 1009 39 5 0 0 0 - - -;
#X obj 951 175 *~ 0.9;
#X obj 956 80 phasor~ 391;
#X obj 469 570 tabwrite~ pad;
#X obj 971 287 mtof;
#X obj 364 257 *~;
#X obj 702 190 *~ 1;
#X obj 533 149 *~ 1;
#X obj 722 93 phasor~ 103.8;
#X obj 533 113 osc~ 679.7;
#X obj 970 318 sig~;
#X obj 556 289 *~ 0.05;
#X floatatom 603 82 5 0 0 0 - - -;
#X floatatom 798 64 5 0 0 0 - - -;
#X obj 511 -3 inlet;
#X obj 699 -41 inlet;
#X obj 911 -48 inlet;
#X obj 973 259 + 80;
#X obj 111 49 gadsr~;
#X obj 80 -11 bng 15 250 50 0 empty empty empty 17 7 0 10 -262144 -1
-1;
#X obj 448 230 s \$0_dur;
#X obj 107 -42 inlet;
#X obj 429 -25 inlet;
#X obj 758 232 hsl 128 15 0 127 0 0 empty empty empty -2 -8 0 10 -262144
-1 -1 6600 1;
#X obj 755 288 sig~;
#X obj 746 358 vcf~ 1;
#X obj 755 263 mtof;
#X obj 1007 198 r x;
#X obj 953 353 lop~ 15;
#X obj 791 185 loadbang;
#X msg 791 206 66;
#X obj 854 119 sel 0;
#X obj 854 96 ctlin 58;
#X obj 846 204 ctlin 10;
#X obj 163 -43 ctlin 8;
#X obj 215 -43 ctlin 16;
#X obj 275 -43 ctlin 24;
#X obj 334 -44 ctlin 32;
#X obj 724 45 t b f;
#X obj 952 24 t b f;
#X obj 722 69 + 1.07;
#X obj 953 53 + 0.6;
#X connect 0 0 18 0;
#X connect 0 0 34 0;
#X connect 2 0 6 0;
#X connect 6 0 25 0;
#X connect 7 0 61 0;
#X connect 8 0 7 0;
#X connect 8 0 22 0;
#X connect 9 0 19 0;
#X connect 9 0 35 0;
#X connect 10 0 28 0;
#X connect 11 0 23 0;
#X connect 12 0 28 0;
#X connect 12 1 10 0;
#X connect 13 0 12 1;
#X connect 14 0 15 1;
#X connect 15 0 23 0;
#X connect 15 1 11 0;
#X connect 17 0 33 0;
#X connect 18 0 31 0;
#X connect 19 0 60 0;
#X connect 23 0 47 0;
#X connect 24 0 15 0;
#X connect 26 0 32 0;
#X connect 27 0 20 0;
#X connect 27 0 25 0;
#X connect 28 0 47 0;
#X connect 29 0 47 0;
#X connect 30 0 12 0;
#X connect 31 0 29 0;
#X connect 32 0 50 0;
#X connect 33 0 47 0;
#X connect 36 0 18 0;
#X connect 37 0 19 0;
#X connect 38 0 7 0;
#X connect 39 0 26 0;
#X connect 40 0 27 0;
#X connect 40 1 42 0;
#X connect 41 0 40 0;
#X connect 43 0 40 0;
#X connect 44 0 40 5;
#X connect 45 0 48 0;
#X connect 46 0 47 1;
#X connect 47 0 27 1;
#X connect 48 0 46 0;
#X connect 49 0 39 0;
#X connect 50 0 47 1;
#X connect 51 0 52 0;
#X connect 52 0 45 0;
#X connect 53 0 13 0;
#X connect 53 0 14 0;
#X connect 54 0 53 0;
#X connect 55 0 45 0;
#X connect 56 0 40 1;
#X connect 57 0 40 2;
#X connect 58 0 40 3;
#X connect 59 0 40 4;
#X connect 60 0 62 0;
#X connect 60 1 62 0;
#X connect 61 0 63 0;
#X connect 61 1 63 0;
#X connect 62 0 30 0;
#X connect 63 0 24 0;
#X restore 16 273 pd pad ---------;
#X connect 0 0 1 0;
#X connect 1 0 24 0;
#X connect 2 0 0 0;
#X connect 3 0 12 0;
#X connect 3 1 13 0;
#X connect 4 0 3 0;
#X connect 5 0 3 0;
#X connect 6 0 3 0;
#X connect 7 0 6 0;
#X connect 8 0 4 0;
#X connect 9 0 5 0;
#X connect 10 0 3 0;
#X connect 11 0 3 1;
#X connect 14 0 17 0;
#X connect 14 0 23 0;
#X connect 15 0 19 0;
#X connect 15 0 23 1;
#X connect 17 0 134 0;
#X connect 19 0 133 0;
#X connect 20 0 22 0;
#X connect 21 0 8 0;
#X connect 21 1 9 0;
#X connect 21 2 7 0;
#X connect 22 0 21 0;
#X connect 25 0 26 0;
#X connect 25 0 28 0;
#X connect 26 0 25 1;
#X connect 27 0 307 0;
#X connect 27 1 25 0;
#X connect 28 0 306 0;
#X connect 29 0 30 0;
#X connect 29 0 34 0;
#X connect 30 0 29 1;
#X connect 31 0 288 0;
#X connect 31 1 291 0;
#X connect 31 2 292 0;
#X connect 31 3 289 0;
#X connect 31 4 290 0;
#X connect 31 5 293 0;
#X connect 32 0 33 0;
#X connect 32 1 29 0;
#X connect 33 0 184 0;
#X connect 34 0 31 0;
#X connect 35 0 36 0;
#X connect 35 1 37 0;
#X connect 40 0 36 0;
#X connect 40 0 37 0;
#X connect 41 0 36 0;
#X connect 41 0 37 0;
#X connect 41 0 35 0;
#X connect 41 0 35 1;
#X connect 42 0 51 0;
#X connect 42 0 54 0;
#X connect 42 0 56 0;
#X connect 42 0 57 0;
#X connect 42 0 58 0;
#X connect 42 0 59 0;
#X connect 42 0 60 0;
#X connect 42 0 61 0;
#X connect 42 0 62 0;
#X connect 42 0 55 0;
#X connect 43 0 67 0;
#X connect 44 0 67 0;
#X connect 45 0 67 0;
#X connect 46 0 67 0;
#X connect 47 0 67 0;
#X connect 48 0 67 0;
#X connect 49 0 67 0;
#X connect 50 0 67 0;
#X connect 51 0 50 1;
#X connect 52 0 67 0;
#X connect 53 0 67 0;
#X connect 54 0 52 1;
#X connect 55 0 53 1;
#X connect 56 0 49 1;
#X connect 57 0 48 1;
#X connect 58 0 43 1;
#X connect 59 0 44 1;
#X connect 60 0 45 1;
#X connect 61 0 46 1;
#X connect 62 0 47 1;
#X connect 62 0 77 0;
#X connect 63 0 50 0;
#X connect 64 0 185 0;
#X connect 65 0 64 1;
#X connect 66 0 67 1;
#X connect 67 0 64 0;
#X connect 68 0 52 0;
#X connect 69 0 53 0;
#X connect 70 0 49 0;
#X connect 71 0 48 0;
#X connect 72 0 43 0;
#X connect 73 0 44 0;
#X connect 74 0 45 0;
#X connect 75 0 46 0;
#X connect 76 0 47 0;
#X connect 77 0 78 0;
#X connect 79 0 63 0;
#X connect 79 0 68 0;
#X connect 79 0 69 0;
#X connect 79 0 70 0;
#X connect 79 0 71 0;
#X connect 79 0 72 0;
#X connect 79 0 73 0;
#X connect 79 0 74 0;
#X connect 79 0 75 0;
#X connect 79 0 76 0;
#X connect 81 0 80 0;
#X connect 83 0 35 0;
#X connect 83 0 35 1;
#X connect 84 0 112 0;
#X connect 86 0 87 0;
#X connect 89 0 90 0;
#X connect 91 0 92 0;
#X connect 93 0 111 0;
#X connect 94 0 95 0;
#X connect 96 0 107 0;
#X connect 97 0 98 0;
#X connect 104 0 86 0;
#X connect 105 0 89 0;
#X connect 106 0 97 0;
#X connect 107 0 108 0;
#X connect 108 0 100 0;
#X connect 108 1 101 0;
#X connect 108 2 102 0;
#X connect 108 3 103 0;
#X connect 108 4 109 0;
#X connect 110 0 84 0;
#X connect 111 0 108 0;
#X connect 113 0 124 0;
#X connect 125 0 284 0;
#X connect 126 0 129 0;
#X connect 127 0 128 0;
#X connect 128 0 129 1;
#X connect 129 0 113 0;
#X connect 130 0 126 0;
#X connect 131 0 8 0;
#X connect 133 0 18 0;
#X connect 134 0 16 0;
#X connect 135 0 136 0;
#X connect 136 0 159 0;
#X connect 137 0 136 1;
#X connect 138 0 153 0;
#X connect 140 0 35 0;
#X connect 140 1 35 1;
#X connect 153 0 140 0;
#X connect 154 0 153 1;
#X connect 155 0 202 0;
#X connect 156 0 186 0;
#X connect 158 0 35 1;
#X connect 158 0 35 0;
#X connect 160 0 35 0;
#X connect 160 0 35 1;
#X connect 163 0 186 1;
#X connect 164 0 183 1;
#X connect 165 0 168 0;
#X connect 166 0 167 1;
#X connect 167 0 157 0;
#X connect 168 0 166 0;
#X connect 169 0 170 0;
#X connect 170 0 165 0;
#X connect 171 0 184 1;
#X connect 172 0 176 0;
#X connect 173 0 176 0;
#X connect 174 0 172 0;
#X connect 174 0 181 0;
#X connect 175 0 173 0;
#X connect 175 0 180 0;
#X connect 176 0 178 0;
#X connect 177 0 176 1;
#X connect 179 0 36 0;
#X connect 179 0 37 0;
#X connect 182 0 185 1;
#X connect 183 0 38 0;
#X connect 184 0 39 0;
#X connect 185 0 82 0;
#X connect 186 0 167 0;
#X connect 187 0 192 0;
#X connect 188 0 187 0;
#X connect 188 0 187 1;
#X connect 189 0 32 0;
#X connect 190 0 287 0;
#X connect 191 0 138 0;
#X connect 193 0 156 1;
#X connect 194 0 156 0;
#X connect 195 0 193 0;
#X connect 196 0 174 0;
#X connect 196 0 175 0;
#X connect 197 0 200 0;
#X connect 198 0 197 0;
#X connect 199 0 197 0;
#X connect 203 0 204 0;
#X connect 205 0 207 0;
#X connect 206 0 205 0;
#X connect 207 0 204 0;
#X connect 208 0 206 0;
#X connect 208 0 204 0;
#X connect 209 0 204 0;
#X connect 210 0 222 0;
#X connect 211 0 210 0;
#X connect 211 0 228 0;
#X connect 212 0 211 0;
#X connect 213 0 218 0;
#X connect 214 0 211 2;
#X connect 214 0 219 0;
#X connect 218 0 211 0;
#X connect 218 1 211 1;
#X connect 219 0 211 0;
#X connect 219 1 211 2;
#X connect 220 0 221 1;
#X connect 221 0 238 0;
#X connect 222 0 203 0;
#X connect 223 0 203 0;
#X connect 224 0 223 0;
#X connect 226 0 223 1;
#X connect 227 0 226 0;
#X connect 227 0 222 1;
#X connect 227 0 233 0;
#X connect 227 0 240 0;
#X connect 228 0 229 1;
#X connect 228 1 229 2;
#X connect 228 2 229 3;
#X connect 229 0 230 0;
#X connect 230 0 231 0;
#X connect 231 0 225 0;
#X connect 232 0 239 0;
#X connect 233 0 232 0;
#X connect 234 0 235 0;
#X connect 236 0 232 1;
#X connect 237 0 220 0;
#X connect 238 0 225 0;
#X connect 239 0 221 0;
#X connect 239 1 229 0;
#X connect 240 0 211 0;
#X connect 241 0 242 0;
#X connect 241 1 243 0;
#X connect 241 2 244 0;
#X connect 245 0 246 0;
#X connect 246 0 164 0;
#X connect 247 0 171 0;
#X connect 248 0 247 0;
#X connect 249 0 163 0;
#X connect 250 0 251 0;
#X connect 251 0 177 0;
#X connect 252 0 196 0;
#X connect 253 0 174 0;
#X connect 254 0 175 0;
#X connect 255 0 182 0;
#X connect 256 0 255 0;
#X connect 257 0 283 0;
#X connect 258 0 249 0;
#X connect 259 0 165 0;
#X connect 260 0 86 0;
#X connect 261 0 262 0;
#X connect 262 0 89 0;
#X connect 263 0 264 0;
#X connect 264 0 265 0;
#X connect 265 0 97 0;
#X connect 266 0 267 0;
#X connect 267 0 268 0;
#X connect 268 0 154 0;
#X connect 269 0 270 0;
#X connect 270 0 212 0;
#X connect 271 0 213 0;
#X connect 272 0 271 0;
#X connect 273 0 214 0;
#X connect 274 0 273 0;
#X connect 275 0 227 0;
#X connect 276 0 277 0;
#X connect 277 0 234 0;
#X connect 278 0 188 0;
#X connect 279 0 278 0;
#X connect 280 0 275 0;
#X connect 281 0 282 0;
#X connect 282 0 234 0;
#X connect 283 0 81 0;
#X connect 284 0 113 0;
#X connect 285 0 287 0;
#X connect 286 0 285 0;
#X connect 287 0 27 0;
#X connect 288 0 33 2;
#X connect 288 0 161 0;
#X connect 289 0 33 2;
#X connect 289 0 161 0;
#X connect 290 0 33 3;
#X connect 291 0 33 3;
#X connect 291 0 161 0;
#X connect 292 0 33 4;
#X connect 292 0 161 0;
#X connect 293 0 33 4;
#X connect 293 0 161 0;
#X connect 294 0 307 2;
#X connect 295 0 307 3;
#X connect 296 0 307 4;
#X connect 297 0 307 2;
#X connect 298 0 307 3;
#X connect 299 0 307 4;
#X connect 300 0 307 3;
#X connect 301 0 307 2;
#X connect 302 0 307 4;
#X connect 303 0 307 2;
#X connect 304 0 307 3;
#X connect 305 0 307 4;
#X connect 306 0 294 0;
#X connect 306 0 295 0;
#X connect 306 0 296 0;
#X connect 306 1 297 0;
#X connect 306 1 298 0;
#X connect 306 1 299 0;
#X connect 306 2 301 0;
#X connect 306 2 300 0;
#X connect 306 2 302 0;
#X connect 306 3 303 0;
#X connect 306 3 304 0;
#X connect 306 3 305 0;
#X connect 307 0 183 0;
