#N canvas 4 55 1389 831 10;
#X obj 276 578 dist~;
#X obj 525 447 subt ------------------------;
#X obj 274 -67 s \$0-note;
#X obj 37 548 r \$0-note;
#X obj 37 571 outlet;
#X obj 324 133 vsl 15 128 15 750 0 0 empty empty a 0 -9 0 10 -260097
-1 -1 0 1;
#X obj 372 133 vsl 15 128 0 700 0 0 empty empty d 0 -9 0 10 -260097
-1 -1 0 1;
#X obj 421 133 vsl 15 128 0 100 0 0 empty empty s 0 -9 0 10 -260097
-1 -1 0 1;
#X obj 470 133 vsl 15 128 0 1500 0 0 empty empty r 0 -9 0 10 -260097
-1 -1 0 1;
#X obj 543 132 vsl 15 128 0 2000 0 0 empty empty note_duration 0 -9
0 10 -261611 -1 -1 0 1;
#X obj 123 135 knob 32 32 1 1.008 0 0 empty empty detune 0 -8 0 10
-257985 -1 -1 0 1;
#X obj 208 136 vsl 15 128 0 127 0 0 empty empty filter_amount -25 -9
0 10 -257985 -1 -1 0 1;
#X obj 272 136 vsl 15 128 0 1 0 0 empty empty noise -6 -9 0 10 -258113
-1 -1 0 1;
#X obj 635 132 vsl 15 128 15 750 0 0 empty empty a 0 -9 0 10 -257985
-1 -1 0 1;
#X obj 684 132 vsl 15 128 0 700 0 0 empty empty d 0 -9 0 10 -257985
-1 -1 0 1;
#X obj 733 132 vsl 15 128 0 127 0 0 empty empty s 0 -9 0 10 -257985
-1 -1 0 1;
#X obj 781 132 vsl 15 128 0 1500 0 0 empty empty r 0 -9 0 10 -257985
-1 -1 0 1;
#X obj 257 299 s \$0-noise;
#X obj 186 299 s \$0-famnt;
#X obj 324 299 s \$0-aa;
#X obj 372 299 s \$0-ad;
#X obj 421 299 s \$0-as;
#X obj 470 299 s \$0-ar;
#X obj 635 295 s \$0-fa;
#X obj 684 295 s \$0-fd;
#X obj 733 295 s \$0-fs;
#X obj 781 295 s \$0-fr;
#X text 395 102 amp;
#X text 695 102 filter;
#N canvas 43 128 610 640 mym2schorus 0;
#X obj 23 59 inlet~;
#X obj 466 487 outlet~;
#X obj 295 500 outlet~;
#X obj 197 264 cos~;
#X obj 197 291 +~ 1;
#X obj 290 225 +~ 0.25;
#X obj 304 254 cos~;
#X obj 309 284 +~ 1;
#X obj 369 69 phasor~;
#X obj 354 -14 loadbang;
#X msg 355 20 0.8;
#X obj 145 407 vd~ \$0mychr1;
#X obj 298 371 vd~ \$0mychr1;
#X obj 311 318 *~ 0.3;
#X obj 418 232 cos~;
#X obj 423 262 +~ 1;
#X obj 412 349 vd~ \$0mychr1;
#X obj 425 296 *~ 0.3;
#X obj 24 101 delwrite~ \$0mychr1 100;
#X obj 404 203 +~ 0.5;
#X obj 522 250 cos~;
#X obj 527 280 +~ 1;
#X obj 516 367 vd~ \$0mychr1;
#X obj 508 221 +~ 0.75;
#X obj 530 315 *~ 0.31;
#X obj 194 318 *~ 0.31;
#X connect 0 0 18 0;
#X connect 3 0 4 0;
#X connect 4 0 25 0;
#X connect 5 0 6 0;
#X connect 6 0 7 0;
#X connect 7 0 13 0;
#X connect 8 0 3 0;
#X connect 8 0 5 0;
#X connect 8 0 19 0;
#X connect 8 0 23 0;
#X connect 9 0 10 0;
#X connect 10 0 8 0;
#X connect 11 0 2 0;
#X connect 12 0 1 0;
#X connect 13 0 12 0;
#X connect 14 0 15 0;
#X connect 15 0 17 0;
#X connect 16 0 2 0;
#X connect 17 0 16 0;
#X connect 19 0 14 0;
#X connect 20 0 21 0;
#X connect 21 0 24 0;
#X connect 22 0 1 0;
#X connect 23 0 20 0;
#X connect 24 0 22 0;
#X connect 25 0 11 0;
#X restore 337 626 pd mym2schorus;
#X obj 337 603 *~;
#X obj 277 719 outlet~ l;
#X obj 357 718 outlet~ r;
#X obj 859 132 knob 32 32 0.5 20 0 0 empty empty distortion 0 -8 0
10 -257985 -1 -1 0 1;
#X obj 813 132 knob 32 32 0 1 0 0 empty empty chorus 0 -8 0 10 -257985
-1 -1 0 1;
#X obj 658 347 r \$0-famnt;
#X obj 618 385 r \$0-noise;
#X obj 547 347 r \$0-aa;
#X obj 559 366 r \$0-ad;
#X obj 570 385 r \$0-as;
#X obj 582 404 r \$0-ar;
#X obj 728 366 r $fdur;
#X obj 680 366 r \$0-fa;
#X obj 684 385 r \$0-fd;
#X obj 696 404 r \$0-fs;
#X obj 724 347 r \$0-fr;
#X obj 122 217 tgl 35 0 empty empty shape 0 -9 0 10 -258113 -1 -1 0
1;
#X obj 163 334 s \$0-shape;
#X obj 110 299 s \$0-detune;
#X obj 543 298 s \$0-adur;
#X obj 529 320 s \$0-fdur;
#X obj 597 347 r \$0-adur;
#X obj 607 366 r \$0-detune;
#X obj 630 404 r \$0-shape;
#X obj 324 27 * 5.74219;
#X obj 324 50 + 15;
#X obj 370 77 * 5.46875;
#X obj 431 77 * 0.78125;
#X obj 493 77 * 11.7188;
#X obj 632 54 * 5.74219;
#X obj 632 77 + 15;
#X obj 694 75 * 5.46875;
#X obj 756 75 * 0.78125;
#X obj 818 75 * 11.7188;
#X obj 1148 46 * 0.152343;
#X obj 1148 69 + 0.5;
#X obj 1150 137 * 0.0078125;
#X obj -19 71 + 1;
#X obj 360 -66 s \$0-t1;
#X obj 409 -66 s \$0-n1;
#X obj 500 389 r \$0-t1;
#X obj 500 409 r \$0-n1;
#X obj 425 -114 inlet;
#X obj 464 -117 inlet;
#X obj 625 -141 inlet;
#X obj -19 47 * 6.25e-05;
#X obj 251 52 * 0.0078125;
#X obj 409 -44 s \$0-t2;
#X obj 458 -44 s \$0-n2;
#X obj 472 -65 s \$0-t3;
#X obj 521 -65 s \$0-n3;
#X obj 521 -44 s \$0-t4;
#X obj 570 -44 s \$0-n4;
#X obj 577 -64 s \$0-t5;
#X obj 626 -64 s \$0-n5;
#X obj 626 -43 s \$0-t;
#X obj 675 -43 s \$0-n6;
#X obj 687 -65 s \$0-t7;
#X obj 736 -65 s \$0-n7;
#X obj 736 -42 s \$0-t8;
#X obj 785 -42 s \$0-n8;
#X obj 788 444 subt ------------------------;
#X obj 921 344 r \$0-famnt;
#X obj 881 382 r \$0-noise;
#X obj 810 344 r \$0-aa;
#X obj 822 363 r \$0-ad;
#X obj 833 382 r \$0-as;
#X obj 845 401 r \$0-ar;
#X obj 991 363 r $fdur;
#X obj 943 363 r \$0-fa;
#X obj 947 382 r \$0-fd;
#X obj 959 401 r \$0-fs;
#X obj 987 344 r \$0-fr;
#X obj 860 344 r \$0-adur;
#X obj 870 363 r \$0-detune;
#X obj 893 401 r \$0-shape;
#X obj 763 386 r \$0-t2;
#X obj 763 406 r \$0-n2;
#X obj 1040 441 subt ------------------------;
#X obj 1173 341 r \$0-famnt;
#X obj 1133 379 r \$0-noise;
#X obj 1062 341 r \$0-aa;
#X obj 1074 360 r \$0-ad;
#X obj 1085 379 r \$0-as;
#X obj 1097 398 r \$0-ar;
#X obj 1243 360 r $fdur;
#X obj 1195 360 r \$0-fa;
#X obj 1199 379 r \$0-fd;
#X obj 1211 398 r \$0-fs;
#X obj 1239 341 r \$0-fr;
#X obj 1112 341 r \$0-adur;
#X obj 1122 360 r \$0-detune;
#X obj 1145 398 r \$0-shape;
#X obj 1015 383 r \$0-t3;
#X obj 1015 403 r \$0-n3;
#X obj 553 576 subt ------------------------;
#X obj 686 476 r \$0-famnt;
#X obj 646 514 r \$0-noise;
#X obj 575 476 r \$0-aa;
#X obj 587 495 r \$0-ad;
#X obj 598 514 r \$0-as;
#X obj 610 533 r \$0-ar;
#X obj 756 495 r $fdur;
#X obj 708 495 r \$0-fa;
#X obj 712 514 r \$0-fd;
#X obj 724 533 r \$0-fs;
#X obj 752 476 r \$0-fr;
#X obj 625 476 r \$0-adur;
#X obj 635 495 r \$0-detune;
#X obj 658 533 r \$0-shape;
#X obj 528 518 r \$0-t4;
#X obj 528 538 r \$0-n4;
#X obj 796 -139 inlet;
#X obj 796 -85 s \$0-midi;
#X obj 275 533 *~ 1;
#X obj 189 8 r \$0-midi;
#X obj 189 29 route 17;
#X obj 556 34 r \$0-midi;
#X obj 556 55 route 16;
#X obj -19 3 r \$0-midi;
#X obj 556 76 * 14.625;
#X obj 251 8 r \$0-midi;
#X obj -19 24 route 9;
#X obj 251 29 route 8;
#X obj 324 -14 r \$0-midi;
#X obj 324 7 route 19;
#X obj 386 -14 r \$0-midi;
#X obj 386 7 route 18;
#X obj 448 -14 r \$0-midi;
#X obj 448 7 route 11;
#X obj 510 -14 r \$0-midi;
#X obj 510 7 route 10;
#X obj 632 7 r \$0-midi;
#X obj 694 6 r \$0-midi;
#X obj 756 6 r \$0-midi;
#X obj 818 6 r \$0-midi;
#X obj 1150 93 r \$0-midi;
#X obj 1148 3 r \$0-midi;
#X obj 816 213 knob 32 32 0 1 0 0 empty empty reverb 0 -8 0 10 -257985
-1 -1 0 1;
#X obj 1151 209 * 0.0078125;
#X obj 1151 165 r \$0-midi;
#X text 294 700 main outs;
#X text 22 524 midi note output from voice 1;
#X obj 632 28 route 19;
#X obj 694 27 route 18;
#X obj 756 27 route 11;
#X obj 818 27 route 10;
#X obj 88 22 r \$0-midi;
#X obj 88 44 route 21;
#X obj 90 69 > 64;
#X obj 1150 114 route 20;
#X obj 1148 24 route 13;
#X obj 1151 186 route 12;
#X obj 673 -121 f \$1;
#X obj 673 -142 loadbang;
#X obj 21 113 loadbang;
#X msg 21 136 1;
#X text 835 -144 midi ctlin comes in here (with the order of the 2
floats reversed);
#X obj 425 -91 seq_only -------------------------;
#X obj 493 -158 inlet;
#X obj 548 -158 inlet;
#X obj 493 -134 route \$1;
#X obj 548 -134 route \$1;
#X text 583 -161 route scale and key per abstraction argument;
#X obj 901 -117 inlet;
#X text 938 -117 0 opens sequencer save dialog \, 1 opens sequencer
load dialog;
#X obj 942 136 bng 30 250 50 0 empty empty save_patt 0 -10 0 10 -4034
-1 -1;
#X msg 1008 163 0;
#X obj 941 215 bng 30 250 50 0 empty empty load_patt 0 -10 0 10 -258113
-1 -1;
#X msg 1009 226 1;
#X connect 0 0 31 0;
#X connect 0 0 32 0;
#X connect 1 0 144 0;
#X connect 3 0 4 0;
#X connect 5 0 19 0;
#X connect 6 0 20 0;
#X connect 7 0 21 0;
#X connect 8 0 22 0;
#X connect 9 0 49 0;
#X connect 9 0 50 0;
#X connect 10 0 48 0;
#X connect 11 0 18 0;
#X connect 12 0 17 0;
#X connect 13 0 23 0;
#X connect 14 0 24 0;
#X connect 15 0 25 0;
#X connect 16 0 26 0;
#X connect 29 0 31 0;
#X connect 29 1 32 0;
#X connect 30 0 29 0;
#X connect 33 0 0 1;
#X connect 34 0 30 1;
#X connect 35 0 1 10;
#X connect 36 0 1 8;
#X connect 37 0 1 2;
#X connect 38 0 1 3;
#X connect 39 0 1 4;
#X connect 40 0 1 5;
#X connect 41 0 1 15;
#X connect 42 0 1 11;
#X connect 43 0 1 12;
#X connect 44 0 1 13;
#X connect 45 0 1 14;
#X connect 46 0 47 0;
#X connect 51 0 1 6;
#X connect 52 0 1 7;
#X connect 53 0 1 9;
#X connect 54 0 55 0;
#X connect 55 0 5 0;
#X connect 56 0 6 0;
#X connect 57 0 7 0;
#X connect 58 0 8 0;
#X connect 59 0 60 0;
#X connect 60 0 13 0;
#X connect 61 0 14 0;
#X connect 62 0 15 0;
#X connect 63 0 16 0;
#X connect 64 0 65 0;
#X connect 65 0 33 0;
#X connect 66 0 34 0;
#X connect 67 0 10 0;
#X connect 70 0 1 0;
#X connect 71 0 1 1;
#X connect 72 0 188 0;
#X connect 73 0 188 1;
#X connect 74 0 188 4;
#X connect 75 0 67 0;
#X connect 76 0 12 0;
#X connect 91 0 144 0;
#X connect 92 0 91 10;
#X connect 93 0 91 8;
#X connect 94 0 91 2;
#X connect 95 0 91 3;
#X connect 96 0 91 4;
#X connect 97 0 91 5;
#X connect 98 0 91 15;
#X connect 99 0 91 11;
#X connect 100 0 91 12;
#X connect 101 0 91 13;
#X connect 102 0 91 14;
#X connect 103 0 91 6;
#X connect 104 0 91 7;
#X connect 105 0 91 9;
#X connect 106 0 91 0;
#X connect 107 0 91 1;
#X connect 108 0 144 0;
#X connect 109 0 108 10;
#X connect 110 0 108 8;
#X connect 111 0 108 2;
#X connect 112 0 108 3;
#X connect 113 0 108 4;
#X connect 114 0 108 5;
#X connect 115 0 108 15;
#X connect 116 0 108 11;
#X connect 117 0 108 12;
#X connect 118 0 108 13;
#X connect 119 0 108 14;
#X connect 120 0 108 6;
#X connect 121 0 108 7;
#X connect 122 0 108 9;
#X connect 123 0 108 0;
#X connect 124 0 108 1;
#X connect 125 0 144 0;
#X connect 126 0 125 10;
#X connect 127 0 125 8;
#X connect 128 0 125 2;
#X connect 129 0 125 3;
#X connect 130 0 125 4;
#X connect 131 0 125 5;
#X connect 132 0 125 15;
#X connect 133 0 125 11;
#X connect 134 0 125 12;
#X connect 135 0 125 13;
#X connect 136 0 125 14;
#X connect 137 0 125 6;
#X connect 138 0 125 7;
#X connect 139 0 125 9;
#X connect 140 0 125 0;
#X connect 141 0 125 1;
#X connect 142 0 143 0;
#X connect 144 0 31 0;
#X connect 144 0 32 0;
#X connect 144 0 0 0;
#X connect 144 0 30 0;
#X connect 145 0 146 0;
#X connect 146 0 11 0;
#X connect 147 0 148 0;
#X connect 148 0 150 0;
#X connect 149 0 152 0;
#X connect 150 0 9 0;
#X connect 151 0 153 0;
#X connect 152 0 75 0;
#X connect 153 0 76 0;
#X connect 154 0 155 0;
#X connect 155 0 54 0;
#X connect 156 0 157 0;
#X connect 157 0 56 0;
#X connect 158 0 159 0;
#X connect 159 0 57 0;
#X connect 160 0 161 0;
#X connect 161 0 58 0;
#X connect 162 0 173 0;
#X connect 163 0 174 0;
#X connect 164 0 175 0;
#X connect 165 0 176 0;
#X connect 166 0 180 0;
#X connect 167 0 181 0;
#X connect 169 0 168 0;
#X connect 170 0 182 0;
#X connect 173 0 59 0;
#X connect 174 0 61 0;
#X connect 175 0 62 0;
#X connect 176 0 63 0;
#X connect 177 0 178 0;
#X connect 178 0 179 0;
#X connect 179 0 46 0;
#X connect 180 0 66 0;
#X connect 181 0 64 0;
#X connect 182 0 169 0;
#X connect 183 0 188 5;
#X connect 184 0 183 0;
#X connect 185 0 186 0;
#X connect 186 0 10 0;
#X connect 188 0 68 0;
#X connect 188 1 2 0;
#X connect 188 1 69 0;
#X connect 188 2 77 0;
#X connect 188 3 78 0;
#X connect 188 4 79 0;
#X connect 188 5 80 0;
#X connect 188 6 81 0;
#X connect 188 7 82 0;
#X connect 188 8 83 0;
#X connect 188 9 84 0;
#X connect 188 10 85 0;
#X connect 188 11 86 0;
#X connect 188 12 87 0;
#X connect 188 13 88 0;
#X connect 188 14 89 0;
#X connect 188 15 90 0;
#X connect 189 0 191 0;
#X connect 190 0 192 0;
#X connect 191 0 188 2;
#X connect 192 0 188 3;
#X connect 194 0 188 6;
#X connect 196 0 197 0;
#X connect 197 0 188 6;
#X connect 198 0 199 0;
#X connect 199 0 188 6;
#X coords 0 -1 1 1 900 180 1 100 100;
