#N canvas 18 93 1380 627 10;
#X obj 276 578 dist~;
#X obj 214 -128 s \$0-note;
#X obj 37 548 r \$0-note;
#X obj 37 571 outlet;
#X obj 324 133 vsl 15 128 15 750 0 0 empty empty a 0 -9 0 10 -260097
-1 -1 1389 1;
#X obj 372 133 vsl 15 128 0 700 0 0 empty empty d 0 -9 0 10 -260097
-1 -1 6251 1;
#X obj 421 133 vsl 15 128 0 100 0 0 empty empty s 0 -9 0 10 -260097
-1 -1 3076 1;
#X obj 470 133 vsl 15 128 0 1500 0 0 empty empty r 0 -9 0 10 -260097
-1 -1 4068 1;
#X obj 143 136 vsl 15 128 0 25 0 0 empty empty mod_amount -25 -9 0
10 -257985 -1 -1 298 1;
#X obj 207 136 vsl 15 128 0 9 0 0 empty empty harm._ratio -6 -9 0 10
-258113 -1 -1 1323 1;
#X obj 635 132 vsl 15 128 15 750 0 0 empty empty a 0 -9 0 10 -257985
-1 -1 1389 1;
#X obj 684 132 vsl 15 128 0 700 0 0 empty empty d 0 -9 0 10 -257985
-1 -1 6251 1;
#X obj 733 132 vsl 15 128 0 100 0 0 empty empty s 0 -9 0 10 -257985
-1 -1 3076 1;
#X obj 781 132 vsl 15 128 0 1500 0 0 empty empty r 0 -9 0 10 -257985
-1 -1 4068 1;
#X obj 324 299 s \$0-aa;
#X obj 372 299 s \$0-ad;
#X obj 421 299 s \$0-as;
#X obj 470 299 s \$0-ar;
#X text 395 102 amp;
#N canvas 43 128 610 640 mym2schorus 0;
#X obj 23 59 inlet~;
#X obj 466 487 outlet~;
#X obj 295 500 outlet~;
#X obj 197 264 cos~;
#X obj 197 291 +~ 1;
#X obj 290 225 +~ 0.25;
#X obj 304 254 cos~;
#X obj 309 284 +~ 1;
#X obj 369 69 phasor~;
#X obj 354 -14 loadbang;
#X msg 355 20 0.8;
#X obj 145 407 vd~ \$0mychr1;
#X obj 298 371 vd~ \$0mychr1;
#X obj 311 318 *~ 0.3;
#X obj 418 232 cos~;
#X obj 423 262 +~ 1;
#X obj 412 349 vd~ \$0mychr1;
#X obj 425 296 *~ 0.3;
#X obj 24 101 delwrite~ \$0mychr1 100;
#X obj 404 203 +~ 0.5;
#X obj 522 250 cos~;
#X obj 527 280 +~ 1;
#X obj 516 367 vd~ \$0mychr1;
#X obj 508 221 +~ 0.75;
#X obj 530 315 *~ 0.31;
#X obj 194 318 *~ 0.31;
#X connect 0 0 18 0;
#X connect 3 0 4 0;
#X connect 4 0 25 0;
#X connect 5 0 6 0;
#X connect 6 0 7 0;
#X connect 7 0 13 0;
#X connect 8 0 3 0;
#X connect 8 0 5 0;
#X connect 8 0 19 0;
#X connect 8 0 23 0;
#X connect 9 0 10 0;
#X connect 10 0 8 0;
#X connect 11 0 2 0;
#X connect 12 0 1 0;
#X connect 13 0 12 0;
#X connect 14 0 15 0;
#X connect 15 0 17 0;
#X connect 16 0 2 0;
#X connect 17 0 16 0;
#X connect 19 0 14 0;
#X connect 20 0 21 0;
#X connect 21 0 24 0;
#X connect 22 0 1 0;
#X connect 23 0 20 0;
#X connect 24 0 22 0;
#X connect 25 0 11 0;
#X restore 337 626 pd mym2schorus;
#X obj 337 603 *~;
#X obj 277 719 outlet~ l;
#X obj 357 718 outlet~ r;
#X obj 859 132 knob 32 32 0.5 20 0 0 empty empty distortion 0 -8 0
10 -257985 -1 -1 0 1;
#X obj 813 132 knob 32 32 0 1 0 0 empty empty chorus 0 -8 0 10 -257985
-1 -1 0 1;
#X obj 547 347 r \$0-aa;
#X obj 559 366 r \$0-ad;
#X obj 570 385 r \$0-as;
#X obj 582 404 r \$0-ar;
#X obj 324 27 * 5.74219;
#X obj 324 50 + 15;
#X obj 370 77 * 5.46875;
#X obj 431 77 * 0.78125;
#X obj 493 77 * 11.7188;
#X obj 632 54 * 5.74219;
#X obj 632 77 + 15;
#X obj 694 75 * 5.46875;
#X obj 756 75 * 0.78125;
#X obj 818 75 * 11.7188;
#X obj 1062 51 * 0.152343;
#X obj 1062 74 + 0.5;
#X obj 1064 142 * 0.0078125;
#X obj 358 -65 s \$0-t1;
#X obj 409 -66 s \$0-n1;
#X obj 500 389 r \$0-t1;
#X obj 500 409 r \$0-n1;
#X obj 425 -114 inlet;
#X obj 465 -115 inlet;
#X obj 638 -116 inlet;
#X obj 409 -44 s \$0-t2;
#X obj 458 -44 s \$0-n2;
#X obj 472 -65 s \$0-t3;
#X obj 521 -65 s \$0-n3;
#X obj 521 -44 s \$0-t4;
#X obj 570 -44 s \$0-n4;
#X obj 577 -64 s \$0-t5;
#X obj 626 -64 s \$0-n5;
#X obj 675 -43 s \$0-n6;
#X obj 687 -65 s \$0-t7;
#X obj 736 -65 s \$0-n7;
#X obj 736 -42 s \$0-t8;
#X obj 785 -42 s \$0-n8;
#X obj 850 -114 inlet;
#X obj 850 -60 s \$0-midi;
#X obj 275 533 *~ 1;
#X obj 189 8 r \$0-midi;
#X obj 189 28 route 17;
#X obj -19 3 r \$0-midi;
#X obj 251 8 r \$0-midi;
#X obj -19 24 route 9;
#X obj 324 -14 r \$0-midi;
#X obj 324 7 route 19;
#X obj 386 -14 r \$0-midi;
#X obj 386 7 route 18;
#X obj 448 -14 r \$0-midi;
#X obj 448 7 route 11;
#X obj 510 -14 r \$0-midi;
#X obj 510 7 route 10;
#X obj 632 7 r \$0-midi;
#X obj 694 6 r \$0-midi;
#X obj 756 6 r \$0-midi;
#X obj 818 6 r \$0-midi;
#X obj 1064 98 r \$0-midi;
#X obj 1062 8 r \$0-midi;
#X obj 816 213 knob 32 32 0 1 0 0 empty empty reverb 0 -8 0 10 -257985
-1 -1 0 1;
#X obj 1065 214 * 0.0078125;
#X obj 1065 170 r \$0-midi;
#X text 294 700 main outs;
#X text 22 524 midi note output from voice 1;
#X obj 632 28 route 19;
#X obj 694 27 route 18;
#X obj 756 27 route 11;
#X obj 818 27 route 10;
#X obj 88 22 r \$0-midi;
#X obj 88 44 route 21;
#X obj 1064 119 route 20;
#X obj 1062 29 route 13;
#X obj 1065 191 route 12;
#X obj 711 -93 f \$1;
#X obj 711 -114 loadbang;
#X obj 525 446 fm1 ------------------------;
#X obj 186 299 s \$0-mamnt;
#X obj 257 349 s \$0-ratio;
#X obj 635 295 s \$0-ma;
#X obj 684 295 s \$0-md;
#X obj 733 295 s \$0-ms;
#X obj 781 295 s \$0-mr;
#X obj 707 375 r \$0-mamnt;
#X obj 485 367 r \$0-ratio;
#X obj 623 343 r \$0-ma;
#X obj 627 362 r \$0-md;
#X obj 639 381 r \$0-ms;
#X obj 653 400 r \$0-mr;
#X text 665 102 index of modulation;
#X obj 251 29 route 16;
#X floatatom 138 387 5 0 0 0 - - -;
#X obj 189 51 * 0.195312;
#X obj 851 350 r \$0-aa;
#X obj 863 369 r \$0-ad;
#X obj 874 388 r \$0-as;
#X obj 886 407 r \$0-ar;
#X obj 1011 378 r \$0-mamnt;
#X obj 789 370 r \$0-ratio;
#X obj 927 346 r \$0-ma;
#X obj 931 365 r \$0-md;
#X obj 943 384 r \$0-ms;
#X obj 957 403 r \$0-mr;
#X obj 804 392 r \$0-t2;
#X obj 804 412 r \$0-n2;
#X obj 563 487 r \$0-aa;
#X obj 575 506 r \$0-ad;
#X obj 586 525 r \$0-as;
#X obj 598 544 r \$0-ar;
#X obj 723 515 r \$0-mamnt;
#X obj 501 507 r \$0-ratio;
#X obj 639 483 r \$0-ma;
#X obj 643 502 r \$0-md;
#X obj 655 521 r \$0-ms;
#X obj 669 540 r \$0-mr;
#X obj 874 487 r \$0-aa;
#X obj 886 506 r \$0-ad;
#X obj 897 525 r \$0-as;
#X obj 909 544 r \$0-ar;
#X obj 1034 515 r \$0-mamnt;
#X obj 812 507 r \$0-ratio;
#X obj 950 483 r \$0-ma;
#X obj 954 502 r \$0-md;
#X obj 966 521 r \$0-ms;
#X obj 980 540 r \$0-mr;
#X obj 516 529 r \$0-t3;
#X obj 516 549 r \$0-n3;
#X text 887 -115 midi ctlin comes in here with reversed order for the
2 floats;
#X obj 257 289 % 10;
#X obj 251 52 * 0.078125;
#X text 214 366 quantizes to even ratios;
#X obj 505 -138 inlet;
#X obj 560 -138 inlet;
#X obj 505 -114 route \$1;
#X obj 560 -114 route \$1;
#X text 595 -141 route scale and key per abstraction argument;
#X obj 827 529 r \$0-t4;
#X obj 827 549 r \$0-n4;
#X obj 626 -43 s \$0-t6;
#X obj 425 -91 seq_only -------------------------;
#X obj 967 -89 inlet;
#X text 1003 -87 0 opens seq save dialog \, 1 opens seq restore dialg
;
#X obj 941 137 bng 30 250 50 0 empty empty save_patt 0 -10 0 10 -4034
-1 -1;
#X msg 1007 164 0;
#X obj 940 216 bng 30 250 50 0 empty empty load_patt 0 -10 0 10 -258113
-1 -1;
#X msg 1008 227 1;
#X obj 829 449 fm1 ------------------------;
#X obj 541 586 fm1 ------------------------;
#X obj 852 586 fm1 ------------------------;
#X connect 0 0 21 0;
#X connect 0 0 22 0;
#X connect 2 0 3 0;
#X connect 4 0 14 0;
#X connect 5 0 15 0;
#X connect 6 0 16 0;
#X connect 7 0 17 0;
#X connect 8 0 101 0;
#X connect 8 0 115 0;
#X connect 9 0 152 0;
#X connect 10 0 103 0;
#X connect 11 0 104 0;
#X connect 12 0 105 0;
#X connect 13 0 106 0;
#X connect 19 0 21 0;
#X connect 19 1 22 0;
#X connect 20 0 19 0;
#X connect 23 0 0 1;
#X connect 24 0 20 1;
#X connect 25 0 100 3;
#X connect 26 0 100 4;
#X connect 27 0 100 5;
#X connect 28 0 100 6;
#X connect 29 0 30 0;
#X connect 30 0 4 0;
#X connect 31 0 5 0;
#X connect 32 0 6 0;
#X connect 33 0 7 0;
#X connect 34 0 35 0;
#X connect 35 0 10 0;
#X connect 36 0 11 0;
#X connect 37 0 12 0;
#X connect 38 0 13 0;
#X connect 39 0 40 0;
#X connect 40 0 23 0;
#X connect 41 0 24 0;
#X connect 44 0 100 0;
#X connect 45 0 100 1;
#X connect 46 0 163 0;
#X connect 47 0 163 1;
#X connect 48 0 163 4;
#X connect 62 0 63 0;
#X connect 64 0 21 0;
#X connect 64 0 22 0;
#X connect 64 0 0 0;
#X connect 64 0 20 0;
#X connect 65 0 66 0;
#X connect 66 0 116 0;
#X connect 67 0 69 0;
#X connect 68 0 114 0;
#X connect 70 0 71 0;
#X connect 71 0 29 0;
#X connect 72 0 73 0;
#X connect 73 0 31 0;
#X connect 74 0 75 0;
#X connect 75 0 32 0;
#X connect 76 0 77 0;
#X connect 77 0 33 0;
#X connect 78 0 89 0;
#X connect 79 0 90 0;
#X connect 80 0 91 0;
#X connect 81 0 92 0;
#X connect 82 0 95 0;
#X connect 83 0 96 0;
#X connect 85 0 84 0;
#X connect 86 0 97 0;
#X connect 89 0 34 0;
#X connect 90 0 36 0;
#X connect 91 0 37 0;
#X connect 92 0 38 0;
#X connect 93 0 94 0;
#X connect 95 0 41 0;
#X connect 96 0 39 0;
#X connect 97 0 85 0;
#X connect 98 0 163 5;
#X connect 99 0 98 0;
#X connect 100 0 64 0;
#X connect 107 0 100 11;
#X connect 108 0 100 2;
#X connect 109 0 100 7;
#X connect 110 0 100 8;
#X connect 111 0 100 9;
#X connect 112 0 100 10;
#X connect 114 0 153 0;
#X connect 116 0 8 0;
#X connect 117 0 170 3;
#X connect 118 0 170 4;
#X connect 119 0 170 5;
#X connect 120 0 170 6;
#X connect 121 0 170 11;
#X connect 122 0 170 2;
#X connect 123 0 170 7;
#X connect 124 0 170 8;
#X connect 125 0 170 9;
#X connect 126 0 170 10;
#X connect 127 0 170 0;
#X connect 128 0 170 1;
#X connect 129 0 171 3;
#X connect 130 0 171 4;
#X connect 131 0 171 5;
#X connect 132 0 171 6;
#X connect 133 0 171 11;
#X connect 134 0 171 2;
#X connect 135 0 171 7;
#X connect 136 0 171 8;
#X connect 137 0 171 9;
#X connect 138 0 171 10;
#X connect 139 0 172 3;
#X connect 140 0 172 4;
#X connect 141 0 172 5;
#X connect 142 0 172 6;
#X connect 143 0 172 11;
#X connect 144 0 172 2;
#X connect 145 0 172 7;
#X connect 146 0 172 8;
#X connect 147 0 172 9;
#X connect 148 0 172 10;
#X connect 149 0 171 0;
#X connect 150 0 171 1;
#X connect 152 0 102 0;
#X connect 153 0 9 0;
#X connect 155 0 157 0;
#X connect 156 0 158 0;
#X connect 157 0 163 2;
#X connect 158 0 163 3;
#X connect 160 0 172 0;
#X connect 161 0 172 1;
#X connect 163 0 42 0;
#X connect 163 1 1 0;
#X connect 163 1 43 0;
#X connect 163 2 49 0;
#X connect 163 3 50 0;
#X connect 163 4 51 0;
#X connect 163 5 52 0;
#X connect 163 6 53 0;
#X connect 163 7 54 0;
#X connect 163 8 55 0;
#X connect 163 9 56 0;
#X connect 163 10 162 0;
#X connect 163 11 57 0;
#X connect 163 12 58 0;
#X connect 163 13 59 0;
#X connect 163 14 60 0;
#X connect 163 15 61 0;
#X connect 164 0 163 6;
#X connect 166 0 167 0;
#X connect 167 0 163 6;
#X connect 168 0 169 0;
#X connect 169 0 163 6;
#X connect 170 0 64 0;
#X connect 171 0 64 0;
#X connect 172 0 64 0;
#X coords 0 -1 1 1 900 180 1 100 100;
