#N canvas 9 173 450 300 10;
#X obj -200 215 textfile;
#X obj -245 239 listitem;
#X msg -199 143 rewind;
#X msg -75 56 clear;
#X obj -245 263 list trim;
#X msg -79 133 read major.txt;
#X floatatom -312 101 5 0 0 0 - - -;
#X floatatom -206 292 5 0 0 0 - - -;
#X msg 22 133 read minor.txt;
#X msg 122 133 read wholetone.txt;
#X msg -80 188 read hungarian.txt;
#X msg 44 190 read octatonicwh.txt;
#X obj -79 109 sel 0;
#X obj 23 110 sel 1;
#X obj 122 113 sel 2;
#X obj -80 167 sel 3;
#X obj 44 166 sel 4;
#X obj -205 39 t b b f b;
#X obj -312 72 inlet;
#X text -311 52 note inlet;
#X obj -205 14 inlet;
#X text -167 15 scale choice indicator (0 - 8);
#X obj -245 308 outlet;
#X connect 0 0 1 1;
#X connect 1 0 4 0;
#X connect 2 0 0 0;
#X connect 3 0 0 0;
#X connect 4 0 7 0;
#X connect 4 0 22 0;
#X connect 5 0 0 0;
#X connect 6 0 1 0;
#X connect 8 0 0 0;
#X connect 9 0 0 0;
#X connect 10 0 0 0;
#X connect 11 0 0 0;
#X connect 12 0 5 0;
#X connect 13 0 8 0;
#X connect 14 0 9 0;
#X connect 15 0 10 0;
#X connect 16 0 11 0;
#X connect 17 0 0 0;
#X connect 17 1 2 0;
#X connect 17 2 14 0;
#X connect 17 2 16 0;
#X connect 17 2 13 0;
#X connect 17 2 15 1;
#X connect 17 2 12 0;
#X connect 17 3 3 0;
#X connect 18 0 6 0;
#X connect 20 0 17 0;
