#N canvas 19 24 1421 841 10;
#X symbolatom 806 1196 4 0 0 0 - - -;
#X obj 539 -29 hradio 12 1 0 12 empty empty empty 0 -8 0 10 -262144
-1 -1 0;
#X obj 540 15 r \$0-key;
#X symbolatom 540 36 10 0 0 0 - - -;
#X obj 539 -13 s \$0-prekey;
#N canvas 963 315 450 300 read_key 0;
#X obj -61 141 textfile;
#X obj -136 171 listitem;
#X obj -170 129 r \$0-prekey;
#X obj -136 196 s \$0-key;
#X msg -61 62 rewind;
#X obj -113 10 t b b b;
#X obj -113 -13 loadbang;
#X obj -150 -14 bng 15 250 50 0 empty empty empty 17 7 0 10 -262144
-1 -1;
#X msg 46 47 read keys.txt;
#X obj -2 219 print;
#X connect 0 0 1 1;
#X connect 1 0 3 0;
#X connect 2 0 1 0;
#X connect 4 0 0 0;
#X connect 5 0 0 0;
#X connect 5 1 4 0;
#X connect 5 2 8 0;
#X connect 6 0 5 0;
#X connect 7 0 5 0;
#X connect 8 0 0 0;
#X restore 1044 -32 pd read_key;
#N canvas 720 311 508 398 steps1 0;
#X obj -183 168 textfile;
#X obj -265 219 listitem;
#X msg -183 89 rewind;
#X obj -235 37 t b b b;
#X obj -235 14 loadbang;
#X obj -272 14 bng 15 250 50 0 empty empty empty 17 7 0 10 -262144
-1 -1;
#X msg -77 73 read steps.txt;
#X msg -102 36 clear;
#X obj -280 170 expr 12-$f1;
#X obj -332 53 r \$0-step;
#X obj -316 322 s \$0-step-post;
#X obj -315 135 unpack f f;
#X obj -265 243 list trim;
#X obj -317 291 pack f s;
#X obj -276 271 symbol;
#X connect 0 0 1 1;
#X connect 1 0 12 0;
#X connect 2 0 0 0;
#X connect 3 0 0 0;
#X connect 3 1 2 0;
#X connect 3 2 6 0;
#X connect 4 0 3 0;
#X connect 5 0 3 0;
#X connect 6 0 0 0;
#X connect 7 0 0 0;
#X connect 8 0 1 0;
#X connect 9 0 11 0;
#X connect 11 0 13 0;
#X connect 11 1 8 0;
#X connect 12 0 14 0;
#X connect 13 0 10 0;
#X connect 14 0 13 1;
#X restore 1044 -11 pd steps1;
#X obj 807 1076 s \$0-step;
#X msg 807 990 0 \$1;
#X msg 817 1011 1 \$1;
#X msg 828 1031 2 \$1;
#X msg 838 1052 3 \$1;
#X obj 806 1101 r \$0-step-post;
#X obj 806 1165 symbol;
#X msg 890 988 4 \$1;
#X msg 901 1009 5 \$1;
#X msg 912 1029 6 \$1;
#X msg 922 1050 7 \$1;
#X symbolatom 850 1196 4 0 0 0 - - -;
#X obj 850 1165 symbol;
#X symbolatom 894 1196 4 0 0 0 - - -;
#X obj 894 1165 symbol;
#X symbolatom 938 1196 4 0 0 0 - - -;
#X obj 938 1165 symbol;
#X symbolatom 982 1196 4 0 0 0 - - -;
#X obj 982 1165 symbol;
#X symbolatom 1026 1196 4 0 0 0 - - -;
#X obj 1026 1165 symbol;
#X symbolatom 1069 1196 4 0 0 0 - - -;
#X obj 1069 1165 symbol;
#X symbolatom 1112 1196 4 0 0 0 - - -;
#X obj 1112 1165 symbol;
#X obj 322 63 float;
#X obj 372 63 + 1;
#X obj 256 -33 tgl 15 0 empty empty empty 17 7 0 10 -262144 -1 -1 0
1;
#N canvas 200 467 450 300 keys 0;
#X obj -52 151 textfile;
#X obj -127 181 listitem;
#X obj -161 139 r \$0-prekey;
#X msg -52 72 rewind;
#X obj -104 20 t b b b;
#X obj -104 -3 loadbang;
#X obj -141 -3 bng 15 250 50 0 empty empty empty 17 7 0 10 -262144
-1 -1;
#X msg 55 57 read rootnotes.txt;
#X obj -127 206 s \$0-rootnote;
#X connect 0 0 1 1;
#X connect 1 0 8 0;
#X connect 2 0 1 0;
#X connect 3 0 0 0;
#X connect 4 0 0 0;
#X connect 4 1 3 0;
#X connect 4 2 7 0;
#X connect 5 0 4 0;
#X connect 6 0 4 0;
#X connect 7 0 0 0;
#X restore 1044 9 pd keys;
#X obj 254 184 bng 15 250 50 0 empty empty empty 17 7 0 10 -262144
-1 -1;
#X obj 275 184 bng 15 250 50 0 empty empty empty 17 7 0 10 -262144
-1 -1;
#X obj 295 184 bng 15 250 50 0 empty empty empty 17 7 0 10 -262144
-1 -1;
#X obj 316 184 bng 15 250 50 0 empty empty empty 17 7 0 10 -262144
-1 -1;
#X obj 338 184 bng 15 250 50 0 empty empty empty 17 7 0 10 -262144
-1 -1;
#X obj 359 184 bng 15 250 50 0 empty empty empty 17 7 0 10 -262144
-1 -1;
#X obj 379 184 bng 15 250 50 0 empty empty empty 17 7 0 10 -262144
-1 -1;
#X obj 400 184 bng 15 250 50 0 empty empty empty 17 7 0 10 -262144
-1 -1;
#N canvas 70 56 450 300 octaves 0;
#X obj -240 190 + 0;
#X obj -163 67 inlet;
#X obj -240 68 inlet;
#X obj -241 218 outlet;
#X msg -141 143 0;
#X msg -110 143 12;
#X msg -81 144 24;
#X msg -53 143 36;
#X msg -24 143 48;
#X obj -163 91 sel 0 1 2 3 4 5 6 7;
#X msg -170 143 -12;
#X msg 4 143 60;
#X msg -198 143 -24;
#X connect 0 0 3 0;
#X connect 1 0 9 0;
#X connect 2 0 0 0;
#X connect 4 0 0 1;
#X connect 5 0 0 1;
#X connect 6 0 0 1;
#X connect 7 0 0 1;
#X connect 8 0 0 1;
#X connect 9 0 11 0;
#X connect 9 1 8 0;
#X connect 9 2 7 0;
#X connect 9 3 6 0;
#X connect 9 4 5 0;
#X connect 9 5 4 0;
#X connect 9 6 10 0;
#X connect 9 7 12 0;
#X connect 10 0 0 1;
#X connect 11 0 0 1;
#X connect 12 0 0 1;
#X restore 826 107 pd octaves;
#X floatatom 808 157 5 0 0 0 - - -;
#X obj 263 153 select 0 1 2 3 4 5 6 7;
#X obj 322 88 mod 8;
#X obj 826 82 t b f;
#X obj 826 132 s \$0-octave;
#X obj 907 -33 vradio 13 1 0 8 empty empty empty 0 -8 0 10 -262144
-1 -1 0;
#X floatatom 981 83 5 0 0 0 - - -;
#X text 922 -37 major scale;
#X text 922 -23 minor scale;
#X obj 806 1126 route 0 1 2 3 4 5 6 7;
#X text 922 5 hungarian minor;
#X text 922 18 octatonic w \, h;
#X obj 256 63 random 8;
#X obj 256 39 spigot;
#X obj 322 39 spigot;
#X msg 393 -28 random;
#X msg 446 -28 clock;
#X msg 378 -2 0;
#X msg 441 -3 0;
#X msg 404 -1 1;
#X msg 471 -3 1;
#X obj 826 -32 vradio 13 1 0 8 empty empty empty 0 -8 0 10 -262144
-1 -1 3;
#X obj 341 131 s \$0-seqstep;
#X text 922 -9 wholetone scale;
#X msg 555 121 1;
#X msg 742 121 8;
#X msg 717 121 7;
#X msg 690 121 6;
#X msg 663 121 5;
#X msg 636 121 4;
#X msg 609 121 3;
#X msg 582 121 2;
#X obj 629 157 s \$0-seqlength;
#X obj 375 87 r \$0-seqlength;
#X obj 539 -51 loadbang;
#X obj 826 -73 loadbang;
#X msg 826 -52 3;
#X obj 58 123 notein;
#X obj 58 169 route 4;
#X obj 58 146 pack f f;
#X obj 58 191 sel 64;
#X obj 58 215 bng 15 250 50 0 empty empty empty 17 7 0 10 -262144 -1
-1;
#X obj 49 521 list length;
#X obj 22 553 spigot;
#X obj 22 495 t a a;
#X obj 22 472 r \$0-seq_out;
#N canvas 121 46 1319 333 \$0-sequencer_guts 0;
#X obj 10 15 r \$0-seqstep;
#X msg -256 208 4;
#X obj -337 248 s \$0-seq_out;
#X obj -256 121 r \$0-b_state;
#X msg -79 208 2;
#X obj -166 248 s \$0-seq_out;
#X obj -79 119 r \$0-b_state;
#X msg 97 208;
#X obj 10 248 s \$0-seq_out;
#X obj 97 120 r \$0-b_state;
#X msg 268 208;
#X obj 181 248 s \$0-seq_out;
#X msg 437 207 2;
#X obj 350 247 s \$0-seq_out;
#X obj 437 120 r \$0-b_state;
#X msg 608 206;
#X obj 521 247 s \$0-seq_out;
#X obj 608 120 r \$0-b_state;
#X msg 784 207 5;
#X obj 697 247 s \$0-seq_out;
#X obj 784 118 r \$0-b_state;
#X obj -506 121 sel 0;
#X msg -425 209;
#X obj -506 249 s \$0-seq_out;
#X obj -425 145 r \$0-b_state;
#X obj -337 120 sel 1;
#X obj -166 120 sel 2;
#X obj 10 120 sel 3;
#X obj 181 120 sel 4;
#X obj 350 119 sel 5;
#X obj 521 119 sel 6;
#X obj 697 119 sel 7;
#X obj -506 178 seq_guts_col 0;
#X obj 268 119 r \$0-b_state;
#X obj -500 200 r \$0-c_oct0;
#X obj -166 177 seq_guts_col 16;
#X obj -337 177 seq_guts_col 8;
#X obj 10 177 seq_guts_col 24;
#X obj 181 177 seq_guts_col 32;
#X obj 350 176 seq_guts_col 40;
#X obj 521 176 seq_guts_col 48;
#X obj 697 176 seq_guts_col 56;
#X connect 0 0 27 0;
#X connect 0 0 28 0;
#X connect 0 0 29 0;
#X connect 0 0 30 0;
#X connect 0 0 31 0;
#X connect 0 0 26 0;
#X connect 0 0 25 0;
#X connect 0 0 21 0;
#X connect 3 0 36 1;
#X connect 6 0 35 1;
#X connect 9 0 37 1;
#X connect 14 0 39 1;
#X connect 17 0 40 1;
#X connect 20 0 41 1;
#X connect 21 0 32 0;
#X connect 24 0 32 1;
#X connect 25 0 36 0;
#X connect 26 0 35 0;
#X connect 27 0 37 0;
#X connect 28 0 38 0;
#X connect 29 0 39 0;
#X connect 30 0 40 0;
#X connect 31 0 41 0;
#X connect 32 0 23 0;
#X connect 32 1 22 0;
#X connect 33 0 38 1;
#X connect 35 0 5 0;
#X connect 35 1 4 0;
#X connect 36 0 2 0;
#X connect 36 1 1 0;
#X connect 37 0 8 0;
#X connect 37 1 7 0;
#X connect 38 0 11 0;
#X connect 38 1 10 0;
#X connect 39 0 13 0;
#X connect 39 1 12 0;
#X connect 40 0 16 0;
#X connect 40 1 15 0;
#X connect 41 0 19 0;
#X connect 41 1 18 0;
#X restore 59 345 pd \$0-sequencer_guts;
#N canvas 199 154 672 337 \$0-triggers 0;
#X obj -68 8 r \$0-seq_out;
#X obj 9 80 list-idx 1;
#X obj -69 267 s \$0-trig;
#X obj -69 80 list-idx 0;
#X msg -69 108 0;
#X msg 9 107 1;
#X obj 85 79 list-idx 2;
#X obj 159 79 list-idx 3;
#X msg 85 106 2;
#X msg 159 105 3;
#X msg 228 105 4;
#X msg 297 105 5;
#X msg 373 104 6;
#X msg 447 104 7;
#X obj 228 79 list-idx 4;
#X obj 297 78 list-idx 5;
#X obj 373 78 list-idx 6;
#X obj 448 78 list-idx 7;
#X connect 0 0 1 0;
#X connect 0 0 3 0;
#X connect 0 0 6 0;
#X connect 0 0 7 0;
#X connect 0 0 14 0;
#X connect 0 0 15 0;
#X connect 0 0 16 0;
#X connect 0 0 17 0;
#X connect 1 0 5 0;
#X connect 3 0 4 0;
#X connect 4 0 2 0;
#X connect 5 0 2 0;
#X connect 6 0 8 0;
#X connect 7 0 9 0;
#X connect 8 0 2 0;
#X connect 9 0 2 0;
#X connect 10 0 2 0;
#X connect 11 0 2 0;
#X connect 12 0 2 0;
#X connect 13 0 2 0;
#X connect 14 0 10 0;
#X connect 15 0 11 0;
#X connect 16 0 12 0;
#X connect 17 0 13 0;
#X restore 60 412 pd \$0-triggers;
#N canvas 614 163 533 324 test_ohmrgb 0;
#N canvas 647 386 530 344 test_ohmrgb 0;
#X obj 130 10 notein;
#X floatatom 130 32 5 0 0 0 - - -;
#X floatatom 168 32 5 0 0 0 - - -;
#X floatatom 205 32 5 0 0 0 - - -;
#X obj 15 11 ctlin;
#X floatatom 15 33 5 0 0 0 - - -;
#X floatatom 53 33 5 0 0 0 - - -;
#X floatatom 90 33 5 0 0 0 - - -;
#X obj 271 62 noteout;
#X msg 272 6 0 0 1;
#X msg 317 6 0 1 1;
#X msg 364 6 0 4 1;
#X msg 411 6 0 8 1;
#X msg 271 32 0 16 1;
#X msg 317 32 0 32 1;
#X msg 364 32 0 64 1;
#X obj 262 108 hsl 128 15 0 127 0 0 empty empty empty -2 -8 0 10 -262144
-1 -1 0 1;
#X msg 411 33 0 127 1;
#X text 253 152 velocity color map 000-000: OFF 001-003: White (looks
pink) 004-007: Cyan 008-015: Magenta 016-031: Red 032-063: Blue 064-126:
Yellow 127-127: Green;
#X connect 0 0 1 0;
#X connect 0 1 2 0;
#X connect 0 2 3 0;
#X connect 4 0 5 0;
#X connect 4 1 6 0;
#X connect 4 2 7 0;
#X connect 9 0 8 0;
#X connect 10 0 8 0;
#X connect 11 0 8 0;
#X connect 12 0 8 0;
#X connect 13 0 8 0;
#X connect 14 0 8 0;
#X connect 15 0 8 0;
#X connect 16 0 8 0;
#X connect 17 0 8 0;
#X restore 174 173 pd test_ohmrgb;
#X restore 1044 70 pd test_ohmrgb;
#X obj 539 325 unpack f f;
#X obj 539 369 pack f f;
#X obj 539 688 unpack f f;
#X obj 539 732 pack f f;
#X obj 539 708 + 8;
#X obj 450 281 r \$0-ohmbutton;
#X obj 539 302 r \$0-ohmbutton;
#X obj 584 348 - 8;
#X obj 450 779 s \$0-b_state;
#X obj 539 757 s \$0-b_state;
#X obj 632 325 unpack f f;
#X obj 632 369 pack f f;
#X obj 632 688 unpack f f;
#X obj 632 732 pack f f;
#X obj 632 302 r \$0-ohmbutton;
#X obj 632 757 s \$0-b_state;
#X obj 725 325 unpack f f;
#X obj 725 369 pack f f;
#X obj 725 688 unpack f f;
#X obj 725 732 pack f f;
#X obj 725 302 r \$0-ohmbutton;
#X obj 725 757 s \$0-b_state;
#X obj 818 325 unpack f f;
#X obj 818 369 pack f f;
#X obj 818 688 unpack f f;
#X obj 818 732 pack f f;
#X obj 818 302 r \$0-ohmbutton;
#X obj 818 757 s \$0-b_state;
#X obj 910 325 unpack f f;
#X obj 910 369 pack f f;
#X obj 910 688 unpack f f;
#X obj 910 732 pack f f;
#X obj 910 302 r \$0-ohmbutton;
#X obj 910 757 s \$0-b_state;
#X obj 1003 325 unpack f f;
#X obj 1003 369 pack f f;
#X obj 1003 688 unpack f f;
#X obj 1003 732 pack f f;
#X obj 1003 302 r \$0-ohmbutton;
#X obj 1003 757 s \$0-b_state;
#X obj 1096 325 unpack f f;
#X obj 1096 369 pack f f;
#X obj 1096 688 unpack f f;
#X obj 1096 732 pack f f;
#X obj 1096 302 r \$0-ohmbutton;
#X obj 1096 757 s \$0-b_state;
#X obj 677 348 - 16;
#X obj 770 348 - 24;
#X obj 862 348 - 32;
#X obj 955 348 - 40;
#X obj 1048 348 - 48;
#X obj 1141 347 - 56;
#X obj 632 708 + 16;
#X obj 725 710 + 24;
#X obj 818 710 + 32;
#X obj 910 708 + 40;
#X obj 1003 709 + 48;
#X obj 1096 710 + 56;
#X obj 256 -13 metro 300;
#X obj 907 83 s \$0-scale;
#X obj 1194 -12 scales;
#X obj 1194 -38 r \$0-voice0;
#X obj 1312 -38 r \$0-voice1;
#X obj 1429 -38 r \$0-voice2;
#X obj 1547 -38 r \$0-voice3;
#X obj 1194 16 s \$0-scaled_voice0;
#X obj 1194 98 s \$0-scaled_voice4;
#X obj 1194 44 r \$0-voice4;
#X obj 1312 44 r \$0-voice5;
#X obj 1312 16 s \$0-scaled_voice1;
#X obj 1429 16 s \$0-scaled_voice2;
#X obj 1547 16 s \$0-scaled_voice3;
#X obj 1429 44 r \$0-voice6;
#X obj 1547 44 r \$0-voice7;
#X obj 1546 98 s \$0-scaled_voice7;
#X obj 1429 98 s \$0-scaled_voice6;
#X obj 1312 98 s \$0-scaled_voice5;
#N canvas 570 99 627 355 \$0-voicemaking 0;
#X obj 124 38 r \$0-seq_out;
#X obj 124 65 unpack f f f f f f f f;
#X obj 37 193 s \$0-voice0;
#X obj 117 193 s \$0-voice1;
#X obj 192 193 s \$0-voice2;
#X obj 268 193 s \$0-voice3;
#X obj 251 151 s \$0-voice4;
#X obj 325 151 s \$0-voice5;
#X obj 399 151 s \$0-voice6;
#X obj 476 151 s \$0-voice7;
#X connect 0 0 1 0;
#X connect 1 0 2 0;
#X connect 1 1 3 0;
#X connect 1 2 4 0;
#X connect 1 3 5 0;
#X connect 1 4 6 0;
#X connect 1 5 7 0;
#X connect 1 6 8 0;
#X connect 1 7 9 0;
#X restore 60 385 pd \$0-voicemaking;
#X obj 1241 -12 r \$0-scale;
#X obj 1356 -12 r \$0-scale;
#X obj 1472 -12 r \$0-scale;
#X obj 1591 -12 r \$0-scale;
#X obj 1237 70 r \$0-scale;
#X obj 1355 70 r \$0-scale;
#X obj 1471 70 r \$0-scale;
#X obj 1591 70 r \$0-scale;
#X obj 1003 189 s \$0-ohmbutton;
#X msg 1003 162 1 3 \, 1 37;
#X obj 450 389 seq_t_column;
#X obj 487 362 tgl 15 0 empty empty empty 17 7 0 10 -262144 -1 -1 0
1;
#N canvas 553 71 860 404 statesaving 0;
#X obj 88 41 r \$0-col0;
#X obj 151 41 r \$0-col1;
#X obj 211 41 r \$0-col2;
#X obj 275 41 r \$0-col3;
#X obj 337 41 r \$0-col4;
#X obj 400 41 r \$0-col5;
#X obj 461 41 r \$0-col6;
#X obj 524 41 r \$0-col7;
#X obj 461 310 textfile;
#X obj 88 74 list append;
#X obj 148 98 list append;
#X obj 211 122 list append;
#X obj 274 144 list append;
#X obj 340 171 list append;
#X obj 398 198 list append;
#X obj 461 224 list append;
#X obj 461 252 list prepend add;
#X obj 461 275 list trim;
#X msg 419 289 print;
#X obj 593 20 inlet;
#X obj 594 256 list prepend write;
#X obj 594 279 list trim;
#X obj 594 234 savepanel;
#X msg 668 58 clear;
#X obj 668 21 inlet;
#X msg 594 204 symbol /Users/Jesse/Documents/Pd/patterns;
#X msg 372 329 set \$1 \$2;
#X msg 384 359;
#X connect 0 0 9 0;
#X connect 1 0 9 1;
#X connect 2 0 10 1;
#X connect 3 0 11 1;
#X connect 4 0 12 1;
#X connect 5 0 13 1;
#X connect 6 0 14 1;
#X connect 7 0 15 1;
#X connect 9 0 10 0;
#X connect 10 0 11 0;
#X connect 11 0 12 0;
#X connect 12 0 13 0;
#X connect 13 0 14 0;
#X connect 14 0 15 0;
#X connect 15 0 16 0;
#X connect 16 0 17 0;
#X connect 17 0 8 0;
#X connect 18 0 8 0;
#X connect 19 0 25 0;
#X connect 20 0 21 0;
#X connect 21 0 8 0;
#X connect 22 0 20 0;
#X connect 23 0 8 0;
#X connect 24 0 23 0;
#X connect 25 0 22 0;
#X connect 26 0 27 0;
#X restore 307 442 pd statesaving;
#X obj 470 692 s \$0-col0;
#X obj 539 390 seq_t_column;
#X obj 632 390 seq_t_column;
#X obj 725 390 seq_t_column;
#X obj 818 390 seq_t_column;
#X obj 910 390 seq_t_column;
#X obj 1003 390 seq_t_column;
#X obj 1096 390 seq_t_column;
#X obj 699 214 r \$0_save;
#X obj 576 279 tgl 15 0 empty empty empty 17 7 0 10 -262144 -1 -1 0
1;
#X obj 670 282 tgl 15 0 empty empty empty 17 7 0 10 -262144 -1 -1 0
1;
#X obj 764 282 tgl 15 0 empty empty empty 17 7 0 10 -262144 -1 -1 0
1;
#X obj 852 283 tgl 15 0 empty empty empty 17 7 0 10 -262144 -1 -1 0
1;
#X obj 949 282 tgl 15 0 empty empty empty 17 7 0 10 -262144 -1 -1 0
1;
#X obj 1043 282 tgl 15 0 empty empty empty 17 7 0 10 -262144 -1 -1
0 1;
#X obj 1131 283 tgl 15 0 empty empty empty 17 7 0 10 -262144 -1 -1
0 1;
#X obj 307 364 tgl 30 0 empty empty empty 17 7 0 10 -260097 -1 -1 0
1;
#X text 304 344 save pattern;
#X obj 348 399 s \$0_save;
#X obj 577 780 s \$0-col0;
#X obj 669 781 s \$0-col0;
#X obj 763 780 s \$0-col0;
#X obj 855 781 s \$0-col0;
#X obj 948 781 s \$0-col0;
#X obj 1040 782 s \$0-col0;
#X obj 1135 782 s \$0-col0;
#X obj 699 243 t f f f f f f f f;
#X obj 307 398 t f f;
#X obj 307 420 sel 1;
#X obj 360 420 sel 0;
#N canvas 115 72 529 440 staterestore 0;
#X obj 42 61 openpanel;
#X obj 42 189 textfile;
#X obj 42 87 list prepend read;
#X msg 42 31 symbol /Users/Jesse/Documents/Pd/patterns;
#X obj 42 110 list trim;
#X msg -7 31 rewind;
#X msg 304 31 clear;
#X obj 41 306 print s;
#X obj 118 306 print t;
#X obj 352 53 until;
#X msg 352 31 8;
#X obj 352 76 f;
#X obj 381 76 + 1;
#X obj 352 99 mod 8;
#X obj 331 128 select 0 1 2 3 4 5 6 7;
#X obj 217 163 t b b;
#X obj 21 218 list;
#X obj 113 261 route;
#X connect 0 0 2 0;
#X connect 1 0 16 1;
#X connect 2 0 4 0;
#X connect 3 0 0 0;
#X connect 4 0 1 0;
#X connect 5 0 1 0;
#X connect 6 0 1 0;
#X connect 9 0 11 0;
#X connect 10 0 9 0;
#X connect 11 0 12 0;
#X connect 11 0 13 0;
#X connect 12 0 11 1;
#X connect 13 0 14 0;
#X connect 14 0 15 0;
#X restore 306 466 pd staterestore;
#X obj 1229 273 r \$0-scaled_voice0;
#N canvas 899 147 450 300 notemaking 0;
#X obj -171 183 +;
#X obj -99 153 r \$0-rootnote;
#X obj -142 194 r \$0-octave;
#X obj -259 119 t b b;
#X obj -171 144 pack f;
#X obj -171 246 outlet;
#X obj -171 3 inlet;
#X obj -259 246 outlet;
#X obj -259 33 r \$0-trig;
#X obj -259 73 sel 0;
#X obj -171 217 +;
#X connect 0 0 10 0;
#X connect 1 0 0 1;
#X connect 2 0 10 1;
#X connect 3 0 7 0;
#X connect 3 1 4 0;
#X connect 4 0 0 0;
#X connect 6 0 4 0;
#X connect 8 0 9 0;
#X connect 9 0 3 0;
#X connect 10 0 5 0;
#X restore 1229 303 pd notemaking;
#X obj 1312 -12 scales;
#X obj 1429 -12 scales;
#X obj 1547 -12 scales;
#X obj 1194 70 scales;
#X obj 1312 70 scales;
#X obj 1429 70 scales;
#X obj 1547 70 scales;
#X obj 279 322 s \$0-oct_sw;
#X obj 254 205 vradio 13 1 0 8 empty empty empty 0 -8 0 10 -262144
-1 -1 3;
#X obj 275 205 vradio 13 1 0 8 empty empty empty 0 -8 0 10 -262144
-1 -1 3;
#X obj 295 205 vradio 13 1 0 8 empty empty empty 0 -8 0 10 -262144
-1 -1 3;
#X obj 316 205 vradio 13 1 0 8 empty empty empty 0 -8 0 10 -262144
-1 -1 3;
#X obj 338 205 vradio 13 1 0 8 empty empty empty 0 -8 0 10 -262144
-1 -1 3;
#X obj 359 205 vradio 13 1 0 8 empty empty empty 0 -8 0 10 -262144
-1 -1 3;
#X obj 379 205 vradio 13 1 0 8 empty empty empty 0 -8 0 10 -262144
-1 -1 3;
#X obj 400 205 vradio 13 1 0 8 empty empty empty 0 -8 0 10 -262144
-1 -1 3;
#X obj 427 159 loadbang;
#X msg 427 181 3;
#X obj 322 108 t f f;
#X obj 744 -50 r \$0-oct_sw;
#X obj 323 -59 inlet;
#X obj 475 -58 loadbang;
#X obj 1229 335 outlet;
#X obj 1304 335 outlet;
#X floatatom 39 503 5 0 0 0 - - -;
#X floatatom 1276 358 5 0 0 0 - - -;
#N canvas 899 147 450 300 notemaking 0;
#X obj -171 183 +;
#X obj -99 153 r \$0-rootnote;
#X obj -142 194 r \$0-octave;
#X obj -259 119 t b b;
#X obj -171 144 pack f;
#X obj -171 246 outlet;
#X obj -171 3 inlet;
#X obj -259 246 outlet;
#X obj -259 33 r \$0-trig;
#X obj -259 73 sel 0;
#X obj -171 217 +;
#X connect 0 0 10 0;
#X connect 1 0 0 1;
#X connect 2 0 10 1;
#X connect 3 0 7 0;
#X connect 3 1 4 0;
#X connect 4 0 0 0;
#X connect 6 0 4 0;
#X connect 8 0 9 0;
#X connect 9 0 3 0;
#X connect 10 0 5 0;
#X restore 1351 303 pd notemaking;
#X obj 1351 335 outlet;
#X obj 1426 335 outlet;
#X floatatom 1401 360 5 0 0 0 - - -;
#N canvas 899 147 450 300 notemaking 0;
#X obj -171 183 +;
#X obj -99 153 r \$0-rootnote;
#X obj -142 194 r \$0-octave;
#X obj -259 119 t b b;
#X obj -171 144 pack f;
#X obj -171 246 outlet;
#X obj -171 3 inlet;
#X obj -259 246 outlet;
#X obj -259 33 r \$0-trig;
#X obj -259 73 sel 0;
#X obj -171 217 +;
#X connect 0 0 10 0;
#X connect 1 0 0 1;
#X connect 2 0 10 1;
#X connect 3 0 7 0;
#X connect 3 1 4 0;
#X connect 4 0 0 0;
#X connect 6 0 4 0;
#X connect 8 0 9 0;
#X connect 9 0 3 0;
#X connect 10 0 5 0;
#X restore 1473 303 pd notemaking;
#X obj 1473 335 outlet;
#X obj 1548 335 outlet;
#X floatatom 1520 358 5 0 0 0 - - -;
#N canvas 899 147 450 300 notemaking 0;
#X obj -171 183 +;
#X obj -99 153 r \$0-rootnote;
#X obj -142 194 r \$0-octave;
#X obj -259 119 t b b;
#X obj -171 144 pack f;
#X obj -171 246 outlet;
#X obj -171 3 inlet;
#X obj -259 246 outlet;
#X obj -259 33 r \$0-trig;
#X obj -259 73 sel 0;
#X obj -171 217 +;
#X connect 0 0 10 0;
#X connect 1 0 0 1;
#X connect 2 0 10 1;
#X connect 3 0 7 0;
#X connect 3 1 4 0;
#X connect 4 0 0 0;
#X connect 6 0 4 0;
#X connect 8 0 9 0;
#X connect 9 0 3 0;
#X connect 10 0 5 0;
#X restore 1595 303 pd notemaking;
#X obj 1595 335 outlet;
#X obj 1670 335 outlet;
#X floatatom 1645 360 5 0 0 0 - - -;
#N canvas 899 147 450 300 notemaking 0;
#X obj -171 183 +;
#X obj -99 153 r \$0-rootnote;
#X obj -142 194 r \$0-octave;
#X obj -259 119 t b b;
#X obj -171 144 pack f;
#X obj -171 246 outlet;
#X obj -171 3 inlet;
#X obj -259 246 outlet;
#X obj -259 33 r \$0-trig;
#X obj -259 73 sel 0;
#X obj -171 217 +;
#X connect 0 0 10 0;
#X connect 1 0 0 1;
#X connect 2 0 10 1;
#X connect 3 0 7 0;
#X connect 3 1 4 0;
#X connect 4 0 0 0;
#X connect 6 0 4 0;
#X connect 8 0 9 0;
#X connect 9 0 3 0;
#X connect 10 0 5 0;
#X restore 1718 303 pd notemaking;
#X obj 1718 335 outlet;
#X obj 1793 335 outlet;
#X floatatom 1765 358 5 0 0 0 - - -;
#N canvas 899 147 450 300 notemaking 0;
#X obj -171 183 +;
#X obj -99 153 r \$0-rootnote;
#X obj -142 194 r \$0-octave;
#X obj -259 119 t b b;
#X obj -171 144 pack f;
#X obj -171 246 outlet;
#X obj -171 3 inlet;
#X obj -259 246 outlet;
#X obj -259 33 r \$0-trig;
#X obj -259 73 sel 0;
#X obj -171 217 +;
#X connect 0 0 10 0;
#X connect 1 0 0 1;
#X connect 2 0 10 1;
#X connect 3 0 7 0;
#X connect 3 1 4 0;
#X connect 4 0 0 0;
#X connect 6 0 4 0;
#X connect 8 0 9 0;
#X connect 9 0 3 0;
#X connect 10 0 5 0;
#X restore 1840 303 pd notemaking;
#X obj 1840 335 outlet;
#X obj 1915 335 outlet;
#X floatatom 1890 360 5 0 0 0 - - -;
#N canvas 899 147 450 300 notemaking 0;
#X obj -171 183 +;
#X obj -99 153 r \$0-rootnote;
#X obj -142 194 r \$0-octave;
#X obj -259 119 t b b;
#X obj -171 144 pack f;
#X obj -171 246 outlet;
#X obj -171 3 inlet;
#X obj -259 246 outlet;
#X obj -259 33 r \$0-trig;
#X obj -259 73 sel 0;
#X obj -171 217 +;
#X connect 0 0 10 0;
#X connect 1 0 0 1;
#X connect 2 0 10 1;
#X connect 3 0 7 0;
#X connect 3 1 4 0;
#X connect 4 0 0 0;
#X connect 6 0 4 0;
#X connect 8 0 9 0;
#X connect 9 0 3 0;
#X connect 10 0 5 0;
#X restore 1962 303 pd notemaking;
#X obj 1962 335 outlet;
#X obj 2037 335 outlet;
#X floatatom 2009 358 5 0 0 0 - - -;
#N canvas 899 147 450 300 notemaking 0;
#X obj -171 183 +;
#X obj -99 153 r \$0-rootnote;
#X obj -142 194 r \$0-octave;
#X obj -259 119 t b b;
#X obj -171 144 pack f;
#X obj -171 246 outlet;
#X obj -171 3 inlet;
#X obj -259 246 outlet;
#X obj -259 33 r \$0-trig;
#X obj -259 73 sel 0;
#X obj -171 217 +;
#X connect 0 0 10 0;
#X connect 1 0 0 1;
#X connect 2 0 10 1;
#X connect 3 0 7 0;
#X connect 3 1 4 0;
#X connect 4 0 0 0;
#X connect 6 0 4 0;
#X connect 8 0 9 0;
#X connect 9 0 3 0;
#X connect 10 0 5 0;
#X restore 2084 303 pd notemaking;
#X obj 2084 335 outlet;
#X obj 2159 335 outlet;
#X floatatom 2134 360 5 0 0 0 - - -;
#X obj 1351 273 r \$0-scaled_voice1;
#X obj 1473 273 r \$0-scaled_voice2;
#X obj 1595 273 r \$0-scaled_voice3;
#X obj 1718 273 r \$0-scaled_voice4;
#X obj 1840 273 r \$0-scaled_voice5;
#X obj 1962 273 r \$0-scaled_voice6;
#X obj 2084 273 r \$0-scaled_voice7;
#N canvas 38 207 576 421 ohmlights 0;
#X obj 64 213 noteout;
#X obj 64 49 unpack f f;
#X obj 64 172 pack f f 1;
#X obj 85 76 sel 0;
#X msg 85 101 0;
#X obj 123 76 sel 1;
#X obj 64 24 r \$0-b_state;
#X text 214 158 <-- 127-green \, 64-yellow \, 32-blue \, 16-red \,
8-magenta \, 4-cyan \, 1-white;
#X msg 193 92 127;
#X msg 224 92 64;
#X msg 254 92 32;
#X msg 284 92 16;
#X msg 314 92 8;
#X msg 344 92 4;
#X msg 374 92 1;
#X obj 121 136 f;
#X obj 205 13 loadbang;
#X obj 194 65 sel 0 1 2 3 4 5 6;
#X floatatom 296 43 5 0 0 0 - - -;
#X obj 205 36 f \$1;
#X connect 1 0 2 0;
#X connect 1 1 3 0;
#X connect 1 1 5 0;
#X connect 2 0 0 0;
#X connect 3 0 4 0;
#X connect 4 0 2 1;
#X connect 5 0 15 0;
#X connect 6 0 1 0;
#X connect 8 0 15 1;
#X connect 9 0 15 1;
#X connect 10 0 15 1;
#X connect 11 0 15 1;
#X connect 12 0 15 1;
#X connect 13 0 15 1;
#X connect 14 0 15 1;
#X connect 15 0 2 2;
#X connect 16 0 19 0;
#X connect 19 0 18 0;
#X restore 60 311 pd ohmlights;
#X connect 1 0 4 0;
#X connect 2 0 3 0;
#X connect 8 0 7 0;
#X connect 9 0 7 0;
#X connect 10 0 7 0;
#X connect 11 0 7 0;
#X connect 12 0 54 0;
#X connect 13 0 0 0;
#X connect 14 0 7 0;
#X connect 15 0 7 0;
#X connect 16 0 7 0;
#X connect 17 0 7 0;
#X connect 19 0 18 0;
#X connect 21 0 20 0;
#X connect 23 0 22 0;
#X connect 25 0 24 0;
#X connect 27 0 26 0;
#X connect 29 0 28 0;
#X connect 31 0 30 0;
#X connect 32 0 33 0;
#X connect 32 0 47 0;
#X connect 33 0 32 1;
#X connect 34 0 61 0;
#X connect 34 0 152 0;
#X connect 36 0 226 0;
#X connect 37 0 227 0;
#X connect 38 0 228 0;
#X connect 39 0 229 0;
#X connect 40 0 230 0;
#X connect 41 0 231 0;
#X connect 42 0 232 0;
#X connect 43 0 233 0;
#X connect 44 0 45 0;
#X connect 44 0 49 0;
#X connect 46 0 36 0;
#X connect 46 1 37 0;
#X connect 46 2 38 0;
#X connect 46 3 39 0;
#X connect 46 4 40 0;
#X connect 46 5 41 0;
#X connect 46 6 42 0;
#X connect 46 7 43 0;
#X connect 47 0 236 0;
#X connect 48 0 44 0;
#X connect 48 1 44 1;
#X connect 50 0 51 0;
#X connect 50 0 153 0;
#X connect 54 0 13 0;
#X connect 54 1 19 0;
#X connect 54 2 21 0;
#X connect 54 3 23 0;
#X connect 54 4 25 0;
#X connect 54 5 27 0;
#X connect 54 6 29 0;
#X connect 54 7 31 0;
#X connect 57 0 236 0;
#X connect 58 0 57 0;
#X connect 59 0 32 0;
#X connect 60 0 62 0;
#X connect 60 0 64 0;
#X connect 61 0 63 0;
#X connect 61 0 65 0;
#X connect 62 0 59 1;
#X connect 63 0 58 1;
#X connect 64 0 58 1;
#X connect 65 0 59 1;
#X connect 66 0 48 0;
#X connect 69 0 77 0;
#X connect 70 0 77 0;
#X connect 71 0 77 0;
#X connect 72 0 77 0;
#X connect 73 0 77 0;
#X connect 74 0 77 0;
#X connect 75 0 77 0;
#X connect 76 0 77 0;
#X connect 78 0 47 1;
#X connect 79 0 1 0;
#X connect 80 0 50 0;
#X connect 80 0 81 0;
#X connect 81 0 66 0;
#X connect 82 0 84 0;
#X connect 82 1 84 1;
#X connect 83 0 85 0;
#X connect 84 0 83 0;
#X connect 85 0 86 0;
#X connect 87 0 88 1;
#X connect 89 0 88 0;
#X connect 89 1 87 0;
#X connect 90 0 89 0;
#X connect 94 0 95 0;
#X connect 94 1 101 0;
#X connect 95 0 186 0;
#X connect 96 0 98 0;
#X connect 96 1 97 1;
#X connect 97 0 103 0;
#X connect 98 0 97 0;
#X connect 99 0 182 0;
#X connect 100 0 94 0;
#X connect 101 0 95 1;
#X connect 104 0 105 0;
#X connect 104 1 140 0;
#X connect 105 0 187 0;
#X connect 106 0 146 0;
#X connect 106 1 107 1;
#X connect 107 0 109 0;
#X connect 108 0 104 0;
#X connect 110 0 111 0;
#X connect 110 1 141 0;
#X connect 111 0 188 0;
#X connect 112 0 147 0;
#X connect 112 1 113 1;
#X connect 113 0 115 0;
#X connect 114 0 110 0;
#X connect 116 0 117 0;
#X connect 116 1 142 0;
#X connect 117 0 189 0;
#X connect 118 0 148 0;
#X connect 118 1 119 1;
#X connect 119 0 121 0;
#X connect 120 0 116 0;
#X connect 122 0 123 0;
#X connect 122 1 143 0;
#X connect 123 0 190 0;
#X connect 124 0 149 0;
#X connect 124 1 125 1;
#X connect 125 0 127 0;
#X connect 126 0 122 0;
#X connect 128 0 129 0;
#X connect 128 1 144 0;
#X connect 129 0 191 0;
#X connect 130 0 150 0;
#X connect 130 1 131 1;
#X connect 131 0 133 0;
#X connect 132 0 128 0;
#X connect 134 0 135 0;
#X connect 134 1 145 0;
#X connect 135 0 192 0;
#X connect 136 0 151 0;
#X connect 136 1 137 1;
#X connect 137 0 139 0;
#X connect 138 0 134 0;
#X connect 140 0 105 1;
#X connect 141 0 111 1;
#X connect 142 0 117 1;
#X connect 143 0 123 1;
#X connect 144 0 129 1;
#X connect 145 0 135 1;
#X connect 146 0 107 0;
#X connect 147 0 113 0;
#X connect 148 0 119 0;
#X connect 149 0 125 0;
#X connect 150 0 131 0;
#X connect 151 0 137 0;
#X connect 152 0 59 0;
#X connect 152 0 58 0;
#X connect 154 0 159 0;
#X connect 155 0 154 0;
#X connect 156 0 218 0;
#X connect 157 0 219 0;
#X connect 158 0 220 0;
#X connect 161 0 221 0;
#X connect 162 0 222 0;
#X connect 166 0 223 0;
#X connect 167 0 224 0;
#X connect 172 0 154 1;
#X connect 173 0 218 1;
#X connect 174 0 219 1;
#X connect 175 0 220 1;
#X connect 176 0 221 1;
#X connect 177 0 222 1;
#X connect 178 0 223 1;
#X connect 179 0 224 1;
#X connect 181 0 180 0;
#X connect 182 0 102 0;
#X connect 182 1 185 0;
#X connect 183 0 182 1;
#X connect 186 0 96 0;
#X connect 186 1 204 0;
#X connect 187 0 106 0;
#X connect 187 1 205 0;
#X connect 188 0 112 0;
#X connect 188 1 206 0;
#X connect 189 0 118 0;
#X connect 189 1 207 0;
#X connect 190 0 124 0;
#X connect 190 1 208 0;
#X connect 191 0 130 0;
#X connect 191 1 209 0;
#X connect 192 0 136 0;
#X connect 192 1 210 0;
#X connect 193 0 211 0;
#X connect 194 0 186 1;
#X connect 195 0 187 1;
#X connect 196 0 188 1;
#X connect 197 0 189 1;
#X connect 198 0 190 1;
#X connect 199 0 191 1;
#X connect 200 0 192 1;
#X connect 201 0 212 0;
#X connect 211 0 183 0;
#X connect 211 1 194 0;
#X connect 211 2 195 0;
#X connect 211 3 196 0;
#X connect 211 4 197 0;
#X connect 211 5 198 0;
#X connect 211 6 199 0;
#X connect 211 7 200 0;
#X connect 212 0 213 0;
#X connect 212 0 214 0;
#X connect 212 1 203 0;
#X connect 213 0 184 0;
#X connect 214 0 184 1;
#X connect 216 0 217 0;
#X connect 217 0 240 0;
#X connect 217 1 241 0;
#X connect 217 1 243 0;
#X connect 218 0 163 0;
#X connect 219 0 164 0;
#X connect 220 0 165 0;
#X connect 221 0 160 0;
#X connect 222 0 170 0;
#X connect 223 0 169 0;
#X connect 224 0 168 0;
#X connect 226 0 225 0;
#X connect 227 0 225 0;
#X connect 228 0 225 0;
#X connect 229 0 225 0;
#X connect 230 0 225 0;
#X connect 231 0 225 0;
#X connect 232 0 225 0;
#X connect 233 0 225 0;
#X connect 234 0 235 0;
#X connect 235 0 233 0;
#X connect 235 0 232 0;
#X connect 235 0 231 0;
#X connect 235 0 230 0;
#X connect 235 0 229 0;
#X connect 235 0 228 0;
#X connect 235 0 227 0;
#X connect 235 0 226 0;
#X connect 236 0 67 0;
#X connect 236 1 46 0;
#X connect 237 0 66 0;
#X connect 238 0 58 0;
#X connect 238 0 59 0;
#X connect 239 0 65 0;
#X connect 239 0 62 0;
#X connect 244 0 245 0;
#X connect 244 1 246 0;
#X connect 244 1 247 0;
#X connect 248 0 249 0;
#X connect 248 1 250 0;
#X connect 248 1 251 0;
#X connect 252 0 253 0;
#X connect 252 1 254 0;
#X connect 252 1 255 0;
#X connect 256 0 257 0;
#X connect 256 1 258 0;
#X connect 256 1 259 0;
#X connect 260 0 261 0;
#X connect 260 1 262 0;
#X connect 260 1 263 0;
#X connect 264 0 265 0;
#X connect 264 1 266 0;
#X connect 264 1 267 0;
#X connect 268 0 269 0;
#X connect 268 1 270 0;
#X connect 268 1 271 0;
#X connect 272 0 244 0;
#X connect 273 0 248 0;
#X connect 274 0 252 0;
#X connect 275 0 256 0;
#X connect 276 0 260 0;
#X connect 277 0 264 0;
#X connect 278 0 268 0;
