#N canvas 567 129 840 707 10;
#X obj -312 -61 notein 1;
#X obj -312 25 sel 64;
#X obj -312 -40 pack f f;
#X msg -312 -19 \$2 \$1;
#X obj -312 4 unpack f f;
#X msg -312 116 1;
#X obj -312 490 outlet;
#X obj -260 490 outlet;
#X obj -215 490 outlet;
#X obj -168 490 outlet;
#X obj -116 491 outlet;
#X obj -69 491 outlet;
#X text -232 -62 Button Routing;
#X msg -135 52 64;
#X obj -135 30 sel 64;
#X obj -102 51 sel 72;
#X msg -102 73 72;
#X text -47 36 <- midi note 64 decrements routing \, 72 increments
;
#X msg -102 95 1;
#X obj -312 88 spigot;
#X msg -260 44 0;
#X msg -279 64 1;
#X obj -180 153 spigot;
#X msg -147 106 0;
#X msg -174 125 1;
#X msg -180 175 1;
#X obj -180 197 pack f f;
#X obj -180 222 unpack f f;
#X msg -135 73 0;
#X obj -123 245 sel 0 1;
#X msg -135 269 -1;
#X msg -104 269 1;
#X obj -135 295 + 1;
#X obj -106 295 f;
#X obj -312 344 pack f f f;
#X msg -312 378 \$3 \$1 \$2;
#X obj -312 406 route 0 1 2 3 4 5;
#X obj 12 420 noteout;
#X msg -53 386 64 127 1;
#X obj 12 348 sel 0;
#X obj 134 419 noteout;
#X obj 134 347 sel 1;
#X msg 69 385 64 64 1;
#X obj 257 420 noteout;
#X obj -135 340 s \$0-ledpage;
#X text 90 277 led page button feedback;
#X obj 121 310 r \$0-ledpage;
#X msg 191 386 64 32 1;
#X obj 257 348 sel 2;
#X msg 12 386 72 127 1;
#X msg 134 385 72 64 1;
#X msg 257 386 72 32 1;
#X obj 6 581 noteout;
#X msg -60 547 64 16 1;
#X msg 6 547 72 16 1;
#X obj 94 449 r \$0-ledpage;
#X obj 138 580 noteout;
#X obj 269 578 noteout;
#X msg 72 546 64 8 1;
#X msg 138 546 72 8 1;
#X msg 203 544 64 4 1;
#X msg 269 544 72 4 1;
#X obj 6 509 sel 3;
#X obj 138 508 sel 4;
#X obj 269 506 sel 5;
#X obj -135 317 mod 6;
#X obj 390 577 noteout;
#X msg 324 543 64 4 1;
#X msg 390 543 72 4 1;
#X obj 390 505 sel 6;
#X text -199 407 per page routing;
#X text -89 198 sets the page #;
#X text -237 378 \$3 is page variable;
#X text -305 600 sends button state on/1 for each press followed by
note # ex. 1 3 ... primary ohmrgb grid is notes 0 - 63;
#X obj -54 341 outlet;
#X connect 0 0 2 0;
#X connect 0 1 2 1;
#X connect 1 0 19 0;
#X connect 1 0 22 0;
#X connect 2 0 3 0;
#X connect 3 0 4 0;
#X connect 4 0 1 0;
#X connect 4 1 14 0;
#X connect 5 0 34 0;
#X connect 13 0 28 0;
#X connect 14 0 13 0;
#X connect 14 0 20 0;
#X connect 14 1 15 0;
#X connect 15 0 16 0;
#X connect 15 0 20 0;
#X connect 15 1 21 0;
#X connect 15 1 34 1;
#X connect 16 0 18 0;
#X connect 18 0 26 1;
#X connect 19 0 5 0;
#X connect 20 0 19 1;
#X connect 20 0 24 0;
#X connect 21 0 19 1;
#X connect 21 0 23 0;
#X connect 22 0 25 0;
#X connect 23 0 22 1;
#X connect 24 0 22 1;
#X connect 25 0 26 0;
#X connect 26 0 27 0;
#X connect 27 1 29 0;
#X connect 28 0 26 1;
#X connect 29 0 30 0;
#X connect 29 1 31 0;
#X connect 30 0 32 0;
#X connect 31 0 32 0;
#X connect 32 0 33 0;
#X connect 32 0 65 0;
#X connect 33 0 32 1;
#X connect 34 0 35 0;
#X connect 35 0 36 0;
#X connect 36 0 6 0;
#X connect 36 1 7 0;
#X connect 36 2 8 0;
#X connect 36 3 9 0;
#X connect 36 4 10 0;
#X connect 36 5 11 0;
#X connect 38 0 37 0;
#X connect 39 0 38 0;
#X connect 39 0 49 0;
#X connect 41 0 42 0;
#X connect 41 0 50 0;
#X connect 42 0 40 0;
#X connect 46 0 39 0;
#X connect 46 0 41 0;
#X connect 46 0 48 0;
#X connect 47 0 43 0;
#X connect 48 0 47 0;
#X connect 48 0 51 0;
#X connect 49 0 37 0;
#X connect 50 0 40 0;
#X connect 51 0 43 0;
#X connect 53 0 52 0;
#X connect 54 0 52 0;
#X connect 55 0 62 0;
#X connect 55 0 63 0;
#X connect 55 0 64 0;
#X connect 55 0 69 0;
#X connect 58 0 56 0;
#X connect 59 0 56 0;
#X connect 60 0 57 0;
#X connect 61 0 57 0;
#X connect 62 0 53 0;
#X connect 62 0 54 0;
#X connect 63 0 58 0;
#X connect 63 0 59 0;
#X connect 64 0 60 0;
#X connect 64 0 61 0;
#X connect 65 0 34 2;
#X connect 65 0 44 0;
#X connect 65 0 74 0;
#X connect 67 0 66 0;
#X connect 68 0 66 0;
#X connect 69 0 67 0;
#X connect 69 0 68 0;
