#N canvas 642 22 776 798 10;
#X obj 107 107 tgl 30 0 empty empty empty 17 7 0 10 -260097 -1 -1 0
1;
#X msg 193 89 0 \$1;
#X obj 19 19 inlet;
#X obj 107 142 tgl 30 0 empty empty empty 17 7 0 10 -260097 -1 -1 0
1;
#X obj 19 154 r \$0-in;
#X obj 193 113 s \$0-out;
#X obj 41 107 s \$0-in;
#X obj 192 193 s \$0-out;
#X msg 192 169 1 \$1;
#X obj 356 328 r \$0-out;
#X obj 19 128 toggleins 0;
#X obj 107 177 tgl 30 0 empty empty empty 17 7 0 10 -260097 -1 -1 0
1;
#X obj 19 195 r \$0-in;
#X obj 192 269 s \$0-out;
#X obj 107 211 tgl 30 0 empty empty empty 17 7 0 10 -260097 -1 -1 0
1;
#X obj 19 237 r \$0-in;
#X obj 193 339 s \$0-out;
#X msg 192 245 2 \$1;
#X msg 193 315 3 \$1;
#X obj 107 246 tgl 30 0 empty empty empty 17 7 0 10 -260097 -1 -1 0
1;
#X obj 107 281 tgl 30 0 empty empty empty 17 7 0 10 -260097 -1 -1 0
1;
#X obj 18 278 r \$0-in;
#X obj 193 414 s \$0-out;
#X obj 193 489 s \$0-out;
#X obj 107 316 tgl 30 0 empty empty empty 17 7 0 10 -260097 -1 -1 1
1;
#X obj 18 320 r \$0-in;
#X obj 193 563 s \$0-out;
#X obj 107 350 tgl 30 0 empty empty empty 17 7 0 10 -260097 -1 -1 0
1;
#X obj 17 361 r \$0-in;
#X obj 194 639 s \$0-out;
#X obj 16 402 r \$0-in;
#X msg 193 393 4 \$1;
#X msg 193 465 5 \$1;
#X msg 193 539 6 \$1;
#X msg 194 615 7 \$1;
#X obj 193 68 i 0;
#X obj 356 394 spigot 1;
#X obj 409 87 t b b b;
#X obj 401 362 r \$0-sendout;
#X obj 463 162 s \$0-sendout;
#X msg 463 114 0;
#X msg 409 114 1;
#X obj 312 156 t b b b b b b b b;
#X obj 525 431 outlet;
#X obj 570 358 == 0;
#X obj 578 324 r \$0-sendout;
#X obj 525 390 spigot 0;
#X obj 192 148 i 0;
#X obj 192 224 i 0;
#X obj 193 295 i 0;
#X obj 193 371 i 0;
#X obj 193 443 i 0;
#X obj 193 518 i 0;
#X obj 194 593 i 0;
#X obj 409 56 inlet;
#X obj 525 291 pack f f f f f f f f;
#X obj 530 207 r \$0-out;
#X obj 530 255 route 0 1 2 3 4 5 6 7;
#X obj 19 175 toggleins 1;
#X obj 19 216 toggleins 2;
#X obj 19 257 toggleins 3;
#X obj 18 299 toggleins 4;
#X obj 18 341 toggleins 5;
#X obj 17 382 toggleins 6;
#X obj 16 423 toggleins 7;
#X obj 107 18 inlet;
#X text 148 17 inlet for addressing ALL;
#X obj -59 -7 inlet;
#X obj -59 89 route 0;
#X obj -58 122 route 1;
#X obj -58 154 route 2;
#X obj -57 187 route 3;
#X obj -57 220 route 4;
#X obj -56 253 route 5;
#X obj -56 285 route 6;
#X obj -55 318 route 7;
#X text -58 -38 1st inlet accepts 0 or 1 for note on or off. 1 3 \,
or 0 3 for note 3 on and off;
#X text 31 -12 2nd inlet accepts note-on msgs only as toggles ie 1
3 would toggle midi note 3 on and off;
#X text 407 35 inlet for outputting col state;
#X obj -59 18 unpack f f;
#X obj -59 62 pack f f;
#X obj -59 40 - \$1;
#X text 291 581 abs argument sets column offset \, 0 \, 8 \, 16 \,
etc;
#X obj 19 40 unpack f f;
#X obj 19 84 pack f f;
#X obj 64 63 - \$1;
#X obj 356 434 unpack f f;
#X obj 356 478 pack f f;
#X obj 356 454 + \$1;
#X obj 356 515 outlet;
#X connect 0 0 35 0;
#X connect 1 0 5 0;
#X connect 2 0 83 0;
#X connect 3 0 47 0;
#X connect 4 0 58 0;
#X connect 8 0 7 0;
#X connect 9 0 36 0;
#X connect 10 0 0 0;
#X connect 11 0 48 0;
#X connect 12 0 59 0;
#X connect 14 0 49 0;
#X connect 15 0 60 0;
#X connect 17 0 13 0;
#X connect 18 0 16 0;
#X connect 19 0 50 0;
#X connect 20 0 51 0;
#X connect 21 0 61 0;
#X connect 24 0 52 0;
#X connect 25 0 62 0;
#X connect 27 0 53 0;
#X connect 28 0 63 0;
#X connect 30 0 64 0;
#X connect 31 0 22 0;
#X connect 32 0 23 0;
#X connect 33 0 26 0;
#X connect 34 0 29 0;
#X connect 35 0 1 0;
#X connect 36 0 86 0;
#X connect 37 0 41 0;
#X connect 37 1 42 0;
#X connect 37 2 40 0;
#X connect 38 0 36 1;
#X connect 40 0 39 0;
#X connect 41 0 39 0;
#X connect 42 0 35 0;
#X connect 42 1 47 0;
#X connect 42 2 48 0;
#X connect 42 3 49 0;
#X connect 42 4 50 0;
#X connect 42 5 51 0;
#X connect 42 6 52 0;
#X connect 42 7 53 0;
#X connect 44 0 46 1;
#X connect 45 0 44 0;
#X connect 46 0 43 0;
#X connect 47 0 8 0;
#X connect 48 0 17 0;
#X connect 49 0 18 0;
#X connect 50 0 31 0;
#X connect 51 0 32 0;
#X connect 52 0 33 0;
#X connect 53 0 34 0;
#X connect 54 0 37 0;
#X connect 55 0 46 0;
#X connect 56 0 57 0;
#X connect 57 0 55 0;
#X connect 57 1 55 1;
#X connect 57 2 55 2;
#X connect 57 3 55 3;
#X connect 57 4 55 4;
#X connect 57 5 55 5;
#X connect 57 6 55 6;
#X connect 57 7 55 7;
#X connect 58 0 3 0;
#X connect 59 0 11 0;
#X connect 60 0 14 0;
#X connect 61 0 19 0;
#X connect 62 0 20 0;
#X connect 63 0 24 0;
#X connect 64 0 27 0;
#X connect 65 0 0 0;
#X connect 65 0 3 0;
#X connect 65 0 11 0;
#X connect 65 0 14 0;
#X connect 65 0 19 0;
#X connect 65 0 20 0;
#X connect 65 0 24 0;
#X connect 65 0 27 0;
#X connect 67 0 79 0;
#X connect 68 0 0 0;
#X connect 69 0 3 0;
#X connect 70 0 11 0;
#X connect 71 0 14 0;
#X connect 72 0 19 0;
#X connect 73 0 20 0;
#X connect 74 0 24 0;
#X connect 75 0 27 0;
#X connect 79 0 81 0;
#X connect 79 1 80 1;
#X connect 80 0 68 0;
#X connect 80 0 69 0;
#X connect 80 0 70 0;
#X connect 80 0 71 0;
#X connect 80 0 72 0;
#X connect 80 0 73 0;
#X connect 80 0 74 0;
#X connect 80 0 75 0;
#X connect 81 0 80 0;
#X connect 83 0 84 0;
#X connect 83 1 85 0;
#X connect 84 0 6 0;
#X connect 84 0 10 0;
#X connect 85 0 84 1;
#X connect 86 0 88 0;
#X connect 86 1 87 1;
#X connect 87 0 89 0;
#X connect 88 0 87 0;
#X coords 0 -1 1 1 44 290 2 100 100;
