#N canvas 72 144 1294 669 10;
#X obj 120 133 vradio 15 1 0 8 empty empty empty 0 -8 0 10 -262144
-1 -1 0;
#X text 135 129 major scale;
#X text 135 143 minor scale;
#X text 135 171 hungarian minor;
#X text 135 184 octatonic w \, h;
#X text 135 157 wholetone scale;
#X obj 73 134 vradio 15 1 0 8 empty empty empty 0 -8 0 10 -262144 -1
-1 4;
#X text 91 132 A;
#X text 90 165 B;
#X text 90 179 C;
#X text 91 148 A#;
#X text 90 193 C#;
#X text 90 207 D;
#X text 90 224 D#;
#X text 90 240 E;
#X obj 339 135 vradio 15 1 0 8 empty empty empty 0 -8 0 10 -262144
-1 -1 0;
#X text 354 131 major scale;
#X text 354 145 minor scale;
#X text 354 173 hungarian minor;
#X text 354 186 octatonic w \, h;
#X text 354 159 wholetone scale;
#X obj 290 136 vradio 15 1 0 8 empty empty empty 0 -8 0 10 -262144
-1 -1 4;
#X text 308 134 A;
#X text 307 167 B;
#X text 307 181 C;
#X text 308 150 A#;
#X text 307 195 C#;
#X text 307 209 D;
#X text 307 226 D#;
#X text 307 242 E;
#X obj 532 134 vradio 15 1 0 8 empty empty empty 0 -8 0 10 -262144
-1 -1 0;
#X text 547 130 major scale;
#X text 547 144 minor scale;
#X text 547 172 hungarian minor;
#X text 547 185 octatonic w \, h;
#X text 547 158 wholetone scale;
#X obj 489 135 vradio 15 1 0 8 empty empty empty 0 -8 0 10 -262144
-1 -1 4;
#X text 507 133 A;
#X text 506 166 B;
#X text 506 180 C;
#X text 507 149 A#;
#X text 506 194 C#;
#X text 506 208 D;
#X text 506 225 D#;
#X text 506 241 E;
#X obj 704 135 vradio 15 1 0 8 empty empty empty 0 -8 0 10 -262144
-1 -1 0;
#X text 719 131 major scale;
#X text 719 145 minor scale;
#X text 719 173 hungarian minor;
#X text 719 186 octatonic w \, h;
#X text 719 159 wholetone scale;
#X obj 663 137 vradio 15 1 0 8 empty empty empty 0 -8 0 10 -262144
-1 -1 0;
#X text 681 135 A;
#X text 680 168 B;
#X text 680 182 C;
#X text 681 151 A#;
#X text 680 196 C#;
#X text 680 210 D;
#X text 680 227 D#;
#X text 680 243 E;
#X obj 120 110 - 8;
#X obj 73 0 moses 8;
#X obj 120 29 moses 16;
#X obj 290 106 - 16;
#X obj 339 106 - 24;
#X obj 489 109 - 32;
#X obj 532 108 - 40;
#X obj 663 108 - 48;
#X obj 704 108 - 56;
#X obj 290 -10 moses 24;
#X obj 339 16 moses 32;
#X obj 489 36 moses 40;
#X obj 532 59 moses 48;
#X obj 659 29 moses 56;
#X obj 704 52 moses 64;
#X obj 422 -37 bang;
#X obj 74 288 pack f 127;
#X obj 74 361 noteout;
#X obj 16 -66 inlet;
#X obj 120 267 + 8;
#X obj 290 263 + 16;
#X obj 339 263 + 24;
#X obj 489 266 + 32;
#X obj 532 265 + 40;
#X obj 663 264 + 48;
#X obj 704 265 + 56;
#X obj 74 312 t a b;
#X obj 366 414 noteout;
#X obj 366 362 t a b;
#X obj 366 332 pack f 64;
#X msg 101 338 0 0 \, 1 0 \, 2 0 \, 3 0 \, 4 0 \, 5 0 \, 6 0 \, 7 0
;
#X obj 120 390 pack f 127;
#X obj 120 474 noteout;
#X obj 120 420 t a b;
#X msg 147 445 8 0 \, 9 0 \, 10 0 \, 11 0 \, 12 0 \, 13 0 \, 14 0 \,
15 0;
#X msg 393 385 16 0 \, 17 0 \, 18 0 \, 19 0 \, 20 0 \, 21 0 \, 22 0
\, 23 0;
#X msg 494 467 24 0 \, 25 0 \, 26 0 \, 27 0 \, 28 0 \, 29 0 \, 30 0
\, 31 0;
#X obj 467 421 pack f 64;
#X obj 467 443 t a b;
#X obj 467 497 noteout;
#X obj 719 367 t a b;
#X obj 719 421 noteout;
#X obj 787 456 t a b;
#X obj 787 510 noteout;
#X msg 746 391 32 0 \, 33 0 \, 34 0 \, 35 0 \, 36 0 \, 37 0 \, 38 0
\, 39 0;
#X obj 719 345 pack f 32;
#X obj 787 434 pack f 32;
#X msg 814 480 40 0 \, 41 0 \, 42 0 \, 43 0 \, 44 0 \, 45 0 \, 46 0
\, 47 0;
#X obj 1047 342 t a b;
#X obj 1047 396 noteout;
#X obj 1107 455 t a b;
#X obj 1107 509 noteout;
#X obj 1047 320 pack f 16;
#X obj 1107 433 pack f 16;
#X msg 1074 366 48 0 \, 49 0 \, 50 0 \, 51 0 \, 52 0 \, 53 0 \, 54
0 \, 55 0;
#X msg 1134 479 56 0 \, 57 0 \, 58 0 \, 59 0 \, 60 0 \, 61 0 \, 62
0 \, 63 0;
#X text 191 318 clears led column;
#X obj 90 560 outlet;
#X obj 157 560 outlet;
#X text 86 579 seq# \, key;
#X text 155 579 seq# \, scale;
#X obj 90 530 r \$0-key;
#X obj 157 530 r \$0-scale;
#X obj 14 311 pack 0 f;
#X obj 14 287 t b f;
#X obj 14 334 s \$0-key;
#X obj 160 268 pack 0 f;
#X obj 162 244 t b f;
#X obj 160 291 s \$0-scale;
#X obj 396 228 t b f;
#X obj 394 275 s \$0-scale;
#X obj 232 231 t b f;
#X obj 230 278 s \$0-key;
#X obj 230 255 pack 1 f;
#X obj 394 252 pack 1 f;
#X obj 580 212 t b f;
#X obj 578 259 s \$0-scale;
#X obj 578 236 pack 2 f;
#X obj 472 297 t b f;
#X obj 472 321 pack 2 f;
#X obj 472 344 s \$0-key;
#X obj 788 214 t b f;
#X obj 788 261 s \$0-key;
#X obj 852 212 t b f;
#X obj 852 259 s \$0-scale;
#X obj 852 236 pack 3 f;
#X obj 788 238 pack 3 f;
#X obj 422 -58 inlet;
#X obj 147 -55 loadbang;
#X msg 147 -30 4;
#X msg 179 -30 0;
#X text 459 -60 outputs state for page changes;
#X obj 251 -41 del 10;
#X connect 0 0 79 0;
#X connect 0 0 127 0;
#X connect 6 0 76 0;
#X connect 6 0 124 0;
#X connect 15 0 81 0;
#X connect 15 0 129 0;
#X connect 21 0 80 0;
#X connect 21 0 131 0;
#X connect 30 0 83 0;
#X connect 30 0 135 0;
#X connect 36 0 82 0;
#X connect 36 0 138 0;
#X connect 45 0 85 0;
#X connect 45 0 143 0;
#X connect 51 0 84 0;
#X connect 51 0 141 0;
#X connect 60 0 0 0;
#X connect 61 0 6 0;
#X connect 61 1 62 0;
#X connect 62 0 60 0;
#X connect 62 1 69 0;
#X connect 63 0 21 0;
#X connect 64 0 15 0;
#X connect 65 0 36 0;
#X connect 66 0 30 0;
#X connect 67 0 51 0;
#X connect 68 0 45 0;
#X connect 69 0 63 0;
#X connect 69 1 70 0;
#X connect 70 0 64 0;
#X connect 70 1 71 0;
#X connect 71 0 65 0;
#X connect 71 1 72 0;
#X connect 72 0 66 0;
#X connect 72 1 73 0;
#X connect 73 0 67 0;
#X connect 73 1 74 0;
#X connect 74 0 68 0;
#X connect 75 0 6 0;
#X connect 75 0 0 0;
#X connect 75 0 21 0;
#X connect 75 0 15 0;
#X connect 75 0 36 0;
#X connect 75 0 30 0;
#X connect 75 0 51 0;
#X connect 75 0 45 0;
#X connect 76 0 86 0;
#X connect 78 0 61 0;
#X connect 79 0 91 0;
#X connect 80 0 89 0;
#X connect 81 0 97 0;
#X connect 82 0 105 0;
#X connect 83 0 106 0;
#X connect 84 0 112 0;
#X connect 85 0 113 0;
#X connect 86 0 77 0;
#X connect 86 1 90 0;
#X connect 88 0 87 0;
#X connect 88 1 95 0;
#X connect 89 0 88 0;
#X connect 90 0 77 0;
#X connect 91 0 93 0;
#X connect 93 0 92 0;
#X connect 93 1 94 0;
#X connect 94 0 92 0;
#X connect 95 0 87 0;
#X connect 96 0 99 0;
#X connect 97 0 98 0;
#X connect 98 0 99 0;
#X connect 98 1 96 0;
#X connect 100 0 101 0;
#X connect 100 1 104 0;
#X connect 102 0 103 0;
#X connect 102 1 107 0;
#X connect 104 0 101 0;
#X connect 105 0 100 0;
#X connect 106 0 102 0;
#X connect 107 0 103 0;
#X connect 108 0 109 0;
#X connect 108 1 114 0;
#X connect 110 0 111 0;
#X connect 110 1 115 0;
#X connect 112 0 108 0;
#X connect 113 0 110 0;
#X connect 114 0 109 0;
#X connect 115 0 111 0;
#X connect 121 0 117 0;
#X connect 122 0 118 0;
#X connect 123 0 125 0;
#X connect 124 0 123 0;
#X connect 124 1 123 1;
#X connect 126 0 128 0;
#X connect 127 0 126 0;
#X connect 127 1 126 1;
#X connect 129 0 134 0;
#X connect 129 1 134 1;
#X connect 131 0 133 0;
#X connect 131 1 133 1;
#X connect 133 0 132 0;
#X connect 134 0 130 0;
#X connect 135 0 137 0;
#X connect 135 1 137 1;
#X connect 137 0 136 0;
#X connect 138 0 139 0;
#X connect 138 1 139 1;
#X connect 139 0 140 0;
#X connect 141 0 146 0;
#X connect 141 1 146 1;
#X connect 143 0 145 0;
#X connect 143 1 145 1;
#X connect 145 0 144 0;
#X connect 146 0 142 0;
#X connect 147 0 75 0;
#X connect 148 0 149 0;
#X connect 148 0 150 0;
#X connect 148 0 152 0;
#X connect 149 0 6 0;
#X connect 149 0 21 0;
#X connect 149 0 36 0;
#X connect 149 0 45 0;
#X connect 150 0 0 0;
#X connect 150 0 15 0;
#X connect 150 0 30 0;
#X connect 150 0 45 0;
#X connect 152 0 75 0;
