#N canvas 620 349 450 300 10;
#X obj -333 54 unpack f f;
#X obj -314 119 < 8;
#X obj -333 165 spigot;
#X obj -333 94 t f f f;
#X obj -300 144 &&;
#X obj -290 119 >= 0;
#X obj -333 270 x37v-list;
#X msg -333 216 \$2 \$1;
#X obj -250 119 sel 1 0;
#X obj -396 339 list append;
#X obj -333 241 t b a;
#X obj -316 366 list prepend set;
#X obj -333 188 pack f s;
#X msg -231 142 symbol remove;
#X msg -250 163 symbol add;
#X obj -316 386 list trim;
#X text -312 433 ^ current notes for step;
#X obj -333 26 inlet;
#X obj -395 434 outlet;
#X obj -316 410 outlet;
#X obj -395 26 inlet;
#X obj -395 54 bang;
#X obj -333 74 - \$1;
#X connect 0 0 22 0;
#X connect 0 1 8 0;
#X connect 1 0 4 0;
#X connect 2 0 12 0;
#X connect 3 0 2 0;
#X connect 3 1 1 0;
#X connect 3 2 5 0;
#X connect 4 0 2 1;
#X connect 5 0 4 1;
#X connect 6 0 9 1;
#X connect 6 0 11 0;
#X connect 7 0 10 0;
#X connect 8 0 14 0;
#X connect 8 1 13 0;
#X connect 9 0 18 0;
#X connect 10 0 6 0;
#X connect 10 1 6 0;
#X connect 11 0 15 0;
#X connect 12 0 7 0;
#X connect 13 0 12 1;
#X connect 14 0 12 1;
#X connect 15 0 19 0;
#X connect 17 0 0 0;
#X connect 20 0 21 0;
#X connect 21 0 9 0;
#X connect 22 0 3 0;
