#N canvas 44 22 1264 431 10;
#X obj 1070 192 hsl 128 15 0 1 0 0 empty empty empty -2 -8 0 10 -262144
-1 -1 0 1;
#X obj 481 263 *~;
#X obj 1067 171 / 128;
#X obj 481 315 dist~;
#X obj 1112 273 hsl 128 15 0.5 20 0 0 empty empty empty -2 -8 0 10
-260097 -1 -1 0 1;
#X obj 1109 251 / 6;
#X obj 367 88 seq_only \$1 -------------------------;
#X obj 367 61 inlet;
#X obj 586 61 inlet;
#X obj 687 74 r \$0-filter;
#X obj 1184 355 s \$0-filter;
#X text 366 37 clock;
#X text 586 41 seq_control_inlet;
#X text 1175 302 midi_filter_in;
#X obj 1184 326 inlet;
#X text 1070 125 midi_amplitude;
#X obj 1067 147 inlet;
#X obj 1109 229 inlet;
#X text 1105 211 midi_distortion;
#X obj 481 343 outlet~;
#X obj 199 148 outlet;
#X text 200 172 midi_note_outlet_v1;
#X obj 481 213 subt ---------------------;
#X obj 412 121 r \$0-aa;
#X obj 462 121 r \$0-ad;
#X obj 511 121 r \$0-as;
#X obj 559 121 r \$0-ar;
#X obj 608 121 r \$0-al;
#X obj 657 121 r \$0-shape;
#X obj 743 147 r \$0-fa;
#X obj 793 147 r \$0-fd;
#X obj 842 147 r \$0-fs;
#X obj 890 147 r \$0-fr;
#X obj 644 147 r \$0-filter_amt;
#X obj 938 147 r \$0-fl;
#X obj 576 147 r \$0-noise;
#X connect 0 0 1 1;
#X connect 1 0 3 0;
#X connect 2 0 0 0;
#X connect 3 0 19 0;
#X connect 4 0 3 1;
#X connect 5 0 4 0;
#X connect 6 0 22 0;
#X connect 6 1 20 0;
#X connect 6 1 22 1;
#X connect 7 0 6 0;
#X connect 8 0 6 1;
#X connect 14 0 10 0;
#X connect 16 0 2 0;
#X connect 17 0 5 0;
#X connect 22 0 1 0;
#X connect 23 0 22 2;
#X connect 24 0 22 3;
#X connect 25 0 22 4;
#X connect 26 0 22 5;
#X connect 27 0 22 6;
#X connect 28 0 22 7;
#X connect 29 0 22 10;
#X connect 30 0 22 11;
#X connect 31 0 22 12;
#X connect 32 0 22 13;
#X connect 33 0 22 9;
#X connect 34 0 22 14;
#X connect 35 0 22 8;
