#N canvas 1 22 1421 841 10;
#X symbolatom 806 1196 4 0 0 0 - - -;
#X obj 667 5 hradio 12 1 0 12 empty empty empty 0 -8 0 10 -262144 -1
-1 4;
#X obj 668 49 r \$0-key;
#X symbolatom 668 70 10 0 0 0 - - -;
#X obj 667 21 s \$0-prekey;
#N canvas 963 315 450 300 read_key 0;
#X obj -61 141 textfile;
#X obj -136 171 listitem;
#X obj -170 129 r \$0-prekey;
#X obj -136 196 s \$0-key;
#X msg -61 62 rewind;
#X obj -113 10 t b b b;
#X obj -113 -13 loadbang;
#X obj -150 -14 bng 15 250 50 0 empty empty empty 17 7 0 10 -262144
-1 -1;
#X msg 46 47 read keys.txt;
#X obj -2 219 print;
#X connect 0 0 1 1;
#X connect 1 0 3 0;
#X connect 2 0 1 0;
#X connect 4 0 0 0;
#X connect 5 0 0 0;
#X connect 5 1 4 0;
#X connect 5 2 8 0;
#X connect 6 0 5 0;
#X connect 7 0 5 0;
#X connect 8 0 0 0;
#X restore 1044 -32 pd read_key;
#N canvas 720 311 508 398 steps1 0;
#X obj -183 168 textfile;
#X obj -265 219 listitem;
#X msg -183 89 rewind;
#X obj -235 37 t b b b;
#X obj -235 14 loadbang;
#X obj -272 14 bng 15 250 50 0 empty empty empty 17 7 0 10 -262144
-1 -1;
#X msg -77 73 read steps.txt;
#X msg -102 36 clear;
#X obj -280 170 expr 12-$f1;
#X obj -332 53 r \$0-step;
#X obj -316 322 s \$0-step-post;
#X obj -315 135 unpack f f;
#X obj -265 243 list trim;
#X obj -317 291 pack f s;
#X obj -276 271 symbol;
#X connect 0 0 1 1;
#X connect 1 0 12 0;
#X connect 2 0 0 0;
#X connect 3 0 0 0;
#X connect 3 1 2 0;
#X connect 3 2 6 0;
#X connect 4 0 3 0;
#X connect 5 0 3 0;
#X connect 6 0 0 0;
#X connect 7 0 0 0;
#X connect 8 0 1 0;
#X connect 9 0 11 0;
#X connect 11 0 13 0;
#X connect 11 1 8 0;
#X connect 12 0 14 0;
#X connect 13 0 10 0;
#X connect 14 0 13 1;
#X restore 1044 -11 pd steps1;
#X obj 807 1076 s \$0-step;
#X msg 807 990 0 \$1;
#X msg 817 1011 1 \$1;
#X msg 828 1031 2 \$1;
#X msg 838 1052 3 \$1;
#X obj 806 1101 r \$0-step-post;
#X obj 806 1165 symbol;
#X msg 890 988 4 \$1;
#X msg 901 1009 5 \$1;
#X msg 912 1029 6 \$1;
#X msg 922 1050 7 \$1;
#X symbolatom 850 1196 4 0 0 0 - - -;
#X obj 850 1165 symbol;
#X symbolatom 894 1196 4 0 0 0 - - -;
#X obj 894 1165 symbol;
#X symbolatom 938 1196 4 0 0 0 - - -;
#X obj 938 1165 symbol;
#X symbolatom 982 1196 4 0 0 0 - - -;
#X obj 982 1165 symbol;
#X symbolatom 1026 1196 4 0 0 0 - - -;
#X obj 1026 1165 symbol;
#X symbolatom 1069 1196 4 0 0 0 - - -;
#X obj 1069 1165 symbol;
#X symbolatom 1112 1196 4 0 0 0 - - -;
#X obj 1112 1165 symbol;
#X obj 322 63 float;
#X obj 372 63 + 1;
#N canvas 200 467 450 300 keys 0;
#X obj -52 151 textfile;
#X obj -127 181 listitem;
#X obj -161 139 r \$0-prekey;
#X msg -52 72 rewind;
#X obj -104 20 t b b b;
#X obj -104 -3 loadbang;
#X obj -141 -3 bng 15 250 50 0 empty empty empty 17 7 0 10 -262144
-1 -1;
#X msg 55 57 read rootnotes.txt;
#X obj -127 206 s \$0-rootnote;
#X connect 0 0 1 1;
#X connect 1 0 8 0;
#X connect 2 0 1 0;
#X connect 3 0 0 0;
#X connect 4 0 0 0;
#X connect 4 1 3 0;
#X connect 4 2 7 0;
#X connect 5 0 4 0;
#X connect 6 0 4 0;
#X connect 7 0 0 0;
#X restore 1044 9 pd keys;
#X obj 254 184 bng 15 250 50 0 empty empty empty 17 7 0 10 -262144
-1 -1;
#X obj 275 184 bng 15 250 50 0 empty empty empty 17 7 0 10 -262144
-1 -1;
#X obj 295 184 bng 15 250 50 0 empty empty empty 17 7 0 10 -262144
-1 -1;
#X obj 316 184 bng 15 250 50 0 empty empty empty 17 7 0 10 -262144
-1 -1;
#X obj 338 184 bng 15 250 50 0 empty empty empty 17 7 0 10 -262144
-1 -1;
#X obj 359 184 bng 15 250 50 0 empty empty empty 17 7 0 10 -262144
-1 -1;
#X obj 379 184 bng 15 250 50 0 empty empty empty 17 7 0 10 -262144
-1 -1;
#X obj 400 184 bng 15 250 50 0 empty empty empty 17 7 0 10 -262144
-1 -1;
#N canvas 70 56 450 300 octaves 0;
#X obj -240 190 + 0;
#X obj -163 67 inlet;
#X obj -240 68 inlet;
#X obj -241 218 outlet;
#X msg -141 143 0;
#X msg -110 143 12;
#X msg -81 144 24;
#X msg -53 143 36;
#X msg -24 143 48;
#X obj -163 91 sel 0 1 2 3 4 5 6 7;
#X msg -170 143 -12;
#X msg 4 143 60;
#X msg -198 143 -24;
#X connect 0 0 3 0;
#X connect 1 0 9 0;
#X connect 2 0 0 0;
#X connect 4 0 0 1;
#X connect 5 0 0 1;
#X connect 6 0 0 1;
#X connect 7 0 0 1;
#X connect 8 0 0 1;
#X connect 9 0 11 0;
#X connect 9 1 8 0;
#X connect 9 2 7 0;
#X connect 9 3 6 0;
#X connect 9 4 5 0;
#X connect 9 5 4 0;
#X connect 9 6 10 0;
#X connect 9 7 12 0;
#X connect 10 0 0 1;
#X connect 11 0 0 1;
#X connect 12 0 0 1;
#X restore 826 107 pd octaves;
#X floatatom 808 157 5 0 0 0 - - -;
#X obj 263 153 select 0 1 2 3 4 5 6 7;
#X obj 322 88 mod 8;
#X obj 826 82 t b f;
#X obj 826 132 s \$0-octave;
#X obj 907 -33 vradio 13 1 0 8 empty empty empty 0 -8 0 10 -262144
-1 -1 0;
#X floatatom 981 83 5 0 0 0 - - -;
#X text 922 -37 major scale;
#X text 922 -23 minor scale;
#X obj 806 1126 route 0 1 2 3 4 5 6 7;
#X text 922 5 hungarian minor;
#X text 922 18 octatonic w \, h;
#X obj 256 63 random 8;
#X obj 256 39 spigot;
#X obj 322 39 spigot;
#X msg 376 -46 random;
#X msg 458 -28 clock;
#X msg 378 -2 0;
#X msg 441 -3 0;
#X msg 404 -1 1;
#X msg 471 -3 1;
#X obj 826 -32 vradio 13 1 0 8 empty empty empty 0 -8 0 10 -262144
-1 -1 3;
#X text 922 -9 wholetone scale;
#X msg 555 121 1;
#X msg 742 121 8;
#X msg 717 121 7;
#X msg 690 121 6;
#X msg 663 121 5;
#X msg 636 121 4;
#X msg 609 121 3;
#X msg 582 121 2;
#X obj 629 157 s \$0-seqlength;
#X obj 375 87 r \$0-seqlength;
#X obj 826 -73 loadbang;
#X msg 826 -52 3;
#X obj 58 123 notein;
#X obj 58 169 route 4;
#X obj 58 146 pack f f;
#X obj 58 191 sel 64;
#X obj 58 215 bng 15 250 50 0 empty empty empty 17 7 0 10 -262144 -1
-1;
#X obj 100 527 list length;
#X obj 22 553 spigot;
#X obj 22 495 t a a;
#X obj 22 472 r \$0-seq_out;
#N canvas 121 46 1319 333 \$0-sequencer_guts 0;
#X obj 10 15 r \$0-seqstep;
#X msg -256 208;
#X obj -337 248 s \$0-seq_out;
#X obj -256 121 r \$0-b_state;
#X msg -79 208;
#X obj -166 248 s \$0-seq_out;
#X obj -79 119 r \$0-b_state;
#X msg 97 208;
#X obj 10 248 s \$0-seq_out;
#X obj 97 120 r \$0-b_state;
#X msg 268 208;
#X obj 181 248 s \$0-seq_out;
#X msg 437 207;
#X obj 350 247 s \$0-seq_out;
#X obj 437 120 r \$0-b_state;
#X msg 608 206;
#X obj 521 247 s \$0-seq_out;
#X obj 608 120 r \$0-b_state;
#X msg 784 207;
#X obj 697 247 s \$0-seq_out;
#X obj 784 118 r \$0-b_state;
#X obj -506 121 sel 0;
#X msg -425 209;
#X obj -506 249 s \$0-seq_out;
#X obj -425 145 r \$0-b_state;
#X obj -337 120 sel 1;
#X obj -166 120 sel 2;
#X obj 10 120 sel 3;
#X obj 181 120 sel 4;
#X obj 350 119 sel 5;
#X obj 521 119 sel 6;
#X obj 697 119 sel 7;
#X obj -506 178 seq_guts_col 0;
#X obj 268 119 r \$0-b_state;
#X obj -166 177 seq_guts_col 16;
#X obj -337 177 seq_guts_col 8;
#X obj 10 177 seq_guts_col 24;
#X obj 181 177 seq_guts_col 32;
#X obj 350 176 seq_guts_col 40;
#X obj 521 176 seq_guts_col 48;
#X obj 697 176 seq_guts_col 56;
#X connect 0 0 27 0;
#X connect 0 0 28 0;
#X connect 0 0 29 0;
#X connect 0 0 30 0;
#X connect 0 0 31 0;
#X connect 0 0 26 0;
#X connect 0 0 25 0;
#X connect 0 0 21 0;
#X connect 3 0 35 1;
#X connect 6 0 34 1;
#X connect 9 0 36 1;
#X connect 14 0 38 1;
#X connect 17 0 39 1;
#X connect 20 0 40 1;
#X connect 21 0 32 0;
#X connect 24 0 32 1;
#X connect 25 0 35 0;
#X connect 26 0 34 0;
#X connect 27 0 36 0;
#X connect 28 0 37 0;
#X connect 29 0 38 0;
#X connect 30 0 39 0;
#X connect 31 0 40 0;
#X connect 32 0 23 0;
#X connect 32 1 22 0;
#X connect 33 0 37 1;
#X connect 34 0 5 0;
#X connect 34 1 4 0;
#X connect 35 0 2 0;
#X connect 35 1 1 0;
#X connect 36 0 8 0;
#X connect 36 1 7 0;
#X connect 37 0 11 0;
#X connect 37 1 10 0;
#X connect 38 0 13 0;
#X connect 38 1 12 0;
#X connect 39 0 16 0;
#X connect 39 1 15 0;
#X connect 40 0 19 0;
#X connect 40 1 18 0;
#X restore 59 327 pd \$0-sequencer_guts;
#N canvas 669 137 672 337 \$0-triggers 0;
#X obj -68 8 r \$0-seq_out;
#X obj 9 80 list-idx 1;
#X obj -69 267 s \$0-trig;
#X obj -69 80 list-idx 0;
#X msg -69 108 0;
#X msg 9 107 1;
#X obj 85 79 list-idx 2;
#X obj 159 79 list-idx 3;
#X msg 85 106 2;
#X msg 159 105 3;
#X msg 228 105 4;
#X msg 297 105 5;
#X msg 373 104 6;
#X msg 447 104 7;
#X obj 228 79 list-idx 4;
#X obj 297 78 list-idx 5;
#X obj 373 78 list-idx 6;
#X obj 448 78 list-idx 7;
#X connect 0 0 1 0;
#X connect 0 0 3 0;
#X connect 0 0 6 0;
#X connect 0 0 7 0;
#X connect 0 0 14 0;
#X connect 0 0 15 0;
#X connect 0 0 16 0;
#X connect 0 0 17 0;
#X connect 1 0 5 0;
#X connect 3 0 4 0;
#X connect 4 0 2 0;
#X connect 5 0 2 0;
#X connect 6 0 8 0;
#X connect 7 0 9 0;
#X connect 8 0 2 0;
#X connect 9 0 2 0;
#X connect 10 0 2 0;
#X connect 11 0 2 0;
#X connect 12 0 2 0;
#X connect 13 0 2 0;
#X connect 14 0 10 0;
#X connect 15 0 11 0;
#X connect 16 0 12 0;
#X connect 17 0 13 0;
#X restore 60 390 pd \$0-triggers;
#N canvas 614 163 533 324 test_ohmrgb 0;
#N canvas 647 386 530 344 test_ohmrgb 0;
#X obj 130 10 notein;
#X floatatom 130 32 5 0 0 0 - - -;
#X floatatom 168 32 5 0 0 0 - - -;
#X floatatom 205 32 5 0 0 0 - - -;
#X obj 15 11 ctlin;
#X floatatom 15 33 5 0 0 0 - - -;
#X floatatom 53 33 5 0 0 0 - - -;
#X floatatom 90 33 5 0 0 0 - - -;
#X obj 271 62 noteout;
#X msg 272 6 0 0 1;
#X msg 317 6 0 1 1;
#X msg 364 6 0 4 1;
#X msg 411 6 0 8 1;
#X msg 271 32 0 16 1;
#X msg 317 32 0 32 1;
#X msg 364 32 0 64 1;
#X obj 262 108 hsl 128 15 0 127 0 0 empty empty empty -2 -8 0 10 -262144
-1 -1 0 1;
#X msg 411 33 0 127 1;
#X text 253 152 velocity color map 000-000: OFF 001-003: White (looks
pink) 004-007: Cyan 008-015: Magenta 016-031: Red 032-063: Blue 064-126:
Yellow 127-127: Green;
#X connect 0 0 1 0;
#X connect 0 1 2 0;
#X connect 0 2 3 0;
#X connect 4 0 5 0;
#X connect 4 1 6 0;
#X connect 4 2 7 0;
#X connect 9 0 8 0;
#X connect 10 0 8 0;
#X connect 11 0 8 0;
#X connect 12 0 8 0;
#X connect 13 0 8 0;
#X connect 14 0 8 0;
#X connect 15 0 8 0;
#X connect 16 0 8 0;
#X connect 17 0 8 0;
#X restore 174 173 pd test_ohmrgb;
#X restore 1044 70 pd test_ohmrgb;
#X obj 461 689 s \$0-b_state;
#X obj 545 689 s \$0-b_state;
#X obj 631 689 s \$0-b_state;
#X obj 725 689 s \$0-b_state;
#X obj 817 689 s \$0-b_state;
#X obj 910 689 s \$0-b_state;
#X obj 1002 689 s \$0-b_state;
#X obj 1095 689 s \$0-b_state;
#X obj 907 83 s \$0-scale;
#X obj 1194 -12 scales;
#X obj 1194 -38 r \$0-voice0;
#X obj 1312 -38 r \$0-voice1;
#X obj 1429 -38 r \$0-voice2;
#X obj 1547 -38 r \$0-voice3;
#X obj 1194 16 s \$0-scaled_voice0;
#X obj 1194 98 s \$0-scaled_voice4;
#X obj 1194 44 r \$0-voice4;
#X obj 1312 44 r \$0-voice5;
#X obj 1312 16 s \$0-scaled_voice1;
#X obj 1429 16 s \$0-scaled_voice2;
#X obj 1547 16 s \$0-scaled_voice3;
#X obj 1429 44 r \$0-voice6;
#X obj 1547 44 r \$0-voice7;
#X obj 1546 98 s \$0-scaled_voice7;
#X obj 1429 98 s \$0-scaled_voice6;
#X obj 1312 98 s \$0-scaled_voice5;
#N canvas 188 113 627 355 \$0-voicemaking 0;
#X obj 124 38 r \$0-seq_out;
#X obj 124 65 unpack f f f f f f f f;
#X obj 37 193 s \$0-voice0;
#X obj 117 193 s \$0-voice1;
#X obj 192 193 s \$0-voice2;
#X obj 268 193 s \$0-voice3;
#X obj 251 151 s \$0-voice4;
#X obj 325 151 s \$0-voice5;
#X obj 399 151 s \$0-voice6;
#X obj 476 151 s \$0-voice7;
#X connect 0 0 1 0;
#X connect 1 0 2 0;
#X connect 1 1 3 0;
#X connect 1 2 4 0;
#X connect 1 3 5 0;
#X connect 1 4 6 0;
#X connect 1 5 7 0;
#X connect 1 6 8 0;
#X connect 1 7 9 0;
#X restore 60 363 pd \$0-voicemaking;
#X obj 1241 -12 r \$0-scale;
#X obj 1356 -12 r \$0-scale;
#X obj 1472 -12 r \$0-scale;
#X obj 1591 -12 r \$0-scale;
#X obj 1237 70 r \$0-scale;
#X obj 1355 70 r \$0-scale;
#X obj 1471 70 r \$0-scale;
#X obj 1591 70 r \$0-scale;
#X obj 498 711 s \$0-col0;
#X text 304 344 save pattern;
#X obj 1229 273 r \$0-scaled_voice0;
#N canvas 899 147 450 300 notemaking 0;
#X obj -171 183 +;
#X obj -99 153 r \$0-rootnote;
#X obj -142 194 r \$0-octave;
#X obj -259 119 t b b;
#X obj -171 144 pack f;
#X obj -171 246 outlet;
#X obj -171 3 inlet;
#X obj -259 246 outlet;
#X obj -259 33 r \$0-trig;
#X obj -259 73 sel 0;
#X obj -171 217 +;
#X connect 0 0 10 0;
#X connect 1 0 0 1;
#X connect 2 0 10 1;
#X connect 3 0 7 0;
#X connect 3 1 4 0;
#X connect 4 0 0 0;
#X connect 6 0 4 0;
#X connect 8 0 9 0;
#X connect 9 0 3 0;
#X connect 10 0 5 0;
#X restore 1229 303 pd notemaking;
#X obj 1312 -12 scales;
#X obj 1429 -12 scales;
#X obj 1547 -12 scales;
#X obj 1194 70 scales;
#X obj 1312 70 scales;
#X obj 1429 70 scales;
#X obj 1547 70 scales;
#X obj 279 322 s \$0-oct_sw;
#X obj 254 205 vradio 13 1 0 8 empty empty empty 0 -8 0 10 -262144
-1 -1 3;
#X obj 275 205 vradio 13 1 0 8 empty empty empty 0 -8 0 10 -262144
-1 -1 3;
#X obj 295 205 vradio 13 1 0 8 empty empty empty 0 -8 0 10 -262144
-1 -1 3;
#X obj 316 205 vradio 13 1 0 8 empty empty empty 0 -8 0 10 -262144
-1 -1 3;
#X obj 338 205 vradio 13 1 0 8 empty empty empty 0 -8 0 10 -262144
-1 -1 3;
#X obj 359 205 vradio 13 1 0 8 empty empty empty 0 -8 0 10 -262144
-1 -1 3;
#X obj 379 205 vradio 13 1 0 8 empty empty empty 0 -8 0 10 -262144
-1 -1 3;
#X obj 400 205 vradio 13 1 0 8 empty empty empty 0 -8 0 10 -262144
-1 -1 3;
#X obj 427 159 loadbang;
#X obj 322 108 t f f;
#X obj 744 -50 r \$0-oct_sw;
#X obj 323 -59 inlet;
#X obj 475 -58 loadbang;
#X obj 1229 335 outlet;
#X obj 1304 335 outlet;
#X floatatom 106 498 5 0 0 0 - - -;
#X floatatom 1276 358 5 0 0 0 - - -;
#N canvas 899 147 450 300 notemaking 0;
#X obj -171 183 +;
#X obj -99 153 r \$0-rootnote;
#X obj -142 194 r \$0-octave;
#X obj -259 119 t b b;
#X obj -171 144 pack f;
#X obj -171 246 outlet;
#X obj -171 3 inlet;
#X obj -259 246 outlet;
#X obj -259 33 r \$0-trig;
#X obj -171 217 +;
#X obj -259 73 sel 1;
#X connect 0 0 9 0;
#X connect 1 0 0 1;
#X connect 2 0 9 1;
#X connect 3 0 7 0;
#X connect 3 1 4 0;
#X connect 4 0 0 0;
#X connect 6 0 4 0;
#X connect 8 0 10 0;
#X connect 9 0 5 0;
#X connect 10 0 3 0;
#X restore 1351 303 pd notemaking;
#X obj 1351 335 outlet;
#X obj 1426 335 outlet;
#X floatatom 1401 360 5 0 0 0 - - -;
#N canvas 899 147 450 300 notemaking 0;
#X obj -171 183 +;
#X obj -99 153 r \$0-rootnote;
#X obj -142 194 r \$0-octave;
#X obj -259 119 t b b;
#X obj -171 144 pack f;
#X obj -171 246 outlet;
#X obj -171 3 inlet;
#X obj -259 246 outlet;
#X obj -259 33 r \$0-trig;
#X obj -171 217 +;
#X obj -259 73 sel 2;
#X connect 0 0 9 0;
#X connect 1 0 0 1;
#X connect 2 0 9 1;
#X connect 3 0 7 0;
#X connect 3 1 4 0;
#X connect 4 0 0 0;
#X connect 6 0 4 0;
#X connect 8 0 10 0;
#X connect 9 0 5 0;
#X connect 10 0 3 0;
#X restore 1473 303 pd notemaking;
#X obj 1473 335 outlet;
#X obj 1548 335 outlet;
#X floatatom 1520 358 5 0 0 0 - - -;
#N canvas 899 147 450 300 notemaking 0;
#X obj -171 183 +;
#X obj -99 153 r \$0-rootnote;
#X obj -142 194 r \$0-octave;
#X obj -259 119 t b b;
#X obj -171 144 pack f;
#X obj -171 246 outlet;
#X obj -171 3 inlet;
#X obj -259 246 outlet;
#X obj -259 33 r \$0-trig;
#X obj -171 217 +;
#X obj -259 73 sel 3;
#X connect 0 0 9 0;
#X connect 1 0 0 1;
#X connect 2 0 9 1;
#X connect 3 0 7 0;
#X connect 3 1 4 0;
#X connect 4 0 0 0;
#X connect 6 0 4 0;
#X connect 8 0 10 0;
#X connect 9 0 5 0;
#X connect 10 0 3 0;
#X restore 1595 303 pd notemaking;
#X obj 1595 335 outlet;
#X obj 1670 335 outlet;
#X floatatom 1645 360 5 0 0 0 - - -;
#N canvas 899 147 450 300 notemaking 0;
#X obj -171 183 +;
#X obj -99 153 r \$0-rootnote;
#X obj -142 194 r \$0-octave;
#X obj -259 119 t b b;
#X obj -171 144 pack f;
#X obj -171 246 outlet;
#X obj -171 3 inlet;
#X obj -259 246 outlet;
#X obj -259 33 r \$0-trig;
#X obj -171 217 +;
#X obj -259 73 sel 4;
#X connect 0 0 9 0;
#X connect 1 0 0 1;
#X connect 2 0 9 1;
#X connect 3 0 7 0;
#X connect 3 1 4 0;
#X connect 4 0 0 0;
#X connect 6 0 4 0;
#X connect 8 0 10 0;
#X connect 9 0 5 0;
#X connect 10 0 3 0;
#X restore 1718 303 pd notemaking;
#X obj 1718 335 outlet;
#X obj 1793 335 outlet;
#X floatatom 1765 358 5 0 0 0 - - -;
#N canvas 899 147 450 300 notemaking 0;
#X obj -171 183 +;
#X obj -99 153 r \$0-rootnote;
#X obj -142 194 r \$0-octave;
#X obj -259 119 t b b;
#X obj -171 144 pack f;
#X obj -171 246 outlet;
#X obj -171 3 inlet;
#X obj -259 246 outlet;
#X obj -259 33 r \$0-trig;
#X obj -171 217 +;
#X obj -259 72 sel 5;
#X connect 0 0 9 0;
#X connect 1 0 0 1;
#X connect 2 0 9 1;
#X connect 3 0 7 0;
#X connect 3 1 4 0;
#X connect 4 0 0 0;
#X connect 6 0 4 0;
#X connect 8 0 10 0;
#X connect 9 0 5 0;
#X connect 10 0 3 0;
#X restore 1840 303 pd notemaking;
#X obj 1840 335 outlet;
#X obj 1915 335 outlet;
#X floatatom 1890 360 5 0 0 0 - - -;
#N canvas 899 147 450 300 notemaking 0;
#X obj -171 183 +;
#X obj -99 153 r \$0-rootnote;
#X obj -142 194 r \$0-octave;
#X obj -259 119 t b b;
#X obj -171 144 pack f;
#X obj -171 246 outlet;
#X obj -171 3 inlet;
#X obj -259 246 outlet;
#X obj -259 33 r \$0-trig;
#X obj -171 217 +;
#X obj -259 73 sel 6;
#X connect 0 0 9 0;
#X connect 1 0 0 1;
#X connect 2 0 9 1;
#X connect 3 0 7 0;
#X connect 3 1 4 0;
#X connect 4 0 0 0;
#X connect 6 0 4 0;
#X connect 8 0 10 0;
#X connect 9 0 5 0;
#X connect 10 0 3 0;
#X restore 1962 303 pd notemaking;
#X obj 1962 335 outlet;
#X obj 2037 335 outlet;
#X floatatom 2009 358 5 0 0 0 - - -;
#N canvas 899 147 450 300 notemaking 0;
#X obj -171 183 +;
#X obj -99 153 r \$0-rootnote;
#X obj -142 194 r \$0-octave;
#X obj -259 119 t b b;
#X obj -171 144 pack f;
#X obj -171 246 outlet;
#X obj -171 3 inlet;
#X obj -259 246 outlet;
#X obj -259 33 r \$0-trig;
#X obj -171 217 +;
#X obj -259 73 sel 7;
#X connect 0 0 9 0;
#X connect 1 0 0 1;
#X connect 2 0 9 1;
#X connect 3 0 7 0;
#X connect 3 1 4 0;
#X connect 4 0 0 0;
#X connect 6 0 4 0;
#X connect 8 0 10 0;
#X connect 9 0 5 0;
#X connect 10 0 3 0;
#X restore 2084 303 pd notemaking;
#X obj 2084 335 outlet;
#X obj 2159 335 outlet;
#X floatatom 2134 360 5 0 0 0 - - -;
#X obj 1351 273 r \$0-scaled_voice1;
#X obj 1473 273 r \$0-scaled_voice2;
#X obj 1595 273 r \$0-scaled_voice3;
#X obj 1718 273 r \$0-scaled_voice4;
#X obj 1840 273 r \$0-scaled_voice5;
#X obj 1962 273 r \$0-scaled_voice6;
#X obj 2084 273 r \$0-scaled_voice7;
#X obj 577 201 inlet;
#X text 565 180 accepts notes from seq_control abstraction;
#N canvas 337 385 576 421 \$0-ohmlights 0;
#X obj 64 213 noteout;
#X obj 64 49 unpack f f;
#X obj 85 76 sel 0;
#X msg 85 101 0;
#X obj 123 76 sel 1;
#X msg 170 101 127;
#X msg 201 101 64;
#X msg 231 101 32;
#X msg 261 101 16;
#X msg 291 101 8;
#X msg 321 101 4;
#X msg 351 101 1;
#X obj 121 141 f;
#X obj 205 59 sel 0 1 2 3 4 5 6;
#X text 174 142 127-green \, 64-yellow \, 32-blue \, 16-red \, 8-magenta
\, 4-cyan \, 1-white;
#X obj 64 172 pack f f 1;
#X obj 37 14 r \$0-b_state;
#X obj 117 14 r \$0-l_state;
#X obj 205 13 r \$0-inst;
#X connect 1 0 15 0;
#X connect 1 1 2 0;
#X connect 1 1 4 0;
#X connect 2 0 3 0;
#X connect 3 0 15 1;
#X connect 4 0 12 0;
#X connect 5 0 12 1;
#X connect 6 0 12 1;
#X connect 7 0 12 1;
#X connect 8 0 12 1;
#X connect 9 0 12 1;
#X connect 10 0 12 1;
#X connect 11 0 12 1;
#X connect 12 0 15 1;
#X connect 13 0 5 0;
#X connect 13 1 6 0;
#X connect 13 2 7 0;
#X connect 13 3 8 0;
#X connect 13 4 9 0;
#X connect 13 5 10 0;
#X connect 13 6 11 0;
#X connect 15 0 0 0;
#X connect 16 0 1 0;
#X connect 17 0 1 0;
#X connect 18 0 13 0;
#X restore 60 267 pd \$0-ohmlights;
#X text 435 217 all notes on/off 1/0;
#X obj 463 302 s \$0-t_all;
#X obj 485 355 r \$0-t_all;
#X obj 569 353 r \$0-t_all;
#X obj 655 352 r \$0-t_all;
#X obj 749 350 r \$0-t_all;
#X obj 841 350 r \$0-t_all;
#X obj 934 351 r \$0-t_all;
#X obj 1026 350 r \$0-t_all;
#X obj 1119 351 r \$0-t_all;
#X obj 463 234 unpack f f;
#X obj 463 256 sel 87;
#X msg 463 278 0;
#X obj 582 712 s \$0-col1;
#X obj 668 713 s \$0-col2;
#X obj 762 712 s \$0-col3;
#X obj 854 713 s \$0-col4;
#X obj 947 713 s \$0-col5;
#X obj 1039 714 s \$0-col6;
#X obj 1132 714 s \$0-col7;
#N canvas 20 78 1420 822 \$0-drawstate 0;
#X obj 11 66 unpack f f f f f f f f;
#X obj 12 119 t b f;
#X obj 69 121 t b f;
#X obj 125 121 t b f;
#X obj 187 121 t b f;
#X obj 60 175 t b f;
#X obj 122 177 t b f;
#X obj 183 177 t b f;
#X obj 245 177 t b f;
#X obj 309 1 r \$0-col1;
#X obj 309 62 unpack f f f f f f f f;
#X obj 310 145 pack 8 f;
#X obj 367 145 pack 9 f;
#X obj 423 145 pack 10 f;
#X obj 310 115 t b f;
#X obj 367 117 t b f;
#X obj 423 117 t b f;
#X obj 485 117 t b f;
#X obj 485 145 pack 11 f;
#X obj 358 171 t b f;
#X obj 420 173 t b f;
#X obj 481 173 t b f;
#X obj 543 173 t b f;
#X obj 358 201 pack 12 f;
#X obj 420 201 pack 13 f;
#X obj 481 201 pack 14 f;
#X obj 543 201 pack 15 f;
#X obj 613 64 unpack f f f f f f f f;
#X obj 614 117 t b f;
#X obj 671 119 t b f;
#X obj 727 119 t b f;
#X obj 789 119 t b f;
#X obj 662 173 t b f;
#X obj 724 175 t b f;
#X obj 785 175 t b f;
#X obj 847 175 t b f;
#X obj 918 63 unpack f f f f f f f f;
#X obj 919 116 t b f;
#X obj 976 118 t b f;
#X obj 1032 118 t b f;
#X obj 1094 118 t b f;
#X obj 967 172 t b f;
#X obj 1029 174 t b f;
#X obj 1090 174 t b f;
#X obj 1152 174 t b f;
#X obj 13 303 unpack f f f f f f f f;
#X obj 14 356 t b f;
#X obj 71 358 t b f;
#X obj 127 358 t b f;
#X obj 189 358 t b f;
#X obj 62 412 t b f;
#X obj 124 414 t b f;
#X obj 185 414 t b f;
#X obj 247 414 t b f;
#X obj 311 299 unpack f f f f f f f f;
#X obj 312 352 t b f;
#X obj 369 354 t b f;
#X obj 425 354 t b f;
#X obj 487 354 t b f;
#X obj 360 408 t b f;
#X obj 422 410 t b f;
#X obj 483 410 t b f;
#X obj 545 410 t b f;
#X obj 615 301 unpack f f f f f f f f;
#X obj 616 354 t b f;
#X obj 673 356 t b f;
#X obj 729 356 t b f;
#X obj 791 356 t b f;
#X obj 664 410 t b f;
#X obj 726 412 t b f;
#X obj 787 412 t b f;
#X obj 849 412 t b f;
#X obj 920 300 unpack f f f f f f f f;
#X obj 921 353 t b f;
#X obj 978 355 t b f;
#X obj 1034 355 t b f;
#X obj 1096 355 t b f;
#X obj 969 409 t b f;
#X obj 1031 411 t b f;
#X obj 1092 411 t b f;
#X obj 11 5 r \$0-col0;
#X obj 613 3 r \$0-col2;
#X obj 918 2 r \$0-col3;
#X obj 13 272 r \$0-col4;
#X obj 311 268 r \$0-col5;
#X obj 615 270 r \$0-col6;
#X obj 920 269 r \$0-col7;
#X obj 12 149 pack 0 f;
#X obj 69 149 pack 1 f;
#X obj 125 149 pack 2 f;
#X obj 187 149 pack 3 f;
#X obj 60 205 pack 4 f;
#X obj 122 205 pack 5 f;
#X obj 183 205 pack 6 f;
#X obj 245 205 pack 7 f;
#X obj 614 147 pack 16 f;
#X obj 727 147 pack 18 f;
#X obj 789 147 pack 19 f;
#X obj 662 203 pack 20 f;
#X obj 724 203 pack 21 f;
#X obj 785 203 pack 22 f;
#X obj 847 203 pack 23 f;
#X obj 919 146 pack 24 f;
#X obj 976 146 pack 25 f;
#X obj 1032 146 pack 26 f;
#X obj 1094 146 pack 27 f;
#X obj 967 202 pack 28 f;
#X obj 1029 202 pack 29 f;
#X obj 1090 202 pack 30 f;
#X obj 1152 202 pack 31 f;
#X obj 14 386 pack 32 f;
#X obj 71 386 pack 33 f;
#X obj 127 386 pack 34 f;
#X obj 189 386 pack 35 f;
#X obj 62 442 pack 36 f;
#X obj 124 442 pack 37 f;
#X obj 185 442 pack 38 f;
#X obj 247 442 pack 39 f;
#X obj 309 383 pack 40 f;
#X obj 369 382 pack 41 f;
#X obj 429 382 pack 42 f;
#X obj 490 381 pack 43 f;
#X obj 360 438 pack 44 f;
#X obj 422 438 pack 45 f;
#X obj 483 438 pack 46 f;
#X obj 545 438 pack 47 f;
#X obj 616 384 pack 48 f;
#X obj 673 384 pack 49 f;
#X obj 729 384 pack 50 f;
#X obj 791 384 pack 51 f;
#X obj 664 440 pack 52 f;
#X obj 726 440 pack 53 f;
#X obj 787 440 pack 54 f;
#X obj 849 440 pack 55 f;
#X obj 921 383 pack 56 f;
#X obj 978 383 pack 57 f;
#X obj 1034 383 pack 58 f;
#X obj 1096 383 pack 59 f;
#X obj 969 439 pack 60 f;
#X obj 1031 439 pack 61 f;
#X obj 1092 439 pack 62 f;
#X obj 671 147 pack 17 f;
#X obj 12 242 s \$0-l_state;
#X obj 310 238 s \$0-l_state;
#X obj 614 240 s \$0-l_state;
#X obj 919 239 s \$0-l_state;
#X obj 921 476 s \$0-l_state;
#X obj 616 477 s \$0-l_state;
#X obj 312 475 s \$0-l_state;
#X obj 14 479 s \$0-l_state;
#X obj 1154 410 t b f;
#X obj 1154 439 pack 63 f;
#X connect 0 0 1 0;
#X connect 0 1 2 0;
#X connect 0 2 3 0;
#X connect 0 3 4 0;
#X connect 0 4 5 0;
#X connect 0 5 6 0;
#X connect 0 6 7 0;
#X connect 0 7 8 0;
#X connect 1 0 87 0;
#X connect 1 1 87 1;
#X connect 2 0 88 0;
#X connect 2 1 88 1;
#X connect 3 0 89 0;
#X connect 3 1 89 1;
#X connect 4 0 90 0;
#X connect 4 1 90 1;
#X connect 5 0 91 0;
#X connect 5 1 91 1;
#X connect 6 0 92 0;
#X connect 6 1 92 1;
#X connect 7 0 93 0;
#X connect 7 1 93 1;
#X connect 8 0 94 0;
#X connect 8 1 94 1;
#X connect 9 0 10 0;
#X connect 10 0 14 0;
#X connect 10 1 15 0;
#X connect 10 2 16 0;
#X connect 10 3 17 0;
#X connect 10 4 19 0;
#X connect 10 5 20 0;
#X connect 10 6 21 0;
#X connect 10 7 22 0;
#X connect 11 0 143 0;
#X connect 12 0 143 0;
#X connect 13 0 143 0;
#X connect 14 0 11 0;
#X connect 14 1 11 1;
#X connect 15 0 12 0;
#X connect 15 1 12 1;
#X connect 16 0 13 0;
#X connect 16 1 13 1;
#X connect 17 0 18 0;
#X connect 17 1 18 1;
#X connect 18 0 143 0;
#X connect 19 0 23 0;
#X connect 19 1 23 1;
#X connect 20 0 24 0;
#X connect 20 1 24 1;
#X connect 21 0 25 0;
#X connect 21 1 25 1;
#X connect 22 0 26 0;
#X connect 22 1 26 1;
#X connect 23 0 143 0;
#X connect 24 0 143 0;
#X connect 25 0 143 0;
#X connect 26 0 143 0;
#X connect 27 0 28 0;
#X connect 27 1 29 0;
#X connect 27 2 30 0;
#X connect 27 3 31 0;
#X connect 27 4 32 0;
#X connect 27 5 33 0;
#X connect 27 6 34 0;
#X connect 27 7 35 0;
#X connect 28 0 95 0;
#X connect 28 1 95 1;
#X connect 29 0 141 0;
#X connect 29 1 141 1;
#X connect 30 0 96 0;
#X connect 30 1 96 1;
#X connect 31 0 97 0;
#X connect 31 1 97 1;
#X connect 32 0 98 0;
#X connect 32 1 98 1;
#X connect 33 0 99 0;
#X connect 33 1 99 1;
#X connect 34 0 100 0;
#X connect 34 1 100 1;
#X connect 35 0 101 0;
#X connect 35 1 101 1;
#X connect 36 0 37 0;
#X connect 36 1 38 0;
#X connect 36 2 39 0;
#X connect 36 3 40 0;
#X connect 36 4 41 0;
#X connect 36 5 42 0;
#X connect 36 6 43 0;
#X connect 36 7 44 0;
#X connect 37 0 102 0;
#X connect 37 1 102 1;
#X connect 38 0 103 0;
#X connect 38 1 103 1;
#X connect 39 0 104 0;
#X connect 39 1 104 1;
#X connect 40 0 105 0;
#X connect 40 1 105 1;
#X connect 41 0 106 0;
#X connect 41 1 106 1;
#X connect 42 0 107 0;
#X connect 42 1 107 1;
#X connect 43 0 108 0;
#X connect 43 1 108 1;
#X connect 44 0 109 0;
#X connect 44 1 109 1;
#X connect 45 0 46 0;
#X connect 45 1 47 0;
#X connect 45 2 48 0;
#X connect 45 3 49 0;
#X connect 45 4 50 0;
#X connect 45 5 51 0;
#X connect 45 6 52 0;
#X connect 45 7 53 0;
#X connect 46 0 110 0;
#X connect 46 1 110 1;
#X connect 47 0 111 0;
#X connect 47 1 111 1;
#X connect 48 0 112 0;
#X connect 48 1 112 1;
#X connect 49 0 113 0;
#X connect 49 1 113 1;
#X connect 50 0 114 0;
#X connect 50 1 114 1;
#X connect 51 0 115 0;
#X connect 51 1 115 1;
#X connect 52 0 116 0;
#X connect 52 1 116 1;
#X connect 53 0 117 0;
#X connect 53 1 117 1;
#X connect 54 0 55 0;
#X connect 54 1 56 0;
#X connect 54 2 57 0;
#X connect 54 3 58 0;
#X connect 54 4 59 0;
#X connect 54 5 60 0;
#X connect 54 6 61 0;
#X connect 54 7 62 0;
#X connect 55 0 118 0;
#X connect 55 1 118 1;
#X connect 56 0 119 0;
#X connect 56 1 119 1;
#X connect 57 0 120 0;
#X connect 57 1 120 1;
#X connect 58 0 121 0;
#X connect 58 1 121 1;
#X connect 59 0 122 0;
#X connect 59 1 122 1;
#X connect 60 0 123 0;
#X connect 60 1 123 1;
#X connect 61 0 124 0;
#X connect 61 1 124 1;
#X connect 62 0 125 0;
#X connect 62 1 125 1;
#X connect 63 0 64 0;
#X connect 63 1 65 0;
#X connect 63 2 66 0;
#X connect 63 3 67 0;
#X connect 63 4 68 0;
#X connect 63 5 69 0;
#X connect 63 6 70 0;
#X connect 63 7 71 0;
#X connect 64 0 126 0;
#X connect 64 1 126 1;
#X connect 65 0 127 0;
#X connect 65 1 127 1;
#X connect 66 0 128 0;
#X connect 66 1 128 1;
#X connect 67 0 129 0;
#X connect 67 1 129 1;
#X connect 68 0 130 0;
#X connect 68 1 130 1;
#X connect 69 0 131 0;
#X connect 69 1 131 1;
#X connect 70 0 132 0;
#X connect 70 1 132 1;
#X connect 71 0 133 0;
#X connect 71 1 133 1;
#X connect 72 0 73 0;
#X connect 72 1 74 0;
#X connect 72 2 75 0;
#X connect 72 3 76 0;
#X connect 72 4 77 0;
#X connect 72 5 78 0;
#X connect 72 6 79 0;
#X connect 72 7 150 0;
#X connect 73 0 134 0;
#X connect 73 1 134 1;
#X connect 74 0 135 0;
#X connect 74 1 135 1;
#X connect 75 0 136 0;
#X connect 75 1 136 1;
#X connect 76 0 137 0;
#X connect 76 1 137 1;
#X connect 77 0 138 0;
#X connect 77 1 138 1;
#X connect 78 0 139 0;
#X connect 78 1 139 1;
#X connect 79 0 140 0;
#X connect 79 1 140 1;
#X connect 80 0 0 0;
#X connect 81 0 27 0;
#X connect 82 0 36 0;
#X connect 83 0 45 0;
#X connect 84 0 54 0;
#X connect 85 0 63 0;
#X connect 86 0 72 0;
#X connect 87 0 142 0;
#X connect 88 0 142 0;
#X connect 89 0 142 0;
#X connect 90 0 142 0;
#X connect 91 0 142 0;
#X connect 92 0 142 0;
#X connect 93 0 142 0;
#X connect 94 0 142 0;
#X connect 95 0 144 0;
#X connect 96 0 144 0;
#X connect 97 0 144 0;
#X connect 98 0 144 0;
#X connect 99 0 144 0;
#X connect 100 0 144 0;
#X connect 101 0 144 0;
#X connect 102 0 145 0;
#X connect 103 0 145 0;
#X connect 104 0 145 0;
#X connect 105 0 145 0;
#X connect 106 0 145 0;
#X connect 107 0 145 0;
#X connect 108 0 145 0;
#X connect 109 0 145 0;
#X connect 110 0 149 0;
#X connect 111 0 149 0;
#X connect 112 0 149 0;
#X connect 113 0 149 0;
#X connect 114 0 149 0;
#X connect 115 0 149 0;
#X connect 116 0 149 0;
#X connect 117 0 149 0;
#X connect 118 0 148 0;
#X connect 119 0 148 0;
#X connect 120 0 148 0;
#X connect 121 0 148 0;
#X connect 122 0 148 0;
#X connect 123 0 148 0;
#X connect 124 0 148 0;
#X connect 125 0 148 0;
#X connect 126 0 147 0;
#X connect 127 0 147 0;
#X connect 128 0 147 0;
#X connect 129 0 147 0;
#X connect 130 0 147 0;
#X connect 131 0 147 0;
#X connect 132 0 147 0;
#X connect 133 0 147 0;
#X connect 134 0 146 0;
#X connect 135 0 146 0;
#X connect 136 0 146 0;
#X connect 137 0 146 0;
#X connect 138 0 146 0;
#X connect 139 0 146 0;
#X connect 140 0 146 0;
#X connect 141 0 144 0;
#X connect 150 0 151 0;
#X connect 150 1 151 1;
#X connect 151 0 146 0;
#X restore 59 289 pd \$0-drawstate;
#X obj 887 200 r \$0-draw;
#X obj 1052 188 inlet;
#X obj 349 131 s \$0-seqstep;
#X obj 1114 184 inlet;
#X text 1111 164 input for abstraction argument to setup instance #
;
#X obj 1114 210 s \$0-inst;
#X obj 858 179 r \$0-save;
#X obj 326 421 s \$0-save;
#X msg 426 180 3;
#X obj 667 -24 inlet;
#X obj 907 -60 inlet;
#X text 305 477 restore pattern;
#N canvas 477 404 860 404 \$0-statesaving 0;
#X obj 88 41 r \$0-col0;
#X obj 151 41 r \$0-col1;
#X obj 211 41 r \$0-col2;
#X obj 275 41 r \$0-col3;
#X obj 337 41 r \$0-col4;
#X obj 400 41 r \$0-col5;
#X obj 461 41 r \$0-col6;
#X obj 524 41 r \$0-col7;
#X obj 461 310 textfile;
#X obj 88 74 list append;
#X obj 148 98 list append;
#X obj 211 122 list append;
#X obj 274 144 list append;
#X obj 340 171 list append;
#X obj 398 198 list append;
#X obj 461 224 list append;
#X obj 461 252 list prepend add;
#X obj 461 275 list trim;
#X obj 593 20 inlet;
#X obj 594 256 list prepend write;
#X obj 594 279 list trim;
#X obj 594 234 savepanel;
#X msg 668 58 clear;
#X obj 668 21 inlet;
#X msg 594 204 symbol /Users/Jesse/Documents/Pd/patterns;
#X msg 390 275 print s;
#X connect 0 0 9 0;
#X connect 1 0 9 1;
#X connect 2 0 10 1;
#X connect 3 0 11 1;
#X connect 4 0 12 1;
#X connect 5 0 13 1;
#X connect 6 0 14 1;
#X connect 7 0 15 1;
#X connect 9 0 10 0;
#X connect 10 0 11 0;
#X connect 11 0 12 0;
#X connect 12 0 13 0;
#X connect 13 0 14 0;
#X connect 14 0 15 0;
#X connect 15 0 16 0;
#X connect 16 0 17 0;
#X connect 17 0 8 0;
#X connect 18 0 24 0;
#X connect 19 0 20 0;
#X connect 20 0 8 0;
#X connect 21 0 19 0;
#X connect 22 0 8 0;
#X connect 23 0 22 0;
#X connect 24 0 21 0;
#X connect 25 0 8 0;
#X restore 307 443 pd \$0-statesaving;
#X obj 307 531 seq_restore;
#X obj 307 553 s \$0-restore;
#X obj 741 215 r \$0-restore;
#X msg 887 229 bang;
#X obj 461 391 seq_t_column 0;
#X obj 545 391 seq_t_column 8;
#X obj 631 391 seq_t_column 16;
#X obj 725 391 seq_t_column 24;
#X obj 817 387 seq_t_column 32;
#X obj 910 388 seq_t_column 40;
#X obj 1002 390 seq_t_column 48;
#X obj 1095 388 seq_t_column 56;
#X obj 307 360 bng 30 250 50 0 empty empty empty 17 7 0 10 -4034 -1
-1;
#X obj 307 495 bng 30 250 50 0 empty empty empty 17 7 0 10 -258113
-1 -1;
#X obj 307 398 t b b b;
#X obj 1748 -42 inlet;
#X obj 1749 32 s \$0-extsave;
#X obj 1748 -14 sel 0 1;
#X obj 1769 56 s \$0-extrestore;
#X obj 222 359 r \$0-extsave;
#X obj 221 463 r \$0-extrestore;
#X connect 1 0 4 0;
#X connect 2 0 3 0;
#X connect 8 0 7 0;
#X connect 9 0 7 0;
#X connect 10 0 7 0;
#X connect 11 0 7 0;
#X connect 12 0 53 0;
#X connect 13 0 0 0;
#X connect 14 0 7 0;
#X connect 15 0 7 0;
#X connect 16 0 7 0;
#X connect 17 0 7 0;
#X connect 19 0 18 0;
#X connect 21 0 20 0;
#X connect 23 0 22 0;
#X connect 25 0 24 0;
#X connect 27 0 26 0;
#X connect 29 0 28 0;
#X connect 31 0 30 0;
#X connect 32 0 33 0;
#X connect 32 0 46 0;
#X connect 33 0 32 1;
#X connect 35 0 138 0;
#X connect 36 0 139 0;
#X connect 37 0 140 0;
#X connect 38 0 141 0;
#X connect 39 0 142 0;
#X connect 40 0 143 0;
#X connect 41 0 144 0;
#X connect 42 0 145 0;
#X connect 43 0 44 0;
#X connect 43 0 48 0;
#X connect 45 0 35 0;
#X connect 45 1 36 0;
#X connect 45 2 37 0;
#X connect 45 3 38 0;
#X connect 45 4 39 0;
#X connect 45 5 40 0;
#X connect 45 6 41 0;
#X connect 45 7 42 0;
#X connect 46 0 147 0;
#X connect 47 0 43 0;
#X connect 47 1 43 1;
#X connect 49 0 50 0;
#X connect 49 0 99 0;
#X connect 53 0 13 0;
#X connect 53 1 19 0;
#X connect 53 2 21 0;
#X connect 53 3 23 0;
#X connect 53 4 25 0;
#X connect 53 5 27 0;
#X connect 53 6 29 0;
#X connect 53 7 31 0;
#X connect 56 0 147 0;
#X connect 57 0 56 0;
#X connect 58 0 32 0;
#X connect 59 0 61 0;
#X connect 59 0 63 0;
#X connect 60 0 62 0;
#X connect 60 0 64 0;
#X connect 61 0 58 1;
#X connect 62 0 57 1;
#X connect 63 0 57 1;
#X connect 64 0 58 1;
#X connect 65 0 47 0;
#X connect 67 0 75 0;
#X connect 68 0 75 0;
#X connect 69 0 75 0;
#X connect 70 0 75 0;
#X connect 71 0 75 0;
#X connect 72 0 75 0;
#X connect 73 0 75 0;
#X connect 74 0 75 0;
#X connect 76 0 46 1;
#X connect 77 0 78 0;
#X connect 78 0 65 0;
#X connect 79 0 81 0;
#X connect 79 1 81 1;
#X connect 80 0 82 0;
#X connect 81 0 80 0;
#X connect 82 0 83 0;
#X connect 84 0 85 1;
#X connect 86 0 85 0;
#X connect 86 1 84 0;
#X connect 87 0 86 0;
#X connect 100 0 105 0;
#X connect 101 0 100 0;
#X connect 102 0 130 0;
#X connect 103 0 131 0;
#X connect 104 0 132 0;
#X connect 107 0 133 0;
#X connect 108 0 134 0;
#X connect 112 0 135 0;
#X connect 113 0 136 0;
#X connect 118 0 100 1;
#X connect 119 0 130 1;
#X connect 120 0 131 1;
#X connect 121 0 132 1;
#X connect 122 0 133 1;
#X connect 123 0 134 1;
#X connect 124 0 135 1;
#X connect 125 0 136 1;
#X connect 128 0 129 0;
#X connect 129 0 151 0;
#X connect 129 1 152 0;
#X connect 129 1 154 0;
#X connect 130 0 109 0;
#X connect 131 0 110 0;
#X connect 132 0 111 0;
#X connect 133 0 106 0;
#X connect 134 0 116 0;
#X connect 135 0 115 0;
#X connect 136 0 114 0;
#X connect 138 0 137 0;
#X connect 139 0 137 0;
#X connect 140 0 137 0;
#X connect 141 0 137 0;
#X connect 142 0 137 0;
#X connect 143 0 137 0;
#X connect 144 0 137 0;
#X connect 145 0 137 0;
#X connect 146 0 222 0;
#X connect 147 0 216 0;
#X connect 147 1 45 0;
#X connect 148 0 65 0;
#X connect 149 0 57 0;
#X connect 149 0 58 0;
#X connect 150 0 61 0;
#X connect 150 0 60 0;
#X connect 155 0 156 0;
#X connect 155 1 157 0;
#X connect 155 1 158 0;
#X connect 159 0 160 0;
#X connect 159 1 161 0;
#X connect 159 1 162 0;
#X connect 163 0 164 0;
#X connect 163 1 165 0;
#X connect 163 1 166 0;
#X connect 167 0 168 0;
#X connect 167 1 169 0;
#X connect 167 1 170 0;
#X connect 171 0 172 0;
#X connect 171 1 173 0;
#X connect 171 1 174 0;
#X connect 175 0 176 0;
#X connect 175 1 177 0;
#X connect 175 1 178 0;
#X connect 179 0 180 0;
#X connect 179 1 181 0;
#X connect 179 1 182 0;
#X connect 183 0 155 0;
#X connect 184 0 159 0;
#X connect 185 0 163 0;
#X connect 186 0 167 0;
#X connect 187 0 171 0;
#X connect 188 0 175 0;
#X connect 189 0 179 0;
#X connect 190 0 203 0;
#X connect 190 0 231 1;
#X connect 190 0 232 1;
#X connect 190 0 233 1;
#X connect 190 0 234 1;
#X connect 190 0 235 1;
#X connect 190 0 236 1;
#X connect 190 0 237 1;
#X connect 190 0 238 1;
#X connect 195 0 231 2;
#X connect 196 0 232 2;
#X connect 197 0 233 2;
#X connect 198 0 234 2;
#X connect 199 0 235 2;
#X connect 200 0 236 2;
#X connect 201 0 237 2;
#X connect 202 0 238 2;
#X connect 203 1 204 0;
#X connect 204 0 205 0;
#X connect 205 0 194 0;
#X connect 214 0 230 0;
#X connect 215 0 230 0;
#X connect 217 0 219 0;
#X connect 220 0 230 0;
#X connect 222 0 145 0;
#X connect 222 0 144 0;
#X connect 222 0 143 0;
#X connect 222 0 142 0;
#X connect 222 0 141 0;
#X connect 222 0 140 0;
#X connect 222 0 139 0;
#X connect 222 0 138 0;
#X connect 223 0 1 0;
#X connect 224 0 49 0;
#X connect 227 0 228 0;
#X connect 229 0 231 0;
#X connect 229 0 232 0;
#X connect 229 0 233 0;
#X connect 229 0 234 0;
#X connect 229 0 235 0;
#X connect 229 0 236 0;
#X connect 229 0 237 0;
#X connect 229 0 238 0;
#X connect 230 0 231 3;
#X connect 230 0 232 3;
#X connect 230 0 233 3;
#X connect 230 0 234 3;
#X connect 230 0 235 3;
#X connect 230 0 236 3;
#X connect 230 0 237 3;
#X connect 230 0 238 3;
#X connect 231 0 91 0;
#X connect 231 1 126 0;
#X connect 232 0 92 0;
#X connect 232 1 206 0;
#X connect 233 0 93 0;
#X connect 233 1 207 0;
#X connect 234 0 94 0;
#X connect 234 1 208 0;
#X connect 235 0 95 0;
#X connect 235 1 209 0;
#X connect 236 0 96 0;
#X connect 236 1 210 0;
#X connect 237 0 97 0;
#X connect 237 1 211 0;
#X connect 238 0 98 0;
#X connect 238 1 212 0;
#X connect 239 0 241 0;
#X connect 240 0 227 0;
#X connect 241 0 226 0;
#X connect 241 1 221 0;
#X connect 241 2 226 1;
#X connect 242 0 244 0;
#X connect 244 0 243 0;
#X connect 244 1 245 0;
#X connect 246 0 239 0;
#X connect 247 0 240 0;
