#N canvas 0 22 1333 841 10;
#X obj 52 65 openpanel;
#X obj 86 202 textfile;
#X obj 52 91 list prepend read;
#X msg 52 41 symbol /Users/Jesse/Documents/Pd/patterns;
#X obj 52 114 list trim;
#X msg 36 169 rewind;
#X msg 103 168 clear;
#X msg -2 169 bang;
#X obj 52 136 t b b a b;
#X obj 86 242 list split 8;
#X obj 120 267 list split 8;
#X obj 154 290 list split 8;
#X obj 188 313 list split 8;
#X obj 222 335 list split 8;
#X obj 256 358 list split 8;
#X obj 290 379 list split 8;
#X obj 324 401 list split 8;
#X text 169 178 takes long string of 1s and 0s from a text file \,
splits by groups of 8 into columns - output should work top to bottom
on grid;
#X obj 52 17 inlet;
#X obj 91 643 unpack f f f f f f f f;
#X obj 92 696 t b f;
#X obj 149 698 t b f;
#X obj 205 698 t b f;
#X obj 267 698 t b f;
#X obj 140 752 t b f;
#X obj 202 754 t b f;
#X obj 263 754 t b f;
#X obj 325 754 t b f;
#X obj 389 639 unpack f f f f f f f f;
#X obj 390 722 pack 8 f;
#X obj 447 722 pack 9 f;
#X obj 503 722 pack 10 f;
#X obj 390 692 t b f;
#X obj 447 694 t b f;
#X obj 503 694 t b f;
#X obj 565 694 t b f;
#X obj 565 722 pack 11 f;
#X obj 438 748 t b f;
#X obj 500 750 t b f;
#X obj 561 750 t b f;
#X obj 623 750 t b f;
#X obj 438 778 pack 12 f;
#X obj 500 778 pack 13 f;
#X obj 561 778 pack 14 f;
#X obj 623 778 pack 15 f;
#X obj 693 641 unpack f f f f f f f f;
#X obj 694 694 t b f;
#X obj 751 696 t b f;
#X obj 807 696 t b f;
#X obj 869 696 t b f;
#X obj 742 750 t b f;
#X obj 804 752 t b f;
#X obj 865 752 t b f;
#X obj 927 752 t b f;
#X obj 998 640 unpack f f f f f f f f;
#X obj 999 693 t b f;
#X obj 1056 695 t b f;
#X obj 1112 695 t b f;
#X obj 1186 754 t b f;
#X obj 1047 749 t b f;
#X obj 1109 751 t b f;
#X obj 1182 810 t b f;
#X obj 1244 810 t b f;
#X obj 1329 632 unpack f f f f f f f f;
#X obj 1330 685 t b f;
#X obj 1387 687 t b f;
#X obj 1443 687 t b f;
#X obj 1505 687 t b f;
#X obj 1378 741 t b f;
#X obj 1440 743 t b f;
#X obj 1501 743 t b f;
#X obj 1563 743 t b f;
#X obj 1627 628 unpack f f f f f f f f;
#X obj 1628 681 t b f;
#X obj 1685 683 t b f;
#X obj 1741 683 t b f;
#X obj 1803 683 t b f;
#X obj 1676 737 t b f;
#X obj 1738 739 t b f;
#X obj 1799 739 t b f;
#X obj 1861 739 t b f;
#X obj 1931 630 unpack f f f f f f f f;
#X obj 1932 683 t b f;
#X obj 1989 685 t b f;
#X obj 2045 685 t b f;
#X obj 2107 685 t b f;
#X obj 1980 739 t b f;
#X obj 2042 741 t b f;
#X obj 2103 741 t b f;
#X obj 2165 741 t b f;
#X obj 2236 629 unpack f f f f f f f f;
#X obj 2237 682 t b f;
#X obj 2294 684 t b f;
#X obj 2350 684 t b f;
#X obj 2424 743 t b f;
#X obj 2285 738 t b f;
#X obj 2347 740 t b f;
#X obj 2420 799 t b f;
#X obj 92 726 pack 0 f;
#X obj 149 726 pack 1 f;
#X obj 205 726 pack 2 f;
#X obj 267 726 pack 3 f;
#X obj 140 782 pack 4 f;
#X obj 202 782 pack 5 f;
#X obj 263 782 pack 6 f;
#X obj 325 782 pack 7 f;
#X obj 694 724 pack 16 f;
#X obj 807 724 pack 18 f;
#X obj 869 724 pack 19 f;
#X obj 742 780 pack 20 f;
#X obj 804 780 pack 21 f;
#X obj 865 780 pack 22 f;
#X obj 927 780 pack 23 f;
#X obj 999 723 pack 24 f;
#X obj 1056 723 pack 25 f;
#X obj 1112 723 pack 26 f;
#X obj 1186 782 pack 27 f;
#X obj 1047 779 pack 28 f;
#X obj 1109 779 pack 29 f;
#X obj 1182 838 pack 30 f;
#X obj 1244 838 pack 31 f;
#X obj 1330 715 pack 32 f;
#X obj 1387 715 pack 33 f;
#X obj 1443 715 pack 34 f;
#X obj 1505 715 pack 35 f;
#X obj 1378 771 pack 36 f;
#X obj 1440 771 pack 37 f;
#X obj 1501 771 pack 38 f;
#X obj 1563 771 pack 39 f;
#X obj 1625 712 pack 40 f;
#X obj 1685 711 pack 41 f;
#X obj 1745 711 pack 42 f;
#X obj 1806 710 pack 43 f;
#X obj 1676 767 pack 44 f;
#X obj 1738 767 pack 45 f;
#X obj 1799 767 pack 46 f;
#X obj 1861 767 pack 47 f;
#X obj 1932 713 pack 48 f;
#X obj 1989 713 pack 49 f;
#X obj 2045 713 pack 50 f;
#X obj 2107 713 pack 51 f;
#X obj 1980 769 pack 52 f;
#X obj 2042 769 pack 53 f;
#X obj 2103 769 pack 54 f;
#X obj 2165 769 pack 55 f;
#X obj 2237 712 pack 56 f;
#X obj 2294 712 pack 57 f;
#X obj 2350 712 pack 58 f;
#X obj 2424 771 pack 59 f;
#X obj 2285 768 pack 60 f;
#X obj 2347 768 pack 61 f;
#X obj 2420 827 pack 62 f;
#X obj 751 724 pack 17 f;
#X text 240 536 apprends midi note numbers to each button state;
#X obj 279 878 outlet;
#X obj 86 460 s \$0-c0;
#X obj 147 460 s \$0-c1;
#X obj 208 460 s \$0-c2;
#X obj 331 460 s \$0-c4;
#X obj 270 460 s \$0-c3;
#X obj 393 460 s \$0-c5;
#X obj 454 460 s \$0-c6;
#X obj 515 459 s \$0-c7;
#X obj 390 815 s \$0-s_state;
#X obj 694 817 s \$0-s_state;
#X obj 999 816 s \$0-s_state;
#X obj 279 823 r \$0-s_state;
#X obj 91 581 r \$0-c0;
#X obj 389 577 r \$0-c1;
#X obj 693 580 r \$0-c2;
#X obj 997 579 r \$0-c3;
#X obj 1329 601 r \$0-c4;
#X obj 1627 597 r \$0-c5;
#X obj 1931 599 r \$0-c6;
#X obj 1330 808 s \$0-s_state;
#X obj 1628 804 s \$0-s_state;
#X obj 1932 806 s \$0-s_state;
#X obj 2236 598 r \$0-c7;
#X obj 2237 805 s \$0-s_state;
#X obj 92 819 s \$0-s_state;
#X connect 0 0 2 0;
#X connect 1 0 9 0;
#X connect 2 0 4 0;
#X connect 3 0 0 0;
#X connect 4 0 8 0;
#X connect 5 0 1 0;
#X connect 6 0 1 0;
#X connect 7 0 1 0;
#X connect 8 0 7 0;
#X connect 8 1 5 0;
#X connect 8 2 1 0;
#X connect 8 3 6 0;
#X connect 9 0 155 0;
#X connect 9 1 10 0;
#X connect 10 0 156 0;
#X connect 10 1 11 0;
#X connect 11 0 157 0;
#X connect 11 1 12 0;
#X connect 12 0 159 0;
#X connect 12 1 13 0;
#X connect 13 0 158 0;
#X connect 13 1 14 0;
#X connect 14 0 160 0;
#X connect 14 1 15 0;
#X connect 15 0 161 0;
#X connect 15 1 16 0;
#X connect 16 0 162 0;
#X connect 18 0 3 0;
#X connect 19 0 20 0;
#X connect 19 1 21 0;
#X connect 19 2 22 0;
#X connect 19 3 23 0;
#X connect 19 4 24 0;
#X connect 19 5 25 0;
#X connect 19 6 26 0;
#X connect 19 7 27 0;
#X connect 20 0 98 0;
#X connect 20 1 98 1;
#X connect 21 0 99 0;
#X connect 21 1 99 1;
#X connect 22 0 100 0;
#X connect 22 1 100 1;
#X connect 23 0 101 0;
#X connect 23 1 101 1;
#X connect 24 0 102 0;
#X connect 24 1 102 1;
#X connect 25 0 103 0;
#X connect 25 1 103 1;
#X connect 26 0 104 0;
#X connect 26 1 104 1;
#X connect 27 0 105 0;
#X connect 27 1 105 1;
#X connect 28 0 32 0;
#X connect 28 1 33 0;
#X connect 28 2 34 0;
#X connect 28 3 35 0;
#X connect 28 4 37 0;
#X connect 28 5 38 0;
#X connect 28 6 39 0;
#X connect 28 7 40 0;
#X connect 29 0 163 0;
#X connect 30 0 163 0;
#X connect 31 0 163 0;
#X connect 32 0 29 0;
#X connect 32 1 29 1;
#X connect 33 0 30 0;
#X connect 33 1 30 1;
#X connect 34 0 31 0;
#X connect 34 1 31 1;
#X connect 35 0 36 0;
#X connect 35 1 36 1;
#X connect 36 0 163 0;
#X connect 37 0 41 0;
#X connect 37 1 41 1;
#X connect 38 0 42 0;
#X connect 38 1 42 1;
#X connect 39 0 43 0;
#X connect 39 1 43 1;
#X connect 40 0 44 0;
#X connect 40 1 44 1;
#X connect 41 0 163 0;
#X connect 42 0 163 0;
#X connect 43 0 163 0;
#X connect 44 0 163 0;
#X connect 45 0 46 0;
#X connect 45 1 47 0;
#X connect 45 2 48 0;
#X connect 45 3 49 0;
#X connect 45 4 50 0;
#X connect 45 5 51 0;
#X connect 45 6 52 0;
#X connect 45 7 53 0;
#X connect 46 0 106 0;
#X connect 46 1 106 1;
#X connect 47 0 152 0;
#X connect 47 1 152 1;
#X connect 48 0 107 0;
#X connect 48 1 107 1;
#X connect 49 0 108 0;
#X connect 49 1 108 1;
#X connect 50 0 109 0;
#X connect 50 1 109 1;
#X connect 51 0 110 0;
#X connect 51 1 110 1;
#X connect 52 0 111 0;
#X connect 52 1 111 1;
#X connect 53 0 112 0;
#X connect 53 1 112 1;
#X connect 54 0 55 0;
#X connect 54 1 56 0;
#X connect 54 2 57 0;
#X connect 54 3 58 0;
#X connect 54 4 59 0;
#X connect 54 5 60 0;
#X connect 54 6 61 0;
#X connect 54 7 62 0;
#X connect 55 0 113 0;
#X connect 55 1 113 1;
#X connect 56 0 114 0;
#X connect 56 1 114 1;
#X connect 57 0 115 0;
#X connect 57 1 115 1;
#X connect 58 0 116 0;
#X connect 58 1 116 1;
#X connect 59 0 117 0;
#X connect 59 1 117 1;
#X connect 60 0 118 0;
#X connect 60 1 118 1;
#X connect 61 0 119 0;
#X connect 61 1 119 1;
#X connect 62 0 120 0;
#X connect 62 1 120 1;
#X connect 63 0 64 0;
#X connect 63 1 65 0;
#X connect 63 2 66 0;
#X connect 63 3 67 0;
#X connect 63 4 68 0;
#X connect 63 5 69 0;
#X connect 63 6 70 0;
#X connect 63 7 71 0;
#X connect 64 0 121 0;
#X connect 64 1 121 1;
#X connect 65 0 122 0;
#X connect 65 1 122 1;
#X connect 66 0 123 0;
#X connect 66 1 123 1;
#X connect 67 0 124 0;
#X connect 67 1 124 1;
#X connect 68 0 125 0;
#X connect 68 1 125 1;
#X connect 69 0 126 0;
#X connect 69 1 126 1;
#X connect 70 0 127 0;
#X connect 70 1 127 1;
#X connect 71 0 128 0;
#X connect 71 1 128 1;
#X connect 72 0 73 0;
#X connect 72 1 74 0;
#X connect 72 2 75 0;
#X connect 72 3 76 0;
#X connect 72 4 77 0;
#X connect 72 5 78 0;
#X connect 72 6 79 0;
#X connect 72 7 80 0;
#X connect 73 0 129 0;
#X connect 73 1 129 1;
#X connect 74 0 130 0;
#X connect 74 1 130 1;
#X connect 75 0 131 0;
#X connect 75 1 131 1;
#X connect 76 0 132 0;
#X connect 76 1 132 1;
#X connect 77 0 133 0;
#X connect 77 1 133 1;
#X connect 78 0 134 0;
#X connect 78 1 134 1;
#X connect 79 0 135 0;
#X connect 79 1 135 1;
#X connect 80 0 136 0;
#X connect 80 1 136 1;
#X connect 81 0 82 0;
#X connect 81 1 83 0;
#X connect 81 2 84 0;
#X connect 81 3 85 0;
#X connect 81 4 86 0;
#X connect 81 5 87 0;
#X connect 81 6 88 0;
#X connect 81 7 89 0;
#X connect 82 0 137 0;
#X connect 82 1 137 1;
#X connect 83 0 138 0;
#X connect 83 1 138 1;
#X connect 84 0 139 0;
#X connect 84 1 139 1;
#X connect 85 0 140 0;
#X connect 85 1 140 1;
#X connect 86 0 141 0;
#X connect 86 1 141 1;
#X connect 87 0 142 0;
#X connect 87 1 142 1;
#X connect 88 0 143 0;
#X connect 88 1 143 1;
#X connect 89 0 144 0;
#X connect 89 1 144 1;
#X connect 90 0 91 0;
#X connect 90 1 92 0;
#X connect 90 2 93 0;
#X connect 90 3 94 0;
#X connect 90 4 95 0;
#X connect 90 5 96 0;
#X connect 90 6 97 0;
#X connect 91 0 145 0;
#X connect 91 1 145 1;
#X connect 92 0 146 0;
#X connect 92 1 146 1;
#X connect 93 0 147 0;
#X connect 93 1 147 1;
#X connect 94 0 148 0;
#X connect 94 1 148 1;
#X connect 95 0 149 0;
#X connect 95 1 149 1;
#X connect 96 0 150 0;
#X connect 96 1 150 1;
#X connect 97 0 151 0;
#X connect 97 1 151 1;
#X connect 98 0 179 0;
#X connect 99 0 179 0;
#X connect 100 0 179 0;
#X connect 101 0 179 0;
#X connect 102 0 179 0;
#X connect 103 0 179 0;
#X connect 104 0 179 0;
#X connect 105 0 179 0;
#X connect 106 0 164 0;
#X connect 107 0 164 0;
#X connect 108 0 164 0;
#X connect 109 0 164 0;
#X connect 110 0 164 0;
#X connect 111 0 164 0;
#X connect 112 0 164 0;
#X connect 113 0 165 0;
#X connect 114 0 165 0;
#X connect 115 0 165 0;
#X connect 116 0 165 0;
#X connect 117 0 165 0;
#X connect 118 0 165 0;
#X connect 119 0 165 0;
#X connect 120 0 165 0;
#X connect 121 0 174 0;
#X connect 122 0 174 0;
#X connect 123 0 174 0;
#X connect 124 0 174 0;
#X connect 125 0 174 0;
#X connect 126 0 174 0;
#X connect 127 0 174 0;
#X connect 128 0 174 0;
#X connect 129 0 175 0;
#X connect 130 0 175 0;
#X connect 131 0 175 0;
#X connect 132 0 175 0;
#X connect 133 0 175 0;
#X connect 134 0 175 0;
#X connect 135 0 175 0;
#X connect 136 0 175 0;
#X connect 137 0 176 0;
#X connect 138 0 176 0;
#X connect 139 0 176 0;
#X connect 140 0 176 0;
#X connect 141 0 176 0;
#X connect 142 0 176 0;
#X connect 143 0 176 0;
#X connect 144 0 176 0;
#X connect 145 0 178 0;
#X connect 146 0 178 0;
#X connect 147 0 178 0;
#X connect 148 0 178 0;
#X connect 149 0 178 0;
#X connect 150 0 178 0;
#X connect 151 0 178 0;
#X connect 152 0 164 0;
#X connect 166 0 154 0;
#X connect 167 0 19 0;
#X connect 168 0 28 0;
#X connect 169 0 45 0;
#X connect 170 0 54 0;
#X connect 171 0 63 0;
#X connect 172 0 72 0;
#X connect 173 0 81 0;
#X connect 177 0 90 0;
