#N canvas 4 22 1421 841 10;
#X symbolatom 806 1196 4 0 0 0 - - -;
#X obj 539 -29 hradio 12 1 0 12 empty empty empty 0 -8 0 10 -262144
-1 -1 0;
#X obj 540 15 r \$0-key;
#X symbolatom 540 36 10 0 0 0 - - -;
#X obj 539 -13 s \$0-prekey;
#N canvas 963 315 450 300 read_key 0;
#X obj -61 141 textfile;
#X obj -136 171 listitem;
#X obj -170 129 r \$0-prekey;
#X obj -136 196 s \$0-key;
#X msg -61 62 rewind;
#X obj -113 10 t b b b;
#X obj -113 -13 loadbang;
#X obj -150 -14 bng 15 250 50 0 empty empty empty 17 7 0 10 -262144
-1 -1;
#X msg 46 47 read keys.txt;
#X obj -2 219 print;
#X connect 0 0 1 1;
#X connect 1 0 3 0;
#X connect 2 0 1 0;
#X connect 4 0 0 0;
#X connect 5 0 0 0;
#X connect 5 1 4 0;
#X connect 5 2 8 0;
#X connect 6 0 5 0;
#X connect 7 0 5 0;
#X connect 8 0 0 0;
#X restore 1044 -32 pd read_key;
#N canvas 720 311 508 398 steps1 0;
#X obj -183 168 textfile;
#X obj -265 219 listitem;
#X msg -183 89 rewind;
#X obj -235 37 t b b b;
#X obj -235 14 loadbang;
#X obj -272 14 bng 15 250 50 0 empty empty empty 17 7 0 10 -262144
-1 -1;
#X msg -77 73 read steps.txt;
#X msg -102 36 clear;
#X obj -280 170 expr 12-$f1;
#X obj -332 53 r \$0-step;
#X obj -316 322 s \$0-step-post;
#X obj -315 135 unpack f f;
#X obj -265 243 list trim;
#X obj -317 291 pack f s;
#X obj -276 271 symbol;
#X connect 0 0 1 1;
#X connect 1 0 12 0;
#X connect 2 0 0 0;
#X connect 3 0 0 0;
#X connect 3 1 2 0;
#X connect 3 2 6 0;
#X connect 4 0 3 0;
#X connect 5 0 3 0;
#X connect 6 0 0 0;
#X connect 7 0 0 0;
#X connect 8 0 1 0;
#X connect 9 0 11 0;
#X connect 11 0 13 0;
#X connect 11 1 8 0;
#X connect 12 0 14 0;
#X connect 13 0 10 0;
#X connect 14 0 13 1;
#X restore 1044 -11 pd steps1;
#X obj 807 1076 s \$0-step;
#X msg 807 990 0 \$1;
#X msg 817 1011 1 \$1;
#X msg 828 1031 2 \$1;
#X msg 838 1052 3 \$1;
#X obj 806 1101 r \$0-step-post;
#X obj 806 1165 symbol;
#X msg 890 988 4 \$1;
#X msg 901 1009 5 \$1;
#X msg 912 1029 6 \$1;
#X msg 922 1050 7 \$1;
#X symbolatom 850 1196 4 0 0 0 - - -;
#X obj 850 1165 symbol;
#X symbolatom 894 1196 4 0 0 0 - - -;
#X obj 894 1165 symbol;
#X symbolatom 938 1196 4 0 0 0 - - -;
#X obj 938 1165 symbol;
#X symbolatom 982 1196 4 0 0 0 - - -;
#X obj 982 1165 symbol;
#X symbolatom 1026 1196 4 0 0 0 - - -;
#X obj 1026 1165 symbol;
#X symbolatom 1069 1196 4 0 0 0 - - -;
#X obj 1069 1165 symbol;
#X symbolatom 1112 1196 4 0 0 0 - - -;
#X obj 1112 1165 symbol;
#X obj 322 63 float;
#X obj 372 63 + 1;
#X obj 165 475 int;
#X obj 165 531 s \$0-note;
#X obj 259 -13 tgl 15 0 empty empty empty 17 7 0 10 -262144 -1 -1 1
1;
#X obj 1374 519 +;
#N canvas 200 467 450 300 keys 0;
#X obj -52 151 textfile;
#X obj -127 181 listitem;
#X obj -161 139 r \$0-prekey;
#X msg -52 72 rewind;
#X obj -104 20 t b b b;
#X obj -104 -3 loadbang;
#X obj -141 -3 bng 15 250 50 0 empty empty empty 17 7 0 10 -262144
-1 -1;
#X msg 55 57 read rootnotes.txt;
#X obj -127 206 s \$0-rootnote;
#X connect 0 0 1 1;
#X connect 1 0 8 0;
#X connect 2 0 1 0;
#X connect 3 0 0 0;
#X connect 4 0 0 0;
#X connect 4 1 3 0;
#X connect 4 2 7 0;
#X connect 5 0 4 0;
#X connect 6 0 4 0;
#X connect 7 0 0 0;
#X restore 1044 9 pd keys;
#X obj 1446 489 r \$0-rootnote;
#X obj 1341 609 output~;
#X obj 254 184 bng 15 250 50 0 empty empty empty 17 7 0 10 -262144
-1 -1;
#X obj 275 184 bng 15 250 50 0 empty empty empty 17 7 0 10 -262144
-1 -1;
#X obj 295 184 bng 15 250 50 0 empty empty empty 17 7 0 10 -262144
-1 -1;
#X obj 316 184 bng 15 250 50 0 empty empty empty 17 7 0 10 -262144
-1 -1;
#X obj 338 184 bng 15 250 50 0 empty empty empty 17 7 0 10 -262144
-1 -1;
#X obj 359 184 bng 15 250 50 0 empty empty empty 17 7 0 10 -262144
-1 -1;
#X obj 379 184 bng 15 250 50 0 empty empty empty 17 7 0 10 -262144
-1 -1;
#X obj 400 184 bng 15 250 50 0 empty empty empty 17 7 0 10 -262144
-1 -1;
#N canvas 136 75 1283 825 pad 1;
#X obj 535 24 hsl 128 15 0 127 0 1 empty empty empty -2 -6 0 8 -262144
-1 -1 4505 1;
#N canvas 0 22 450 300 (subpatch) 0;
#X array pad 1000 float 0;
#X coords 0 2 999 -1 200 100 1;
#X restore 657 521 graph;
#X obj 522 516 tgl 15 1 empty empty empty 0 -6 0 10 -262144 -1 -1 1
1;
#X text 635 608 -1;
#X text 641 563 0;
#X text 543 514 Graph output;
#X obj 522 539 metro 100;
#X obj 952 25 mtof;
#X obj 955 0 hsl 128 15 0 127 0 1 empty empty empty -2 -6 0 8 -262144
-1 -1 4518 1;
#X obj 726 19 hsl 128 15 0 127 0 1 empty empty empty -2 -6 0 8 -262144
-1 -1 4505 1;
#X obj 737 159 expr~ $v1 > 0.5;
#X obj 994 138 expr~ $v1 > 0.5;
#X obj 722 123 spigot~;
#X obj 797 117 tgl 15 0 empty empty empty 17 7 0 10 -262144 -1 -1 0
1;
#X obj 1068 91 tgl 15 0 empty empty empty 17 7 0 10 -262144 -1 -1 0
1;
#X obj 955 104 spigot~;
#X text 641 517 2;
#X obj 555 231 noise~;
#X obj 533 84 mtof;
#X obj 723 45 mtof;
#X obj 427 603 outlet~;
#X text 472 604 comment;
#X floatatom 1009 39 5 0 0 0 - - -;
#X obj 951 175 *~ 0.9;
#X obj 956 80 phasor~ 391;
#X obj 469 570 tabwrite~ pad;
#X obj 971 287 mtof;
#X obj 364 257 *~;
#X obj 702 190 *~ 1;
#X obj 533 149 *~ 1;
#X obj 722 93 phasor~ 103.8;
#X obj 533 108 osc~ 679.7;
#X obj 970 318 sig~;
#X obj 556 289 *~ 0.05;
#X floatatom 603 82 5 0 0 0 - - -;
#X floatatom 798 64 5 0 0 0 - - -;
#X obj 495 -37 inlet;
#X obj 973 259 + 80;
#X obj 111 50 gadsr~;
#X obj 80 -11 bng 15 250 50 0 empty empty empty 17 7 0 10 -262144 -1
-1;
#X obj 448 230 s \$0_dur;
#X obj 152 1 inlet;
#X obj 306 -2 inlet;
#X obj 758 232 hsl 128 15 0 127 0 0 empty empty empty -2 -8 0 10 -262144
-1 -1 6600 1;
#X obj 755 288 sig~;
#X obj 746 358 vcf~ 1;
#X obj 755 263 mtof;
#X obj 1007 198 r x;
#X obj 953 353 lop~ 15;
#X obj 791 185 loadbang;
#X msg 791 206 66;
#X obj 952 -24 * \$1;
#X msg 1006 -56 1;
#X msg 1045 -55 1.3;
#X msg 733 -47 1;
#X msg 772 -46 1.3;
#X msg 1074 -54 1.003;
#X obj 723 -12 * \$1;
#X msg 803 -46 1.003;
#X obj 775 -77 loadbang;
#X obj 551 -31 * 1.001;
#X connect 0 0 18 0;
#X connect 0 0 34 0;
#X connect 2 0 6 0;
#X connect 6 0 25 0;
#X connect 7 0 24 0;
#X connect 8 0 7 0;
#X connect 8 0 22 0;
#X connect 9 0 19 0;
#X connect 9 0 35 0;
#X connect 10 0 28 0;
#X connect 11 0 23 0;
#X connect 12 0 28 0;
#X connect 12 1 10 0;
#X connect 13 0 12 1;
#X connect 14 0 15 1;
#X connect 15 0 23 0;
#X connect 15 1 11 0;
#X connect 17 0 33 0;
#X connect 18 0 31 0;
#X connect 19 0 30 0;
#X connect 23 0 45 0;
#X connect 24 0 15 0;
#X connect 26 0 32 0;
#X connect 27 0 20 0;
#X connect 27 0 25 0;
#X connect 28 0 45 0;
#X connect 29 0 45 0;
#X connect 30 0 12 0;
#X connect 31 0 29 0;
#X connect 32 0 48 0;
#X connect 33 0 45 0;
#X connect 36 0 60 0;
#X connect 37 0 26 0;
#X connect 38 0 27 0;
#X connect 38 1 40 0;
#X connect 39 0 38 0;
#X connect 41 0 38 0;
#X connect 42 0 38 1;
#X connect 43 0 46 0;
#X connect 44 0 45 1;
#X connect 45 0 27 1;
#X connect 46 0 44 0;
#X connect 47 0 37 0;
#X connect 48 0 45 1;
#X connect 49 0 50 0;
#X connect 50 0 43 0;
#X connect 51 0 8 0;
#X connect 52 0 51 1;
#X connect 53 0 51 1;
#X connect 54 0 57 1;
#X connect 55 0 57 1;
#X connect 56 0 51 1;
#X connect 57 0 9 0;
#X connect 58 0 57 1;
#X connect 59 0 56 0;
#X connect 59 0 54 0;
#X connect 60 0 0 0;
#X connect 60 0 51 0;
#X connect 60 0 57 0;
#X restore 1341 577 pd pad;
#N canvas 70 56 450 300 octaves 0;
#X obj -240 190 + 0;
#X obj -163 67 inlet;
#X obj -240 68 inlet;
#X obj -241 218 outlet;
#X msg -141 143 0;
#X msg -110 143 12;
#X msg -81 144 24;
#X msg -53 143 36;
#X msg -24 143 48;
#X obj -163 91 sel 0 1 2 3 4 5 6 7;
#X msg -170 143 -12;
#X msg 4 143 60;
#X msg -198 143 -24;
#X connect 0 0 3 0;
#X connect 1 0 9 0;
#X connect 2 0 0 0;
#X connect 4 0 0 1;
#X connect 5 0 0 1;
#X connect 6 0 0 1;
#X connect 7 0 0 1;
#X connect 8 0 0 1;
#X connect 9 0 11 0;
#X connect 9 1 8 0;
#X connect 9 2 7 0;
#X connect 9 3 6 0;
#X connect 9 4 5 0;
#X connect 9 5 4 0;
#X connect 9 6 10 0;
#X connect 9 7 12 0;
#X connect 10 0 0 1;
#X connect 11 0 0 1;
#X connect 12 0 0 1;
#X restore 826 107 pd octaves;
#X floatatom 808 157 5 0 0 0 - - -;
#X obj 263 153 select 0 1 2 3 4 5 6 7;
#X obj 322 88 mod 8;
#X obj 826 82 t b f;
#X obj 826 132 s \$0-octave;
#X obj 1374 552 + \$1;
#X obj 1403 530 r \$0-octave;
#N canvas 662 110 450 300 major 0;
#X obj -173 178 textfile;
#X obj -255 229 listitem;
#X msg -173 99 rewind;
#X obj -225 47 t b b b;
#X obj -225 24 loadbang;
#X obj -262 24 bng 15 250 50 0 empty empty empty 17 7 0 10 -262144
-1 -1;
#X msg -92 46 clear;
#X obj -255 253 list trim;
#X msg -67 84 read major.txt;
#X obj -306 332 s \$0-major;
#X obj -322 63 r \$0-note;
#X floatatom -289 95 5 0 0 0 - - -;
#X floatatom -250 96 5 0 0 0 - - -;
#X connect 0 0 1 1;
#X connect 1 0 7 0;
#X connect 2 0 0 0;
#X connect 3 0 0 0;
#X connect 3 1 2 0;
#X connect 3 2 8 0;
#X connect 4 0 3 0;
#X connect 5 0 3 0;
#X connect 6 0 0 0;
#X connect 7 0 9 0;
#X connect 7 0 12 0;
#X connect 8 0 0 0;
#X connect 10 0 11 0;
#X connect 11 0 1 0;
#X restore 907 105 pd major;
#X obj 1122 -32 r \$0-major;
#X obj 1326 208 s \$0-scaled;
#X obj 1374 400 r \$0-scaled;
#X floatatom 1154 -9 5 0 0 0 - - -;
#N canvas 479 164 450 300 minor 0;
#X obj -163 188 textfile;
#X obj -245 239 listitem;
#X msg -163 109 rewind;
#X obj -215 57 t b b b;
#X obj -215 34 loadbang;
#X obj -252 34 bng 15 250 50 0 empty empty empty 17 7 0 10 -262144
-1 -1;
#X msg -82 56 clear;
#X obj -245 263 list trim;
#X obj -312 73 r \$0-note;
#X floatatom -279 105 5 0 0 0 - - -;
#X floatatom -240 106 5 0 0 0 - - -;
#X msg -58 94 read minor.txt;
#X obj -296 342 s \$0-minor;
#X connect 0 0 1 1;
#X connect 1 0 7 0;
#X connect 2 0 0 0;
#X connect 3 0 0 0;
#X connect 3 1 2 0;
#X connect 3 2 11 0;
#X connect 4 0 3 0;
#X connect 5 0 3 0;
#X connect 6 0 0 0;
#X connect 7 0 10 0;
#X connect 7 0 12 0;
#X connect 8 0 9 0;
#X connect 9 0 1 0;
#X connect 11 0 0 0;
#X restore 907 127 pd minor;
#X obj 1194 -32 r \$0-minor;
#X floatatom 1226 -10 5 0 0 0 - - -;
#X obj 907 -33 vradio 13 1 0 8 empty empty empty 0 -8 0 10 -262144
-1 -1 0;
#X obj 1220 167 spigot;
#X obj 1266 167 spigot;
#X obj 907 83 s scale;
#X obj 1292 59 select 0 1 2 3 4 5 6 7;
#X obj 1253 143 tgl 15 0 empty empty empty 17 7 0 10 -262144 -1 -1
1 1;
#X obj 1299 143 tgl 15 0 empty empty empty 17 7 0 10 -262144 -1 -1
0 1;
#X msg 1255 123 0;
#X msg 1313 122 0;
#X msg 1226 123 1;
#X msg 1285 122 1;
#X floatatom 966 74 5 0 0 0 - - -;
#X obj 1292 31 r scale;
#X text 922 -37 major scale;
#X text 922 -23 minor scale;
#X obj 806 1126 route 0 1 2 3 4 5 6 7;
#N canvas 495 189 480 380 wholetone 0;
#X obj -153 198 textfile;
#X obj -235 249 listitem;
#X msg -153 119 rewind;
#X obj -205 67 t b b b;
#X obj -205 44 loadbang;
#X obj -242 44 bng 15 250 50 0 empty empty empty 17 7 0 10 -262144
-1 -1;
#X msg -72 66 clear;
#X obj -235 273 list trim;
#X obj -302 83 r \$0-note;
#X floatatom -269 115 5 0 0 0 - - -;
#X floatatom -230 116 5 0 0 0 - - -;
#X msg -48 104 read wholetone.txt;
#X obj -286 352 s \$0-wholetone;
#X connect 0 0 1 1;
#X connect 1 0 7 0;
#X connect 2 0 0 0;
#X connect 3 0 0 0;
#X connect 3 1 2 0;
#X connect 3 2 11 0;
#X connect 4 0 3 0;
#X connect 5 0 3 0;
#X connect 6 0 0 0;
#X connect 7 0 10 0;
#X connect 7 0 12 0;
#X connect 8 0 9 0;
#X connect 9 0 1 0;
#X connect 11 0 0 0;
#X restore 907 148 pd wholetone;
#X obj 1325 167 spigot;
#X obj 1358 143 tgl 15 0 empty empty empty 17 7 0 10 -262144 -1 -1
0 1;
#X msg 1371 123 0;
#X msg 1343 123 1;
#X floatatom 1322 -10 5 0 0 0 - - -;
#X obj 1266 -32 r \$0-wholetone;
#N canvas 495 189 480 380 hungarian 0;
#X obj -153 198 textfile;
#X obj -235 249 listitem;
#X msg -153 119 rewind;
#X obj -205 67 t b b b;
#X obj -205 44 loadbang;
#X obj -242 44 bng 15 250 50 0 empty empty empty 17 7 0 10 -262144
-1 -1;
#X msg -72 66 clear;
#X obj -235 273 list trim;
#X obj -302 83 r \$0-note;
#X floatatom -269 115 5 0 0 0 - - -;
#X floatatom -230 116 5 0 0 0 - - -;
#X msg -48 104 read hungarian.txt;
#X obj -286 352 s \$0-hungarian;
#X connect 0 0 1 1;
#X connect 1 0 7 0;
#X connect 2 0 0 0;
#X connect 3 0 0 0;
#X connect 3 1 2 0;
#X connect 3 2 11 0;
#X connect 4 0 3 0;
#X connect 5 0 3 0;
#X connect 6 0 0 0;
#X connect 7 0 10 0;
#X connect 7 0 12 0;
#X connect 8 0 9 0;
#X connect 9 0 1 0;
#X connect 11 0 0 0;
#X restore 907 168 pd hungarian minor;
#X obj 1390 168 spigot;
#X obj 1423 144 tgl 15 0 empty empty empty 17 7 0 10 -262144 -1 -1
0 1;
#X msg 1427 123 0;
#X msg 1400 123 1;
#X floatatom 1414 -9 5 0 0 0 - - -;
#X obj 1358 -31 r \$0-hungarian;
#X text 922 5 hungarian minor;
#X obj 1448 167 spigot;
#X obj 1481 142 tgl 15 0 empty empty empty 17 7 0 10 -262144 -1 -1
0 1;
#X msg 1485 121 0;
#X msg 1458 121 1;
#X floatatom 1507 -9 5 0 0 0 - - -;
#X text 922 18 octatonic w \, h;
#N canvas 495 189 480 380 octatonicwh 0;
#X obj -153 198 textfile;
#X obj -235 249 listitem;
#X msg -153 119 rewind;
#X obj -205 67 t b b b;
#X obj -205 44 loadbang;
#X obj -242 44 bng 15 250 50 0 empty empty empty 17 7 0 10 -262144
-1 -1;
#X msg -72 66 clear;
#X obj -235 273 list trim;
#X obj -302 83 r \$0-note;
#X floatatom -269 115 5 0 0 0 - - -;
#X floatatom -230 116 5 0 0 0 - - -;
#X obj -286 353 s \$0-octatonicwh;
#X msg -48 104 read octatonicwh.txt;
#X connect 0 0 1 1;
#X connect 1 0 7 0;
#X connect 2 0 0 0;
#X connect 3 0 0 0;
#X connect 3 1 2 0;
#X connect 3 2 12 0;
#X connect 4 0 3 0;
#X connect 5 0 3 0;
#X connect 6 0 0 0;
#X connect 7 0 10 0;
#X connect 7 0 11 0;
#X connect 8 0 9 0;
#X connect 9 0 1 0;
#X connect 12 0 0 0;
#X restore 907 188 pd octatonicwh;
#X obj 1451 -31 r \$0-octatonicwh;
#X obj 256 63 random 8;
#X obj 256 39 spigot;
#X obj 322 39 spigot;
#X msg 393 -28 random;
#X msg 446 -28 clock;
#X msg 378 -2 0;
#X msg 441 -3 0;
#X msg 404 -1 1;
#X msg 471 -3 1;
#X obj 826 -32 vradio 13 1 0 8 empty empty empty 0 -8 0 10 -262144
-1 -1 3;
#X obj 407 290 spigot;
#X obj 322 127 s \$0-seqstep;
#X obj 675 198 r \$0-seqstep;
#X msg 281 278 1;
#X obj 756 228 sel 4;
#X obj 440 228 sel 0;
#X obj 515 228 sel 1;
#X obj 596 228 sel 2;
#X obj 676 228 sel 3;
#X obj 836 228 sel 5;
#X obj 916 228 sel 6;
#X obj 996 228 sel 7;
#X obj 1286 398 sel 1;
#X obj 257 721 s \$0-trig;
#X obj 1286 370 r \$0-trig;
#X obj 1256 457 bng 15 250 50 0 empty empty empty 17 7 0 10 -262144
-1 -1;
#X floatatom 1415 577 5 0 0 0 - - -;
#X obj 1286 455 t b b;
#X obj 296 5 metro 200;
#X obj 1374 480 pack f;
#X obj 165 415 b;
#X text 922 -9 wholetone scale;
#X msg 555 121 1;
#X msg 742 121 8;
#X msg 717 121 7;
#X msg 690 121 6;
#X msg 663 121 5;
#X msg 636 121 4;
#X msg 609 121 3;
#X msg 582 121 2;
#X obj 629 157 s \$0-seqlength;
#X obj 375 87 r \$0-seqlength;
#N canvas 614 163 533 324 ohmrgb 0;
#N canvas 917 522 530 344 test_ohmrgb 0;
#X obj 130 10 notein;
#X floatatom 130 32 5 0 0 0 - - -;
#X floatatom 168 32 5 0 0 0 - - -;
#X floatatom 205 32 5 0 0 0 - - -;
#X obj 15 11 ctlin;
#X floatatom 15 33 5 0 0 0 - - -;
#X floatatom 53 33 5 0 0 0 - - -;
#X floatatom 90 33 5 0 0 0 - - -;
#X obj 271 62 noteout;
#X msg 272 6 0 0 1;
#X msg 317 6 0 1 1;
#X msg 364 6 0 4 1;
#X msg 411 6 0 8 1;
#X msg 271 32 0 16 1;
#X msg 317 32 0 32 1;
#X msg 364 32 0 64 1;
#X obj 262 108 hsl 128 15 0 127 0 0 empty empty empty -2 -8 0 10 -262144
-1 -1 0 1;
#X msg 411 33 0 127 1;
#X text 253 152 velocity color map 000-000: OFF 001-003: White (looks
pink) 004-007: Cyan 008-015: Magenta 016-031: Red 032-063: Blue 064-126:
Yellow 127-127: Green;
#X connect 0 0 1 0;
#X connect 0 1 2 0;
#X connect 0 2 3 0;
#X connect 4 0 5 0;
#X connect 4 1 6 0;
#X connect 4 2 7 0;
#X connect 9 0 8 0;
#X connect 10 0 8 0;
#X connect 11 0 8 0;
#X connect 12 0 8 0;
#X connect 13 0 8 0;
#X connect 14 0 8 0;
#X connect 15 0 8 0;
#X connect 16 0 8 0;
#X connect 17 0 8 0;
#X restore 174 173 pd test_ohmrgb;
#X restore 1044 70 pd ohmrgb;
#X obj 1155 522 ctlin 17;
#X msg 407 311 0;
#X obj 440 332 tgl 15 0 empty empty empty 17 7 0 10 -262144 -1 -1 0
1;
#X obj 410 349 spigot;
#X msg 409 370 1;
#X obj 442 391 tgl 15 0 empty empty empty 17 7 0 10 -262144 -1 -1 0
1;
#X obj 409 409 spigot;
#X obj 443 449 tgl 15 0 empty empty empty 17 7 0 10 -262144 -1 -1 0
1;
#X obj 410 467 spigot;
#X obj 444 509 tgl 15 0 empty empty empty 17 7 0 10 -262144 -1 -1 0
1;
#X obj 411 527 spigot;
#X obj 444 569 tgl 15 0 empty empty empty 17 7 0 10 -262144 -1 -1 0
1;
#X obj 411 587 spigot;
#X msg 409 429 2;
#X msg 410 488 3;
#X msg 411 548 4;
#X msg 411 607 5;
#X obj 445 627 tgl 15 0 empty empty empty 17 7 0 10 -262144 -1 -1 0
1;
#X obj 412 645 spigot;
#X obj 446 684 tgl 15 0 empty empty empty 17 7 0 10 -262144 -1 -1 0
1;
#X obj 413 702 spigot;
#X msg 412 664 6;
#X msg 413 721 7;
#N canvas 234 98 1076 802 buttons 0;
#X obj -336 -60 notein 1;
#X obj -336 -38 sel 0;
#X obj -336 -16 float;
#X obj -293 -16 + 1;
#X obj -336 6 mod 4;
#X obj -336 28 sel 0 2;
#X obj -276 73 noteout;
#X msg -276 51 0 0 1;
#X msg -235 52 0 127 1;
#X obj -275 27 sel 0 2;
#X msg -336 51 0;
#X msg -308 51 1;
#X obj -166 -15 float;
#X obj -123 -15 + 1;
#X obj -166 7 mod 4;
#X obj -166 29 sel 0 2;
#X obj -106 74 noteout;
#X obj -105 28 sel 0 2;
#X msg -166 52 0;
#X msg -138 52 1;
#X obj -166 -59 notein 1;
#X obj -166 -38 sel 1;
#X msg -106 52 1 0 1;
#X msg -65 53 1 127 1;
#X obj -1 -14 float;
#X obj 42 -14 + 1;
#X obj -1 8 mod 4;
#X obj -1 30 sel 0 2;
#X obj 59 75 noteout;
#X obj 60 29 sel 0 2;
#X msg -1 53 0;
#X msg 27 53 1;
#X obj -1 -58 notein 1;
#X obj 163 -14 float;
#X obj 206 -14 + 1;
#X obj 163 8 mod 4;
#X obj 163 30 sel 0 2;
#X obj 223 75 noteout;
#X obj 224 29 sel 0 2;
#X msg 191 53 1;
#X obj 163 -58 notein 1;
#X msg 59 53 2 0 1;
#X msg 100 54 2 127 1;
#X msg 223 53 3 0 1;
#X msg 263 54 3 127 1;
#X obj -335 113 notein 1;
#X obj -335 157 float;
#X obj -292 157 + 1;
#X obj -335 179 mod 4;
#X obj -335 201 sel 0 2;
#X obj -275 246 noteout;
#X obj -274 200 sel 0 2;
#X msg -307 224 1;
#X obj -165 158 float;
#X obj -122 158 + 1;
#X obj -165 180 mod 4;
#X obj -165 202 sel 0 2;
#X obj -105 247 noteout;
#X obj -104 201 sel 0 2;
#X msg -165 225 0;
#X msg -137 225 1;
#X obj -165 114 notein 1;
#X obj 0 159 float;
#X obj 43 159 + 1;
#X obj 0 181 mod 4;
#X obj 0 203 sel 0 2;
#X obj 60 248 noteout;
#X obj 61 202 sel 0 2;
#X msg 0 226 0;
#X msg 28 226 1;
#X obj 0 115 notein 1;
#X obj 164 159 float;
#X obj 207 159 + 1;
#X obj 164 181 mod 4;
#X obj 164 203 sel 0 2;
#X obj 224 248 noteout;
#X obj 225 202 sel 0 2;
#X msg 192 226 1;
#X obj 164 115 notein 1;
#X msg -275 224 4 0 1;
#X msg -234 224 4 127 1;
#X msg -105 225 5 0 1;
#X msg -64 226 5 127 1;
#X msg 60 226 6 0 1;
#X msg 101 227 6 127 1;
#X msg 224 226 7 0 1;
#X msg 264 227 7 127 1;
#X obj -1 -37 sel 2;
#X obj 163 -37 sel 3;
#X obj -335 135 sel 4;
#X obj -165 135 sel 5;
#X obj 0 136 sel 6;
#X obj 164 136 sel 7;
#X msg 163 53 0;
#X msg -335 224 0;
#X msg 164 226 0;
#X obj -336 73 s button0;
#X obj -167 74 s button1;
#X obj -1 75 s button2;
#X obj 163 75 s button3;
#X obj -335 246 s button4;
#X obj -165 247 s button5;
#X obj 0 248 s button6;
#X obj 164 248 s button7;
#X connect 0 0 1 0;
#X connect 1 0 2 0;
#X connect 2 0 3 0;
#X connect 2 0 4 0;
#X connect 3 0 2 1;
#X connect 4 0 5 0;
#X connect 4 0 9 0;
#X connect 5 0 10 0;
#X connect 5 1 11 0;
#X connect 7 0 6 0;
#X connect 8 0 6 0;
#X connect 9 0 7 0;
#X connect 9 1 8 0;
#X connect 10 0 96 0;
#X connect 11 0 96 0;
#X connect 12 0 13 0;
#X connect 12 0 14 0;
#X connect 13 0 12 1;
#X connect 14 0 15 0;
#X connect 14 0 17 0;
#X connect 15 0 18 0;
#X connect 15 1 19 0;
#X connect 17 0 22 0;
#X connect 17 1 23 0;
#X connect 18 0 97 0;
#X connect 19 0 97 0;
#X connect 20 0 21 0;
#X connect 21 0 12 0;
#X connect 22 0 16 0;
#X connect 23 0 16 0;
#X connect 24 0 25 0;
#X connect 24 0 26 0;
#X connect 25 0 24 1;
#X connect 26 0 27 0;
#X connect 26 0 29 0;
#X connect 27 0 30 0;
#X connect 27 1 31 0;
#X connect 29 0 41 0;
#X connect 29 1 42 0;
#X connect 30 0 98 0;
#X connect 31 0 98 0;
#X connect 32 0 87 0;
#X connect 33 0 34 0;
#X connect 33 0 35 0;
#X connect 34 0 33 1;
#X connect 35 0 36 0;
#X connect 35 0 38 0;
#X connect 36 0 93 0;
#X connect 36 1 39 0;
#X connect 38 0 43 0;
#X connect 38 1 44 0;
#X connect 39 0 99 0;
#X connect 40 0 88 0;
#X connect 41 0 28 0;
#X connect 42 0 28 0;
#X connect 43 0 37 0;
#X connect 44 0 37 0;
#X connect 45 0 89 0;
#X connect 46 0 47 0;
#X connect 46 0 48 0;
#X connect 47 0 46 1;
#X connect 48 0 49 0;
#X connect 48 0 51 0;
#X connect 49 0 94 0;
#X connect 49 1 52 0;
#X connect 51 0 79 0;
#X connect 51 1 80 0;
#X connect 52 0 100 0;
#X connect 53 0 54 0;
#X connect 53 0 55 0;
#X connect 54 0 53 1;
#X connect 55 0 56 0;
#X connect 55 0 58 0;
#X connect 56 0 59 0;
#X connect 56 1 60 0;
#X connect 58 0 81 0;
#X connect 58 1 82 0;
#X connect 59 0 101 0;
#X connect 60 0 101 0;
#X connect 61 0 90 0;
#X connect 62 0 63 0;
#X connect 62 0 64 0;
#X connect 63 0 62 1;
#X connect 64 0 65 0;
#X connect 64 0 67 0;
#X connect 65 0 68 0;
#X connect 65 1 69 0;
#X connect 67 0 83 0;
#X connect 67 1 84 0;
#X connect 68 0 102 0;
#X connect 69 0 102 0;
#X connect 70 0 91 0;
#X connect 71 0 72 0;
#X connect 71 0 73 0;
#X connect 72 0 71 1;
#X connect 73 0 74 0;
#X connect 73 0 76 0;
#X connect 74 0 95 0;
#X connect 74 1 77 0;
#X connect 76 0 85 0;
#X connect 76 1 86 0;
#X connect 77 0 103 0;
#X connect 78 0 92 0;
#X connect 79 0 50 0;
#X connect 80 0 50 0;
#X connect 81 0 57 0;
#X connect 82 0 57 0;
#X connect 83 0 66 0;
#X connect 84 0 66 0;
#X connect 85 0 75 0;
#X connect 86 0 75 0;
#X connect 87 0 24 0;
#X connect 88 0 33 0;
#X connect 89 0 46 0;
#X connect 90 0 53 0;
#X connect 91 0 62 0;
#X connect 92 0 71 0;
#X connect 93 0 99 0;
#X connect 94 0 100 0;
#X connect 95 0 103 0;
#X restore 852 441 pd buttons;
#X obj 440 272 tgl 15 0 empty empty empty 17 7 0 10 -262144 -1 -1 0
1;
#X obj 440 252 r button0;
#X obj 440 311 r button1;
#X obj 442 370 r button2;
#X obj 443 429 r button3;
#X obj 444 488 r button4;
#X obj 444 548 r button5;
#X obj 445 607 r button6;
#X obj 446 664 r button7;
#X obj 259 -35 loadbang;
#X obj 539 -51 loadbang;
#X obj 826 -73 loadbang;
#X msg 826 -52 3;
#X connect 1 0 4 0;
#X connect 2 0 3 0;
#X connect 8 0 7 0;
#X connect 9 0 7 0;
#X connect 10 0 7 0;
#X connect 11 0 7 0;
#X connect 12 0 81 0;
#X connect 13 0 0 0;
#X connect 14 0 7 0;
#X connect 15 0 7 0;
#X connect 16 0 7 0;
#X connect 17 0 7 0;
#X connect 19 0 18 0;
#X connect 21 0 20 0;
#X connect 23 0 22 0;
#X connect 25 0 24 0;
#X connect 27 0 26 0;
#X connect 29 0 28 0;
#X connect 31 0 30 0;
#X connect 32 0 33 0;
#X connect 32 0 53 0;
#X connect 33 0 32 1;
#X connect 34 0 35 0;
#X connect 36 0 109 0;
#X connect 36 0 133 0;
#X connect 37 0 56 0;
#X connect 39 0 37 1;
#X connect 49 0 40 0;
#X connect 49 0 40 1;
#X connect 50 0 51 0;
#X connect 50 0 55 0;
#X connect 52 0 41 0;
#X connect 52 1 42 0;
#X connect 52 2 43 0;
#X connect 52 3 44 0;
#X connect 52 4 45 0;
#X connect 52 5 46 0;
#X connect 52 6 47 0;
#X connect 52 7 48 0;
#X connect 53 0 52 0;
#X connect 53 0 116 0;
#X connect 54 0 50 0;
#X connect 54 1 50 1;
#X connect 56 0 49 2;
#X connect 56 0 131 0;
#X connect 57 0 56 1;
#X connect 59 0 62 0;
#X connect 59 0 67 0;
#X connect 61 0 134 0;
#X connect 64 0 65 0;
#X connect 64 0 68 0;
#X connect 66 0 69 0;
#X connect 66 0 77 0;
#X connect 67 0 60 0;
#X connect 68 0 60 0;
#X connect 70 0 75 0;
#X connect 70 0 74 0;
#X connect 70 0 85 0;
#X connect 70 0 92 0;
#X connect 70 0 99 0;
#X connect 70 1 76 0;
#X connect 70 1 73 0;
#X connect 70 1 85 0;
#X connect 70 1 92 0;
#X connect 70 1 99 0;
#X connect 70 2 86 0;
#X connect 70 2 73 0;
#X connect 70 2 74 0;
#X connect 70 2 92 0;
#X connect 70 2 99 0;
#X connect 70 3 93 0;
#X connect 70 3 73 0;
#X connect 70 3 74 0;
#X connect 70 3 85 0;
#X connect 70 3 99 0;
#X connect 70 4 100 0;
#X connect 70 4 92 0;
#X connect 70 4 85 0;
#X connect 70 4 74 0;
#X connect 70 4 73 0;
#X connect 71 0 67 1;
#X connect 72 0 68 1;
#X connect 73 0 71 0;
#X connect 74 0 72 0;
#X connect 75 0 71 0;
#X connect 76 0 72 0;
#X connect 78 0 70 0;
#X connect 81 0 13 0;
#X connect 81 1 19 0;
#X connect 81 2 21 0;
#X connect 81 3 23 0;
#X connect 81 4 25 0;
#X connect 81 5 27 0;
#X connect 81 6 29 0;
#X connect 81 7 31 0;
#X connect 83 0 60 0;
#X connect 84 0 83 1;
#X connect 85 0 84 0;
#X connect 86 0 84 0;
#X connect 88 0 87 0;
#X connect 88 0 83 0;
#X connect 90 0 60 0;
#X connect 91 0 90 1;
#X connect 92 0 91 0;
#X connect 93 0 91 0;
#X connect 95 0 94 0;
#X connect 95 0 90 0;
#X connect 97 0 60 0;
#X connect 98 0 97 1;
#X connect 99 0 98 0;
#X connect 100 0 98 0;
#X connect 104 0 101 0;
#X connect 104 0 97 0;
#X connect 105 0 52 0;
#X connect 105 0 116 0;
#X connect 106 0 105 0;
#X connect 107 0 32 0;
#X connect 108 0 110 0;
#X connect 108 0 112 0;
#X connect 109 0 111 0;
#X connect 109 0 113 0;
#X connect 110 0 107 1;
#X connect 111 0 106 1;
#X connect 112 0 106 1;
#X connect 113 0 107 1;
#X connect 114 0 54 0;
#X connect 115 0 149 0;
#X connect 115 0 135 0;
#X connect 115 0 128 0;
#X connect 117 0 120 0;
#X connect 117 0 121 0;
#X connect 117 0 122 0;
#X connect 117 0 123 0;
#X connect 117 0 119 0;
#X connect 117 0 124 0;
#X connect 117 0 125 0;
#X connect 117 0 126 0;
#X connect 118 0 115 0;
#X connect 118 0 151 0;
#X connect 118 0 154 0;
#X connect 118 0 156 0;
#X connect 118 0 158 0;
#X connect 118 0 160 0;
#X connect 118 0 166 0;
#X connect 118 0 168 0;
#X connect 120 0 118 0;
#X connect 127 0 130 0;
#X connect 127 0 132 0;
#X connect 129 0 127 0;
#X connect 132 0 49 0;
#X connect 132 1 134 0;
#X connect 133 0 107 0;
#X connect 133 0 106 0;
#X connect 134 0 37 0;
#X connect 135 0 34 0;
#X connect 137 0 145 0;
#X connect 138 0 145 0;
#X connect 139 0 145 0;
#X connect 140 0 145 0;
#X connect 141 0 145 0;
#X connect 142 0 145 0;
#X connect 143 0 145 0;
#X connect 144 0 145 0;
#X connect 146 0 53 1;
#X connect 148 0 49 1;
#X connect 149 0 34 1;
#X connect 150 0 151 1;
#X connect 151 0 152 0;
#X connect 151 0 128 0;
#X connect 151 0 135 0;
#X connect 152 0 34 1;
#X connect 153 0 154 1;
#X connect 154 0 161 0;
#X connect 154 0 135 0;
#X connect 154 0 128 0;
#X connect 155 0 156 1;
#X connect 156 0 162 0;
#X connect 156 0 135 0;
#X connect 156 0 128 0;
#X connect 157 0 158 1;
#X connect 158 0 163 0;
#X connect 158 0 135 0;
#X connect 158 0 128 0;
#X connect 159 0 160 1;
#X connect 160 0 164 0;
#X connect 160 0 135 0;
#X connect 160 0 128 0;
#X connect 161 0 34 1;
#X connect 162 0 34 1;
#X connect 163 0 34 1;
#X connect 164 0 34 1;
#X connect 165 0 166 1;
#X connect 166 0 169 0;
#X connect 166 0 135 0;
#X connect 166 0 128 0;
#X connect 167 0 168 1;
#X connect 168 0 170 0;
#X connect 168 0 135 0;
#X connect 168 0 128 0;
#X connect 169 0 34 1;
#X connect 170 0 34 1;
#X connect 172 0 115 1;
#X connect 173 0 172 0;
#X connect 174 0 150 0;
#X connect 175 0 153 0;
#X connect 176 0 155 0;
#X connect 177 0 157 0;
#X connect 178 0 159 0;
#X connect 179 0 165 0;
#X connect 180 0 167 0;
#X connect 181 0 36 0;
#X connect 182 0 1 0;
#X connect 183 0 66 0;
#X connect 183 0 184 0;
#X connect 184 0 114 0;
