#N canvas 0 22 1411 836 10;
#X symbolatom 806 1196 4 0 0 0 - - -;
#X obj 539 -29 hradio 12 1 0 12 empty empty empty 0 -8 0 10 -262144
-1 -1 0;
#X obj 540 15 r \$0-key;
#X symbolatom 540 36 10 0 0 0 - - -;
#X obj 539 -13 s \$0-prekey;
#N canvas 963 315 450 300 read_key 0;
#X obj -61 141 textfile;
#X obj -136 171 listitem;
#X obj -170 129 r \$0-prekey;
#X obj -136 196 s \$0-key;
#X msg -61 62 rewind;
#X obj -113 10 t b b b;
#X obj -113 -13 loadbang;
#X obj -150 -14 bng 15 250 50 0 empty empty empty 17 7 0 10 -262144
-1 -1;
#X msg 46 47 read keys.txt;
#X obj -2 219 print;
#X connect 0 0 1 1;
#X connect 1 0 3 0;
#X connect 2 0 1 0;
#X connect 4 0 0 0;
#X connect 5 0 0 0;
#X connect 5 1 4 0;
#X connect 5 2 8 0;
#X connect 6 0 5 0;
#X connect 7 0 5 0;
#X connect 8 0 0 0;
#X restore 1044 -32 pd read_key;
#N canvas 720 311 508 398 steps1 0;
#X obj -183 168 textfile;
#X obj -265 219 listitem;
#X msg -183 89 rewind;
#X obj -235 37 t b b b;
#X obj -235 14 loadbang;
#X obj -272 14 bng 15 250 50 0 empty empty empty 17 7 0 10 -262144
-1 -1;
#X msg -77 73 read steps.txt;
#X msg -102 36 clear;
#X obj -280 170 expr 12-$f1;
#X obj -332 53 r \$0-step;
#X obj -316 322 s \$0-step-post;
#X obj -315 135 unpack f f;
#X obj -265 243 list trim;
#X obj -317 291 pack f s;
#X obj -276 271 symbol;
#X connect 0 0 1 1;
#X connect 1 0 12 0;
#X connect 2 0 0 0;
#X connect 3 0 0 0;
#X connect 3 1 2 0;
#X connect 3 2 6 0;
#X connect 4 0 3 0;
#X connect 5 0 3 0;
#X connect 6 0 0 0;
#X connect 7 0 0 0;
#X connect 8 0 1 0;
#X connect 9 0 11 0;
#X connect 11 0 13 0;
#X connect 11 1 8 0;
#X connect 12 0 14 0;
#X connect 13 0 10 0;
#X connect 14 0 13 1;
#X restore 1044 -11 pd steps1;
#X obj 807 1076 s \$0-step;
#X msg 807 990 0 \$1;
#X msg 817 1011 1 \$1;
#X msg 828 1031 2 \$1;
#X msg 838 1052 3 \$1;
#X obj 806 1101 r \$0-step-post;
#X obj 806 1165 symbol;
#X msg 890 988 4 \$1;
#X msg 901 1009 5 \$1;
#X msg 912 1029 6 \$1;
#X msg 922 1050 7 \$1;
#X symbolatom 850 1196 4 0 0 0 - - -;
#X obj 850 1165 symbol;
#X symbolatom 894 1196 4 0 0 0 - - -;
#X obj 894 1165 symbol;
#X symbolatom 938 1196 4 0 0 0 - - -;
#X obj 938 1165 symbol;
#X symbolatom 982 1196 4 0 0 0 - - -;
#X obj 982 1165 symbol;
#X symbolatom 1026 1196 4 0 0 0 - - -;
#X obj 1026 1165 symbol;
#X symbolatom 1069 1196 4 0 0 0 - - -;
#X obj 1069 1165 symbol;
#X symbolatom 1112 1196 4 0 0 0 - - -;
#X obj 1112 1165 symbol;
#X obj 322 63 float;
#X obj 372 63 + 1;
#X obj -30 798 int;
#X obj -30 853 s \$0-note;
#X obj 259 -13 tgl 15 0 empty empty empty 17 7 0 10 -262144 -1 -1 1
1;
#X obj 1374 519 +;
#N canvas 200 467 450 300 keys 0;
#X obj -52 151 textfile;
#X obj -127 181 listitem;
#X obj -161 139 r \$0-prekey;
#X msg -52 72 rewind;
#X obj -104 20 t b b b;
#X obj -104 -3 loadbang;
#X obj -141 -3 bng 15 250 50 0 empty empty empty 17 7 0 10 -262144
-1 -1;
#X msg 55 57 read rootnotes.txt;
#X obj -127 206 s \$0-rootnote;
#X connect 0 0 1 1;
#X connect 1 0 8 0;
#X connect 2 0 1 0;
#X connect 3 0 0 0;
#X connect 4 0 0 0;
#X connect 4 1 3 0;
#X connect 4 2 7 0;
#X connect 5 0 4 0;
#X connect 6 0 4 0;
#X connect 7 0 0 0;
#X restore 1044 9 pd keys;
#X obj 1446 489 r \$0-rootnote;
#X obj 1341 609 output~;
#X obj 254 184 bng 15 250 50 0 empty empty empty 17 7 0 10 -262144
-1 -1;
#X obj 275 184 bng 15 250 50 0 empty empty empty 17 7 0 10 -262144
-1 -1;
#X obj 295 184 bng 15 250 50 0 empty empty empty 17 7 0 10 -262144
-1 -1;
#X obj 316 184 bng 15 250 50 0 empty empty empty 17 7 0 10 -262144
-1 -1;
#X obj 338 184 bng 15 250 50 0 empty empty empty 17 7 0 10 -262144
-1 -1;
#X obj 359 184 bng 15 250 50 0 empty empty empty 17 7 0 10 -262144
-1 -1;
#X obj 379 184 bng 15 250 50 0 empty empty empty 17 7 0 10 -262144
-1 -1;
#X obj 400 184 bng 15 250 50 0 empty empty empty 17 7 0 10 -262144
-1 -1;
#N canvas 70 56 450 300 octaves 0;
#X obj -240 190 + 0;
#X obj -163 67 inlet;
#X obj -240 68 inlet;
#X obj -241 218 outlet;
#X msg -141 143 0;
#X msg -110 143 12;
#X msg -81 144 24;
#X msg -53 143 36;
#X msg -24 143 48;
#X obj -163 91 sel 0 1 2 3 4 5 6 7;
#X msg -170 143 -12;
#X msg 4 143 60;
#X msg -198 143 -24;
#X connect 0 0 3 0;
#X connect 1 0 9 0;
#X connect 2 0 0 0;
#X connect 4 0 0 1;
#X connect 5 0 0 1;
#X connect 6 0 0 1;
#X connect 7 0 0 1;
#X connect 8 0 0 1;
#X connect 9 0 11 0;
#X connect 9 1 8 0;
#X connect 9 2 7 0;
#X connect 9 3 6 0;
#X connect 9 4 5 0;
#X connect 9 5 4 0;
#X connect 9 6 10 0;
#X connect 9 7 12 0;
#X connect 10 0 0 1;
#X connect 11 0 0 1;
#X connect 12 0 0 1;
#X restore 826 107 pd octaves;
#X floatatom 808 157 5 0 0 0 - - -;
#X obj 263 153 select 0 1 2 3 4 5 6 7;
#X obj 322 88 mod 8;
#X obj 826 82 t b f;
#X obj 826 132 s \$0-octave;
#X obj 1374 552 + \$1;
#X obj 1403 530 r \$0-octave;
#X obj 907 -33 vradio 13 1 0 8 empty empty empty 0 -8 0 10 -262144
-1 -1 4;
#X floatatom 981 83 5 0 0 0 - - -;
#X text 922 -37 major scale;
#X text 922 -23 minor scale;
#X obj 806 1126 route 0 1 2 3 4 5 6 7;
#X text 922 5 hungarian minor;
#X text 922 18 octatonic w \, h;
#X obj 256 63 random 8;
#X obj 256 39 spigot;
#X obj 322 39 spigot;
#X msg 393 -28 random;
#X msg 446 -28 clock;
#X msg 378 -2 0;
#X msg 441 -3 0;
#X msg 404 -1 1;
#X msg 471 -3 1;
#X obj 826 -32 vradio 13 1 0 8 empty empty empty 0 -8 0 10 -262144
-1 -1 3;
#X obj 213 558 spigot;
#X obj 322 127 s \$0-seqstep;
#X msg -29 647 1;
#X obj 1286 398 sel 1;
#X obj 62 995 s \$0-trig;
#X obj 1286 370 r \$0-trig;
#X obj 1256 457 bng 15 250 50 0 empty empty empty 17 7 0 10 -262144
-1 -1;
#X floatatom 1415 577 5 0 0 0 - - -;
#X obj 1286 455 t b b;
#X obj 1374 480 pack f;
#X obj -30 689 b;
#X text 922 -9 wholetone scale;
#X msg 555 121 1;
#X msg 742 121 8;
#X msg 717 121 7;
#X msg 690 121 6;
#X msg 663 121 5;
#X msg 636 121 4;
#X msg 609 121 3;
#X msg 582 121 2;
#X obj 629 157 s \$0-seqlength;
#X obj 375 87 r \$0-seqlength;
#X obj 1231 520 ctlin 17;
#X msg 212 585 0;
#X obj 245 606 tgl 15 0 empty empty empty 17 7 0 10 -262144 -1 -1 0
1;
#X obj 215 623 spigot;
#X msg 214 644 1;
#X obj 247 665 tgl 15 0 empty empty empty 17 7 0 10 -262144 -1 -1 0
1;
#X obj 214 683 spigot;
#X obj 248 723 tgl 15 0 empty empty empty 17 7 0 10 -262144 -1 -1 0
1;
#X obj 215 741 spigot;
#X obj 249 783 tgl 15 0 empty empty empty 17 7 0 10 -262144 -1 -1 0
1;
#X obj 216 801 spigot;
#X obj 249 843 tgl 15 0 empty empty empty 17 7 0 10 -262144 -1 -1 0
1;
#X obj 216 861 spigot;
#X msg 214 703 2;
#X msg 215 762 3;
#X msg 216 822 4;
#X msg 216 881 5;
#X obj 250 901 tgl 15 0 empty empty empty 17 7 0 10 -262144 -1 -1 0
1;
#X obj 217 919 spigot;
#X obj 251 958 tgl 15 0 empty empty empty 17 7 0 10 -262144 -1 -1 0
1;
#X obj 218 976 spigot;
#X msg 217 938 6;
#X msg 218 995 7;
#X obj 247 644 r button2;
#X obj 248 703 r button3;
#X obj 249 762 r button4;
#X obj 249 822 r button5;
#X obj 250 881 r button6;
#X obj 251 938 r button7;
#X obj 259 -35 loadbang;
#X obj 539 -51 loadbang;
#X obj 826 -73 loadbang;
#X msg 826 -52 3;
#X obj 245 585 route 1 f;
#X obj 58 123 notein;
#X obj 58 169 route 4;
#X obj 58 146 pack f f;
#X obj 58 191 sel 64;
#X obj 58 215 bng 15 250 50 0 empty empty empty 17 7 0 10 -262144 -1
-1;
#N canvas 518 311 404 289 ohmbuttons 0;
#X obj -322 -71 notein 1;
#X obj -322 74 pack f f;
#X text -251 31 <- could remap by processing the data on this line
;
#X obj -322 22 sel 64;
#X obj -322 -50 pack f f;
#X msg -322 -29 \$2 \$1;
#X obj -322 -6 unpack f f;
#X msg -322 48 1;
#X obj -321 131 s \$0-ohmbutton;
#X connect 0 0 4 0;
#X connect 0 1 4 1;
#X connect 1 0 8 0;
#X connect 3 0 7 0;
#X connect 4 0 5 0;
#X connect 5 0 6 0;
#X connect 6 0 3 0;
#X connect 6 1 1 1;
#X connect 7 0 1 0;
#X restore 60 317 pd ohmbuttons;
#N canvas 713 418 727 482 ohmlights 0;
#X obj 64 213 noteout;
#X obj 64 49 unpack f f;
#X obj 64 172 pack f f 1;
#X obj 85 76 sel 0;
#X msg 85 101 0;
#X obj 123 76 sel 1;
#X msg 123 101 127;
#X text 171 100 <-- 127 = green for sequencer note-ons;
#X obj 64 24 r \$0-b_state;
#X connect 1 0 2 0;
#X connect 1 1 3 0;
#X connect 1 1 5 0;
#X connect 2 0 0 0;
#X connect 3 0 4 0;
#X connect 4 0 2 1;
#X connect 5 0 6 0;
#X connect 6 0 2 1;
#X connect 8 0 1 0;
#X restore 62 286 pd ohmlights;
#X obj 282 564 r \$0-buttons;
#N canvas 157 75 1283 825 \$0-pad 0;
#X obj 535 24 hsl 128 15 0 127 0 1 empty empty empty -2 -6 0 8 -262144
-1 -1 5005 1;
#N canvas 0 22 450 300 (subpatch) 0;
#X array \$0-pad 1000 float 0;
#X coords 0 2 999 -1 200 100 1;
#X restore 657 521 graph;
#X obj 522 516 tgl 15 1 empty empty empty 0 -6 0 10 -262144 -1 -1 1
1;
#X text 635 608 -1;
#X text 641 563 0;
#X text 543 514 Graph output;
#X obj 522 539 metro 100;
#X obj 952 25 mtof;
#X obj 955 0 hsl 128 15 0 127 0 1 empty empty empty -2 -6 0 8 -262144
-1 -1 5020 1;
#X obj 726 19 hsl 128 15 0 127 0 1 empty empty empty -2 -6 0 8 -262144
-1 -1 5005 1;
#X obj 737 159 expr~ $v1 > 0.5;
#X obj 994 138 expr~ $v1 > 0.5;
#X obj 722 123 spigot~;
#X obj 797 117 tgl 15 0 empty empty empty 17 7 0 10 -262144 -1 -1 0
1;
#X obj 1068 91 tgl 15 0 empty empty empty 17 7 0 10 -262144 -1 -1 0
1;
#X obj 955 104 spigot~;
#X text 641 517 2;
#X obj 555 231 noise~;
#X obj 533 84 mtof;
#X obj 723 45 mtof;
#X obj 427 603 outlet~;
#X text 472 604 comment;
#X floatatom 1009 39 5 0 0 0 - - -;
#X obj 951 175 *~ 0.9;
#X obj 956 80 phasor~ 391;
#X obj 971 287 mtof;
#X obj 364 257 *~;
#X obj 702 190 *~ 1;
#X obj 533 149 *~ 1;
#X obj 722 93 phasor~ 103.8;
#X obj 533 108 osc~ 679.7;
#X obj 970 318 sig~;
#X obj 556 289 *~ 0.05;
#X floatatom 603 82 5 0 0 0 - - -;
#X floatatom 798 64 5 0 0 0 - - -;
#X obj 495 -37 inlet;
#X obj 973 259 + 80;
#X obj 111 50 gadsr~;
#X obj 80 -11 bng 15 250 50 0 empty empty empty 17 7 0 10 -262144 -1
-1;
#X obj 448 230 s \$0_dur;
#X obj 152 1 inlet;
#X obj 306 -2 inlet;
#X obj 758 232 hsl 128 15 0 127 0 0 empty empty empty -2 -8 0 10 -262144
-1 -1 6600 1;
#X obj 755 288 sig~;
#X obj 746 358 vcf~ 1;
#X obj 755 263 mtof;
#X obj 1007 198 r x;
#X obj 953 353 lop~ 15;
#X obj 791 185 loadbang;
#X msg 791 206 66;
#X obj 952 -24 * \$1;
#X msg 1006 -56 1;
#X msg 1045 -55 1.3;
#X msg 733 -47 1;
#X msg 772 -46 1.3;
#X msg 1074 -54 1.003;
#X obj 723 -12 * \$1;
#X msg 803 -46 1.003;
#X obj 775 -77 loadbang;
#X obj 551 -31 * 1.001;
#X obj 469 570 tabwrite~ \$0-pad;
#X connect 0 0 18 0;
#X connect 0 0 33 0;
#X connect 2 0 6 0;
#X connect 6 0 60 0;
#X connect 7 0 24 0;
#X connect 8 0 7 0;
#X connect 8 0 22 0;
#X connect 9 0 19 0;
#X connect 9 0 34 0;
#X connect 10 0 27 0;
#X connect 11 0 23 0;
#X connect 12 0 27 0;
#X connect 12 1 10 0;
#X connect 13 0 12 1;
#X connect 14 0 15 1;
#X connect 15 0 23 0;
#X connect 15 1 11 0;
#X connect 17 0 32 0;
#X connect 18 0 30 0;
#X connect 19 0 29 0;
#X connect 23 0 44 0;
#X connect 24 0 15 0;
#X connect 25 0 31 0;
#X connect 26 0 20 0;
#X connect 26 0 60 0;
#X connect 27 0 44 0;
#X connect 28 0 44 0;
#X connect 29 0 12 0;
#X connect 30 0 28 0;
#X connect 31 0 47 0;
#X connect 32 0 44 0;
#X connect 35 0 59 0;
#X connect 36 0 25 0;
#X connect 37 0 26 0;
#X connect 37 1 39 0;
#X connect 38 0 37 0;
#X connect 40 0 37 0;
#X connect 41 0 37 1;
#X connect 42 0 45 0;
#X connect 43 0 44 1;
#X connect 44 0 26 1;
#X connect 45 0 43 0;
#X connect 46 0 36 0;
#X connect 47 0 44 1;
#X connect 48 0 49 0;
#X connect 49 0 42 0;
#X connect 50 0 8 0;
#X connect 51 0 50 1;
#X connect 52 0 50 1;
#X connect 53 0 56 1;
#X connect 54 0 56 1;
#X connect 55 0 50 1;
#X connect 56 0 9 0;
#X connect 57 0 56 1;
#X connect 58 0 55 0;
#X connect 58 0 53 0;
#X connect 59 0 0 0;
#X connect 59 0 50 0;
#X connect 59 0 56 0;
#X restore 1341 577 pd \$0-pad;
#X obj 49 521 list length;
#X obj 22 553 spigot;
#X obj 22 590 print;
#X obj 22 495 t a a;
#X obj 22 472 r \$0-seq_out;
#N canvas 108 22 1332 726 \$0-sequencer_guts 1;
#X obj 10 15 r \$0-seqstep;
#X msg -256 208;
#X obj -337 248 s \$0-seq_out;
#X obj -256 144 r \$0-b_state;
#X obj -337 177 seq_guts_col 8;
#X msg -79 208;
#X obj -166 248 s \$0-seq_out;
#X obj -79 144 r \$0-b_state;
#X msg 97 208 4;
#X obj 10 248 s \$0-seq_out;
#X obj 97 144 r \$0-b_state;
#X msg 268 208 7;
#X obj 181 248 s \$0-seq_out;
#X obj 268 144 r \$0-b_state;
#X msg 437 207;
#X obj 350 247 s \$0-seq_out;
#X obj 437 143 r \$0-b_state;
#X msg 608 206 2;
#X obj 521 247 s \$0-seq_out;
#X obj 608 143 r \$0-b_state;
#X msg 784 207 7 1;
#X obj 697 247 s \$0-seq_out;
#X obj 784 143 r \$0-b_state;
#X obj -166 177 seq_guts_col 16;
#X obj 10 177 seq_guts_col 24;
#X obj 181 177 seq_guts_col 32;
#X obj 350 176 seq_guts_col 40;
#X obj 521 176 seq_guts_col 48;
#X obj 697 176 seq_guts_col 56;
#X obj -506 121 sel 0;
#X msg -425 209 7;
#X obj -506 249 s \$0-seq_out;
#X obj -425 145 r \$0-b_state;
#X obj -506 178 seq_guts_col 0;
#X obj -337 120 sel 1;
#X obj -166 120 sel 2;
#X obj 10 120 sel 3;
#X obj 181 120 sel 4;
#X obj 350 119 sel 5;
#X obj 521 119 sel 6;
#X obj 697 119 sel 7;
#X obj -398 295 print;
#X connect 0 0 36 0;
#X connect 0 0 37 0;
#X connect 0 0 38 0;
#X connect 0 0 39 0;
#X connect 0 0 40 0;
#X connect 0 0 35 0;
#X connect 0 0 34 0;
#X connect 0 0 29 0;
#X connect 3 0 4 1;
#X connect 4 0 2 0;
#X connect 4 1 1 0;
#X connect 7 0 23 1;
#X connect 10 0 24 1;
#X connect 13 0 25 1;
#X connect 16 0 26 1;
#X connect 19 0 27 1;
#X connect 22 0 28 1;
#X connect 23 0 6 0;
#X connect 23 1 5 0;
#X connect 24 0 9 0;
#X connect 24 1 8 0;
#X connect 25 0 12 0;
#X connect 25 1 11 0;
#X connect 26 0 15 0;
#X connect 26 1 14 0;
#X connect 27 0 18 0;
#X connect 27 1 17 0;
#X connect 28 0 21 0;
#X connect 28 1 20 0;
#X connect 29 0 33 0;
#X connect 32 0 33 1;
#X connect 33 0 31 0;
#X connect 33 0 41 0;
#X connect 33 1 30 0;
#X connect 34 0 4 0;
#X connect 35 0 23 0;
#X connect 36 0 24 0;
#X connect 37 0 25 0;
#X connect 38 0 26 0;
#X connect 39 0 27 0;
#X connect 40 0 28 0;
#X restore 59 345 pd \$0-sequencer_guts;
#N canvas 123 127 450 300 \$0-triggers 0;
#X obj -54 33 list length;
#X obj -54 9 r \$0-seq_out;
#X obj -69 207 s \$0-trig;
#X obj -69 115 != 0;
#X obj -69 181 spigot;
#X obj 34 215 tgl 15 0 empty empty empty 17 7 0 10 -262144 -1 -1 0
1;
#X obj -69 144 t f f;
#X obj -34 115 == 0;
#X obj -24 144 bang;
#X msg 12 168 0;
#X connect 0 0 7 0;
#X connect 0 0 3 0;
#X connect 1 0 0 0;
#X connect 3 0 6 0;
#X connect 4 0 2 0;
#X connect 5 0 4 1;
#X connect 6 0 4 0;
#X connect 6 1 5 0;
#X connect 7 0 8 0;
#X connect 8 0 9 0;
#X connect 9 0 5 0;
#X restore 60 412 pd \$0-triggers;
#N canvas 614 163 533 324 test_ohmrgb 0;
#N canvas 647 386 530 344 test_ohmrgb 0;
#X obj 130 10 notein;
#X floatatom 130 32 5 0 0 0 - - -;
#X floatatom 168 32 5 0 0 0 - - -;
#X floatatom 205 32 5 0 0 0 - - -;
#X obj 15 11 ctlin;
#X floatatom 15 33 5 0 0 0 - - -;
#X floatatom 53 33 5 0 0 0 - - -;
#X floatatom 90 33 5 0 0 0 - - -;
#X obj 271 62 noteout;
#X msg 272 6 0 0 1;
#X msg 317 6 0 1 1;
#X msg 364 6 0 4 1;
#X msg 411 6 0 8 1;
#X msg 271 32 0 16 1;
#X msg 317 32 0 32 1;
#X msg 364 32 0 64 1;
#X obj 262 108 hsl 128 15 0 127 0 0 empty empty empty -2 -8 0 10 -262144
-1 -1 0 1;
#X msg 411 33 0 127 1;
#X text 253 152 velocity color map 000-000: OFF 001-003: White (looks
pink) 004-007: Cyan 008-015: Magenta 016-031: Red 032-063: Blue 064-126:
Yellow 127-127: Green;
#X connect 0 0 1 0;
#X connect 0 1 2 0;
#X connect 0 2 3 0;
#X connect 4 0 5 0;
#X connect 4 1 6 0;
#X connect 4 2 7 0;
#X connect 9 0 8 0;
#X connect 10 0 8 0;
#X connect 11 0 8 0;
#X connect 12 0 8 0;
#X connect 13 0 8 0;
#X connect 14 0 8 0;
#X connect 15 0 8 0;
#X connect 16 0 8 0;
#X connect 17 0 8 0;
#X restore 174 173 pd test_ohmrgb;
#X restore 1044 70 pd test_ohmrgb;
#X obj 539 325 unpack f f;
#X obj 539 369 pack f f;
#X obj 539 688 unpack f f;
#X obj 539 732 pack f f;
#X obj 539 708 + 8;
#X obj 450 281 r \$0-ohmbutton;
#X obj 539 302 r \$0-ohmbutton;
#X obj 450 389 seq_t_column;
#X obj 584 348 - 8;
#X obj 539 390 seq_t_column;
#X obj 450 779 s \$0-b_state;
#X obj 539 757 s \$0-b_state;
#X obj 632 325 unpack f f;
#X obj 632 369 pack f f;
#X obj 632 688 unpack f f;
#X obj 632 732 pack f f;
#X obj 632 302 r \$0-ohmbutton;
#X obj 632 390 seq_t_column;
#X obj 632 757 s \$0-b_state;
#X obj 725 325 unpack f f;
#X obj 725 369 pack f f;
#X obj 725 688 unpack f f;
#X obj 725 732 pack f f;
#X obj 725 302 r \$0-ohmbutton;
#X obj 725 390 seq_t_column;
#X obj 725 757 s \$0-b_state;
#X obj 818 325 unpack f f;
#X obj 818 369 pack f f;
#X obj 818 688 unpack f f;
#X obj 818 732 pack f f;
#X obj 818 302 r \$0-ohmbutton;
#X obj 818 390 seq_t_column;
#X obj 818 757 s \$0-b_state;
#X obj 910 325 unpack f f;
#X obj 910 369 pack f f;
#X obj 910 688 unpack f f;
#X obj 910 732 pack f f;
#X obj 910 302 r \$0-ohmbutton;
#X obj 910 390 seq_t_column;
#X obj 910 757 s \$0-b_state;
#X obj 1003 325 unpack f f;
#X obj 1003 369 pack f f;
#X obj 1003 688 unpack f f;
#X obj 1003 732 pack f f;
#X obj 1003 302 r \$0-ohmbutton;
#X obj 1003 390 seq_t_column;
#X obj 1003 757 s \$0-b_state;
#X obj 1096 325 unpack f f;
#X obj 1096 369 pack f f;
#X obj 1096 688 unpack f f;
#X obj 1096 732 pack f f;
#X obj 1096 302 r \$0-ohmbutton;
#X obj 1096 390 seq_t_column;
#X obj 1096 757 s \$0-b_state;
#X obj 677 348 - 16;
#X obj 770 348 - 24;
#X obj 862 348 - 32;
#X obj 955 348 - 40;
#X obj 1048 348 - 48;
#X obj 1141 347 - 56;
#X obj 632 708 + 16;
#X obj 725 710 + 24;
#X obj 818 710 + 32;
#X obj 910 708 + 40;
#X obj 1003 709 + 48;
#X obj 1096 710 + 56;
#X obj 296 5 metro 300;
#X obj 907 83 s \$0-scale;
#X obj 1194 -12 scales;
#X obj 1312 -12 scales;
#X obj 1429 -12 scales;
#X obj 1547 -12 scales;
#X obj 1194 70 scales;
#X obj 1312 70 scales;
#X obj 1429 70 scales;
#X obj 1547 70 scales;
#X obj 1194 -38 r \$0-voice0;
#X obj 1312 -38 r \$0-voice1;
#X obj 1429 -38 r \$0-voice2;
#X obj 1547 -38 r \$0-voice3;
#X obj 1194 16 s \$0-scaled_voice0;
#X obj 1194 98 s \$0-scaled_voice4;
#X obj 1194 44 r \$0-voice4;
#X obj 1312 44 r \$0-voice5;
#X obj 1312 16 s \$0-scaled_voice1;
#X obj 1429 16 s \$0-scaled_voice2;
#X obj 1547 16 s \$0-scaled_voice3;
#X obj 1429 44 r \$0-voice6;
#X obj 1547 44 r \$0-voice7;
#X obj 1546 98 s \$0-scaled_voice7;
#X obj 1429 98 s \$0-scaled_voice6;
#X obj 1312 98 s \$0-scaled_voice5;
#X obj 1374 400 r \$0-scaled_voice0;
#N canvas 570 99 627 355 \$0-voicemaking 0;
#X obj 124 38 r \$0-seq_out;
#X obj 124 65 unpack f f f f f f f f;
#X obj 37 193 s \$0-voice0;
#X obj 117 193 s \$0-voice1;
#X obj 192 193 s \$0-voice2;
#X obj 268 193 s \$0-voice3;
#X obj 251 151 s \$0-voice4;
#X obj 325 151 s \$0-voice5;
#X obj 399 151 s \$0-voice6;
#X obj 476 151 s \$0-voice7;
#X connect 0 0 1 0;
#X connect 1 0 2 0;
#X connect 1 1 3 0;
#X connect 1 2 4 0;
#X connect 1 3 5 0;
#X connect 1 4 6 0;
#X connect 1 5 7 0;
#X connect 1 6 8 0;
#X connect 1 7 9 0;
#X restore 60 385 pd \$0-voicemaking;
#X connect 1 0 4 0;
#X connect 2 0 3 0;
#X connect 8 0 7 0;
#X connect 9 0 7 0;
#X connect 10 0 7 0;
#X connect 11 0 7 0;
#X connect 12 0 61 0;
#X connect 13 0 0 0;
#X connect 14 0 7 0;
#X connect 15 0 7 0;
#X connect 16 0 7 0;
#X connect 17 0 7 0;
#X connect 19 0 18 0;
#X connect 21 0 20 0;
#X connect 23 0 22 0;
#X connect 25 0 24 0;
#X connect 27 0 26 0;
#X connect 29 0 28 0;
#X connect 31 0 30 0;
#X connect 32 0 33 0;
#X connect 32 0 52 0;
#X connect 33 0 32 1;
#X connect 34 0 35 0;
#X connect 36 0 68 0;
#X connect 36 0 213 0;
#X connect 37 0 55 0;
#X connect 39 0 37 1;
#X connect 49 0 50 0;
#X connect 49 0 54 0;
#X connect 51 0 41 0;
#X connect 51 1 42 0;
#X connect 51 2 43 0;
#X connect 51 3 44 0;
#X connect 51 4 45 0;
#X connect 51 5 46 0;
#X connect 51 6 47 0;
#X connect 51 7 48 0;
#X connect 52 0 51 0;
#X connect 52 0 75 0;
#X connect 53 0 49 0;
#X connect 53 1 49 1;
#X connect 55 0 138 2;
#X connect 55 0 81 0;
#X connect 56 0 55 1;
#X connect 57 0 58 0;
#X connect 57 0 214 0;
#X connect 61 0 13 0;
#X connect 61 1 19 0;
#X connect 61 2 21 0;
#X connect 61 3 23 0;
#X connect 61 4 25 0;
#X connect 61 5 27 0;
#X connect 61 6 29 0;
#X connect 61 7 31 0;
#X connect 64 0 51 0;
#X connect 64 0 75 0;
#X connect 65 0 64 0;
#X connect 66 0 32 0;
#X connect 67 0 69 0;
#X connect 67 0 71 0;
#X connect 68 0 70 0;
#X connect 68 0 72 0;
#X connect 69 0 66 1;
#X connect 70 0 65 1;
#X connect 71 0 65 1;
#X connect 72 0 66 1;
#X connect 73 0 53 0;
#X connect 74 0 97 0;
#X connect 74 0 84 0;
#X connect 74 0 78 0;
#X connect 76 0 74 0;
#X connect 76 0 99 0;
#X connect 76 0 102 0;
#X connect 76 0 104 0;
#X connect 76 0 106 0;
#X connect 76 0 108 0;
#X connect 76 0 114 0;
#X connect 76 0 116 0;
#X connect 77 0 80 0;
#X connect 77 0 82 0;
#X connect 79 0 77 0;
#X connect 82 0 138 0;
#X connect 82 1 83 0;
#X connect 83 0 37 0;
#X connect 84 0 34 0;
#X connect 86 0 94 0;
#X connect 87 0 94 0;
#X connect 88 0 94 0;
#X connect 89 0 94 0;
#X connect 90 0 94 0;
#X connect 91 0 94 0;
#X connect 92 0 94 0;
#X connect 93 0 94 0;
#X connect 95 0 52 1;
#X connect 96 0 138 1;
#X connect 97 0 34 1;
#X connect 98 0 99 1;
#X connect 99 0 100 0;
#X connect 99 0 78 0;
#X connect 99 0 84 0;
#X connect 100 0 34 1;
#X connect 101 0 102 1;
#X connect 102 0 109 0;
#X connect 102 0 84 0;
#X connect 102 0 78 0;
#X connect 103 0 104 1;
#X connect 104 0 110 0;
#X connect 104 0 84 0;
#X connect 104 0 78 0;
#X connect 105 0 106 1;
#X connect 106 0 111 0;
#X connect 106 0 84 0;
#X connect 106 0 78 0;
#X connect 107 0 108 1;
#X connect 108 0 112 0;
#X connect 108 0 84 0;
#X connect 108 0 78 0;
#X connect 109 0 34 1;
#X connect 110 0 34 1;
#X connect 111 0 34 1;
#X connect 112 0 34 1;
#X connect 113 0 114 1;
#X connect 114 0 117 0;
#X connect 114 0 84 0;
#X connect 114 0 78 0;
#X connect 115 0 116 1;
#X connect 116 0 118 0;
#X connect 116 0 84 0;
#X connect 116 0 78 0;
#X connect 117 0 34 1;
#X connect 118 0 34 1;
#X connect 119 0 101 0;
#X connect 120 0 103 0;
#X connect 121 0 105 0;
#X connect 122 0 107 0;
#X connect 123 0 113 0;
#X connect 124 0 115 0;
#X connect 125 0 36 0;
#X connect 126 0 1 0;
#X connect 127 0 57 0;
#X connect 127 0 128 0;
#X connect 128 0 73 0;
#X connect 129 1 98 0;
#X connect 130 0 132 0;
#X connect 130 1 132 1;
#X connect 131 0 133 0;
#X connect 132 0 131 0;
#X connect 133 0 134 0;
#X connect 137 0 129 0;
#X connect 138 0 40 0;
#X connect 138 0 40 1;
#X connect 139 0 140 1;
#X connect 142 0 140 0;
#X connect 142 1 139 0;
#X connect 143 0 142 0;
#X connect 147 0 148 0;
#X connect 147 1 155 0;
#X connect 148 0 156 0;
#X connect 149 0 151 0;
#X connect 149 1 150 1;
#X connect 150 0 158 0;
#X connect 151 0 150 0;
#X connect 152 0 154 0;
#X connect 153 0 147 0;
#X connect 154 0 157 0;
#X connect 155 0 148 1;
#X connect 156 0 149 0;
#X connect 159 0 160 0;
#X connect 159 1 201 0;
#X connect 160 0 164 0;
#X connect 161 0 207 0;
#X connect 161 1 162 1;
#X connect 162 0 165 0;
#X connect 163 0 159 0;
#X connect 164 0 161 0;
#X connect 166 0 167 0;
#X connect 166 1 202 0;
#X connect 167 0 171 0;
#X connect 168 0 208 0;
#X connect 168 1 169 1;
#X connect 169 0 172 0;
#X connect 170 0 166 0;
#X connect 171 0 168 0;
#X connect 173 0 174 0;
#X connect 173 1 203 0;
#X connect 174 0 178 0;
#X connect 175 0 209 0;
#X connect 175 1 176 1;
#X connect 176 0 179 0;
#X connect 177 0 173 0;
#X connect 178 0 175 0;
#X connect 180 0 181 0;
#X connect 180 1 204 0;
#X connect 181 0 185 0;
#X connect 182 0 210 0;
#X connect 182 1 183 1;
#X connect 183 0 186 0;
#X connect 184 0 180 0;
#X connect 185 0 182 0;
#X connect 187 0 188 0;
#X connect 187 1 205 0;
#X connect 188 0 192 0;
#X connect 189 0 211 0;
#X connect 189 1 190 1;
#X connect 190 0 193 0;
#X connect 191 0 187 0;
#X connect 192 0 189 0;
#X connect 194 0 195 0;
#X connect 194 1 206 0;
#X connect 195 0 199 0;
#X connect 196 0 212 0;
#X connect 196 1 197 1;
#X connect 197 0 200 0;
#X connect 198 0 194 0;
#X connect 199 0 196 0;
#X connect 201 0 160 1;
#X connect 202 0 167 1;
#X connect 203 0 174 1;
#X connect 204 0 181 1;
#X connect 205 0 188 1;
#X connect 206 0 195 1;
#X connect 207 0 162 0;
#X connect 208 0 169 0;
#X connect 209 0 176 0;
#X connect 210 0 183 0;
#X connect 211 0 190 0;
#X connect 212 0 197 0;
#X connect 213 0 66 0;
#X connect 213 0 65 0;
#X connect 215 0 227 0;
#X connect 216 0 231 0;
#X connect 217 0 232 0;
#X connect 218 0 233 0;
#X connect 219 0 228 0;
#X connect 220 0 238 0;
#X connect 221 0 237 0;
#X connect 222 0 236 0;
#X connect 223 0 215 0;
#X connect 224 0 216 0;
#X connect 225 0 217 0;
#X connect 226 0 218 0;
#X connect 229 0 219 0;
#X connect 230 0 220 0;
#X connect 234 0 221 0;
#X connect 235 0 222 0;
#X connect 239 0 83 0;
