#N canvas 588 22 723 497 10;
#X obj 166 265 dac~;
#X obj 157 218 *~ 0.2;
#N canvas 0 22 450 300 (subpatch) 0;
#X array shape1 100 float 5;
#A 0 0 0 0 0 0 0 0 0 0 0 0 0 0 0 0 0 0 0 0 0 0 0 0 0 0 0 0 0 0 0 0
0 0 0 0 0 0 0 0 0 0 0 0 0 0 0 0 0 0 0 0 0 0 0 0 0 0 0 0 0 0 0 0 0 0
0 0 0 0 0 0 0 0 0 0 0 0 0 0 0 0 0 0 0 0 0 0 0 0 0 0 0 0 0 0 0 0 0 0
0;
#X coords 0 1 99 -1 200 140 1;
#X restore 411 30 graph;
#N canvas 198 22 600 428 multiosc 1;
#X obj 26 161 cos~;
#X obj 23 317 outlet~ sine;
#X obj 356 319 outlet~ saw;
#X obj 233 318 outlet~ triangle;
#X obj 328 140 *~ -1;
#X obj 452 316 outlet~ ramp;
#X obj 329 170 +~ 1;
#X obj 232 211 min~;
#X obj 232 234 -~ 0.25;
#X obj 233 262 *~ 4;
#X obj 294 212 +~ -0.5;
#X obj 358 209 +~ -0.5;
#X obj 231 45 inlet;
#X obj 295 242 *~ 2;
#X obj 359 243 *~ 2;
#X obj 153 45 inlet~;
#X obj 120 318 outlet~ pulse;
#X obj 167 85 phasor~ 440;
#X obj 479 58 inlet~ pwm;
#X obj 61 248 fexpr~ $x1 < $x2;
#X obj 438 136 loadbang;
#X msg 439 163 0.5;
#X connect 0 0 1 0;
#X connect 4 0 6 0;
#X connect 6 0 7 1;
#X connect 6 0 11 0;
#X connect 7 0 8 0;
#X connect 8 0 9 0;
#X connect 9 0 3 0;
#X connect 10 0 13 0;
#X connect 11 0 14 0;
#X connect 12 0 17 1;
#X connect 13 0 2 0;
#X connect 14 0 5 0;
#X connect 17 0 4 0;
#X connect 17 0 7 0;
#X connect 17 0 10 0;
#X connect 17 0 0 0;
#X connect 17 0 19 0;
#X connect 18 0 19 1;
#X connect 19 0 16 0;
#X connect 20 0 21 0;
#X connect 21 0 19 1;
#X restore 144 152 pd multiosc;
#X obj 224 217 tabwrite~ shape1;
#X obj 268 189 metro 100;
#X obj 268 167 tgl 15 0 empty empty empty 17 7 0 10 -262144 -1 -1 1
1;
#X text 120 39 Multiple waveform oscillator;
#X obj 206 107 osc~ 3;
#X connect 1 0 0 0;
#X connect 1 0 0 1;
#X connect 3 1 4 0;
#X connect 3 1 1 0;
#X connect 5 0 4 0;
#X connect 6 0 5 0;
