#N canvas -41 27 1436 701 10;
#X obj 545 34 hsl 128 15 0 127 0 1 empty empty empty -2 -6 0 8 -262144
-1 -1 6206 1;
#X obj 962 35 mtof;
#X obj 965 10 hsl 128 15 0 127 0 1 empty empty empty -2 -6 0 8 -262144
-1 -1 6221 1;
#X obj 735 42 hsl 128 15 0 127 0 1 empty empty empty -2 -6 0 8 -262144
-1 -1 6224 1;
#X obj 747 169 expr~ $v1 > 0.5;
#X obj 1004 148 expr~ $v1 > 0.5;
#X obj 732 133 spigot~;
#X obj 794 124 tgl 15 0 empty empty empty 17 7 0 10 -262144 -1 -1 0
1;
#X obj 1078 101 tgl 15 0 empty empty empty 17 7 0 10 -262144 -1 -1
0 1;
#X obj 965 114 spigot~;
#X obj 870 178 noise~;
#X obj 543 94 mtof;
#X obj 732 68 mtof;
#X obj 437 613 outlet~;
#X floatatom 1019 49 5 0 0 0 - - -;
#X obj 961 185 *~ 0.9;
#X obj 966 90 phasor~ 391;
#X obj 374 267 *~;
#X obj 732 200 *~ 1;
#X obj 543 159 *~ 1;
#X obj 732 103 phasor~ 103.8;
#X obj 543 118 osc~ 679.7;
#X obj 870 209 *~ 0.05;
#X floatatom 613 92 5 0 0 0 - - -;
#X floatatom 808 74 5 0 0 0 - - -;
#X obj 166 -55 inlet;
#X obj 1069 478 hsl 128 15 0 128 0 0 empty empty empty -2 -8 0 10 -262144
-1 -1 6350 1;
#X obj 756 368 vcf~ 1;
#X obj 1225 431 loadbang;
#X obj 542 -20 * 1.001;
#X obj 1207 -25 inlet;
#X obj 1024 268 gadsr~;
#X obj 1024 225 r \$0-trigin;
#X obj 1026 587 *~ 5000;
#X obj 1304 165 inlet;
#X obj 732 11 *;
#X obj 962 -14 *;
#X obj 1066 531 mtof;
#X msg 1225 452 64;
#X obj 1352 165 inlet;
#X obj 1390 165 inlet;
#X obj 1428 165 inlet;
#X obj 1466 165 inlet;
#X obj 1504 165 inlet;
#X obj 870 -68 inlet;
#X obj 129 -32 inlet;
#X obj 154 32 s \$0-trigin;
#X obj 131 70 gadsr~;
#X obj 207 -32 inlet;
#X obj 248 -32 inlet;
#X obj 289 -32 inlet;
#X obj 327 -32 inlet;
#X obj 365 -32 inlet;
#X obj 732 -61 inlet;
#X obj 735 -36 hsl 128 15 1 1.008 0 0 empty empty empty -2 -8 0 10
-262144 -1 -1 0 1;
#X obj 732 -12 t b f;
#X obj 962 -38 t b f;
#X floatatom 792 15 5 0 0 0 - - -;
#X obj 962 -62 - 0.0005;
#X connect 0 0 11 0;
#X connect 0 0 23 0;
#X connect 1 0 16 0;
#X connect 2 0 1 0;
#X connect 2 0 14 0;
#X connect 3 0 12 0;
#X connect 3 0 24 0;
#X connect 4 0 18 0;
#X connect 5 0 15 0;
#X connect 6 0 18 0;
#X connect 6 1 4 0;
#X connect 7 0 6 1;
#X connect 8 0 9 1;
#X connect 9 0 15 0;
#X connect 9 1 5 0;
#X connect 10 0 22 0;
#X connect 11 0 21 0;
#X connect 12 0 20 0;
#X connect 15 0 27 0;
#X connect 16 0 9 0;
#X connect 17 0 13 0;
#X connect 18 0 27 0;
#X connect 19 0 27 0;
#X connect 20 0 6 0;
#X connect 21 0 19 0;
#X connect 22 0 27 0;
#X connect 25 0 29 0;
#X connect 26 0 37 0;
#X connect 27 0 17 1;
#X connect 28 0 38 0;
#X connect 29 0 0 0;
#X connect 29 0 35 0;
#X connect 29 0 36 0;
#X connect 30 0 8 0;
#X connect 30 0 7 0;
#X connect 31 0 33 0;
#X connect 32 0 31 0;
#X connect 33 0 27 1;
#X connect 34 0 26 0;
#X connect 35 0 3 0;
#X connect 36 0 2 0;
#X connect 37 0 33 1;
#X connect 38 0 26 0;
#X connect 39 0 31 1;
#X connect 40 0 31 2;
#X connect 41 0 31 3;
#X connect 42 0 31 4;
#X connect 43 0 31 5;
#X connect 44 0 22 1;
#X connect 45 0 46 0;
#X connect 45 0 47 0;
#X connect 47 0 17 0;
#X connect 48 0 47 1;
#X connect 49 0 47 2;
#X connect 50 0 47 3;
#X connect 51 0 47 4;
#X connect 52 0 47 5;
#X connect 53 0 54 0;
#X connect 54 0 55 0;
#X connect 54 0 57 0;
#X connect 54 0 58 0;
#X connect 55 0 35 0;
#X connect 55 1 35 1;
#X connect 56 0 36 0;
#X connect 56 1 36 1;
#X connect 58 0 56 0;
