#N canvas 592 183 450 300 10;
#X obj 86 79 unpack f f;
#X obj 86 123 bang;
#X obj 86 146 outlet;
#X obj 86 101 route \$1;
#X obj 86 57 inlet;
#X text 88 29 turns note-ons into bangs \, routes by note number;
#X connect 0 1 3 0;
#X connect 1 0 2 0;
#X connect 3 0 1 0;
#X connect 4 0 0 0;
