#N canvas 95 470 726 292 10;
#X obj -16 59 video_synth;
#X obj -12 20 ctlin 40;
#X obj 45 20 ctlin 41;
#X obj 102 20 ctlin 42;
#X obj 159 20 ctlin 43;
#X obj 271 19 ctlin 44;
#X obj 329 20 ctlin 45;
#X obj 385 20 ctlin 46;
#X obj 625 13 ctlin 47;
#X obj 452 4 ctlin 32;
#X obj 510 5 ctlin 33;
#X obj 566 5 ctlin 34;
#X obj 608 -18 ctlin 35;
#X connect 1 0 0 0;
#X connect 2 0 0 1;
#X connect 3 0 0 2;
#X connect 4 0 0 3;
#X connect 5 0 0 5;
#X connect 6 0 0 6;
#X connect 7 0 0 7;
#X connect 8 0 0 12;
#X connect 9 0 0 8;
#X connect 10 0 0 9;
#X connect 11 0 0 10;
#X connect 12 0 0 11;
