#N canvas 151 50 1150 814 10;
#X obj 161 469 gemhead;
#X obj 32 441 block~ 4096;
#X obj 289 542 pix_texture;
#N canvas 0 24 450 300 gemwin 0;
#X obj 131 234 gemwin;
#X obj 67 89 outlet;
#X obj 67 10 inlet;
#X msg 67 70 set destroy;
#X msg 202 152 create \, 1;
#X msg 268 152 destroy;
#X msg 156 71 set create+DSP;
#X obj 67 41 route create+DSP;
#X msg 101 261 \; pd dsp 1;
#X obj 202 106 t b b b b;
#X msg 304 221 menubar 0;
#X msg 228 222 border 1;
#X msg 212 185 dimen 1024 768;
#X connect 2 0 7 0;
#X connect 3 0 1 0;
#X connect 4 0 0 0;
#X connect 4 0 12 0;
#X connect 5 0 0 0;
#X connect 6 0 1 0;
#X connect 7 0 3 0;
#X connect 7 0 8 0;
#X connect 7 0 9 0;
#X connect 7 1 6 0;
#X connect 7 1 5 0;
#X connect 9 0 4 0;
#X connect 9 1 12 0;
#X connect 9 2 11 0;
#X connect 9 3 10 0;
#X connect 10 0 0 0;
#X connect 11 0 0 0;
#X connect 12 0 0 0;
#X connect 12 0 11 0;
#X connect 12 0 10 0;
#X restore 135 7 pd gemwin;
#X msg 135 -12 destroy;
#X obj 184 371 osc~ 1;
#X obj 184 390 +~ 1;
#X obj 211 292 noise~;
#X obj 211 315 *~ 0;
#X floatatom 184 353 5 0 0 0 - - -;
#X floatatom 687 288 5 0 0 0 - - -;
#X floatatom 686 386 5 0 0 0 - - -;
#X obj 686 362 /;
#X obj 686 409 pack f f;
#X msg 686 433 dimen \$2 \$1;
#X obj 162 497 r dim0;
#X obj 331 289 osc~ 1;
#X obj 331 308 +~ 1;
#X obj 460 292 phasor~ 700;
#X obj 223 114 vsl 15 128 5e-08 0.5 1 0 empty empty noise -6 -9 0 10
-258113 -1 -1 11195 1;
#X obj 264 114 vsl 15 128 0 1 0 0 empty empty amp 0 -9 0 10 -258113
-1 -1 12700 1;
#X obj 184 115 vsl 15 128 0 1024 0 0 empty empty freq -5 -9 0 10 -258113
-1 -1 2299 1;
#X obj 315 -57 r preset;
#X obj 573 706 s preset;
#X obj 334 115 vsl 15 128 0 1024 0 0 empty empty freq -5 -9 0 10 -4034
-1 -1 2245 1;
#X obj 518 114 vsl 15 128 0 127 0 0 empty empty freq1 -4 -9 0 10 -4160
-1 -1 1600 1;
#X obj 108 -65 loadbang;
#X obj 108 -42 t b b;
#X obj 710 114 vsl 15 128 0 512 0 0 empty empty scale -3 -9 0 10 -228856
-1 -1 5998 1;
#X obj 111 129 bng 20 250 50 0 empty empty 1 6 28 0 10 -260097 -1 -1
;
#X obj 634 114 vsl 15 128 0 1 0 0 empty empty blue_amp -8 -9 0 10 -4160
-1 -1 4788 1;
#X obj 408 115 vsl 15 128 0 64 0 0 empty empty lfo 0 -9 0 10 -4034
-1 -1 3899 1;
#X obj 459 391 *~ 0.5;
#X obj 686 456 s dim0;
#X obj 687 311 t b f f;
#X msg 209 -12 create+DSP;
#X obj 477 414 *~;
#X obj 459 435 +~;
#X obj 335 421 *~;
#X obj 184 414 *~ 0.5;
#X obj 389 371 osc~;
#X obj 445 115 vsl 15 128 0 1 0 0 empty empty mod 0 -9 0 10 -4034 -1
-1 0 1;
#X obj 389 393 *~;
#X obj 372 114 vsl 15 128 0 1 0 0 empty empty amp 0 -9 0 10 -4034 -1
-1 3594 1;
#X obj 377 344 sig~;
#X obj 558 114 vsl 15 128 0 127 0 0 empty empty freq2 -4 -9 0 10 -4160
-1 -1 2800 1;
#X obj 597 114 vsl 15 128 0 1 0 0 empty empty mod 0 -9 0 10 -4160 -1
-1 8090 1;
#X obj 537 291 phasor~;
#X obj 459 369 +~;
#X obj 479 346 *~;
#X msg 590 537 118 0 1 181 0.5 0 0 16 0 0 1 358.8;
#X obj 316 -31 unpack f f f f f f f f f f f f;
#X floatatom 199 255 5 0 0 0 - - -;
#X floatatom 237 255 5 0 0 0 - - -;
#X floatatom 277 255 5 0 0 0 - - -;
#X floatatom 344 256 5 0 0 0 - - -;
#X floatatom 382 256 5 0 0 0 - - -;
#X floatatom 417 256 5 0 0 0 - - -;
#X floatatom 455 256 5 0 0 0 - - -;
#X floatatom 529 254 5 0 0 0 - - -;
#X floatatom 569 255 5 0 0 0 - - -;
#X floatatom 608 255 5 0 0 0 - - -;
#X floatatom 645 255 5 0 0 0 - - -;
#X floatatom 711 257 5 0 0 0 - - -;
#X msg 576 561 806.2 0.004 0 181 0.133 0 0 87 53 0.834 1 358.8;
#X obj 150 129 bng 20 250 50 0 empty empty 2 6 28 0 10 -260097 -1 -1
;
#X msg 561 585 806.2 0.025 0.354 258 0 33.07 0.062 0 14 0.834 0.165
290.2;
#X obj 111 170 bng 20 250 50 0 empty empty 3 6 28 0 10 -260097 -1 -1
;
#X obj 4 253 s setting;
#X msg 4 163 1;
#X msg 14 173 2;
#X msg 24 183 3;
#X msg 34 193 4;
#X msg 44 203 5;
#X msg 54 213 6;
#X obj 150 170 bng 20 250 50 0 empty empty 4 6 28 0 10 -260097 -1 -1
;
#X obj 113 209 bng 20 250 50 0 empty empty 5 6 28 0 10 -260097 -1 -1
;
#X obj 150 209 bng 20 250 50 0 empty empty 6 6 28 0 10 -260097 -1 -1
;
#X obj 518 458 r setting;
#X obj 518 489 sel 6 5 4 3 2 1;
#X msg 547 610 733.7 0.024 0.015 314.4 0 33.07 0.061 0 14 0.834 0.535
56.44;
#X msg 532 633 733.7 0.024 0 314.4 0 33.07 0.061 0 14 0.834 1 0;
#X msg 518 657 279.2 0 0.204 181 0.5 44.48 0.527 16 28 0.637 0 358.8
;
#X obj 386 539 inlet;
#X obj 289 567 square 4;
#X obj 541 -27 ctlin;
#X floatatom 554 1 5 0 0 0 - - -;
#X obj 184 66 * 8;
#X obj 240 45 / 128;
#X obj 239 73 / 2;
#X obj 296 45 / 128;
#X obj 351 44 * 8;
#X obj 399 45 / 128;
#X obj 449 44 / 2;
#X obj 497 43 / 128;
#X obj 613 72 / 128;
#X obj 663 72 / 128;
#X obj 721 68 * 5;
#X obj 289 518 pix_sig2pix~ 64 64;
#X msg 687 339 4096;
#X obj 184 43 inlet;
#X obj 240 23 inlet;
#X obj 296 23 inlet;
#X obj 351 23 inlet;
#X obj 399 23 inlet;
#X obj 449 23 inlet;
#X obj 497 23 inlet;
#X obj 611 41 inlet;
#X obj 659 42 inlet;
#X obj 712 43 inlet;
#X obj 514 71 inlet;
#X obj 561 74 inlet;
#X msg 818 360 56.44 0 0.984 129 1 33.06 0 0 14 0.779 0.276 0;
#X text 860 334 lucy 1;
#X msg 800 434 185.4 0.074 1 181 0.283 19.65 0 16 28 0.637 0.377 241.8
;
#X connect 0 0 98 0;
#X connect 2 0 84 0;
#X connect 3 0 4 0;
#X connect 4 0 3 0;
#X connect 5 0 6 0;
#X connect 6 0 39 0;
#X connect 7 0 8 0;
#X connect 8 0 98 0;
#X connect 9 0 5 0;
#X connect 10 0 34 0;
#X connect 11 0 13 0;
#X connect 12 0 11 0;
#X connect 13 0 14 0;
#X connect 14 0 33 0;
#X connect 15 0 98 0;
#X connect 16 0 17 0;
#X connect 17 0 38 0;
#X connect 18 0 48 0;
#X connect 19 0 8 1;
#X connect 19 0 53 0;
#X connect 20 0 39 1;
#X connect 20 0 54 0;
#X connect 21 0 9 0;
#X connect 21 0 52 0;
#X connect 22 0 51 0;
#X connect 24 0 16 0;
#X connect 24 0 55 0;
#X connect 25 0 18 0;
#X connect 25 0 59 0;
#X connect 26 0 27 0;
#X connect 27 0 29 0;
#X connect 27 1 4 0;
#X connect 28 0 10 0;
#X connect 28 0 63 0;
#X connect 29 0 35 0;
#X connect 29 0 69 0;
#X connect 30 0 32 1;
#X connect 30 0 62 0;
#X connect 31 0 40 0;
#X connect 31 0 57 0;
#X connect 32 0 37 0;
#X connect 34 0 99 0;
#X connect 34 1 12 1;
#X connect 34 2 13 1;
#X connect 35 0 3 0;
#X connect 36 0 37 1;
#X connect 37 0 98 2;
#X connect 38 0 98 1;
#X connect 39 0 98 0;
#X connect 40 0 42 0;
#X connect 41 0 42 1;
#X connect 41 0 58 0;
#X connect 42 0 38 1;
#X connect 43 0 44 0;
#X connect 43 0 56 0;
#X connect 44 0 38 1;
#X connect 45 0 47 0;
#X connect 45 0 60 0;
#X connect 46 0 49 1;
#X connect 46 0 61 0;
#X connect 47 0 49 0;
#X connect 48 0 32 0;
#X connect 49 0 48 1;
#X connect 50 0 23 0;
#X connect 51 0 21 0;
#X connect 51 1 19 0;
#X connect 51 2 20 0;
#X connect 51 3 24 0;
#X connect 51 4 43 0;
#X connect 51 5 31 0;
#X connect 51 6 41 0;
#X connect 51 7 25 0;
#X connect 51 8 45 0;
#X connect 51 9 46 0;
#X connect 51 10 30 0;
#X connect 51 11 28 0;
#X connect 64 0 23 0;
#X connect 65 0 70 0;
#X connect 66 0 23 0;
#X connect 67 0 71 0;
#X connect 69 0 68 0;
#X connect 70 0 68 0;
#X connect 71 0 68 0;
#X connect 72 0 68 0;
#X connect 73 0 68 0;
#X connect 74 0 68 0;
#X connect 75 0 72 0;
#X connect 76 0 73 0;
#X connect 77 0 74 0;
#X connect 78 0 79 0;
#X connect 79 0 82 0;
#X connect 79 1 81 0;
#X connect 79 2 80 0;
#X connect 79 3 66 0;
#X connect 79 4 64 0;
#X connect 79 5 50 0;
#X connect 80 0 23 0;
#X connect 81 0 23 0;
#X connect 82 0 23 0;
#X connect 83 0 84 1;
#X connect 85 1 86 0;
#X connect 87 0 21 0;
#X connect 88 0 89 0;
#X connect 89 0 19 0;
#X connect 90 0 20 0;
#X connect 91 0 24 0;
#X connect 92 0 43 0;
#X connect 93 0 31 0;
#X connect 94 0 41 0;
#X connect 95 0 46 0;
#X connect 96 0 30 0;
#X connect 97 0 28 0;
#X connect 98 0 2 0;
#X connect 99 0 12 0;
#X connect 100 0 87 0;
#X connect 101 0 88 0;
#X connect 102 0 90 0;
#X connect 103 0 91 0;
#X connect 104 0 92 0;
#X connect 105 0 93 0;
#X connect 106 0 94 0;
#X connect 107 0 95 0;
#X connect 108 0 96 0;
#X connect 109 0 97 0;
#X connect 110 0 25 0;
#X connect 111 0 45 0;
#X connect 112 0 23 0;
#X connect 114 0 23 0;
#X coords 0 -1 1 1 650 150 1 100 100;
