#N canvas 465 15 684 714 10;
#X obj 8 545 list append;
#X obj 8 571 list append;
#X obj 50 269 list-find;
#X obj 16 348 list-delete;
#X obj 82 200 list append;
#X obj 16 320 list append;
#X obj 50 295 t b f;
#X obj 82 228 t a a;
#X obj 50 172 t f b;
#X obj 25 477 t b b;
#X obj 25 448 bng 15 250 50 0 empty empty empty 17 7 0 10 -262144 -1
-1;
#X text 43 447 clear;
#X obj 8 624 s \$0-list;
#X obj 82 511 r \$0-list;
#X obj 16 369 s \$0-list;
#X obj 156 178 r \$0-list;
#X obj 8 10 inlet;
#X obj 93 102 bang;
#X obj 93 133 list append;
#X obj 167 111 r \$0-list;
#X obj 93 156 outlet;
#X obj 8 33 route add remove bang set clear;
#X obj 179 54 s \$0-clear;
#X obj 25 423 r \$0-clear;
#X obj 136 77 s \$0-list;
#X text 301 8 bang gives you the list;
#X text 298 24 |add value( adds a value to the list;
#X text 298 39 |remove value( removes the value from the list;
#X text 298 54 |clear( clears the list;
#X text 298 68 |set value value.. ( sets the value of the list;
#X obj 8 597 list-unique;
#X connect 0 0 1 0;
#X connect 1 0 30 0;
#X connect 2 0 6 0;
#X connect 3 0 14 0;
#X connect 4 0 7 0;
#X connect 5 0 3 0;
#X connect 6 0 5 0;
#X connect 6 1 3 1;
#X connect 7 0 2 1;
#X connect 7 1 5 1;
#X connect 8 0 2 0;
#X connect 8 1 4 0;
#X connect 9 0 0 0;
#X connect 9 1 0 1;
#X connect 10 0 9 0;
#X connect 13 0 0 1;
#X connect 15 0 4 1;
#X connect 16 0 21 0;
#X connect 17 0 18 0;
#X connect 18 0 20 0;
#X connect 19 0 18 1;
#X connect 21 0 0 0;
#X connect 21 1 8 0;
#X connect 21 2 17 0;
#X connect 21 3 24 0;
#X connect 21 4 22 0;
#X connect 23 0 10 0;
#X connect 30 0 12 0;
